G04 #@! TF.GenerationSoftware,KiCad,Pcbnew,(5.99.0-1105-g741783c6d)*
G04 #@! TF.CreationDate,2020-03-14T19:36:21+02:00*
G04 #@! TF.ProjectId,3pdt-basic,33706474-2d62-4617-9369-632e6b696361,rev?*
G04 #@! TF.SameCoordinates,Original*
G04 #@! TF.FileFunction,Copper,L1,Top*
G04 #@! TF.FilePolarity,Positive*
%FSLAX46Y46*%
G04 Gerber Fmt 4.6, Leading zero omitted, Abs format (unit mm)*
G04 Created by KiCad (PCBNEW (5.99.0-1105-g741783c6d)) date 2020-03-14 19:36:21*
%MOMM*%
%LPD*%
G01*
G04 APERTURE LIST*
G04 #@! TA.AperFunction,ComponentPad*
%ADD10C,1.800000*%
G04 #@! TD*
G04 #@! TA.AperFunction,ComponentPad*
%ADD11R,1.800000X1.800000*%
G04 #@! TD*
G04 #@! TA.AperFunction,ComponentPad*
%ADD12O,3.816000X3.816000*%
G04 #@! TD*
G04 #@! TA.AperFunction,ComponentPad*
%ADD13R,3.816000X3.816000*%
G04 #@! TD*
G04 #@! TA.AperFunction,ComponentPad*
%ADD14O,1.930400X1.930400*%
G04 #@! TD*
G04 #@! TA.AperFunction,ComponentPad*
%ADD15R,1.930400X1.930400*%
G04 #@! TD*
G04 #@! TA.AperFunction,ComponentPad*
%ADD16O,1.600000X1.600000*%
G04 #@! TD*
G04 #@! TA.AperFunction,ComponentPad*
%ADD17C,1.600000*%
G04 #@! TD*
G04 #@! TA.AperFunction,Conductor*
%ADD18C,0.381000*%
G04 #@! TD*
G04 #@! TA.AperFunction,Conductor*
%ADD19C,0.508000*%
G04 #@! TD*
G04 #@! TA.AperFunction,Conductor*
%ADD20C,0.254000*%
G04 #@! TD*
G04 APERTURE END LIST*
D10*
X156921200Y-83820000D03*
D11*
X154381200Y-83820000D03*
D12*
X153026400Y-99340400D03*
X153026400Y-94640400D03*
X153026400Y-89940400D03*
X147726400Y-99340400D03*
X147726400Y-94640400D03*
X147726400Y-89940400D03*
X142426400Y-99340400D03*
X142426400Y-94640400D03*
D13*
X142426400Y-89940400D03*
D14*
X137109200Y-96215200D03*
D15*
X137109200Y-98755200D03*
D14*
X140360400Y-83718400D03*
D15*
X137820400Y-83718400D03*
D14*
X151536400Y-83718400D03*
X148996400Y-83718400D03*
X146456400Y-83718400D03*
D15*
X143916400Y-83718400D03*
D16*
X158546800Y-100380800D03*
D17*
X158546800Y-97840800D03*
D10*
X158394400Y-92608400D03*
D11*
X158394400Y-95148400D03*
D15*
X137058400Y-90805000D03*
D14*
X137058400Y-88265000D03*
D15*
X158292800Y-88900000D03*
D14*
X158292800Y-86360000D03*
D18*
X137109200Y-98755200D02*
X139141200Y-96723200D01*
X139141200Y-96723200D02*
X139141200Y-85039200D01*
X139141200Y-85039200D02*
X137820400Y-83718400D01*
X147726400Y-94640400D02*
X145084800Y-91998800D01*
X145084800Y-91998800D02*
X145084800Y-87630000D01*
X145084800Y-87630000D02*
X148996400Y-83718400D01*
X158394400Y-92608400D02*
X155905200Y-90119200D01*
X155905200Y-90119200D02*
X155905200Y-84836000D01*
X155905200Y-84836000D02*
X156921200Y-83820000D01*
X158394400Y-94843600D02*
X156299099Y-96938901D01*
X156299099Y-96938901D02*
X150024901Y-96938901D01*
X150024901Y-96938901D02*
X147726400Y-94640400D01*
D19*
X142426400Y-99340400D02*
X144788401Y-101702401D01*
X144788401Y-101702401D02*
X150664399Y-101702401D01*
X150664399Y-101702401D02*
X153026400Y-99340400D01*
X151536400Y-83718400D02*
X151536400Y-88450400D01*
X151536400Y-88450400D02*
X153026400Y-89940400D01*
X142426400Y-89940400D02*
X142426400Y-85208400D01*
X142426400Y-85208400D02*
X143916400Y-83718400D01*
G36*
X142567437Y-82734690D02*
G01*
X142566224Y-82747010D01*
X142566224Y-84169138D01*
X141996315Y-84739047D01*
X141940256Y-84786086D01*
X141926085Y-84802975D01*
X141889499Y-84866343D01*
X141847517Y-84926299D01*
X141838199Y-84946283D01*
X141833743Y-84962915D01*
X141825135Y-84977824D01*
X141817594Y-84998542D01*
X141804885Y-85070616D01*
X141785945Y-85141303D01*
X141784024Y-85163265D01*
X141790401Y-85236166D01*
X141790400Y-87647424D01*
X140512210Y-87647424D01*
X140499890Y-87648637D01*
X140382542Y-87671979D01*
X140359611Y-87681477D01*
X140254956Y-87751405D01*
X140237405Y-87768956D01*
X140167477Y-87873611D01*
X140157979Y-87896542D01*
X140134637Y-88013890D01*
X140133424Y-88026210D01*
X140133424Y-91854590D01*
X140134637Y-91866910D01*
X140157979Y-91984258D01*
X140167477Y-92007189D01*
X140237405Y-92111844D01*
X140254956Y-92129395D01*
X140359611Y-92199323D01*
X140382542Y-92208821D01*
X140499890Y-92232163D01*
X140512210Y-92233376D01*
X144340590Y-92233376D01*
X144352910Y-92232163D01*
X144470258Y-92208821D01*
X144493189Y-92199323D01*
X144534017Y-92172043D01*
X144536584Y-92186601D01*
X144544124Y-92207316D01*
X144551317Y-92219777D01*
X144555041Y-92233671D01*
X144564357Y-92253650D01*
X144601493Y-92306686D01*
X144633877Y-92362778D01*
X144648049Y-92379668D01*
X144697669Y-92421304D01*
X145754742Y-93478377D01*
X145701888Y-93563622D01*
X145697873Y-93571204D01*
X145574483Y-93848342D01*
X145571535Y-93856399D01*
X145486898Y-94147719D01*
X145485070Y-94156102D01*
X145440754Y-94456212D01*
X145440081Y-94464766D01*
X145436904Y-94768114D01*
X145437398Y-94776680D01*
X145475420Y-95077653D01*
X145477072Y-95086072D01*
X145555589Y-95379101D01*
X145558368Y-95387218D01*
X145675927Y-95666879D01*
X145679782Y-95674544D01*
X145834207Y-95935663D01*
X145839067Y-95942734D01*
X146027501Y-96180479D01*
X146033276Y-96186824D01*
X146252232Y-96396797D01*
X146258814Y-96402301D01*
X146504242Y-96580614D01*
X146511510Y-96585173D01*
X146778866Y-96728528D01*
X146786686Y-96732059D01*
X147071025Y-96837804D01*
X147079251Y-96840241D01*
X147375310Y-96906418D01*
X147383792Y-96907716D01*
X147686092Y-96933101D01*
X147694671Y-96933236D01*
X147997621Y-96917359D01*
X148006139Y-96916328D01*
X148304130Y-96859483D01*
X148312429Y-96857306D01*
X148599950Y-96760544D01*
X148607877Y-96757261D01*
X148879604Y-96622374D01*
X148887011Y-96618046D01*
X148891416Y-96615052D01*
X149602404Y-97326040D01*
X149644033Y-97375652D01*
X149660922Y-97389823D01*
X149717007Y-97422204D01*
X149770050Y-97459344D01*
X149790030Y-97468661D01*
X149803925Y-97472384D01*
X149816382Y-97479576D01*
X149837098Y-97487116D01*
X149900866Y-97498361D01*
X149963422Y-97515123D01*
X149985385Y-97517044D01*
X150049891Y-97511401D01*
X151648912Y-97511401D01*
X151596034Y-97548152D01*
X151589338Y-97553516D01*
X151366033Y-97758857D01*
X151360127Y-97765080D01*
X151166755Y-97998826D01*
X151161748Y-98005794D01*
X151001888Y-98263622D01*
X150997873Y-98271204D01*
X150874483Y-98548342D01*
X150871535Y-98556399D01*
X150786898Y-98847719D01*
X150785070Y-98856102D01*
X150740754Y-99156212D01*
X150740081Y-99164766D01*
X150736904Y-99468114D01*
X150737398Y-99476680D01*
X150775420Y-99777653D01*
X150777072Y-99786072D01*
X150855589Y-100079101D01*
X150858368Y-100087218D01*
X150975927Y-100366879D01*
X150979782Y-100374544D01*
X151021788Y-100445572D01*
X150400960Y-101066401D01*
X149228892Y-101066401D01*
X149370114Y-100939245D01*
X149376085Y-100933083D01*
X149571895Y-100701374D01*
X149576975Y-100694459D01*
X149739526Y-100438319D01*
X149743620Y-100430779D01*
X149869905Y-100154949D01*
X149872937Y-100146923D01*
X149960619Y-99856505D01*
X149962535Y-99848142D01*
X150010043Y-99548186D01*
X150010817Y-99538977D01*
X150014474Y-99189706D01*
X150013894Y-99180484D01*
X149972678Y-98879600D01*
X149970938Y-98871198D01*
X149889357Y-98579008D01*
X149886493Y-98570921D01*
X149766012Y-98292505D01*
X149762077Y-98284881D01*
X149604926Y-98025393D01*
X149599992Y-98018374D01*
X149409079Y-97782615D01*
X149403238Y-97776330D01*
X149182095Y-97568662D01*
X149175455Y-97563228D01*
X148928174Y-97387494D01*
X148920858Y-97383011D01*
X148652014Y-97242463D01*
X148644158Y-97239014D01*
X148358729Y-97136254D01*
X148350477Y-97133903D01*
X148053741Y-97070829D01*
X148045246Y-97069621D01*
X147742697Y-97047403D01*
X147734117Y-97047358D01*
X147431350Y-97066406D01*
X147422843Y-97067526D01*
X147125464Y-97127489D01*
X147117188Y-97129753D01*
X146830697Y-97229519D01*
X146822804Y-97232886D01*
X146552505Y-97370611D01*
X146545143Y-97375017D01*
X146296034Y-97548152D01*
X146289338Y-97553516D01*
X146066033Y-97758857D01*
X146060127Y-97765080D01*
X145866755Y-97998826D01*
X145861748Y-98005794D01*
X145701888Y-98263622D01*
X145697873Y-98271204D01*
X145574483Y-98548342D01*
X145571535Y-98556399D01*
X145486898Y-98847719D01*
X145485070Y-98856102D01*
X145440754Y-99156212D01*
X145440081Y-99164766D01*
X145436904Y-99468114D01*
X145437398Y-99476680D01*
X145475420Y-99777653D01*
X145477072Y-99786072D01*
X145555589Y-100079101D01*
X145558368Y-100087218D01*
X145675927Y-100366879D01*
X145679782Y-100374544D01*
X145834207Y-100635663D01*
X145839067Y-100642734D01*
X146027501Y-100880479D01*
X146033276Y-100886824D01*
X146220536Y-101066401D01*
X145051841Y-101066401D01*
X144433404Y-100447965D01*
X144439526Y-100438319D01*
X144443620Y-100430779D01*
X144569905Y-100154949D01*
X144572937Y-100146923D01*
X144660619Y-99856505D01*
X144662535Y-99848142D01*
X144710043Y-99548186D01*
X144710817Y-99538977D01*
X144714474Y-99189706D01*
X144713894Y-99180484D01*
X144672678Y-98879600D01*
X144670938Y-98871198D01*
X144589357Y-98579008D01*
X144586493Y-98570921D01*
X144466012Y-98292505D01*
X144462077Y-98284881D01*
X144304926Y-98025393D01*
X144299992Y-98018374D01*
X144109079Y-97782615D01*
X144103238Y-97776330D01*
X143882095Y-97568662D01*
X143875455Y-97563228D01*
X143628174Y-97387494D01*
X143620858Y-97383011D01*
X143352014Y-97242463D01*
X143344158Y-97239014D01*
X143058729Y-97136254D01*
X143050477Y-97133903D01*
X142753741Y-97070829D01*
X142745246Y-97069621D01*
X142442697Y-97047403D01*
X142434117Y-97047358D01*
X142131350Y-97066406D01*
X142122843Y-97067526D01*
X141825464Y-97127489D01*
X141817188Y-97129753D01*
X141530697Y-97229519D01*
X141522804Y-97232886D01*
X141252505Y-97370611D01*
X141245143Y-97375017D01*
X140996034Y-97548152D01*
X140989338Y-97553516D01*
X140766033Y-97758857D01*
X140760127Y-97765080D01*
X140566755Y-97998826D01*
X140561748Y-98005794D01*
X140401888Y-98263622D01*
X140397873Y-98271204D01*
X140274483Y-98548342D01*
X140271535Y-98556399D01*
X140186898Y-98847719D01*
X140185070Y-98856102D01*
X140140754Y-99156212D01*
X140140081Y-99164766D01*
X140136904Y-99468114D01*
X140137398Y-99476680D01*
X140175420Y-99777653D01*
X140177072Y-99786072D01*
X140255589Y-100079101D01*
X140258368Y-100087218D01*
X140375927Y-100366879D01*
X140379782Y-100374544D01*
X140534207Y-100635663D01*
X140539067Y-100642734D01*
X140727501Y-100880479D01*
X140733276Y-100886824D01*
X140952232Y-101096797D01*
X140958814Y-101102301D01*
X141204242Y-101280614D01*
X141211510Y-101285173D01*
X141478866Y-101428528D01*
X141486686Y-101432059D01*
X141771025Y-101537804D01*
X141779251Y-101540241D01*
X142075310Y-101606418D01*
X142083792Y-101607716D01*
X142386092Y-101633101D01*
X142394671Y-101633236D01*
X142697621Y-101617359D01*
X142706139Y-101616328D01*
X143004130Y-101559483D01*
X143012429Y-101557306D01*
X143299950Y-101460544D01*
X143307877Y-101457261D01*
X143532378Y-101345817D01*
X144319048Y-102132487D01*
X144366087Y-102188546D01*
X144382976Y-102202717D01*
X144446351Y-102239308D01*
X144506299Y-102281284D01*
X144526282Y-102290602D01*
X144542915Y-102295059D01*
X144557826Y-102303668D01*
X144578544Y-102311208D01*
X144650614Y-102323917D01*
X144721302Y-102342857D01*
X144743265Y-102344778D01*
X144816163Y-102338401D01*
X150636648Y-102338401D01*
X150709534Y-102344777D01*
X150731496Y-102342856D01*
X150802172Y-102323919D01*
X150874256Y-102311209D01*
X150894972Y-102303668D01*
X150909887Y-102295058D01*
X150926519Y-102290601D01*
X150946500Y-102281284D01*
X151006444Y-102239311D01*
X151069824Y-102202717D01*
X151086713Y-102188546D01*
X151133752Y-102132487D01*
X151921885Y-101344355D01*
X152078866Y-101428528D01*
X152086686Y-101432059D01*
X152371025Y-101537804D01*
X152379251Y-101540241D01*
X152675310Y-101606418D01*
X152683792Y-101607716D01*
X152986092Y-101633101D01*
X152994671Y-101633236D01*
X153297621Y-101617359D01*
X153306139Y-101616328D01*
X153604130Y-101559483D01*
X153612429Y-101557306D01*
X153899950Y-101460544D01*
X153907877Y-101457261D01*
X154179604Y-101322374D01*
X154187011Y-101318045D01*
X154437919Y-101147529D01*
X154444670Y-101142235D01*
X154670114Y-100939245D01*
X154676085Y-100933083D01*
X154871895Y-100701374D01*
X154876975Y-100694459D01*
X155039526Y-100438319D01*
X155043620Y-100430779D01*
X155169905Y-100154949D01*
X155172937Y-100146923D01*
X155260619Y-99856505D01*
X155262535Y-99848142D01*
X155310043Y-99548186D01*
X155310817Y-99538977D01*
X155314474Y-99189706D01*
X155313894Y-99180484D01*
X155272678Y-98879600D01*
X155270938Y-98871198D01*
X155189357Y-98579008D01*
X155186493Y-98570921D01*
X155066012Y-98292505D01*
X155062077Y-98284881D01*
X154904926Y-98025393D01*
X154899992Y-98018374D01*
X154709079Y-97782615D01*
X154703238Y-97776330D01*
X154482095Y-97568662D01*
X154475455Y-97563228D01*
X154402528Y-97511401D01*
X156274108Y-97511401D01*
X156338614Y-97517044D01*
X156360578Y-97515123D01*
X156423124Y-97498362D01*
X156486902Y-97487117D01*
X156507620Y-97479576D01*
X156520077Y-97472384D01*
X156533967Y-97468662D01*
X156553949Y-97459344D01*
X156606981Y-97422211D01*
X156663077Y-97389824D01*
X156679967Y-97375652D01*
X156721603Y-97326032D01*
X157614259Y-96433376D01*
X159300590Y-96433376D01*
X159312910Y-96432163D01*
X159430258Y-96408821D01*
X159453189Y-96399323D01*
X159557844Y-96329395D01*
X159575395Y-96311844D01*
X159640001Y-96215154D01*
X159640001Y-97396447D01*
X159596074Y-97289871D01*
X159590287Y-97278989D01*
X159469081Y-97096558D01*
X159461291Y-97087007D01*
X159306959Y-96931593D01*
X159297462Y-96923737D01*
X159115882Y-96801260D01*
X159105041Y-96795398D01*
X158903130Y-96710523D01*
X158891356Y-96706879D01*
X158676805Y-96662837D01*
X158664548Y-96661549D01*
X158445528Y-96660020D01*
X158433254Y-96661137D01*
X158218109Y-96702179D01*
X158206285Y-96705658D01*
X158003210Y-96787706D01*
X157992288Y-96793416D01*
X157809016Y-96913346D01*
X157799411Y-96921069D01*
X157642923Y-97074312D01*
X157635000Y-97083753D01*
X157511258Y-97264474D01*
X157505320Y-97275274D01*
X157419038Y-97476588D01*
X157415312Y-97488335D01*
X157369773Y-97702574D01*
X157368399Y-97714822D01*
X157365341Y-97933826D01*
X157366373Y-97946108D01*
X157405912Y-98161534D01*
X157409309Y-98173381D01*
X157489937Y-98377025D01*
X157495570Y-98387987D01*
X157614218Y-98572092D01*
X157621874Y-98581751D01*
X157774021Y-98739304D01*
X157783407Y-98747292D01*
X157963258Y-98872293D01*
X157974017Y-98878306D01*
X158174723Y-98965992D01*
X158186445Y-98969800D01*
X158400360Y-99016833D01*
X158412598Y-99018292D01*
X158631575Y-99022879D01*
X158643864Y-99021934D01*
X158859561Y-98983901D01*
X158871432Y-98980586D01*
X159075634Y-98901381D01*
X159086635Y-98895824D01*
X159271563Y-98778464D01*
X159281275Y-98770877D01*
X159439888Y-98619833D01*
X159447941Y-98610503D01*
X159574194Y-98431528D01*
X159580281Y-98420812D01*
X159640001Y-98286680D01*
X159640001Y-99936447D01*
X159596074Y-99829871D01*
X159590287Y-99818989D01*
X159469081Y-99636558D01*
X159461291Y-99627007D01*
X159306959Y-99471593D01*
X159297462Y-99463737D01*
X159115882Y-99341260D01*
X159105041Y-99335398D01*
X158903130Y-99250523D01*
X158891356Y-99246879D01*
X158676805Y-99202837D01*
X158664548Y-99201549D01*
X158445528Y-99200020D01*
X158433254Y-99201137D01*
X158218109Y-99242179D01*
X158206285Y-99245658D01*
X158003210Y-99327706D01*
X157992288Y-99333416D01*
X157809016Y-99453346D01*
X157799411Y-99461069D01*
X157642923Y-99614312D01*
X157635000Y-99623753D01*
X157511258Y-99804474D01*
X157505320Y-99815274D01*
X157419038Y-100016588D01*
X157415312Y-100028335D01*
X157369773Y-100242574D01*
X157368399Y-100254822D01*
X157365341Y-100473826D01*
X157366373Y-100486108D01*
X157405912Y-100701534D01*
X157409309Y-100713381D01*
X157489937Y-100917025D01*
X157495570Y-100927987D01*
X157614218Y-101112092D01*
X157621874Y-101121751D01*
X157774021Y-101279304D01*
X157783407Y-101287292D01*
X157963258Y-101412293D01*
X157974017Y-101418306D01*
X158174723Y-101505992D01*
X158186445Y-101509800D01*
X158400360Y-101556833D01*
X158412598Y-101558292D01*
X158631575Y-101562879D01*
X158643864Y-101561934D01*
X158859561Y-101523901D01*
X158871432Y-101520586D01*
X159028284Y-101459747D01*
X156887749Y-103201200D01*
X138523421Y-103201200D01*
X136066800Y-101022688D01*
X136066800Y-100092489D01*
X136125490Y-100104163D01*
X136137810Y-100105376D01*
X138080590Y-100105376D01*
X138092910Y-100104163D01*
X138210258Y-100080821D01*
X138233189Y-100071323D01*
X138337844Y-100001395D01*
X138355395Y-99983844D01*
X138425323Y-99879189D01*
X138434821Y-99856258D01*
X138458163Y-99738910D01*
X138459376Y-99726590D01*
X138459376Y-98214659D01*
X139528346Y-97145690D01*
X139577950Y-97104068D01*
X139592122Y-97087179D01*
X139624503Y-97031094D01*
X139661643Y-96978051D01*
X139670960Y-96958071D01*
X139674683Y-96944176D01*
X139681875Y-96931719D01*
X139689415Y-96911003D01*
X139700660Y-96847235D01*
X139717422Y-96784679D01*
X139719343Y-96762716D01*
X139713700Y-96698210D01*
X139713700Y-94768114D01*
X140136904Y-94768114D01*
X140137398Y-94776680D01*
X140175420Y-95077653D01*
X140177072Y-95086072D01*
X140255589Y-95379101D01*
X140258368Y-95387218D01*
X140375927Y-95666879D01*
X140379782Y-95674544D01*
X140534207Y-95935663D01*
X140539067Y-95942734D01*
X140727501Y-96180479D01*
X140733276Y-96186824D01*
X140952232Y-96396797D01*
X140958814Y-96402301D01*
X141204242Y-96580614D01*
X141211510Y-96585173D01*
X141478866Y-96728528D01*
X141486686Y-96732059D01*
X141771025Y-96837804D01*
X141779251Y-96840241D01*
X142075310Y-96906418D01*
X142083792Y-96907716D01*
X142386092Y-96933101D01*
X142394671Y-96933236D01*
X142697621Y-96917359D01*
X142706139Y-96916328D01*
X143004130Y-96859483D01*
X143012429Y-96857306D01*
X143299950Y-96760544D01*
X143307877Y-96757261D01*
X143579604Y-96622374D01*
X143587011Y-96618045D01*
X143837919Y-96447529D01*
X143844670Y-96442235D01*
X144070114Y-96239245D01*
X144076085Y-96233083D01*
X144271895Y-96001374D01*
X144276975Y-95994459D01*
X144439526Y-95738319D01*
X144443620Y-95730779D01*
X144569905Y-95454949D01*
X144572937Y-95446923D01*
X144660619Y-95156505D01*
X144662535Y-95148142D01*
X144710043Y-94848186D01*
X144710817Y-94838977D01*
X144714474Y-94489706D01*
X144713894Y-94480484D01*
X144672678Y-94179600D01*
X144670938Y-94171198D01*
X144589357Y-93879008D01*
X144586493Y-93870921D01*
X144466012Y-93592505D01*
X144462077Y-93584881D01*
X144304926Y-93325393D01*
X144299992Y-93318374D01*
X144109079Y-93082615D01*
X144103238Y-93076330D01*
X143882095Y-92868662D01*
X143875455Y-92863228D01*
X143628174Y-92687494D01*
X143620858Y-92683011D01*
X143352014Y-92542463D01*
X143344158Y-92539014D01*
X143058729Y-92436254D01*
X143050477Y-92433903D01*
X142753741Y-92370829D01*
X142745246Y-92369621D01*
X142442697Y-92347403D01*
X142434117Y-92347358D01*
X142131350Y-92366406D01*
X142122843Y-92367526D01*
X141825464Y-92427489D01*
X141817188Y-92429753D01*
X141530697Y-92529519D01*
X141522804Y-92532886D01*
X141252505Y-92670611D01*
X141245143Y-92675017D01*
X140996034Y-92848152D01*
X140989338Y-92853516D01*
X140766033Y-93058857D01*
X140760127Y-93065080D01*
X140566755Y-93298826D01*
X140561748Y-93305794D01*
X140401888Y-93563622D01*
X140397873Y-93571204D01*
X140274483Y-93848342D01*
X140271535Y-93856399D01*
X140186898Y-94147719D01*
X140185070Y-94156102D01*
X140140754Y-94456212D01*
X140140081Y-94464766D01*
X140136904Y-94768114D01*
X139713700Y-94768114D01*
X139713700Y-85181917D01*
X139783273Y-85215251D01*
X139792935Y-85218940D01*
X140035498Y-85289412D01*
X140045632Y-85291473D01*
X140147709Y-85303646D01*
X140232400Y-85228454D01*
X140232400Y-83920209D01*
X140488400Y-83920209D01*
X140488400Y-85230701D01*
X140581812Y-85306344D01*
X140816445Y-85256470D01*
X140826350Y-85253499D01*
X141061528Y-85161333D01*
X141070815Y-85156784D01*
X141287782Y-85027446D01*
X141296201Y-85021441D01*
X141489130Y-84858403D01*
X141496455Y-84851103D01*
X141660166Y-84658744D01*
X141666201Y-84650346D01*
X141796295Y-84433831D01*
X141800877Y-84424561D01*
X141893863Y-84189706D01*
X141896870Y-84179811D01*
X141948685Y-83940153D01*
X141873036Y-83846400D01*
X140562209Y-83846400D01*
X140488400Y-83920209D01*
X140232400Y-83920209D01*
X140232400Y-83590400D01*
X141870034Y-83590400D01*
X141945519Y-83501391D01*
X141917574Y-83332596D01*
X141915055Y-83322566D01*
X141833653Y-83083450D01*
X141829530Y-83073966D01*
X141710167Y-82851355D01*
X141704549Y-82842671D01*
X141615316Y-82726800D01*
X142569006Y-82726800D01*
X142567437Y-82734690D01*
G37*
D20*
X142567437Y-82734690D02*
X142566224Y-82747010D01*
X142566224Y-84169138D01*
X141996315Y-84739047D01*
X141940256Y-84786086D01*
X141926085Y-84802975D01*
X141889499Y-84866343D01*
X141847517Y-84926299D01*
X141838199Y-84946283D01*
X141833743Y-84962915D01*
X141825135Y-84977824D01*
X141817594Y-84998542D01*
X141804885Y-85070616D01*
X141785945Y-85141303D01*
X141784024Y-85163265D01*
X141790401Y-85236166D01*
X141790400Y-87647424D01*
X140512210Y-87647424D01*
X140499890Y-87648637D01*
X140382542Y-87671979D01*
X140359611Y-87681477D01*
X140254956Y-87751405D01*
X140237405Y-87768956D01*
X140167477Y-87873611D01*
X140157979Y-87896542D01*
X140134637Y-88013890D01*
X140133424Y-88026210D01*
X140133424Y-91854590D01*
X140134637Y-91866910D01*
X140157979Y-91984258D01*
X140167477Y-92007189D01*
X140237405Y-92111844D01*
X140254956Y-92129395D01*
X140359611Y-92199323D01*
X140382542Y-92208821D01*
X140499890Y-92232163D01*
X140512210Y-92233376D01*
X144340590Y-92233376D01*
X144352910Y-92232163D01*
X144470258Y-92208821D01*
X144493189Y-92199323D01*
X144534017Y-92172043D01*
X144536584Y-92186601D01*
X144544124Y-92207316D01*
X144551317Y-92219777D01*
X144555041Y-92233671D01*
X144564357Y-92253650D01*
X144601493Y-92306686D01*
X144633877Y-92362778D01*
X144648049Y-92379668D01*
X144697669Y-92421304D01*
X145754742Y-93478377D01*
X145701888Y-93563622D01*
X145697873Y-93571204D01*
X145574483Y-93848342D01*
X145571535Y-93856399D01*
X145486898Y-94147719D01*
X145485070Y-94156102D01*
X145440754Y-94456212D01*
X145440081Y-94464766D01*
X145436904Y-94768114D01*
X145437398Y-94776680D01*
X145475420Y-95077653D01*
X145477072Y-95086072D01*
X145555589Y-95379101D01*
X145558368Y-95387218D01*
X145675927Y-95666879D01*
X145679782Y-95674544D01*
X145834207Y-95935663D01*
X145839067Y-95942734D01*
X146027501Y-96180479D01*
X146033276Y-96186824D01*
X146252232Y-96396797D01*
X146258814Y-96402301D01*
X146504242Y-96580614D01*
X146511510Y-96585173D01*
X146778866Y-96728528D01*
X146786686Y-96732059D01*
X147071025Y-96837804D01*
X147079251Y-96840241D01*
X147375310Y-96906418D01*
X147383792Y-96907716D01*
X147686092Y-96933101D01*
X147694671Y-96933236D01*
X147997621Y-96917359D01*
X148006139Y-96916328D01*
X148304130Y-96859483D01*
X148312429Y-96857306D01*
X148599950Y-96760544D01*
X148607877Y-96757261D01*
X148879604Y-96622374D01*
X148887011Y-96618046D01*
X148891416Y-96615052D01*
X149602404Y-97326040D01*
X149644033Y-97375652D01*
X149660922Y-97389823D01*
X149717007Y-97422204D01*
X149770050Y-97459344D01*
X149790030Y-97468661D01*
X149803925Y-97472384D01*
X149816382Y-97479576D01*
X149837098Y-97487116D01*
X149900866Y-97498361D01*
X149963422Y-97515123D01*
X149985385Y-97517044D01*
X150049891Y-97511401D01*
X151648912Y-97511401D01*
X151596034Y-97548152D01*
X151589338Y-97553516D01*
X151366033Y-97758857D01*
X151360127Y-97765080D01*
X151166755Y-97998826D01*
X151161748Y-98005794D01*
X151001888Y-98263622D01*
X150997873Y-98271204D01*
X150874483Y-98548342D01*
X150871535Y-98556399D01*
X150786898Y-98847719D01*
X150785070Y-98856102D01*
X150740754Y-99156212D01*
X150740081Y-99164766D01*
X150736904Y-99468114D01*
X150737398Y-99476680D01*
X150775420Y-99777653D01*
X150777072Y-99786072D01*
X150855589Y-100079101D01*
X150858368Y-100087218D01*
X150975927Y-100366879D01*
X150979782Y-100374544D01*
X151021788Y-100445572D01*
X150400960Y-101066401D01*
X149228892Y-101066401D01*
X149370114Y-100939245D01*
X149376085Y-100933083D01*
X149571895Y-100701374D01*
X149576975Y-100694459D01*
X149739526Y-100438319D01*
X149743620Y-100430779D01*
X149869905Y-100154949D01*
X149872937Y-100146923D01*
X149960619Y-99856505D01*
X149962535Y-99848142D01*
X150010043Y-99548186D01*
X150010817Y-99538977D01*
X150014474Y-99189706D01*
X150013894Y-99180484D01*
X149972678Y-98879600D01*
X149970938Y-98871198D01*
X149889357Y-98579008D01*
X149886493Y-98570921D01*
X149766012Y-98292505D01*
X149762077Y-98284881D01*
X149604926Y-98025393D01*
X149599992Y-98018374D01*
X149409079Y-97782615D01*
X149403238Y-97776330D01*
X149182095Y-97568662D01*
X149175455Y-97563228D01*
X148928174Y-97387494D01*
X148920858Y-97383011D01*
X148652014Y-97242463D01*
X148644158Y-97239014D01*
X148358729Y-97136254D01*
X148350477Y-97133903D01*
X148053741Y-97070829D01*
X148045246Y-97069621D01*
X147742697Y-97047403D01*
X147734117Y-97047358D01*
X147431350Y-97066406D01*
X147422843Y-97067526D01*
X147125464Y-97127489D01*
X147117188Y-97129753D01*
X146830697Y-97229519D01*
X146822804Y-97232886D01*
X146552505Y-97370611D01*
X146545143Y-97375017D01*
X146296034Y-97548152D01*
X146289338Y-97553516D01*
X146066033Y-97758857D01*
X146060127Y-97765080D01*
X145866755Y-97998826D01*
X145861748Y-98005794D01*
X145701888Y-98263622D01*
X145697873Y-98271204D01*
X145574483Y-98548342D01*
X145571535Y-98556399D01*
X145486898Y-98847719D01*
X145485070Y-98856102D01*
X145440754Y-99156212D01*
X145440081Y-99164766D01*
X145436904Y-99468114D01*
X145437398Y-99476680D01*
X145475420Y-99777653D01*
X145477072Y-99786072D01*
X145555589Y-100079101D01*
X145558368Y-100087218D01*
X145675927Y-100366879D01*
X145679782Y-100374544D01*
X145834207Y-100635663D01*
X145839067Y-100642734D01*
X146027501Y-100880479D01*
X146033276Y-100886824D01*
X146220536Y-101066401D01*
X145051841Y-101066401D01*
X144433404Y-100447965D01*
X144439526Y-100438319D01*
X144443620Y-100430779D01*
X144569905Y-100154949D01*
X144572937Y-100146923D01*
X144660619Y-99856505D01*
X144662535Y-99848142D01*
X144710043Y-99548186D01*
X144710817Y-99538977D01*
X144714474Y-99189706D01*
X144713894Y-99180484D01*
X144672678Y-98879600D01*
X144670938Y-98871198D01*
X144589357Y-98579008D01*
X144586493Y-98570921D01*
X144466012Y-98292505D01*
X144462077Y-98284881D01*
X144304926Y-98025393D01*
X144299992Y-98018374D01*
X144109079Y-97782615D01*
X144103238Y-97776330D01*
X143882095Y-97568662D01*
X143875455Y-97563228D01*
X143628174Y-97387494D01*
X143620858Y-97383011D01*
X143352014Y-97242463D01*
X143344158Y-97239014D01*
X143058729Y-97136254D01*
X143050477Y-97133903D01*
X142753741Y-97070829D01*
X142745246Y-97069621D01*
X142442697Y-97047403D01*
X142434117Y-97047358D01*
X142131350Y-97066406D01*
X142122843Y-97067526D01*
X141825464Y-97127489D01*
X141817188Y-97129753D01*
X141530697Y-97229519D01*
X141522804Y-97232886D01*
X141252505Y-97370611D01*
X141245143Y-97375017D01*
X140996034Y-97548152D01*
X140989338Y-97553516D01*
X140766033Y-97758857D01*
X140760127Y-97765080D01*
X140566755Y-97998826D01*
X140561748Y-98005794D01*
X140401888Y-98263622D01*
X140397873Y-98271204D01*
X140274483Y-98548342D01*
X140271535Y-98556399D01*
X140186898Y-98847719D01*
X140185070Y-98856102D01*
X140140754Y-99156212D01*
X140140081Y-99164766D01*
X140136904Y-99468114D01*
X140137398Y-99476680D01*
X140175420Y-99777653D01*
X140177072Y-99786072D01*
X140255589Y-100079101D01*
X140258368Y-100087218D01*
X140375927Y-100366879D01*
X140379782Y-100374544D01*
X140534207Y-100635663D01*
X140539067Y-100642734D01*
X140727501Y-100880479D01*
X140733276Y-100886824D01*
X140952232Y-101096797D01*
X140958814Y-101102301D01*
X141204242Y-101280614D01*
X141211510Y-101285173D01*
X141478866Y-101428528D01*
X141486686Y-101432059D01*
X141771025Y-101537804D01*
X141779251Y-101540241D01*
X142075310Y-101606418D01*
X142083792Y-101607716D01*
X142386092Y-101633101D01*
X142394671Y-101633236D01*
X142697621Y-101617359D01*
X142706139Y-101616328D01*
X143004130Y-101559483D01*
X143012429Y-101557306D01*
X143299950Y-101460544D01*
X143307877Y-101457261D01*
X143532378Y-101345817D01*
X144319048Y-102132487D01*
X144366087Y-102188546D01*
X144382976Y-102202717D01*
X144446351Y-102239308D01*
X144506299Y-102281284D01*
X144526282Y-102290602D01*
X144542915Y-102295059D01*
X144557826Y-102303668D01*
X144578544Y-102311208D01*
X144650614Y-102323917D01*
X144721302Y-102342857D01*
X144743265Y-102344778D01*
X144816163Y-102338401D01*
X150636648Y-102338401D01*
X150709534Y-102344777D01*
X150731496Y-102342856D01*
X150802172Y-102323919D01*
X150874256Y-102311209D01*
X150894972Y-102303668D01*
X150909887Y-102295058D01*
X150926519Y-102290601D01*
X150946500Y-102281284D01*
X151006444Y-102239311D01*
X151069824Y-102202717D01*
X151086713Y-102188546D01*
X151133752Y-102132487D01*
X151921885Y-101344355D01*
X152078866Y-101428528D01*
X152086686Y-101432059D01*
X152371025Y-101537804D01*
X152379251Y-101540241D01*
X152675310Y-101606418D01*
X152683792Y-101607716D01*
X152986092Y-101633101D01*
X152994671Y-101633236D01*
X153297621Y-101617359D01*
X153306139Y-101616328D01*
X153604130Y-101559483D01*
X153612429Y-101557306D01*
X153899950Y-101460544D01*
X153907877Y-101457261D01*
X154179604Y-101322374D01*
X154187011Y-101318045D01*
X154437919Y-101147529D01*
X154444670Y-101142235D01*
X154670114Y-100939245D01*
X154676085Y-100933083D01*
X154871895Y-100701374D01*
X154876975Y-100694459D01*
X155039526Y-100438319D01*
X155043620Y-100430779D01*
X155169905Y-100154949D01*
X155172937Y-100146923D01*
X155260619Y-99856505D01*
X155262535Y-99848142D01*
X155310043Y-99548186D01*
X155310817Y-99538977D01*
X155314474Y-99189706D01*
X155313894Y-99180484D01*
X155272678Y-98879600D01*
X155270938Y-98871198D01*
X155189357Y-98579008D01*
X155186493Y-98570921D01*
X155066012Y-98292505D01*
X155062077Y-98284881D01*
X154904926Y-98025393D01*
X154899992Y-98018374D01*
X154709079Y-97782615D01*
X154703238Y-97776330D01*
X154482095Y-97568662D01*
X154475455Y-97563228D01*
X154402528Y-97511401D01*
X156274108Y-97511401D01*
X156338614Y-97517044D01*
X156360578Y-97515123D01*
X156423124Y-97498362D01*
X156486902Y-97487117D01*
X156507620Y-97479576D01*
X156520077Y-97472384D01*
X156533967Y-97468662D01*
X156553949Y-97459344D01*
X156606981Y-97422211D01*
X156663077Y-97389824D01*
X156679967Y-97375652D01*
X156721603Y-97326032D01*
X157614259Y-96433376D01*
X159300590Y-96433376D01*
X159312910Y-96432163D01*
X159430258Y-96408821D01*
X159453189Y-96399323D01*
X159557844Y-96329395D01*
X159575395Y-96311844D01*
X159640001Y-96215154D01*
X159640001Y-97396447D01*
X159596074Y-97289871D01*
X159590287Y-97278989D01*
X159469081Y-97096558D01*
X159461291Y-97087007D01*
X159306959Y-96931593D01*
X159297462Y-96923737D01*
X159115882Y-96801260D01*
X159105041Y-96795398D01*
X158903130Y-96710523D01*
X158891356Y-96706879D01*
X158676805Y-96662837D01*
X158664548Y-96661549D01*
X158445528Y-96660020D01*
X158433254Y-96661137D01*
X158218109Y-96702179D01*
X158206285Y-96705658D01*
X158003210Y-96787706D01*
X157992288Y-96793416D01*
X157809016Y-96913346D01*
X157799411Y-96921069D01*
X157642923Y-97074312D01*
X157635000Y-97083753D01*
X157511258Y-97264474D01*
X157505320Y-97275274D01*
X157419038Y-97476588D01*
X157415312Y-97488335D01*
X157369773Y-97702574D01*
X157368399Y-97714822D01*
X157365341Y-97933826D01*
X157366373Y-97946108D01*
X157405912Y-98161534D01*
X157409309Y-98173381D01*
X157489937Y-98377025D01*
X157495570Y-98387987D01*
X157614218Y-98572092D01*
X157621874Y-98581751D01*
X157774021Y-98739304D01*
X157783407Y-98747292D01*
X157963258Y-98872293D01*
X157974017Y-98878306D01*
X158174723Y-98965992D01*
X158186445Y-98969800D01*
X158400360Y-99016833D01*
X158412598Y-99018292D01*
X158631575Y-99022879D01*
X158643864Y-99021934D01*
X158859561Y-98983901D01*
X158871432Y-98980586D01*
X159075634Y-98901381D01*
X159086635Y-98895824D01*
X159271563Y-98778464D01*
X159281275Y-98770877D01*
X159439888Y-98619833D01*
X159447941Y-98610503D01*
X159574194Y-98431528D01*
X159580281Y-98420812D01*
X159640001Y-98286680D01*
X159640001Y-99936447D01*
X159596074Y-99829871D01*
X159590287Y-99818989D01*
X159469081Y-99636558D01*
X159461291Y-99627007D01*
X159306959Y-99471593D01*
X159297462Y-99463737D01*
X159115882Y-99341260D01*
X159105041Y-99335398D01*
X158903130Y-99250523D01*
X158891356Y-99246879D01*
X158676805Y-99202837D01*
X158664548Y-99201549D01*
X158445528Y-99200020D01*
X158433254Y-99201137D01*
X158218109Y-99242179D01*
X158206285Y-99245658D01*
X158003210Y-99327706D01*
X157992288Y-99333416D01*
X157809016Y-99453346D01*
X157799411Y-99461069D01*
X157642923Y-99614312D01*
X157635000Y-99623753D01*
X157511258Y-99804474D01*
X157505320Y-99815274D01*
X157419038Y-100016588D01*
X157415312Y-100028335D01*
X157369773Y-100242574D01*
X157368399Y-100254822D01*
X157365341Y-100473826D01*
X157366373Y-100486108D01*
X157405912Y-100701534D01*
X157409309Y-100713381D01*
X157489937Y-100917025D01*
X157495570Y-100927987D01*
X157614218Y-101112092D01*
X157621874Y-101121751D01*
X157774021Y-101279304D01*
X157783407Y-101287292D01*
X157963258Y-101412293D01*
X157974017Y-101418306D01*
X158174723Y-101505992D01*
X158186445Y-101509800D01*
X158400360Y-101556833D01*
X158412598Y-101558292D01*
X158631575Y-101562879D01*
X158643864Y-101561934D01*
X158859561Y-101523901D01*
X158871432Y-101520586D01*
X159028284Y-101459747D01*
X156887749Y-103201200D01*
X138523421Y-103201200D01*
X136066800Y-101022688D01*
X136066800Y-100092489D01*
X136125490Y-100104163D01*
X136137810Y-100105376D01*
X138080590Y-100105376D01*
X138092910Y-100104163D01*
X138210258Y-100080821D01*
X138233189Y-100071323D01*
X138337844Y-100001395D01*
X138355395Y-99983844D01*
X138425323Y-99879189D01*
X138434821Y-99856258D01*
X138458163Y-99738910D01*
X138459376Y-99726590D01*
X138459376Y-98214659D01*
X139528346Y-97145690D01*
X139577950Y-97104068D01*
X139592122Y-97087179D01*
X139624503Y-97031094D01*
X139661643Y-96978051D01*
X139670960Y-96958071D01*
X139674683Y-96944176D01*
X139681875Y-96931719D01*
X139689415Y-96911003D01*
X139700660Y-96847235D01*
X139717422Y-96784679D01*
X139719343Y-96762716D01*
X139713700Y-96698210D01*
X139713700Y-94768114D01*
X140136904Y-94768114D01*
X140137398Y-94776680D01*
X140175420Y-95077653D01*
X140177072Y-95086072D01*
X140255589Y-95379101D01*
X140258368Y-95387218D01*
X140375927Y-95666879D01*
X140379782Y-95674544D01*
X140534207Y-95935663D01*
X140539067Y-95942734D01*
X140727501Y-96180479D01*
X140733276Y-96186824D01*
X140952232Y-96396797D01*
X140958814Y-96402301D01*
X141204242Y-96580614D01*
X141211510Y-96585173D01*
X141478866Y-96728528D01*
X141486686Y-96732059D01*
X141771025Y-96837804D01*
X141779251Y-96840241D01*
X142075310Y-96906418D01*
X142083792Y-96907716D01*
X142386092Y-96933101D01*
X142394671Y-96933236D01*
X142697621Y-96917359D01*
X142706139Y-96916328D01*
X143004130Y-96859483D01*
X143012429Y-96857306D01*
X143299950Y-96760544D01*
X143307877Y-96757261D01*
X143579604Y-96622374D01*
X143587011Y-96618045D01*
X143837919Y-96447529D01*
X143844670Y-96442235D01*
X144070114Y-96239245D01*
X144076085Y-96233083D01*
X144271895Y-96001374D01*
X144276975Y-95994459D01*
X144439526Y-95738319D01*
X144443620Y-95730779D01*
X144569905Y-95454949D01*
X144572937Y-95446923D01*
X144660619Y-95156505D01*
X144662535Y-95148142D01*
X144710043Y-94848186D01*
X144710817Y-94838977D01*
X144714474Y-94489706D01*
X144713894Y-94480484D01*
X144672678Y-94179600D01*
X144670938Y-94171198D01*
X144589357Y-93879008D01*
X144586493Y-93870921D01*
X144466012Y-93592505D01*
X144462077Y-93584881D01*
X144304926Y-93325393D01*
X144299992Y-93318374D01*
X144109079Y-93082615D01*
X144103238Y-93076330D01*
X143882095Y-92868662D01*
X143875455Y-92863228D01*
X143628174Y-92687494D01*
X143620858Y-92683011D01*
X143352014Y-92542463D01*
X143344158Y-92539014D01*
X143058729Y-92436254D01*
X143050477Y-92433903D01*
X142753741Y-92370829D01*
X142745246Y-92369621D01*
X142442697Y-92347403D01*
X142434117Y-92347358D01*
X142131350Y-92366406D01*
X142122843Y-92367526D01*
X141825464Y-92427489D01*
X141817188Y-92429753D01*
X141530697Y-92529519D01*
X141522804Y-92532886D01*
X141252505Y-92670611D01*
X141245143Y-92675017D01*
X140996034Y-92848152D01*
X140989338Y-92853516D01*
X140766033Y-93058857D01*
X140760127Y-93065080D01*
X140566755Y-93298826D01*
X140561748Y-93305794D01*
X140401888Y-93563622D01*
X140397873Y-93571204D01*
X140274483Y-93848342D01*
X140271535Y-93856399D01*
X140186898Y-94147719D01*
X140185070Y-94156102D01*
X140140754Y-94456212D01*
X140140081Y-94464766D01*
X140136904Y-94768114D01*
X139713700Y-94768114D01*
X139713700Y-85181917D01*
X139783273Y-85215251D01*
X139792935Y-85218940D01*
X140035498Y-85289412D01*
X140045632Y-85291473D01*
X140147709Y-85303646D01*
X140232400Y-85228454D01*
X140232400Y-83920209D01*
X140488400Y-83920209D01*
X140488400Y-85230701D01*
X140581812Y-85306344D01*
X140816445Y-85256470D01*
X140826350Y-85253499D01*
X141061528Y-85161333D01*
X141070815Y-85156784D01*
X141287782Y-85027446D01*
X141296201Y-85021441D01*
X141489130Y-84858403D01*
X141496455Y-84851103D01*
X141660166Y-84658744D01*
X141666201Y-84650346D01*
X141796295Y-84433831D01*
X141800877Y-84424561D01*
X141893863Y-84189706D01*
X141896870Y-84179811D01*
X141948685Y-83940153D01*
X141873036Y-83846400D01*
X140562209Y-83846400D01*
X140488400Y-83920209D01*
X140232400Y-83920209D01*
X140232400Y-83590400D01*
X141870034Y-83590400D01*
X141945519Y-83501391D01*
X141917574Y-83332596D01*
X141915055Y-83322566D01*
X141833653Y-83083450D01*
X141829530Y-83073966D01*
X141710167Y-82851355D01*
X141704549Y-82842671D01*
X141615316Y-82726800D01*
X142569006Y-82726800D01*
X142567437Y-82734690D01*
G36*
X153130277Y-82761211D02*
G01*
X153120779Y-82784142D01*
X153097437Y-82901490D01*
X153096224Y-82913810D01*
X153096224Y-84726190D01*
X153097437Y-84738510D01*
X153120779Y-84855858D01*
X153130277Y-84878789D01*
X153200205Y-84983444D01*
X153217756Y-85000995D01*
X153322411Y-85070923D01*
X153345342Y-85080421D01*
X153462690Y-85103763D01*
X153475010Y-85104976D01*
X155287390Y-85104976D01*
X155299710Y-85103763D01*
X155332701Y-85097201D01*
X155332700Y-90094209D01*
X155327057Y-90158715D01*
X155328978Y-90180678D01*
X155345739Y-90243233D01*
X155356984Y-90307001D01*
X155364524Y-90327716D01*
X155371717Y-90340177D01*
X155375441Y-90354071D01*
X155384757Y-90374050D01*
X155421893Y-90427086D01*
X155454277Y-90483178D01*
X155468449Y-90500068D01*
X155518069Y-90541704D01*
X157177531Y-92201167D01*
X157168967Y-92221844D01*
X157165540Y-92232878D01*
X157119042Y-92451635D01*
X157117684Y-92463108D01*
X157111830Y-92686674D01*
X157112586Y-92698203D01*
X157147572Y-92919095D01*
X157150416Y-92930292D01*
X157225069Y-93141108D01*
X157229906Y-93151600D01*
X157341728Y-93345281D01*
X157348396Y-93354716D01*
X157493642Y-93524776D01*
X157501917Y-93532838D01*
X157675721Y-93673582D01*
X157685327Y-93680000D01*
X157881869Y-93786714D01*
X157892484Y-93791275D01*
X158105182Y-93860384D01*
X158116451Y-93862934D01*
X158120173Y-93863424D01*
X157488210Y-93863424D01*
X157475890Y-93864637D01*
X157358542Y-93887979D01*
X157335611Y-93897477D01*
X157230956Y-93967405D01*
X157213405Y-93984956D01*
X157143477Y-94089611D01*
X157133979Y-94112542D01*
X157110637Y-94229890D01*
X157109424Y-94242210D01*
X157109424Y-95318940D01*
X156061964Y-96366401D01*
X154528892Y-96366401D01*
X154670114Y-96239245D01*
X154676085Y-96233083D01*
X154871895Y-96001374D01*
X154876975Y-95994459D01*
X155039526Y-95738319D01*
X155043620Y-95730779D01*
X155169905Y-95454949D01*
X155172937Y-95446923D01*
X155260619Y-95156505D01*
X155262535Y-95148142D01*
X155310043Y-94848186D01*
X155310817Y-94838977D01*
X155314474Y-94489706D01*
X155313894Y-94480484D01*
X155272678Y-94179600D01*
X155270938Y-94171198D01*
X155189357Y-93879008D01*
X155186493Y-93870921D01*
X155066012Y-93592505D01*
X155062077Y-93584881D01*
X154904926Y-93325393D01*
X154899992Y-93318374D01*
X154709079Y-93082615D01*
X154703238Y-93076330D01*
X154482095Y-92868662D01*
X154475455Y-92863228D01*
X154228174Y-92687494D01*
X154220858Y-92683011D01*
X153952014Y-92542463D01*
X153944158Y-92539014D01*
X153658729Y-92436254D01*
X153650477Y-92433903D01*
X153353741Y-92370829D01*
X153345246Y-92369621D01*
X153042697Y-92347403D01*
X153034117Y-92347358D01*
X152731350Y-92366406D01*
X152722843Y-92367526D01*
X152425464Y-92427489D01*
X152417188Y-92429753D01*
X152130697Y-92529519D01*
X152122804Y-92532886D01*
X151852505Y-92670611D01*
X151845143Y-92675017D01*
X151596034Y-92848152D01*
X151589338Y-92853516D01*
X151366033Y-93058857D01*
X151360127Y-93065080D01*
X151166755Y-93298826D01*
X151161748Y-93305794D01*
X151001888Y-93563622D01*
X150997873Y-93571204D01*
X150874483Y-93848342D01*
X150871535Y-93856399D01*
X150786898Y-94147719D01*
X150785070Y-94156102D01*
X150740754Y-94456212D01*
X150740081Y-94464766D01*
X150736904Y-94768114D01*
X150737398Y-94776680D01*
X150775420Y-95077653D01*
X150777072Y-95086072D01*
X150855589Y-95379101D01*
X150858368Y-95387218D01*
X150975927Y-95666879D01*
X150979782Y-95674544D01*
X151134207Y-95935663D01*
X151139067Y-95942734D01*
X151327501Y-96180479D01*
X151333276Y-96186824D01*
X151520536Y-96366401D01*
X150262038Y-96366401D01*
X149698539Y-95802903D01*
X149739526Y-95738319D01*
X149743620Y-95730779D01*
X149869905Y-95454949D01*
X149872937Y-95446923D01*
X149960619Y-95156505D01*
X149962535Y-95148142D01*
X150010043Y-94848186D01*
X150010817Y-94838977D01*
X150014474Y-94489706D01*
X150013894Y-94480484D01*
X149972678Y-94179600D01*
X149970938Y-94171198D01*
X149889357Y-93879008D01*
X149886493Y-93870921D01*
X149766012Y-93592505D01*
X149762077Y-93584881D01*
X149604926Y-93325393D01*
X149599992Y-93318374D01*
X149409079Y-93082615D01*
X149403238Y-93076330D01*
X149182095Y-92868662D01*
X149175455Y-92863228D01*
X148928174Y-92687494D01*
X148920858Y-92683011D01*
X148652014Y-92542463D01*
X148644158Y-92539014D01*
X148358729Y-92436254D01*
X148350477Y-92433903D01*
X148289116Y-92420860D01*
X148524430Y-92359127D01*
X148532051Y-92356599D01*
X148825296Y-92238120D01*
X148832534Y-92234645D01*
X149108348Y-92079866D01*
X149115086Y-92075499D01*
X149368997Y-91886927D01*
X149375125Y-91881739D01*
X149603017Y-91662434D01*
X149608437Y-91656509D01*
X149806616Y-91410024D01*
X149811239Y-91403459D01*
X149976491Y-91133789D01*
X149980242Y-91126690D01*
X150109891Y-90838211D01*
X150112709Y-90830692D01*
X150204652Y-90528075D01*
X150206492Y-90520260D01*
X150267807Y-90157745D01*
X150192305Y-90068400D01*
X147928208Y-90068399D01*
X147928207Y-90068400D01*
X147598400Y-90068399D01*
X147598400Y-89738591D01*
X147854399Y-89738591D01*
X147928208Y-89812400D01*
X150186626Y-89812401D01*
X150261885Y-89726886D01*
X150227765Y-89460538D01*
X150226239Y-89452654D01*
X150146516Y-89146593D01*
X150144002Y-89138968D01*
X150026035Y-88845516D01*
X150022572Y-88838271D01*
X149868275Y-88562188D01*
X149863919Y-88555442D01*
X149675791Y-88301203D01*
X149670613Y-88295066D01*
X149451706Y-88066791D01*
X149445791Y-88061361D01*
X149199652Y-87862752D01*
X149193095Y-87858118D01*
X148923716Y-87692395D01*
X148916623Y-87688631D01*
X148628369Y-87558479D01*
X148620855Y-87555647D01*
X148318399Y-87463178D01*
X148310587Y-87461324D01*
X147998842Y-87408036D01*
X147990874Y-87407191D01*
X147932003Y-87404708D01*
X147854400Y-87479108D01*
X147854399Y-89738591D01*
X147598400Y-89738591D01*
X147598401Y-87481873D01*
X147516812Y-87406979D01*
X147351705Y-87421134D01*
X147343765Y-87422328D01*
X147034633Y-87489165D01*
X147026909Y-87491358D01*
X146728775Y-87596933D01*
X146721392Y-87600090D01*
X146439090Y-87742691D01*
X146432168Y-87746761D01*
X146170273Y-87924076D01*
X146163924Y-87928992D01*
X145926683Y-88138148D01*
X145921011Y-88143831D01*
X145712268Y-88381437D01*
X145707363Y-88387794D01*
X145657300Y-88462016D01*
X145657300Y-87867135D01*
X148536606Y-84987830D01*
X148537686Y-84988225D01*
X148758746Y-85047458D01*
X148769802Y-85049388D01*
X148997857Y-85068538D01*
X149009080Y-85068479D01*
X149236923Y-85046942D01*
X149247958Y-85044896D01*
X149468387Y-84983351D01*
X149478885Y-84979384D01*
X149684931Y-84879778D01*
X149694561Y-84874014D01*
X149879712Y-84739495D01*
X149888169Y-84732117D01*
X150046572Y-84566936D01*
X150053589Y-84558177D01*
X150180237Y-84367557D01*
X150185593Y-84357693D01*
X150265857Y-84172213D01*
X150353968Y-84370111D01*
X150359426Y-84379917D01*
X150488063Y-84569202D01*
X150495171Y-84577888D01*
X150655296Y-84741400D01*
X150663829Y-84748688D01*
X150850378Y-84881263D01*
X150860068Y-84886925D01*
X150900400Y-84905904D01*
X150900401Y-88422637D01*
X150894024Y-88495535D01*
X150895945Y-88517497D01*
X150914885Y-88588184D01*
X150927594Y-88660258D01*
X150935135Y-88680976D01*
X150943743Y-88695885D01*
X150948199Y-88712517D01*
X150957517Y-88732501D01*
X150999499Y-88792457D01*
X151021927Y-88831302D01*
X151001888Y-88863622D01*
X150997873Y-88871204D01*
X150874483Y-89148342D01*
X150871535Y-89156399D01*
X150786898Y-89447719D01*
X150785070Y-89456102D01*
X150740754Y-89756212D01*
X150740081Y-89764766D01*
X150736904Y-90068114D01*
X150737398Y-90076680D01*
X150775420Y-90377653D01*
X150777072Y-90386072D01*
X150855589Y-90679101D01*
X150858368Y-90687218D01*
X150975927Y-90966879D01*
X150979782Y-90974544D01*
X151134207Y-91235663D01*
X151139067Y-91242734D01*
X151327501Y-91480479D01*
X151333276Y-91486824D01*
X151552232Y-91696797D01*
X151558814Y-91702301D01*
X151804242Y-91880614D01*
X151811510Y-91885173D01*
X152078866Y-92028528D01*
X152086686Y-92032059D01*
X152371025Y-92137804D01*
X152379251Y-92140241D01*
X152675310Y-92206418D01*
X152683792Y-92207716D01*
X152986092Y-92233101D01*
X152994671Y-92233236D01*
X153297621Y-92217359D01*
X153306139Y-92216328D01*
X153604130Y-92159483D01*
X153612429Y-92157306D01*
X153899950Y-92060544D01*
X153907877Y-92057261D01*
X154179604Y-91922374D01*
X154187011Y-91918045D01*
X154437919Y-91747529D01*
X154444670Y-91742235D01*
X154670114Y-91539245D01*
X154676085Y-91533083D01*
X154871895Y-91301374D01*
X154876975Y-91294459D01*
X155039526Y-91038319D01*
X155043620Y-91030779D01*
X155169905Y-90754949D01*
X155172937Y-90746923D01*
X155260619Y-90456505D01*
X155262535Y-90448142D01*
X155310043Y-90148186D01*
X155310817Y-90138977D01*
X155314474Y-89789706D01*
X155313894Y-89780484D01*
X155272678Y-89479600D01*
X155270938Y-89471198D01*
X155189357Y-89179008D01*
X155186493Y-89170921D01*
X155066012Y-88892505D01*
X155062077Y-88884881D01*
X154904926Y-88625393D01*
X154899992Y-88618374D01*
X154709079Y-88382615D01*
X154703238Y-88376330D01*
X154482095Y-88168662D01*
X154475455Y-88163228D01*
X154228174Y-87987494D01*
X154220858Y-87983011D01*
X153952014Y-87842463D01*
X153944158Y-87839014D01*
X153658729Y-87736254D01*
X153650477Y-87733903D01*
X153353741Y-87670829D01*
X153345246Y-87669621D01*
X153042697Y-87647403D01*
X153034117Y-87647358D01*
X152731350Y-87666406D01*
X152722843Y-87667526D01*
X152425464Y-87727489D01*
X152417188Y-87729753D01*
X152172400Y-87814997D01*
X152172400Y-84905172D01*
X152224931Y-84879778D01*
X152234561Y-84874014D01*
X152419712Y-84739495D01*
X152428169Y-84732117D01*
X152586572Y-84566936D01*
X152593589Y-84558177D01*
X152720237Y-84367557D01*
X152725593Y-84357693D01*
X152816483Y-84147658D01*
X152820007Y-84137003D01*
X152872456Y-83913386D01*
X152874103Y-83900615D01*
X152881806Y-83606444D01*
X152880830Y-83593606D01*
X152840156Y-83367550D01*
X152837194Y-83356725D01*
X152757420Y-83142220D01*
X152752589Y-83132091D01*
X152636090Y-82935102D01*
X152629541Y-82925988D01*
X152480001Y-82752743D01*
X152471941Y-82744933D01*
X152449548Y-82726800D01*
X153153270Y-82726800D01*
X153130277Y-82761211D01*
G37*
X153130277Y-82761211D02*
X153120779Y-82784142D01*
X153097437Y-82901490D01*
X153096224Y-82913810D01*
X153096224Y-84726190D01*
X153097437Y-84738510D01*
X153120779Y-84855858D01*
X153130277Y-84878789D01*
X153200205Y-84983444D01*
X153217756Y-85000995D01*
X153322411Y-85070923D01*
X153345342Y-85080421D01*
X153462690Y-85103763D01*
X153475010Y-85104976D01*
X155287390Y-85104976D01*
X155299710Y-85103763D01*
X155332701Y-85097201D01*
X155332700Y-90094209D01*
X155327057Y-90158715D01*
X155328978Y-90180678D01*
X155345739Y-90243233D01*
X155356984Y-90307001D01*
X155364524Y-90327716D01*
X155371717Y-90340177D01*
X155375441Y-90354071D01*
X155384757Y-90374050D01*
X155421893Y-90427086D01*
X155454277Y-90483178D01*
X155468449Y-90500068D01*
X155518069Y-90541704D01*
X157177531Y-92201167D01*
X157168967Y-92221844D01*
X157165540Y-92232878D01*
X157119042Y-92451635D01*
X157117684Y-92463108D01*
X157111830Y-92686674D01*
X157112586Y-92698203D01*
X157147572Y-92919095D01*
X157150416Y-92930292D01*
X157225069Y-93141108D01*
X157229906Y-93151600D01*
X157341728Y-93345281D01*
X157348396Y-93354716D01*
X157493642Y-93524776D01*
X157501917Y-93532838D01*
X157675721Y-93673582D01*
X157685327Y-93680000D01*
X157881869Y-93786714D01*
X157892484Y-93791275D01*
X158105182Y-93860384D01*
X158116451Y-93862934D01*
X158120173Y-93863424D01*
X157488210Y-93863424D01*
X157475890Y-93864637D01*
X157358542Y-93887979D01*
X157335611Y-93897477D01*
X157230956Y-93967405D01*
X157213405Y-93984956D01*
X157143477Y-94089611D01*
X157133979Y-94112542D01*
X157110637Y-94229890D01*
X157109424Y-94242210D01*
X157109424Y-95318940D01*
X156061964Y-96366401D01*
X154528892Y-96366401D01*
X154670114Y-96239245D01*
X154676085Y-96233083D01*
X154871895Y-96001374D01*
X154876975Y-95994459D01*
X155039526Y-95738319D01*
X155043620Y-95730779D01*
X155169905Y-95454949D01*
X155172937Y-95446923D01*
X155260619Y-95156505D01*
X155262535Y-95148142D01*
X155310043Y-94848186D01*
X155310817Y-94838977D01*
X155314474Y-94489706D01*
X155313894Y-94480484D01*
X155272678Y-94179600D01*
X155270938Y-94171198D01*
X155189357Y-93879008D01*
X155186493Y-93870921D01*
X155066012Y-93592505D01*
X155062077Y-93584881D01*
X154904926Y-93325393D01*
X154899992Y-93318374D01*
X154709079Y-93082615D01*
X154703238Y-93076330D01*
X154482095Y-92868662D01*
X154475455Y-92863228D01*
X154228174Y-92687494D01*
X154220858Y-92683011D01*
X153952014Y-92542463D01*
X153944158Y-92539014D01*
X153658729Y-92436254D01*
X153650477Y-92433903D01*
X153353741Y-92370829D01*
X153345246Y-92369621D01*
X153042697Y-92347403D01*
X153034117Y-92347358D01*
X152731350Y-92366406D01*
X152722843Y-92367526D01*
X152425464Y-92427489D01*
X152417188Y-92429753D01*
X152130697Y-92529519D01*
X152122804Y-92532886D01*
X151852505Y-92670611D01*
X151845143Y-92675017D01*
X151596034Y-92848152D01*
X151589338Y-92853516D01*
X151366033Y-93058857D01*
X151360127Y-93065080D01*
X151166755Y-93298826D01*
X151161748Y-93305794D01*
X151001888Y-93563622D01*
X150997873Y-93571204D01*
X150874483Y-93848342D01*
X150871535Y-93856399D01*
X150786898Y-94147719D01*
X150785070Y-94156102D01*
X150740754Y-94456212D01*
X150740081Y-94464766D01*
X150736904Y-94768114D01*
X150737398Y-94776680D01*
X150775420Y-95077653D01*
X150777072Y-95086072D01*
X150855589Y-95379101D01*
X150858368Y-95387218D01*
X150975927Y-95666879D01*
X150979782Y-95674544D01*
X151134207Y-95935663D01*
X151139067Y-95942734D01*
X151327501Y-96180479D01*
X151333276Y-96186824D01*
X151520536Y-96366401D01*
X150262038Y-96366401D01*
X149698539Y-95802903D01*
X149739526Y-95738319D01*
X149743620Y-95730779D01*
X149869905Y-95454949D01*
X149872937Y-95446923D01*
X149960619Y-95156505D01*
X149962535Y-95148142D01*
X150010043Y-94848186D01*
X150010817Y-94838977D01*
X150014474Y-94489706D01*
X150013894Y-94480484D01*
X149972678Y-94179600D01*
X149970938Y-94171198D01*
X149889357Y-93879008D01*
X149886493Y-93870921D01*
X149766012Y-93592505D01*
X149762077Y-93584881D01*
X149604926Y-93325393D01*
X149599992Y-93318374D01*
X149409079Y-93082615D01*
X149403238Y-93076330D01*
X149182095Y-92868662D01*
X149175455Y-92863228D01*
X148928174Y-92687494D01*
X148920858Y-92683011D01*
X148652014Y-92542463D01*
X148644158Y-92539014D01*
X148358729Y-92436254D01*
X148350477Y-92433903D01*
X148289116Y-92420860D01*
X148524430Y-92359127D01*
X148532051Y-92356599D01*
X148825296Y-92238120D01*
X148832534Y-92234645D01*
X149108348Y-92079866D01*
X149115086Y-92075499D01*
X149368997Y-91886927D01*
X149375125Y-91881739D01*
X149603017Y-91662434D01*
X149608437Y-91656509D01*
X149806616Y-91410024D01*
X149811239Y-91403459D01*
X149976491Y-91133789D01*
X149980242Y-91126690D01*
X150109891Y-90838211D01*
X150112709Y-90830692D01*
X150204652Y-90528075D01*
X150206492Y-90520260D01*
X150267807Y-90157745D01*
X150192305Y-90068400D01*
X147928208Y-90068399D01*
X147928207Y-90068400D01*
X147598400Y-90068399D01*
X147598400Y-89738591D01*
X147854399Y-89738591D01*
X147928208Y-89812400D01*
X150186626Y-89812401D01*
X150261885Y-89726886D01*
X150227765Y-89460538D01*
X150226239Y-89452654D01*
X150146516Y-89146593D01*
X150144002Y-89138968D01*
X150026035Y-88845516D01*
X150022572Y-88838271D01*
X149868275Y-88562188D01*
X149863919Y-88555442D01*
X149675791Y-88301203D01*
X149670613Y-88295066D01*
X149451706Y-88066791D01*
X149445791Y-88061361D01*
X149199652Y-87862752D01*
X149193095Y-87858118D01*
X148923716Y-87692395D01*
X148916623Y-87688631D01*
X148628369Y-87558479D01*
X148620855Y-87555647D01*
X148318399Y-87463178D01*
X148310587Y-87461324D01*
X147998842Y-87408036D01*
X147990874Y-87407191D01*
X147932003Y-87404708D01*
X147854400Y-87479108D01*
X147854399Y-89738591D01*
X147598400Y-89738591D01*
X147598401Y-87481873D01*
X147516812Y-87406979D01*
X147351705Y-87421134D01*
X147343765Y-87422328D01*
X147034633Y-87489165D01*
X147026909Y-87491358D01*
X146728775Y-87596933D01*
X146721392Y-87600090D01*
X146439090Y-87742691D01*
X146432168Y-87746761D01*
X146170273Y-87924076D01*
X146163924Y-87928992D01*
X145926683Y-88138148D01*
X145921011Y-88143831D01*
X145712268Y-88381437D01*
X145707363Y-88387794D01*
X145657300Y-88462016D01*
X145657300Y-87867135D01*
X148536606Y-84987830D01*
X148537686Y-84988225D01*
X148758746Y-85047458D01*
X148769802Y-85049388D01*
X148997857Y-85068538D01*
X149009080Y-85068479D01*
X149236923Y-85046942D01*
X149247958Y-85044896D01*
X149468387Y-84983351D01*
X149478885Y-84979384D01*
X149684931Y-84879778D01*
X149694561Y-84874014D01*
X149879712Y-84739495D01*
X149888169Y-84732117D01*
X150046572Y-84566936D01*
X150053589Y-84558177D01*
X150180237Y-84367557D01*
X150185593Y-84357693D01*
X150265857Y-84172213D01*
X150353968Y-84370111D01*
X150359426Y-84379917D01*
X150488063Y-84569202D01*
X150495171Y-84577888D01*
X150655296Y-84741400D01*
X150663829Y-84748688D01*
X150850378Y-84881263D01*
X150860068Y-84886925D01*
X150900400Y-84905904D01*
X150900401Y-88422637D01*
X150894024Y-88495535D01*
X150895945Y-88517497D01*
X150914885Y-88588184D01*
X150927594Y-88660258D01*
X150935135Y-88680976D01*
X150943743Y-88695885D01*
X150948199Y-88712517D01*
X150957517Y-88732501D01*
X150999499Y-88792457D01*
X151021927Y-88831302D01*
X151001888Y-88863622D01*
X150997873Y-88871204D01*
X150874483Y-89148342D01*
X150871535Y-89156399D01*
X150786898Y-89447719D01*
X150785070Y-89456102D01*
X150740754Y-89756212D01*
X150740081Y-89764766D01*
X150736904Y-90068114D01*
X150737398Y-90076680D01*
X150775420Y-90377653D01*
X150777072Y-90386072D01*
X150855589Y-90679101D01*
X150858368Y-90687218D01*
X150975927Y-90966879D01*
X150979782Y-90974544D01*
X151134207Y-91235663D01*
X151139067Y-91242734D01*
X151327501Y-91480479D01*
X151333276Y-91486824D01*
X151552232Y-91696797D01*
X151558814Y-91702301D01*
X151804242Y-91880614D01*
X151811510Y-91885173D01*
X152078866Y-92028528D01*
X152086686Y-92032059D01*
X152371025Y-92137804D01*
X152379251Y-92140241D01*
X152675310Y-92206418D01*
X152683792Y-92207716D01*
X152986092Y-92233101D01*
X152994671Y-92233236D01*
X153297621Y-92217359D01*
X153306139Y-92216328D01*
X153604130Y-92159483D01*
X153612429Y-92157306D01*
X153899950Y-92060544D01*
X153907877Y-92057261D01*
X154179604Y-91922374D01*
X154187011Y-91918045D01*
X154437919Y-91747529D01*
X154444670Y-91742235D01*
X154670114Y-91539245D01*
X154676085Y-91533083D01*
X154871895Y-91301374D01*
X154876975Y-91294459D01*
X155039526Y-91038319D01*
X155043620Y-91030779D01*
X155169905Y-90754949D01*
X155172937Y-90746923D01*
X155260619Y-90456505D01*
X155262535Y-90448142D01*
X155310043Y-90148186D01*
X155310817Y-90138977D01*
X155314474Y-89789706D01*
X155313894Y-89780484D01*
X155272678Y-89479600D01*
X155270938Y-89471198D01*
X155189357Y-89179008D01*
X155186493Y-89170921D01*
X155066012Y-88892505D01*
X155062077Y-88884881D01*
X154904926Y-88625393D01*
X154899992Y-88618374D01*
X154709079Y-88382615D01*
X154703238Y-88376330D01*
X154482095Y-88168662D01*
X154475455Y-88163228D01*
X154228174Y-87987494D01*
X154220858Y-87983011D01*
X153952014Y-87842463D01*
X153944158Y-87839014D01*
X153658729Y-87736254D01*
X153650477Y-87733903D01*
X153353741Y-87670829D01*
X153345246Y-87669621D01*
X153042697Y-87647403D01*
X153034117Y-87647358D01*
X152731350Y-87666406D01*
X152722843Y-87667526D01*
X152425464Y-87727489D01*
X152417188Y-87729753D01*
X152172400Y-87814997D01*
X152172400Y-84905172D01*
X152224931Y-84879778D01*
X152234561Y-84874014D01*
X152419712Y-84739495D01*
X152428169Y-84732117D01*
X152586572Y-84566936D01*
X152593589Y-84558177D01*
X152720237Y-84367557D01*
X152725593Y-84357693D01*
X152816483Y-84147658D01*
X152820007Y-84137003D01*
X152872456Y-83913386D01*
X152874103Y-83900615D01*
X152881806Y-83606444D01*
X152880830Y-83593606D01*
X152840156Y-83367550D01*
X152837194Y-83356725D01*
X152757420Y-83142220D01*
X152752589Y-83132091D01*
X152636090Y-82935102D01*
X152629541Y-82925988D01*
X152480001Y-82752743D01*
X152471941Y-82744933D01*
X152449548Y-82726800D01*
X153153270Y-82726800D01*
X153130277Y-82761211D01*
G36*
X138568700Y-95552806D02*
G01*
X138458967Y-95348155D01*
X138453349Y-95339471D01*
X138299231Y-95139346D01*
X138292272Y-95131697D01*
X138107537Y-94959429D01*
X138099421Y-94953019D01*
X137889032Y-94813236D01*
X137879978Y-94808238D01*
X137649583Y-94704695D01*
X137639834Y-94701243D01*
X137395623Y-94636719D01*
X137385442Y-94634906D01*
X137319602Y-94628682D01*
X137237200Y-94703661D01*
X137237199Y-96343200D01*
X136981200Y-96343199D01*
X136981201Y-94700157D01*
X136885385Y-94624486D01*
X136615713Y-94688731D01*
X136605883Y-94691943D01*
X136373027Y-94789827D01*
X136363854Y-94794602D01*
X136150112Y-94929203D01*
X136141842Y-94935412D01*
X136066800Y-95002037D01*
X136066800Y-92152394D01*
X136074690Y-92153963D01*
X136087010Y-92155176D01*
X138029790Y-92155176D01*
X138042110Y-92153963D01*
X138159458Y-92130621D01*
X138182389Y-92121123D01*
X138287044Y-92051195D01*
X138304595Y-92033644D01*
X138374523Y-91928989D01*
X138384021Y-91906058D01*
X138407363Y-91788710D01*
X138408576Y-91776390D01*
X138408576Y-89833610D01*
X138407363Y-89821290D01*
X138384021Y-89703942D01*
X138374523Y-89681011D01*
X138304595Y-89576356D01*
X138287044Y-89558805D01*
X138182389Y-89488877D01*
X138159458Y-89479379D01*
X138110615Y-89469663D01*
X138187130Y-89405003D01*
X138194455Y-89397703D01*
X138358166Y-89205344D01*
X138364201Y-89196946D01*
X138494295Y-88980431D01*
X138498877Y-88971161D01*
X138568701Y-88794807D01*
X138568700Y-95552806D01*
G37*
X138568700Y-95552806D02*
X138458967Y-95348155D01*
X138453349Y-95339471D01*
X138299231Y-95139346D01*
X138292272Y-95131697D01*
X138107537Y-94959429D01*
X138099421Y-94953019D01*
X137889032Y-94813236D01*
X137879978Y-94808238D01*
X137649583Y-94704695D01*
X137639834Y-94701243D01*
X137395623Y-94636719D01*
X137385442Y-94634906D01*
X137319602Y-94628682D01*
X137237200Y-94703661D01*
X137237199Y-96343200D01*
X136981200Y-96343199D01*
X136981201Y-94700157D01*
X136885385Y-94624486D01*
X136615713Y-94688731D01*
X136605883Y-94691943D01*
X136373027Y-94789827D01*
X136363854Y-94794602D01*
X136150112Y-94929203D01*
X136141842Y-94935412D01*
X136066800Y-95002037D01*
X136066800Y-92152394D01*
X136074690Y-92153963D01*
X136087010Y-92155176D01*
X138029790Y-92155176D01*
X138042110Y-92153963D01*
X138159458Y-92130621D01*
X138182389Y-92121123D01*
X138287044Y-92051195D01*
X138304595Y-92033644D01*
X138374523Y-91928989D01*
X138384021Y-91906058D01*
X138407363Y-91788710D01*
X138408576Y-91776390D01*
X138408576Y-89833610D01*
X138407363Y-89821290D01*
X138384021Y-89703942D01*
X138374523Y-89681011D01*
X138304595Y-89576356D01*
X138287044Y-89558805D01*
X138182389Y-89488877D01*
X138159458Y-89479379D01*
X138110615Y-89469663D01*
X138187130Y-89405003D01*
X138194455Y-89397703D01*
X138358166Y-89205344D01*
X138364201Y-89196946D01*
X138494295Y-88980431D01*
X138498877Y-88971161D01*
X138568701Y-88794807D01*
X138568700Y-95552806D01*
G36*
X159640000Y-85488987D02*
G01*
X159636949Y-85484271D01*
X159482831Y-85284146D01*
X159475872Y-85276497D01*
X159291137Y-85104229D01*
X159283021Y-85097819D01*
X159072632Y-84958036D01*
X159063578Y-84953038D01*
X158833183Y-84849495D01*
X158823434Y-84846043D01*
X158579223Y-84781519D01*
X158569042Y-84779706D01*
X158503202Y-84773482D01*
X158420800Y-84848461D01*
X158420799Y-86158192D01*
X158420800Y-86158193D01*
X158420799Y-86488000D01*
X156783319Y-86487999D01*
X156707976Y-86574672D01*
X156726664Y-86707644D01*
X156728937Y-86717732D01*
X156804473Y-86958766D01*
X156808364Y-86968348D01*
X156922252Y-87193808D01*
X156927655Y-87202626D01*
X157076838Y-87406458D01*
X157083609Y-87414275D01*
X157237756Y-87565226D01*
X157191742Y-87574379D01*
X157168811Y-87583877D01*
X157064156Y-87653805D01*
X157046605Y-87671356D01*
X156976677Y-87776011D01*
X156967179Y-87798942D01*
X156943837Y-87916290D01*
X156942624Y-87928610D01*
X156942624Y-89871390D01*
X156943837Y-89883710D01*
X156967179Y-90001058D01*
X156976677Y-90023989D01*
X157046605Y-90128644D01*
X157064156Y-90146195D01*
X157168811Y-90216123D01*
X157191742Y-90225621D01*
X157309090Y-90248963D01*
X157321410Y-90250176D01*
X159264190Y-90250176D01*
X159276510Y-90248963D01*
X159393858Y-90225621D01*
X159416789Y-90216123D01*
X159521444Y-90146195D01*
X159538995Y-90128644D01*
X159608923Y-90023989D01*
X159618421Y-90001058D01*
X159640000Y-89892572D01*
X159640000Y-92304737D01*
X159632668Y-92265174D01*
X159629532Y-92254054D01*
X159549385Y-92045265D01*
X159544275Y-92034904D01*
X159427421Y-91844216D01*
X159420509Y-91834959D01*
X159270862Y-91668759D01*
X159262378Y-91660916D01*
X159084950Y-91524771D01*
X159075179Y-91518606D01*
X158875911Y-91417074D01*
X158865180Y-91412792D01*
X158650746Y-91349274D01*
X158639415Y-91347020D01*
X158416996Y-91323642D01*
X158405443Y-91323491D01*
X158182489Y-91341039D01*
X158171103Y-91342995D01*
X157987758Y-91392122D01*
X156477700Y-89882065D01*
X156477700Y-85073135D01*
X156516404Y-85034431D01*
X156631982Y-85071984D01*
X156643251Y-85074534D01*
X156864981Y-85103725D01*
X156876525Y-85104179D01*
X157099863Y-85092475D01*
X157111297Y-85090817D01*
X157328761Y-85038608D01*
X157339702Y-85034894D01*
X157531223Y-84949623D01*
X157333712Y-85074003D01*
X157325442Y-85080212D01*
X157136554Y-85247914D01*
X157129409Y-85255391D01*
X156970447Y-85451693D01*
X156964620Y-85460236D01*
X156839854Y-85679864D01*
X156835499Y-85689244D01*
X156748279Y-85926300D01*
X156745516Y-85936266D01*
X156706531Y-86140631D01*
X156782118Y-86232000D01*
X158090991Y-86232001D01*
X158164800Y-86158192D01*
X158164801Y-84844957D01*
X158068986Y-84769286D01*
X157799313Y-84833531D01*
X157789483Y-84836743D01*
X157563799Y-84931612D01*
X157738401Y-84811612D01*
X157747284Y-84804224D01*
X157905424Y-84646084D01*
X157912812Y-84637201D01*
X158039485Y-84452890D01*
X158045130Y-84442810D01*
X158136094Y-84238502D01*
X158139808Y-84227561D01*
X158192210Y-84009293D01*
X158193934Y-83996199D01*
X158201411Y-83710652D01*
X158200374Y-83697486D01*
X158159468Y-83476774D01*
X158156332Y-83465654D01*
X158076185Y-83256865D01*
X158071075Y-83246504D01*
X157954221Y-83055816D01*
X157947309Y-83046559D01*
X157797662Y-82880359D01*
X157789178Y-82872516D01*
X157611750Y-82736371D01*
X157601979Y-82730206D01*
X157595294Y-82726800D01*
X159640000Y-82726800D01*
X159640000Y-85488987D01*
G37*
X159640000Y-85488987D02*
X159636949Y-85484271D01*
X159482831Y-85284146D01*
X159475872Y-85276497D01*
X159291137Y-85104229D01*
X159283021Y-85097819D01*
X159072632Y-84958036D01*
X159063578Y-84953038D01*
X158833183Y-84849495D01*
X158823434Y-84846043D01*
X158579223Y-84781519D01*
X158569042Y-84779706D01*
X158503202Y-84773482D01*
X158420800Y-84848461D01*
X158420799Y-86158192D01*
X158420800Y-86158193D01*
X158420799Y-86488000D01*
X156783319Y-86487999D01*
X156707976Y-86574672D01*
X156726664Y-86707644D01*
X156728937Y-86717732D01*
X156804473Y-86958766D01*
X156808364Y-86968348D01*
X156922252Y-87193808D01*
X156927655Y-87202626D01*
X157076838Y-87406458D01*
X157083609Y-87414275D01*
X157237756Y-87565226D01*
X157191742Y-87574379D01*
X157168811Y-87583877D01*
X157064156Y-87653805D01*
X157046605Y-87671356D01*
X156976677Y-87776011D01*
X156967179Y-87798942D01*
X156943837Y-87916290D01*
X156942624Y-87928610D01*
X156942624Y-89871390D01*
X156943837Y-89883710D01*
X156967179Y-90001058D01*
X156976677Y-90023989D01*
X157046605Y-90128644D01*
X157064156Y-90146195D01*
X157168811Y-90216123D01*
X157191742Y-90225621D01*
X157309090Y-90248963D01*
X157321410Y-90250176D01*
X159264190Y-90250176D01*
X159276510Y-90248963D01*
X159393858Y-90225621D01*
X159416789Y-90216123D01*
X159521444Y-90146195D01*
X159538995Y-90128644D01*
X159608923Y-90023989D01*
X159618421Y-90001058D01*
X159640000Y-89892572D01*
X159640000Y-92304737D01*
X159632668Y-92265174D01*
X159629532Y-92254054D01*
X159549385Y-92045265D01*
X159544275Y-92034904D01*
X159427421Y-91844216D01*
X159420509Y-91834959D01*
X159270862Y-91668759D01*
X159262378Y-91660916D01*
X159084950Y-91524771D01*
X159075179Y-91518606D01*
X158875911Y-91417074D01*
X158865180Y-91412792D01*
X158650746Y-91349274D01*
X158639415Y-91347020D01*
X158416996Y-91323642D01*
X158405443Y-91323491D01*
X158182489Y-91341039D01*
X158171103Y-91342995D01*
X157987758Y-91392122D01*
X156477700Y-89882065D01*
X156477700Y-85073135D01*
X156516404Y-85034431D01*
X156631982Y-85071984D01*
X156643251Y-85074534D01*
X156864981Y-85103725D01*
X156876525Y-85104179D01*
X157099863Y-85092475D01*
X157111297Y-85090817D01*
X157328761Y-85038608D01*
X157339702Y-85034894D01*
X157531223Y-84949623D01*
X157333712Y-85074003D01*
X157325442Y-85080212D01*
X157136554Y-85247914D01*
X157129409Y-85255391D01*
X156970447Y-85451693D01*
X156964620Y-85460236D01*
X156839854Y-85679864D01*
X156835499Y-85689244D01*
X156748279Y-85926300D01*
X156745516Y-85936266D01*
X156706531Y-86140631D01*
X156782118Y-86232000D01*
X158090991Y-86232001D01*
X158164800Y-86158192D01*
X158164801Y-84844957D01*
X158068986Y-84769286D01*
X157799313Y-84833531D01*
X157789483Y-84836743D01*
X157563799Y-84931612D01*
X157738401Y-84811612D01*
X157747284Y-84804224D01*
X157905424Y-84646084D01*
X157912812Y-84637201D01*
X158039485Y-84452890D01*
X158045130Y-84442810D01*
X158136094Y-84238502D01*
X158139808Y-84227561D01*
X158192210Y-84009293D01*
X158193934Y-83996199D01*
X158201411Y-83710652D01*
X158200374Y-83697486D01*
X158159468Y-83476774D01*
X158156332Y-83465654D01*
X158076185Y-83256865D01*
X158071075Y-83246504D01*
X157954221Y-83055816D01*
X157947309Y-83046559D01*
X157797662Y-82880359D01*
X157789178Y-82872516D01*
X157611750Y-82736371D01*
X157601979Y-82730206D01*
X157595294Y-82726800D01*
X159640000Y-82726800D01*
X159640000Y-85488987D01*
G36*
X136471437Y-82734690D02*
G01*
X136470224Y-82747010D01*
X136470224Y-84689790D01*
X136471437Y-84702110D01*
X136494779Y-84819458D01*
X136504277Y-84842389D01*
X136574205Y-84947044D01*
X136591756Y-84964595D01*
X136696411Y-85034523D01*
X136719342Y-85044021D01*
X136836690Y-85067363D01*
X136849010Y-85068576D01*
X138360940Y-85068576D01*
X138568701Y-85276337D01*
X138568701Y-87738877D01*
X138531653Y-87630050D01*
X138527530Y-87620566D01*
X138408167Y-87397955D01*
X138402549Y-87389271D01*
X138248431Y-87189146D01*
X138241472Y-87181497D01*
X138056737Y-87009229D01*
X138048621Y-87002819D01*
X137838232Y-86863036D01*
X137829178Y-86858038D01*
X137598783Y-86754495D01*
X137589034Y-86751043D01*
X137344823Y-86686519D01*
X137334642Y-86684706D01*
X137268802Y-86678482D01*
X137186400Y-86753461D01*
X137186399Y-88393000D01*
X136930400Y-88392999D01*
X136930401Y-86749957D01*
X136834585Y-86674286D01*
X136564913Y-86738531D01*
X136555083Y-86741743D01*
X136322227Y-86839627D01*
X136313054Y-86844402D01*
X136099312Y-86979003D01*
X136091042Y-86985212D01*
X136066800Y-87006735D01*
X136066800Y-82726800D01*
X136473006Y-82726800D01*
X136471437Y-82734690D01*
G37*
X136471437Y-82734690D02*
X136470224Y-82747010D01*
X136470224Y-84689790D01*
X136471437Y-84702110D01*
X136494779Y-84819458D01*
X136504277Y-84842389D01*
X136574205Y-84947044D01*
X136591756Y-84964595D01*
X136696411Y-85034523D01*
X136719342Y-85044021D01*
X136836690Y-85067363D01*
X136849010Y-85068576D01*
X138360940Y-85068576D01*
X138568701Y-85276337D01*
X138568701Y-87738877D01*
X138531653Y-87630050D01*
X138527530Y-87620566D01*
X138408167Y-87397955D01*
X138402549Y-87389271D01*
X138248431Y-87189146D01*
X138241472Y-87181497D01*
X138056737Y-87009229D01*
X138048621Y-87002819D01*
X137838232Y-86863036D01*
X137829178Y-86858038D01*
X137598783Y-86754495D01*
X137589034Y-86751043D01*
X137344823Y-86686519D01*
X137334642Y-86684706D01*
X137268802Y-86678482D01*
X137186400Y-86753461D01*
X137186399Y-88393000D01*
X136930400Y-88392999D01*
X136930401Y-86749957D01*
X136834585Y-86674286D01*
X136564913Y-86738531D01*
X136555083Y-86741743D01*
X136322227Y-86839627D01*
X136313054Y-86844402D01*
X136099312Y-86979003D01*
X136091042Y-86985212D01*
X136066800Y-87006735D01*
X136066800Y-82726800D01*
X136473006Y-82726800D01*
X136471437Y-82734690D01*
G36*
X146584400Y-85230701D02*
G01*
X146634165Y-85271000D01*
X144697662Y-87207503D01*
X144648050Y-87249132D01*
X144633878Y-87266022D01*
X144601499Y-87322106D01*
X144564357Y-87375150D01*
X144555040Y-87395131D01*
X144551317Y-87409024D01*
X144544126Y-87421480D01*
X144536585Y-87442198D01*
X144525342Y-87505962D01*
X144508578Y-87568521D01*
X144506657Y-87590485D01*
X144512301Y-87654992D01*
X144512301Y-87694247D01*
X144493189Y-87681477D01*
X144470258Y-87671979D01*
X144352910Y-87648637D01*
X144340590Y-87647424D01*
X143062400Y-87647424D01*
X143062400Y-85471838D01*
X143465662Y-85068576D01*
X144887790Y-85068576D01*
X144900110Y-85067363D01*
X145017458Y-85044021D01*
X145040389Y-85034523D01*
X145145044Y-84964595D01*
X145162595Y-84947044D01*
X145232523Y-84842389D01*
X145242021Y-84819458D01*
X145250655Y-84776050D01*
X145427680Y-84949404D01*
X145435637Y-84956010D01*
X145642548Y-85100892D01*
X145651477Y-85106110D01*
X145879273Y-85215251D01*
X145888935Y-85218940D01*
X146131498Y-85289412D01*
X146141632Y-85291473D01*
X146243709Y-85303646D01*
X146328400Y-85228454D01*
X146328400Y-83590400D01*
X146584400Y-83590400D01*
X146584400Y-85230701D01*
G37*
X146584400Y-85230701D02*
X146634165Y-85271000D01*
X144697662Y-87207503D01*
X144648050Y-87249132D01*
X144633878Y-87266022D01*
X144601499Y-87322106D01*
X144564357Y-87375150D01*
X144555040Y-87395131D01*
X144551317Y-87409024D01*
X144544126Y-87421480D01*
X144536585Y-87442198D01*
X144525342Y-87505962D01*
X144508578Y-87568521D01*
X144506657Y-87590485D01*
X144512301Y-87654992D01*
X144512301Y-87694247D01*
X144493189Y-87681477D01*
X144470258Y-87671979D01*
X144352910Y-87648637D01*
X144340590Y-87647424D01*
X143062400Y-87647424D01*
X143062400Y-85471838D01*
X143465662Y-85068576D01*
X144887790Y-85068576D01*
X144900110Y-85067363D01*
X145017458Y-85044021D01*
X145040389Y-85034523D01*
X145145044Y-84964595D01*
X145162595Y-84947044D01*
X145232523Y-84842389D01*
X145242021Y-84819458D01*
X145250655Y-84776050D01*
X145427680Y-84949404D01*
X145435637Y-84956010D01*
X145642548Y-85100892D01*
X145651477Y-85106110D01*
X145879273Y-85215251D01*
X145888935Y-85218940D01*
X146131498Y-85289412D01*
X146141632Y-85291473D01*
X146243709Y-85303646D01*
X146328400Y-85228454D01*
X146328400Y-83590400D01*
X146584400Y-83590400D01*
X146584400Y-85230701D01*
M02*
