G04 #@! TF.GenerationSoftware,KiCad,Pcbnew,(5.99.0-1105-g741783c6d)*
G04 #@! TF.CreationDate,2020-03-14T19:36:21+02:00*
G04 #@! TF.ProjectId,3pdt-basic,33706474-2d62-4617-9369-632e6b696361,rev?*
G04 #@! TF.SameCoordinates,Original*
G04 #@! TF.FileFunction,Legend,Bot*
G04 #@! TF.FilePolarity,Positive*
%FSLAX46Y46*%
G04 Gerber Fmt 4.6, Leading zero omitted, Abs format (unit mm)*
G04 Created by KiCad (PCBNEW (5.99.0-1105-g741783c6d)) date 2020-03-14 19:36:21*
%MOMM*%
%LPD*%
G01*
G04 APERTURE LIST*
%ADD10C,0.100000*%
%ADD11C,0.050000*%
%ADD12C,0.120000*%
%ADD13C,0.152400*%
%ADD14C,0.127000*%
%ADD15C,0.080000*%
%ADD16C,1.900000*%
%ADD17R,1.900000X1.900000*%
%ADD18O,3.916000X3.916000*%
%ADD19R,3.916000X3.916000*%
%ADD20O,2.030400X2.030400*%
%ADD21R,2.030400X2.030400*%
%ADD22O,1.700000X1.700000*%
%ADD23C,1.700000*%
G04 APERTURE END LIST*
D10*
X155754971Y-86667200D02*
X155754971Y-87233866D01*
X155783542Y-87300533D01*
X155812114Y-87333866D01*
X155869257Y-87367200D01*
X155954971Y-87367200D01*
X156012114Y-87333866D01*
X155754971Y-87100533D02*
X155812114Y-87133866D01*
X155926400Y-87133866D01*
X155983542Y-87100533D01*
X156012114Y-87067200D01*
X156040685Y-87000533D01*
X156040685Y-86800533D01*
X156012114Y-86733866D01*
X155983542Y-86700533D01*
X155926400Y-86667200D01*
X155812114Y-86667200D01*
X155754971Y-86700533D01*
X155469257Y-87133866D02*
X155469257Y-86667200D01*
X155469257Y-86433866D02*
X155497828Y-86467200D01*
X155469257Y-86500533D01*
X155440685Y-86467200D01*
X155469257Y-86433866D01*
X155469257Y-86500533D01*
X155269257Y-86667200D02*
X155040685Y-86667200D01*
X155183542Y-86433866D02*
X155183542Y-87033866D01*
X155154971Y-87100533D01*
X155097828Y-87133866D01*
X155040685Y-87133866D01*
X154840685Y-87133866D02*
X154840685Y-86433866D01*
X154583542Y-87133866D02*
X154583542Y-86767200D01*
X154612114Y-86700533D01*
X154669257Y-86667200D01*
X154754971Y-86667200D01*
X154812114Y-86700533D01*
X154840685Y-86733866D01*
X154040685Y-86667200D02*
X154040685Y-87133866D01*
X154297828Y-86667200D02*
X154297828Y-87033866D01*
X154269257Y-87100533D01*
X154212114Y-87133866D01*
X154126400Y-87133866D01*
X154069257Y-87100533D01*
X154040685Y-87067200D01*
X153754971Y-87133866D02*
X153754971Y-86433866D01*
X153754971Y-86700533D02*
X153697828Y-86667200D01*
X153583542Y-86667200D01*
X153526400Y-86700533D01*
X153497828Y-86733866D01*
X153469257Y-86800533D01*
X153469257Y-87000533D01*
X153497828Y-87067200D01*
X153526400Y-87100533D01*
X153583542Y-87133866D01*
X153697828Y-87133866D01*
X153754971Y-87100533D01*
X153212114Y-87067200D02*
X153183542Y-87100533D01*
X153212114Y-87133866D01*
X153240685Y-87100533D01*
X153212114Y-87067200D01*
X153212114Y-87133866D01*
X152669257Y-87100533D02*
X152726400Y-87133866D01*
X152840685Y-87133866D01*
X152897828Y-87100533D01*
X152926400Y-87067200D01*
X152954971Y-87000533D01*
X152954971Y-86800533D01*
X152926400Y-86733866D01*
X152897828Y-86700533D01*
X152840685Y-86667200D01*
X152726400Y-86667200D01*
X152669257Y-86700533D01*
X152326400Y-87133866D02*
X152383542Y-87100533D01*
X152412114Y-87067200D01*
X152440685Y-87000533D01*
X152440685Y-86800533D01*
X152412114Y-86733866D01*
X152383542Y-86700533D01*
X152326400Y-86667200D01*
X152240685Y-86667200D01*
X152183542Y-86700533D01*
X152154971Y-86733866D01*
X152126400Y-86800533D01*
X152126400Y-87000533D01*
X152154971Y-87067200D01*
X152183542Y-87100533D01*
X152240685Y-87133866D01*
X152326400Y-87133866D01*
X151869257Y-87133866D02*
X151869257Y-86667200D01*
X151869257Y-86733866D02*
X151840685Y-86700533D01*
X151783542Y-86667200D01*
X151697828Y-86667200D01*
X151640685Y-86700533D01*
X151612114Y-86767200D01*
X151612114Y-87133866D01*
X151612114Y-86767200D02*
X151583542Y-86700533D01*
X151526400Y-86667200D01*
X151440685Y-86667200D01*
X151383542Y-86700533D01*
X151354971Y-86767200D01*
X151354971Y-87133866D01*
X150640685Y-86400533D02*
X151154971Y-87300533D01*
X150440685Y-87133866D02*
X150440685Y-86667200D01*
X150440685Y-86800533D02*
X150412114Y-86733866D01*
X150383542Y-86700533D01*
X150326400Y-86667200D01*
X150269257Y-86667200D01*
X149983542Y-87133866D02*
X150040685Y-87100533D01*
X150069257Y-87067200D01*
X150097828Y-87000533D01*
X150097828Y-86800533D01*
X150069257Y-86733866D01*
X150040685Y-86700533D01*
X149983542Y-86667200D01*
X149897828Y-86667200D01*
X149840685Y-86700533D01*
X149812114Y-86733866D01*
X149783542Y-86800533D01*
X149783542Y-87000533D01*
X149812114Y-87067200D01*
X149840685Y-87100533D01*
X149897828Y-87133866D01*
X149983542Y-87133866D01*
X149269257Y-87100533D02*
X149326400Y-87133866D01*
X149440685Y-87133866D01*
X149497828Y-87100533D01*
X149526400Y-87067200D01*
X149554971Y-87000533D01*
X149554971Y-86800533D01*
X149526400Y-86733866D01*
X149497828Y-86700533D01*
X149440685Y-86667200D01*
X149326400Y-86667200D01*
X149269257Y-86700533D01*
X149012114Y-87133866D02*
X149012114Y-86433866D01*
X148954971Y-86867200D02*
X148783542Y-87133866D01*
X148783542Y-86667200D02*
X149012114Y-86933866D01*
X148440685Y-87133866D02*
X148497828Y-87100533D01*
X148526400Y-87067200D01*
X148554971Y-87000533D01*
X148554971Y-86800533D01*
X148526400Y-86733866D01*
X148497828Y-86700533D01*
X148440685Y-86667200D01*
X148354971Y-86667200D01*
X148297828Y-86700533D01*
X148269257Y-86733866D01*
X148240685Y-86800533D01*
X148240685Y-87000533D01*
X148269257Y-87067200D01*
X148297828Y-87100533D01*
X148354971Y-87133866D01*
X148440685Y-87133866D01*
X147897828Y-87133866D02*
X147954971Y-87100533D01*
X147983542Y-87033866D01*
X147983542Y-86433866D01*
X147412114Y-87133866D02*
X147412114Y-86767200D01*
X147440685Y-86700533D01*
X147497828Y-86667200D01*
X147612114Y-86667200D01*
X147669257Y-86700533D01*
X147412114Y-87100533D02*
X147469257Y-87133866D01*
X147612114Y-87133866D01*
X147669257Y-87100533D01*
X147697828Y-87033866D01*
X147697828Y-86967200D01*
X147669257Y-86900533D01*
X147612114Y-86867200D01*
X147469257Y-86867200D01*
X147412114Y-86833866D01*
X146697828Y-86400533D02*
X147212114Y-87300533D01*
X146526400Y-87100533D02*
X146469257Y-87133866D01*
X146354971Y-87133866D01*
X146297828Y-87100533D01*
X146269257Y-87033866D01*
X146269257Y-87000533D01*
X146297828Y-86933866D01*
X146354971Y-86900533D01*
X146440685Y-86900533D01*
X146497828Y-86867200D01*
X146526400Y-86800533D01*
X146526400Y-86767200D01*
X146497828Y-86700533D01*
X146440685Y-86667200D01*
X146354971Y-86667200D01*
X146297828Y-86700533D01*
X146097828Y-86667200D02*
X145869257Y-86667200D01*
X146012114Y-86433866D02*
X146012114Y-87033866D01*
X145983542Y-87100533D01*
X145926400Y-87133866D01*
X145869257Y-87133866D01*
X145583542Y-87133866D02*
X145640685Y-87100533D01*
X145669257Y-87067200D01*
X145697828Y-87000533D01*
X145697828Y-86800533D01*
X145669257Y-86733866D01*
X145640685Y-86700533D01*
X145583542Y-86667200D01*
X145497828Y-86667200D01*
X145440685Y-86700533D01*
X145412114Y-86733866D01*
X145383542Y-86800533D01*
X145383542Y-87000533D01*
X145412114Y-87067200D01*
X145440685Y-87100533D01*
X145497828Y-87133866D01*
X145583542Y-87133866D01*
X145126400Y-87133866D02*
X145126400Y-86667200D01*
X145126400Y-86733866D02*
X145097828Y-86700533D01*
X145040685Y-86667200D01*
X144954971Y-86667200D01*
X144897828Y-86700533D01*
X144869257Y-86767200D01*
X144869257Y-87133866D01*
X144869257Y-86767200D02*
X144840685Y-86700533D01*
X144783542Y-86667200D01*
X144697828Y-86667200D01*
X144640685Y-86700533D01*
X144612114Y-86767200D01*
X144612114Y-87133866D01*
X144326400Y-86667200D02*
X144326400Y-87367200D01*
X144326400Y-86700533D02*
X144269257Y-86667200D01*
X144154971Y-86667200D01*
X144097828Y-86700533D01*
X144069257Y-86733866D01*
X144040685Y-86800533D01*
X144040685Y-87000533D01*
X144069257Y-87067200D01*
X144097828Y-87100533D01*
X144154971Y-87133866D01*
X144269257Y-87133866D01*
X144326400Y-87100533D01*
X143783542Y-86867200D02*
X143326400Y-86867200D01*
X143040685Y-87133866D02*
X143040685Y-86433866D01*
X143040685Y-86700533D02*
X142983542Y-86667200D01*
X142869257Y-86667200D01*
X142812114Y-86700533D01*
X142783542Y-86733866D01*
X142754971Y-86800533D01*
X142754971Y-87000533D01*
X142783542Y-87067200D01*
X142812114Y-87100533D01*
X142869257Y-87133866D01*
X142983542Y-87133866D01*
X143040685Y-87100533D01*
X142497828Y-87133866D02*
X142497828Y-86667200D01*
X142497828Y-86800533D02*
X142469257Y-86733866D01*
X142440685Y-86700533D01*
X142383542Y-86667200D01*
X142326400Y-86667200D01*
X141897828Y-87100533D02*
X141954971Y-87133866D01*
X142069257Y-87133866D01*
X142126400Y-87100533D01*
X142154971Y-87033866D01*
X142154971Y-86767200D01*
X142126400Y-86700533D01*
X142069257Y-86667200D01*
X141954971Y-86667200D01*
X141897828Y-86700533D01*
X141869257Y-86767200D01*
X141869257Y-86833866D01*
X142154971Y-86900533D01*
X141354971Y-87133866D02*
X141354971Y-86767200D01*
X141383542Y-86700533D01*
X141440685Y-86667200D01*
X141554971Y-86667200D01*
X141612114Y-86700533D01*
X141354971Y-87100533D02*
X141412114Y-87133866D01*
X141554971Y-87133866D01*
X141612114Y-87100533D01*
X141640685Y-87033866D01*
X141640685Y-86967200D01*
X141612114Y-86900533D01*
X141554971Y-86867200D01*
X141412114Y-86867200D01*
X141354971Y-86833866D01*
X141069257Y-87133866D02*
X141069257Y-86433866D01*
X141012114Y-86867200D02*
X140840685Y-87133866D01*
X140840685Y-86667200D02*
X141069257Y-86933866D01*
X140497828Y-87133866D02*
X140554971Y-87100533D01*
X140583542Y-87067200D01*
X140612114Y-87000533D01*
X140612114Y-86800533D01*
X140583542Y-86733866D01*
X140554971Y-86700533D01*
X140497828Y-86667200D01*
X140412114Y-86667200D01*
X140354971Y-86700533D01*
X140326400Y-86733866D01*
X140297828Y-86800533D01*
X140297828Y-87000533D01*
X140326400Y-87067200D01*
X140354971Y-87100533D01*
X140412114Y-87133866D01*
X140497828Y-87133866D01*
X139783542Y-86667200D02*
X139783542Y-87133866D01*
X140040685Y-86667200D02*
X140040685Y-87033866D01*
X140012114Y-87100533D01*
X139954971Y-87133866D01*
X139869257Y-87133866D01*
X139812114Y-87100533D01*
X139783542Y-87067200D01*
X139583542Y-86667200D02*
X139354971Y-86667200D01*
X139497828Y-86433866D02*
X139497828Y-87033866D01*
X139469257Y-87100533D01*
X139412114Y-87133866D01*
X139354971Y-87133866D01*
D11*
X153851752Y-85417790D02*
X153851752Y-84917790D01*
X153566038Y-85417790D02*
X153780323Y-85132076D01*
X153566038Y-84917790D02*
X153851752Y-85203504D01*
X159795352Y-96187390D02*
X159795352Y-95687390D01*
X159509638Y-96187390D02*
X159723923Y-95901676D01*
X159509638Y-95687390D02*
X159795352Y-95973104D01*
D12*
X157323535Y-84898608D02*
G75*
G02*
X154091200Y-85055516I-1672335J1078608D01*
G01*
X157323535Y-82741392D02*
G75*
G03*
X154091200Y-82584484I-1672335J-1078608D01*
G01*
X156692330Y-84899837D02*
G75*
G02*
X154610239Y-84900000I-1041130J1079837D01*
G01*
X156692330Y-82740163D02*
G75*
G03*
X154610239Y-82740000I-1041130J-1079837D01*
G01*
X154091200Y-85056000D02*
X154091200Y-84900000D01*
X154091200Y-82740000D02*
X154091200Y-82584000D01*
D13*
X156926400Y-85840400D02*
X138526400Y-85840400D01*
X138526400Y-85840400D02*
X138526400Y-103440400D01*
X138526400Y-103440400D02*
X156926400Y-103440400D01*
X156926400Y-103440400D02*
X156926400Y-85840400D01*
D14*
X147726400Y-94005400D02*
X147726400Y-95275400D01*
X147091400Y-94640400D02*
X148361400Y-94640400D01*
X148361400Y-94640400D02*
G75*
G03*
X148361400Y-94640400I-635000J0D01*
G01*
D15*
X138379200Y-100723700D02*
X135839200Y-100723700D01*
X135839200Y-94246700D02*
X138379200Y-94246700D01*
X138379200Y-100025200D02*
X135839200Y-100025200D01*
X138379200Y-94945200D02*
X135839200Y-94945200D01*
X138379200Y-100723700D02*
X138379200Y-94246700D01*
X135839200Y-94246700D02*
X135839200Y-100723700D01*
X141630400Y-82448400D02*
X136550400Y-82448400D01*
X136550400Y-84988400D02*
X141630400Y-84988400D01*
X141630400Y-85686900D02*
X141630400Y-82448400D01*
X136550400Y-85686900D02*
X136550400Y-82448400D01*
X136550400Y-85686900D02*
X141630400Y-85686900D01*
X142646400Y-85686900D02*
X142646400Y-82448400D01*
X152806400Y-85623400D02*
X152806400Y-82448400D01*
X142646400Y-84988400D02*
X152806400Y-84988400D01*
X152806400Y-82448400D02*
X142646400Y-82448400D01*
X142646400Y-85686900D02*
X152806400Y-85686900D01*
D12*
X158546800Y-99210800D02*
X158546800Y-99280800D01*
X159916800Y-97840800D02*
G75*
G03*
X159916800Y-97840800I-1370000J0D01*
G01*
X159473008Y-92206065D02*
G75*
G02*
X159629916Y-95438400I-1078608J-1672335D01*
G01*
X157315792Y-92206065D02*
G75*
G03*
X157158884Y-95438400I1078608J-1672335D01*
G01*
X159474237Y-92837270D02*
G75*
G02*
X159474400Y-94919361I-1079837J-1041130D01*
G01*
X157314563Y-92837270D02*
G75*
G03*
X157314400Y-94919361I1079837J-1041130D01*
G01*
X159630400Y-95438400D02*
X159474400Y-95438400D01*
X157314400Y-95438400D02*
X157158400Y-95438400D01*
D14*
X135788400Y-93345000D02*
X138328400Y-93345000D01*
X135788400Y-92075000D02*
X135788400Y-93345000D01*
X138328400Y-92075000D02*
X138328400Y-93345000D01*
X135788400Y-89535000D02*
X138328400Y-89535000D01*
X138328400Y-86995000D02*
X135788400Y-86995000D01*
X135788400Y-92075000D02*
X138328400Y-92075000D01*
X135788400Y-89535000D02*
X135788400Y-92075000D01*
X135788400Y-86995000D02*
X135788400Y-89535000D01*
X138328400Y-89535000D02*
X138328400Y-92075000D01*
X138328400Y-86995000D02*
X138328400Y-89535000D01*
X157022800Y-91440000D02*
X159562800Y-91440000D01*
X157022800Y-90170000D02*
X157022800Y-91440000D01*
X159562800Y-90170000D02*
X159562800Y-91440000D01*
X157022800Y-87630000D02*
X159562800Y-87630000D01*
X159562800Y-85090000D02*
X157022800Y-85090000D01*
X157022800Y-90170000D02*
X159562800Y-90170000D01*
X157022800Y-87630000D02*
X157022800Y-90170000D01*
X157022800Y-85090000D02*
X157022800Y-87630000D01*
X159562800Y-87630000D02*
X159562800Y-90170000D01*
X159562800Y-85090000D02*
X159562800Y-87630000D01*
D15*
X155928190Y-83549371D02*
X155928190Y-83311276D01*
X155428190Y-83311276D01*
X155666285Y-83716038D02*
X155666285Y-83882704D01*
X155928190Y-83954133D02*
X155928190Y-83716038D01*
X155428190Y-83716038D01*
X155428190Y-83954133D01*
X155928190Y-84168419D02*
X155428190Y-84168419D01*
X155428190Y-84287466D01*
X155452000Y-84358895D01*
X155499619Y-84406514D01*
X155547238Y-84430323D01*
X155642476Y-84454133D01*
X155713904Y-84454133D01*
X155809142Y-84430323D01*
X155856761Y-84406514D01*
X155904380Y-84358895D01*
X155928190Y-84287466D01*
X155928190Y-84168419D01*
D10*
X153440685Y-102685809D02*
X153326400Y-102723904D01*
X153135923Y-102723904D01*
X153059733Y-102685809D01*
X153021638Y-102647714D01*
X152983542Y-102571523D01*
X152983542Y-102495333D01*
X153021638Y-102419142D01*
X153059733Y-102381047D01*
X153135923Y-102342952D01*
X153288304Y-102304857D01*
X153364495Y-102266761D01*
X153402590Y-102228666D01*
X153440685Y-102152476D01*
X153440685Y-102076285D01*
X153402590Y-102000095D01*
X153364495Y-101962000D01*
X153288304Y-101923904D01*
X153097828Y-101923904D01*
X152983542Y-101962000D01*
X152716876Y-101923904D02*
X152526400Y-102723904D01*
X152374019Y-102152476D01*
X152221638Y-102723904D01*
X152031161Y-101923904D01*
X151726400Y-102723904D02*
X151726400Y-101923904D01*
X151459733Y-101923904D02*
X151002590Y-101923904D01*
X151231161Y-102723904D02*
X151231161Y-101923904D01*
X150278780Y-102647714D02*
X150316876Y-102685809D01*
X150431161Y-102723904D01*
X150507352Y-102723904D01*
X150621638Y-102685809D01*
X150697828Y-102609619D01*
X150735923Y-102533428D01*
X150774019Y-102381047D01*
X150774019Y-102266761D01*
X150735923Y-102114380D01*
X150697828Y-102038190D01*
X150621638Y-101962000D01*
X150507352Y-101923904D01*
X150431161Y-101923904D01*
X150316876Y-101962000D01*
X150278780Y-102000095D01*
X149935923Y-102723904D02*
X149935923Y-101923904D01*
X149935923Y-102304857D02*
X149478780Y-102304857D01*
X149478780Y-102723904D02*
X149478780Y-101923904D01*
X148069257Y-101962000D02*
X148145447Y-101923904D01*
X148259733Y-101923904D01*
X148374019Y-101962000D01*
X148450209Y-102038190D01*
X148488304Y-102114380D01*
X148526400Y-102266761D01*
X148526400Y-102381047D01*
X148488304Y-102533428D01*
X148450209Y-102609619D01*
X148374019Y-102685809D01*
X148259733Y-102723904D01*
X148183542Y-102723904D01*
X148069257Y-102685809D01*
X148031161Y-102647714D01*
X148031161Y-102381047D01*
X148183542Y-102381047D01*
X147535923Y-101923904D02*
X147383542Y-101923904D01*
X147307352Y-101962000D01*
X147231161Y-102038190D01*
X147193066Y-102190571D01*
X147193066Y-102457238D01*
X147231161Y-102609619D01*
X147307352Y-102685809D01*
X147383542Y-102723904D01*
X147535923Y-102723904D01*
X147612114Y-102685809D01*
X147688304Y-102609619D01*
X147726400Y-102457238D01*
X147726400Y-102190571D01*
X147688304Y-102038190D01*
X147612114Y-101962000D01*
X147535923Y-101923904D01*
X146850209Y-102304857D02*
X146583542Y-102304857D01*
X146469257Y-102723904D02*
X146850209Y-102723904D01*
X146850209Y-101923904D01*
X146469257Y-101923904D01*
X146164495Y-102685809D02*
X146050209Y-102723904D01*
X145859733Y-102723904D01*
X145783542Y-102685809D01*
X145745447Y-102647714D01*
X145707352Y-102571523D01*
X145707352Y-102495333D01*
X145745447Y-102419142D01*
X145783542Y-102381047D01*
X145859733Y-102342952D01*
X146012114Y-102304857D01*
X146088304Y-102266761D01*
X146126400Y-102228666D01*
X146164495Y-102152476D01*
X146164495Y-102076285D01*
X146126400Y-102000095D01*
X146088304Y-101962000D01*
X146012114Y-101923904D01*
X145821638Y-101923904D01*
X145707352Y-101962000D01*
X144754971Y-102723904D02*
X144754971Y-101923904D01*
X144754971Y-102304857D02*
X144297828Y-102304857D01*
X144297828Y-102723904D02*
X144297828Y-101923904D01*
X143916876Y-102304857D02*
X143650209Y-102304857D01*
X143535923Y-102723904D02*
X143916876Y-102723904D01*
X143916876Y-101923904D01*
X143535923Y-101923904D01*
X142735923Y-102723904D02*
X143002590Y-102342952D01*
X143193066Y-102723904D02*
X143193066Y-101923904D01*
X142888304Y-101923904D01*
X142812114Y-101962000D01*
X142774019Y-102000095D01*
X142735923Y-102076285D01*
X142735923Y-102190571D01*
X142774019Y-102266761D01*
X142812114Y-102304857D01*
X142888304Y-102342952D01*
X143193066Y-102342952D01*
X142393066Y-102304857D02*
X142126400Y-102304857D01*
X142012114Y-102723904D02*
X142393066Y-102723904D01*
X142393066Y-101923904D01*
X142012114Y-101923904D01*
D15*
X137388561Y-94389600D02*
X137426657Y-94370552D01*
X137483800Y-94370552D01*
X137540942Y-94389600D01*
X137579038Y-94427695D01*
X137598085Y-94465790D01*
X137617133Y-94541980D01*
X137617133Y-94599123D01*
X137598085Y-94675314D01*
X137579038Y-94713409D01*
X137540942Y-94751504D01*
X137483800Y-94770552D01*
X137445704Y-94770552D01*
X137388561Y-94751504D01*
X137369514Y-94732457D01*
X137369514Y-94599123D01*
X137445704Y-94599123D01*
X137198085Y-94770552D02*
X137198085Y-94370552D01*
X136969514Y-94770552D01*
X136969514Y-94370552D01*
X136779038Y-94770552D02*
X136779038Y-94370552D01*
X136683800Y-94370552D01*
X136626657Y-94389600D01*
X136588561Y-94427695D01*
X136569514Y-94465790D01*
X136550466Y-94541980D01*
X136550466Y-94599123D01*
X136569514Y-94675314D01*
X136588561Y-94713409D01*
X136626657Y-94751504D01*
X136683800Y-94770552D01*
X136779038Y-94770552D01*
X137388552Y-100161752D02*
X137255219Y-100561752D01*
X137121885Y-100161752D01*
X136988552Y-100409371D02*
X136683790Y-100409371D01*
X136836171Y-100561752D02*
X136836171Y-100256990D01*
X138201352Y-85150352D02*
X138068019Y-85550352D01*
X137934685Y-85150352D01*
X137801352Y-85397971D02*
X137496590Y-85397971D01*
X137648971Y-85550352D02*
X137648971Y-85245590D01*
X140665161Y-85169400D02*
X140703257Y-85150352D01*
X140760400Y-85150352D01*
X140817542Y-85169400D01*
X140855638Y-85207495D01*
X140874685Y-85245590D01*
X140893733Y-85321780D01*
X140893733Y-85378923D01*
X140874685Y-85455114D01*
X140855638Y-85493209D01*
X140817542Y-85531304D01*
X140760400Y-85550352D01*
X140722304Y-85550352D01*
X140665161Y-85531304D01*
X140646114Y-85512257D01*
X140646114Y-85378923D01*
X140722304Y-85378923D01*
X140474685Y-85550352D02*
X140474685Y-85150352D01*
X140246114Y-85550352D01*
X140246114Y-85150352D01*
X140055638Y-85550352D02*
X140055638Y-85150352D01*
X139960400Y-85150352D01*
X139903257Y-85169400D01*
X139865161Y-85207495D01*
X139846114Y-85245590D01*
X139827066Y-85321780D01*
X139827066Y-85378923D01*
X139846114Y-85455114D01*
X139865161Y-85493209D01*
X139903257Y-85531304D01*
X139960400Y-85550352D01*
X140055638Y-85550352D01*
X151999900Y-85150352D02*
X151923709Y-85150352D01*
X151885614Y-85169400D01*
X151847519Y-85207495D01*
X151828471Y-85283685D01*
X151828471Y-85417019D01*
X151847519Y-85493209D01*
X151885614Y-85531304D01*
X151923709Y-85550352D01*
X151999900Y-85550352D01*
X152037995Y-85531304D01*
X152076090Y-85493209D01*
X152095138Y-85417019D01*
X152095138Y-85283685D01*
X152076090Y-85207495D01*
X152037995Y-85169400D01*
X151999900Y-85150352D01*
X151657042Y-85150352D02*
X151657042Y-85474161D01*
X151637995Y-85512257D01*
X151618947Y-85531304D01*
X151580852Y-85550352D01*
X151504661Y-85550352D01*
X151466566Y-85531304D01*
X151447519Y-85512257D01*
X151428471Y-85474161D01*
X151428471Y-85150352D01*
X151295138Y-85150352D02*
X151066566Y-85150352D01*
X151180852Y-85550352D02*
X151180852Y-85150352D01*
X149402757Y-85531304D02*
X149345614Y-85550352D01*
X149250376Y-85550352D01*
X149212280Y-85531304D01*
X149193233Y-85512257D01*
X149174185Y-85474161D01*
X149174185Y-85436066D01*
X149193233Y-85397971D01*
X149212280Y-85378923D01*
X149250376Y-85359876D01*
X149326566Y-85340828D01*
X149364661Y-85321780D01*
X149383709Y-85302733D01*
X149402757Y-85264638D01*
X149402757Y-85226542D01*
X149383709Y-85188447D01*
X149364661Y-85169400D01*
X149326566Y-85150352D01*
X149231328Y-85150352D01*
X149174185Y-85169400D01*
X149040852Y-85150352D02*
X148945614Y-85550352D01*
X148869423Y-85264638D01*
X148793233Y-85550352D01*
X148697995Y-85150352D01*
X146824661Y-85169400D02*
X146862757Y-85150352D01*
X146919900Y-85150352D01*
X146977042Y-85169400D01*
X147015138Y-85207495D01*
X147034185Y-85245590D01*
X147053233Y-85321780D01*
X147053233Y-85378923D01*
X147034185Y-85455114D01*
X147015138Y-85493209D01*
X146977042Y-85531304D01*
X146919900Y-85550352D01*
X146881804Y-85550352D01*
X146824661Y-85531304D01*
X146805614Y-85512257D01*
X146805614Y-85378923D01*
X146881804Y-85378923D01*
X146634185Y-85550352D02*
X146634185Y-85150352D01*
X146405614Y-85550352D01*
X146405614Y-85150352D01*
X146215138Y-85550352D02*
X146215138Y-85150352D01*
X146119900Y-85150352D01*
X146062757Y-85169400D01*
X146024661Y-85207495D01*
X146005614Y-85245590D01*
X145986566Y-85321780D01*
X145986566Y-85378923D01*
X146005614Y-85455114D01*
X146024661Y-85493209D01*
X146062757Y-85531304D01*
X146119900Y-85550352D01*
X146215138Y-85550352D01*
X144125923Y-85550352D02*
X144125923Y-85150352D01*
X143935447Y-85550352D02*
X143935447Y-85150352D01*
X143706876Y-85550352D01*
X143706876Y-85150352D01*
X157582371Y-99283080D02*
X157606180Y-99259271D01*
X157629990Y-99187842D01*
X157629990Y-99140223D01*
X157606180Y-99068795D01*
X157558561Y-99021176D01*
X157510942Y-98997366D01*
X157415704Y-98973557D01*
X157344276Y-98973557D01*
X157249038Y-98997366D01*
X157201419Y-99021176D01*
X157153800Y-99068795D01*
X157129990Y-99140223D01*
X157129990Y-99187842D01*
X157153800Y-99259271D01*
X157177609Y-99283080D01*
X157629990Y-99735461D02*
X157629990Y-99497366D01*
X157129990Y-99497366D01*
X157629990Y-100187842D02*
X157391895Y-100021176D01*
X157629990Y-99902128D02*
X157129990Y-99902128D01*
X157129990Y-100092604D01*
X157153800Y-100140223D01*
X157177609Y-100164033D01*
X157225228Y-100187842D01*
X157296657Y-100187842D01*
X157344276Y-100164033D01*
X157368085Y-100140223D01*
X157391895Y-100092604D01*
X157391895Y-99902128D01*
X158715828Y-94104590D02*
X158953923Y-94104590D01*
X158953923Y-93604590D01*
X158549161Y-93842685D02*
X158382495Y-93842685D01*
X158311066Y-94104590D02*
X158549161Y-94104590D01*
X158549161Y-93604590D01*
X158311066Y-93604590D01*
X158096780Y-94104590D02*
X158096780Y-93604590D01*
X157977733Y-93604590D01*
X157906304Y-93628400D01*
X157858685Y-93676019D01*
X157834876Y-93723638D01*
X157811066Y-93818876D01*
X157811066Y-93890304D01*
X157834876Y-93985542D01*
X157858685Y-94033161D01*
X157906304Y-94080780D01*
X157977733Y-94104590D01*
X158096780Y-94104590D01*
D10*
X137134590Y-92271904D02*
X137134590Y-92843333D01*
X137172685Y-92957619D01*
X137248876Y-93033809D01*
X137363161Y-93071904D01*
X137439352Y-93071904D01*
X136753638Y-93071904D02*
X136753638Y-92271904D01*
X158597561Y-90366904D02*
X158597561Y-90938333D01*
X158635657Y-91052619D01*
X158711847Y-91128809D01*
X158826133Y-91166904D01*
X158902323Y-91166904D01*
X158064228Y-90366904D02*
X157911847Y-90366904D01*
X157835657Y-90405000D01*
X157759466Y-90481190D01*
X157721371Y-90633571D01*
X157721371Y-90900238D01*
X157759466Y-91052619D01*
X157835657Y-91128809D01*
X157911847Y-91166904D01*
X158064228Y-91166904D01*
X158140419Y-91128809D01*
X158216609Y-91052619D01*
X158254704Y-90900238D01*
X158254704Y-90633571D01*
X158216609Y-90481190D01*
X158140419Y-90405000D01*
X158064228Y-90366904D01*
%LPC*%
D16*
X156921200Y-83820000D03*
D17*
X154381200Y-83820000D03*
D18*
X153026400Y-99340400D03*
X153026400Y-94640400D03*
X153026400Y-89940400D03*
X147726400Y-99340400D03*
X147726400Y-94640400D03*
X147726400Y-89940400D03*
X142426400Y-99340400D03*
X142426400Y-94640400D03*
D19*
X142426400Y-89940400D03*
D20*
X137109200Y-96215200D03*
D21*
X137109200Y-98755200D03*
D20*
X140360400Y-83718400D03*
D21*
X137820400Y-83718400D03*
D20*
X151536400Y-83718400D03*
X148996400Y-83718400D03*
X146456400Y-83718400D03*
D21*
X143916400Y-83718400D03*
D22*
X158546800Y-100380800D03*
D23*
X158546800Y-97840800D03*
D16*
X158394400Y-92608400D03*
D17*
X158394400Y-95148400D03*
D21*
X137058400Y-90805000D03*
D20*
X137058400Y-88265000D03*
D21*
X158292800Y-88900000D03*
D20*
X158292800Y-86360000D03*
M02*
