G04 #@! TF.GenerationSoftware,KiCad,Pcbnew,(5.99.0-1730-g52ae0df7a)*
G04 #@! TF.CreationDate,2020-05-20T09:09:00+03:00*
G04 #@! TF.ProjectId,stomp-breakout,73746f6d-702d-4627-9265-616b6f75742e,rev?*
G04 #@! TF.SameCoordinates,Original*
G04 #@! TF.FileFunction,Copper,L2,Bot*
G04 #@! TF.FilePolarity,Positive*
%FSLAX46Y46*%
G04 Gerber Fmt 4.6, Leading zero omitted, Abs format (unit mm)*
G04 Created by KiCad (PCBNEW (5.99.0-1730-g52ae0df7a)) date 2020-05-20 09:09:00*
%MOMM*%
%LPD*%
G01*
G04 APERTURE LIST*
G04 #@! TA.AperFunction,ComponentPad*
%ADD10O,1.930400X1.930400*%
G04 #@! TD*
G04 #@! TA.AperFunction,ComponentPad*
%ADD11O,1.600000X1.600000*%
G04 #@! TD*
G04 #@! TA.AperFunction,ComponentPad*
%ADD12C,1.600000*%
G04 #@! TD*
G04 #@! TA.AperFunction,ComponentPad*
%ADD13R,1.600000X1.600000*%
G04 #@! TD*
G04 #@! TA.AperFunction,ComponentPad*
%ADD14C,1.800000*%
G04 #@! TD*
G04 #@! TA.AperFunction,ComponentPad*
%ADD15R,1.800000X1.800000*%
G04 #@! TD*
G04 #@! TA.AperFunction,ComponentPad*
%ADD16R,1.930400X1.930400*%
G04 #@! TD*
G04 #@! TA.AperFunction,ComponentPad*
%ADD17O,3.816000X3.816000*%
G04 #@! TD*
G04 #@! TA.AperFunction,ComponentPad*
%ADD18R,3.816000X3.816000*%
G04 #@! TD*
G04 #@! TA.AperFunction,ViaPad*
%ADD19C,0.800000*%
G04 #@! TD*
G04 #@! TA.AperFunction,Conductor*
%ADD20C,0.508000*%
G04 #@! TD*
G04 #@! TA.AperFunction,Conductor*
%ADD21C,0.381000*%
G04 #@! TD*
G04 #@! TA.AperFunction,Conductor*
%ADD22C,0.609600*%
G04 #@! TD*
G04 #@! TA.AperFunction,Conductor*
%ADD23C,0.254000*%
G04 #@! TD*
G04 APERTURE END LIST*
D10*
X157937200Y-102158800D03*
X141033500Y-84709000D03*
D11*
X136906000Y-92151200D03*
D12*
X136906000Y-89611200D03*
X159893000Y-100163000D03*
D13*
X159893000Y-97663000D03*
D14*
X160147000Y-94805500D03*
X160147000Y-92265500D03*
D15*
X160147000Y-89725500D03*
D16*
X137160000Y-84582000D03*
D10*
X137160000Y-86931500D03*
D16*
X160020000Y-84963000D03*
D10*
X160020000Y-87312500D03*
X156654500Y-84518500D03*
D16*
X154114500Y-84518500D03*
D10*
X137096500Y-102108000D03*
D16*
X137096500Y-99568000D03*
D17*
X153026400Y-99340400D03*
X153026400Y-94640400D03*
X153026400Y-89940400D03*
X147726400Y-99340400D03*
X147726400Y-94640400D03*
X147726400Y-89940400D03*
X142426400Y-99340400D03*
X142426400Y-94640400D03*
D18*
X142426400Y-89940400D03*
D10*
X151536400Y-84709000D03*
X148996400Y-84709000D03*
X146456400Y-84709000D03*
D16*
X143916400Y-84709000D03*
D11*
X136906000Y-97282000D03*
D12*
X136906000Y-94742000D03*
D19*
X150393400Y-100457000D03*
X140106400Y-92913200D03*
X157200600Y-94208600D03*
D20*
X143916400Y-84709000D02*
X144788401Y-85581001D01*
X144788401Y-85581001D02*
X144788401Y-92278399D01*
X144788401Y-92278399D02*
X142426400Y-94640400D01*
X147449389Y-102410411D02*
X142000649Y-102410411D01*
X147449389Y-102410411D02*
X155145589Y-102410411D01*
X155145589Y-102410411D02*
X159893000Y-97663000D01*
X157937200Y-102158800D02*
X157454600Y-102158800D01*
D21*
X154710599Y-101702401D02*
X157873700Y-98539300D01*
X157873700Y-98539300D02*
X157873700Y-97078800D01*
X157873700Y-97078800D02*
X160147000Y-94805500D01*
D22*
X159893000Y-98027398D02*
X159893000Y-97663000D01*
D21*
X147726400Y-89940400D02*
X150127899Y-92341899D01*
X150127899Y-92341899D02*
X157530601Y-92341899D01*
X157530601Y-92341899D02*
X160147000Y-89725500D01*
D20*
X153026400Y-94640400D02*
X156768800Y-94640400D01*
X156768800Y-94640400D02*
X157200600Y-94208600D01*
D21*
X160147000Y-92265500D02*
X160147000Y-92668974D01*
X160147000Y-92668974D02*
X155877073Y-96938901D01*
X138096501Y-93712283D02*
X138096501Y-90852501D01*
X155877073Y-96938901D02*
X141323119Y-96938901D01*
X141323119Y-96938901D02*
X138096501Y-93712283D01*
X138096501Y-90852501D02*
X136906000Y-89662000D01*
D20*
X142000649Y-102410411D02*
X138515701Y-98925463D01*
X138515701Y-98925463D02*
X138515701Y-96351701D01*
X138515701Y-96351701D02*
X136906000Y-94742000D01*
D21*
X150088401Y-101702401D02*
X154710599Y-101702401D01*
X147726400Y-99340400D02*
X150088401Y-101702401D01*
D20*
X137160000Y-84674000D02*
X142426400Y-89940400D01*
D21*
X142426400Y-99340400D02*
X147726400Y-99340400D01*
G36*
X161164001Y-99496440D02*
G01*
X161060053Y-99316397D01*
X160936844Y-99300177D01*
X160126210Y-100110809D01*
X160126210Y-100215191D01*
X160936844Y-101025823D01*
X161060053Y-101009603D01*
X161164001Y-100829560D01*
X161164001Y-103125000D01*
X159214961Y-103125000D01*
X159236966Y-103099144D01*
X159243001Y-103090746D01*
X159373095Y-102874231D01*
X159377677Y-102864961D01*
X159470663Y-102630106D01*
X159473670Y-102620211D01*
X159525485Y-102380553D01*
X159449836Y-102286800D01*
X156427719Y-102286800D01*
X156352375Y-102373474D01*
X156371064Y-102506444D01*
X156373337Y-102516532D01*
X156448873Y-102757566D01*
X156452764Y-102767148D01*
X156566652Y-102992608D01*
X156572055Y-103001426D01*
X156662498Y-103125000D01*
X138331026Y-103125000D01*
X138396266Y-103048344D01*
X138402301Y-103039946D01*
X138532395Y-102823431D01*
X138536977Y-102814161D01*
X138629963Y-102579306D01*
X138632970Y-102569411D01*
X138684785Y-102329753D01*
X138609136Y-102236000D01*
X136968500Y-102235999D01*
X136968501Y-101980000D01*
X138606134Y-101980001D01*
X138681619Y-101890992D01*
X138653675Y-101722196D01*
X138651155Y-101712166D01*
X138569753Y-101473050D01*
X138565630Y-101463566D01*
X138446267Y-101240955D01*
X138440649Y-101232271D01*
X138286531Y-101032146D01*
X138279572Y-101024497D01*
X138149480Y-100903184D01*
X138197558Y-100893621D01*
X138220489Y-100884123D01*
X138325144Y-100814195D01*
X138342695Y-100796644D01*
X138412623Y-100691989D01*
X138422121Y-100669058D01*
X138445463Y-100551710D01*
X138446676Y-100539390D01*
X138446676Y-99755876D01*
X141531296Y-102840496D01*
X141578335Y-102896556D01*
X141595224Y-102910727D01*
X141658604Y-102947321D01*
X141718548Y-102989294D01*
X141738529Y-102998611D01*
X141755161Y-103003068D01*
X141770076Y-103011678D01*
X141790793Y-103019219D01*
X141862862Y-103031926D01*
X141933550Y-103050867D01*
X141955513Y-103052788D01*
X142028411Y-103046411D01*
X155117838Y-103046411D01*
X155190724Y-103052787D01*
X155212686Y-103050866D01*
X155283362Y-103031929D01*
X155355446Y-103019219D01*
X155376162Y-103011678D01*
X155391077Y-103003068D01*
X155407709Y-102998611D01*
X155427690Y-102989294D01*
X155487634Y-102947321D01*
X155551014Y-102910727D01*
X155567902Y-102896557D01*
X155614947Y-102840492D01*
X156425667Y-102029772D01*
X156426518Y-102030800D01*
X157735391Y-102030800D01*
X157809200Y-101956991D01*
X157809200Y-100646239D01*
X158467799Y-99987640D01*
X158459959Y-100032103D01*
X158459000Y-100043064D01*
X158459000Y-100282936D01*
X158459959Y-100293897D01*
X158501613Y-100530126D01*
X158504460Y-100540753D01*
X158556513Y-100683768D01*
X158477583Y-100648295D01*
X158467834Y-100644843D01*
X158223623Y-100580319D01*
X158213442Y-100578506D01*
X158147602Y-100572282D01*
X158065200Y-100647261D01*
X158065200Y-101956991D01*
X158139009Y-102030800D01*
X159446834Y-102030800D01*
X159522319Y-101941791D01*
X159494374Y-101772996D01*
X159491855Y-101762966D01*
X159410453Y-101523850D01*
X159406330Y-101514366D01*
X159404685Y-101511299D01*
X159515247Y-101551540D01*
X159525874Y-101554387D01*
X159762103Y-101596041D01*
X159773064Y-101597000D01*
X160012936Y-101597000D01*
X160023897Y-101596041D01*
X160260126Y-101554387D01*
X160270753Y-101551540D01*
X160496160Y-101469498D01*
X160506132Y-101464848D01*
X160739603Y-101330053D01*
X160755823Y-101206844D01*
X159711980Y-100163000D01*
X159982095Y-99892885D01*
X160755823Y-99119156D01*
X160739603Y-98995947D01*
X160506132Y-98861152D01*
X160496160Y-98856502D01*
X160472735Y-98847976D01*
X160699190Y-98847976D01*
X160711510Y-98846763D01*
X160828858Y-98823421D01*
X160851789Y-98813923D01*
X160956444Y-98743995D01*
X160973995Y-98726444D01*
X161043923Y-98621789D01*
X161053421Y-98598858D01*
X161076763Y-98481510D01*
X161077976Y-98469190D01*
X161077976Y-96856810D01*
X161076763Y-96844490D01*
X161053421Y-96727142D01*
X161043923Y-96704211D01*
X160973995Y-96599556D01*
X160956444Y-96582005D01*
X160851789Y-96512077D01*
X160828858Y-96502579D01*
X160711510Y-96479237D01*
X160699190Y-96478024D01*
X159284111Y-96478024D01*
X159742204Y-96019931D01*
X159857782Y-96057484D01*
X159869051Y-96060034D01*
X160090781Y-96089225D01*
X160102325Y-96089679D01*
X160325663Y-96077975D01*
X160337097Y-96076317D01*
X160554561Y-96024108D01*
X160565502Y-96020394D01*
X160769810Y-95929430D01*
X160779890Y-95923785D01*
X160964201Y-95797112D01*
X160973084Y-95789724D01*
X161131224Y-95631584D01*
X161138612Y-95622701D01*
X161164001Y-95585760D01*
X161164001Y-99496440D01*
G37*
D23*
X161164001Y-99496440D02*
X161060053Y-99316397D01*
X160936844Y-99300177D01*
X160126210Y-100110809D01*
X160126210Y-100215191D01*
X160936844Y-101025823D01*
X161060053Y-101009603D01*
X161164001Y-100829560D01*
X161164001Y-103125000D01*
X159214961Y-103125000D01*
X159236966Y-103099144D01*
X159243001Y-103090746D01*
X159373095Y-102874231D01*
X159377677Y-102864961D01*
X159470663Y-102630106D01*
X159473670Y-102620211D01*
X159525485Y-102380553D01*
X159449836Y-102286800D01*
X156427719Y-102286800D01*
X156352375Y-102373474D01*
X156371064Y-102506444D01*
X156373337Y-102516532D01*
X156448873Y-102757566D01*
X156452764Y-102767148D01*
X156566652Y-102992608D01*
X156572055Y-103001426D01*
X156662498Y-103125000D01*
X138331026Y-103125000D01*
X138396266Y-103048344D01*
X138402301Y-103039946D01*
X138532395Y-102823431D01*
X138536977Y-102814161D01*
X138629963Y-102579306D01*
X138632970Y-102569411D01*
X138684785Y-102329753D01*
X138609136Y-102236000D01*
X136968500Y-102235999D01*
X136968501Y-101980000D01*
X138606134Y-101980001D01*
X138681619Y-101890992D01*
X138653675Y-101722196D01*
X138651155Y-101712166D01*
X138569753Y-101473050D01*
X138565630Y-101463566D01*
X138446267Y-101240955D01*
X138440649Y-101232271D01*
X138286531Y-101032146D01*
X138279572Y-101024497D01*
X138149480Y-100903184D01*
X138197558Y-100893621D01*
X138220489Y-100884123D01*
X138325144Y-100814195D01*
X138342695Y-100796644D01*
X138412623Y-100691989D01*
X138422121Y-100669058D01*
X138445463Y-100551710D01*
X138446676Y-100539390D01*
X138446676Y-99755876D01*
X141531296Y-102840496D01*
X141578335Y-102896556D01*
X141595224Y-102910727D01*
X141658604Y-102947321D01*
X141718548Y-102989294D01*
X141738529Y-102998611D01*
X141755161Y-103003068D01*
X141770076Y-103011678D01*
X141790793Y-103019219D01*
X141862862Y-103031926D01*
X141933550Y-103050867D01*
X141955513Y-103052788D01*
X142028411Y-103046411D01*
X155117838Y-103046411D01*
X155190724Y-103052787D01*
X155212686Y-103050866D01*
X155283362Y-103031929D01*
X155355446Y-103019219D01*
X155376162Y-103011678D01*
X155391077Y-103003068D01*
X155407709Y-102998611D01*
X155427690Y-102989294D01*
X155487634Y-102947321D01*
X155551014Y-102910727D01*
X155567902Y-102896557D01*
X155614947Y-102840492D01*
X156425667Y-102029772D01*
X156426518Y-102030800D01*
X157735391Y-102030800D01*
X157809200Y-101956991D01*
X157809200Y-100646239D01*
X158467799Y-99987640D01*
X158459959Y-100032103D01*
X158459000Y-100043064D01*
X158459000Y-100282936D01*
X158459959Y-100293897D01*
X158501613Y-100530126D01*
X158504460Y-100540753D01*
X158556513Y-100683768D01*
X158477583Y-100648295D01*
X158467834Y-100644843D01*
X158223623Y-100580319D01*
X158213442Y-100578506D01*
X158147602Y-100572282D01*
X158065200Y-100647261D01*
X158065200Y-101956991D01*
X158139009Y-102030800D01*
X159446834Y-102030800D01*
X159522319Y-101941791D01*
X159494374Y-101772996D01*
X159491855Y-101762966D01*
X159410453Y-101523850D01*
X159406330Y-101514366D01*
X159404685Y-101511299D01*
X159515247Y-101551540D01*
X159525874Y-101554387D01*
X159762103Y-101596041D01*
X159773064Y-101597000D01*
X160012936Y-101597000D01*
X160023897Y-101596041D01*
X160260126Y-101554387D01*
X160270753Y-101551540D01*
X160496160Y-101469498D01*
X160506132Y-101464848D01*
X160739603Y-101330053D01*
X160755823Y-101206844D01*
X159711980Y-100163000D01*
X159982095Y-99892885D01*
X160755823Y-99119156D01*
X160739603Y-98995947D01*
X160506132Y-98861152D01*
X160496160Y-98856502D01*
X160472735Y-98847976D01*
X160699190Y-98847976D01*
X160711510Y-98846763D01*
X160828858Y-98823421D01*
X160851789Y-98813923D01*
X160956444Y-98743995D01*
X160973995Y-98726444D01*
X161043923Y-98621789D01*
X161053421Y-98598858D01*
X161076763Y-98481510D01*
X161077976Y-98469190D01*
X161077976Y-96856810D01*
X161076763Y-96844490D01*
X161053421Y-96727142D01*
X161043923Y-96704211D01*
X160973995Y-96599556D01*
X160956444Y-96582005D01*
X160851789Y-96512077D01*
X160828858Y-96502579D01*
X160711510Y-96479237D01*
X160699190Y-96478024D01*
X159284111Y-96478024D01*
X159742204Y-96019931D01*
X159857782Y-96057484D01*
X159869051Y-96060034D01*
X160090781Y-96089225D01*
X160102325Y-96089679D01*
X160325663Y-96077975D01*
X160337097Y-96076317D01*
X160554561Y-96024108D01*
X160565502Y-96020394D01*
X160769810Y-95929430D01*
X160779890Y-95923785D01*
X160964201Y-95797112D01*
X160973084Y-95789724D01*
X161131224Y-95631584D01*
X161138612Y-95622701D01*
X161164001Y-95585760D01*
X161164001Y-99496440D01*
G36*
X151596034Y-97548152D02*
G01*
X151589338Y-97553516D01*
X151366033Y-97758857D01*
X151360127Y-97765080D01*
X151166755Y-97998826D01*
X151161748Y-98005794D01*
X151001888Y-98263622D01*
X150997873Y-98271204D01*
X150874483Y-98548342D01*
X150871535Y-98556399D01*
X150786898Y-98847719D01*
X150785070Y-98856102D01*
X150740754Y-99156212D01*
X150740081Y-99164766D01*
X150736904Y-99468114D01*
X150737398Y-99476680D01*
X150775420Y-99777653D01*
X150777072Y-99786072D01*
X150855589Y-100079101D01*
X150858368Y-100087218D01*
X150975927Y-100366879D01*
X150979782Y-100374544D01*
X151134207Y-100635663D01*
X151139067Y-100642734D01*
X151327501Y-100880479D01*
X151333276Y-100886824D01*
X151552232Y-101096797D01*
X151558814Y-101102301D01*
X151596802Y-101129901D01*
X150325538Y-101129901D01*
X149698539Y-100502903D01*
X149739526Y-100438319D01*
X149743620Y-100430779D01*
X149869905Y-100154949D01*
X149872937Y-100146923D01*
X149960619Y-99856505D01*
X149962535Y-99848142D01*
X150010043Y-99548186D01*
X150010817Y-99538977D01*
X150014474Y-99189706D01*
X150013894Y-99180484D01*
X149972678Y-98879600D01*
X149970938Y-98871198D01*
X149889357Y-98579008D01*
X149886493Y-98570921D01*
X149766012Y-98292505D01*
X149762077Y-98284881D01*
X149604926Y-98025393D01*
X149599992Y-98018374D01*
X149409079Y-97782615D01*
X149403238Y-97776330D01*
X149182095Y-97568662D01*
X149175455Y-97563228D01*
X149102528Y-97511401D01*
X151648912Y-97511401D01*
X151596034Y-97548152D01*
G37*
X151596034Y-97548152D02*
X151589338Y-97553516D01*
X151366033Y-97758857D01*
X151360127Y-97765080D01*
X151166755Y-97998826D01*
X151161748Y-98005794D01*
X151001888Y-98263622D01*
X150997873Y-98271204D01*
X150874483Y-98548342D01*
X150871535Y-98556399D01*
X150786898Y-98847719D01*
X150785070Y-98856102D01*
X150740754Y-99156212D01*
X150740081Y-99164766D01*
X150736904Y-99468114D01*
X150737398Y-99476680D01*
X150775420Y-99777653D01*
X150777072Y-99786072D01*
X150855589Y-100079101D01*
X150858368Y-100087218D01*
X150975927Y-100366879D01*
X150979782Y-100374544D01*
X151134207Y-100635663D01*
X151139067Y-100642734D01*
X151327501Y-100880479D01*
X151333276Y-100886824D01*
X151552232Y-101096797D01*
X151558814Y-101102301D01*
X151596802Y-101129901D01*
X150325538Y-101129901D01*
X149698539Y-100502903D01*
X149739526Y-100438319D01*
X149743620Y-100430779D01*
X149869905Y-100154949D01*
X149872937Y-100146923D01*
X149960619Y-99856505D01*
X149962535Y-99848142D01*
X150010043Y-99548186D01*
X150010817Y-99538977D01*
X150014474Y-99189706D01*
X150013894Y-99180484D01*
X149972678Y-98879600D01*
X149970938Y-98871198D01*
X149889357Y-98579008D01*
X149886493Y-98570921D01*
X149766012Y-98292505D01*
X149762077Y-98284881D01*
X149604926Y-98025393D01*
X149599992Y-98018374D01*
X149409079Y-97782615D01*
X149403238Y-97776330D01*
X149182095Y-97568662D01*
X149175455Y-97563228D01*
X149102528Y-97511401D01*
X151648912Y-97511401D01*
X151596034Y-97548152D01*
G36*
X161164000Y-83660248D02*
G01*
X161143989Y-83646877D01*
X161121058Y-83637379D01*
X161003710Y-83614037D01*
X160991390Y-83612824D01*
X159048610Y-83612824D01*
X159036290Y-83614037D01*
X158918942Y-83637379D01*
X158896011Y-83646877D01*
X158791356Y-83716805D01*
X158773805Y-83734356D01*
X158703877Y-83839011D01*
X158694379Y-83861942D01*
X158671037Y-83979290D01*
X158669824Y-83991610D01*
X158669824Y-85934390D01*
X158671037Y-85946710D01*
X158694379Y-86064058D01*
X158703877Y-86086989D01*
X158773805Y-86191644D01*
X158791356Y-86209195D01*
X158833013Y-86237029D01*
X158697647Y-86404193D01*
X158691820Y-86412736D01*
X158567054Y-86632364D01*
X158562699Y-86641744D01*
X158475479Y-86878800D01*
X158472716Y-86888766D01*
X158433731Y-87093131D01*
X158509318Y-87184500D01*
X160148000Y-87184500D01*
X160148000Y-87440500D01*
X158510519Y-87440500D01*
X158435175Y-87527174D01*
X158453864Y-87660144D01*
X158456137Y-87670232D01*
X158531673Y-87911266D01*
X158535564Y-87920848D01*
X158649452Y-88146308D01*
X158654855Y-88155126D01*
X158804038Y-88358958D01*
X158810809Y-88366775D01*
X158988755Y-88541031D01*
X158983556Y-88544505D01*
X158966005Y-88562056D01*
X158896077Y-88666711D01*
X158886579Y-88689642D01*
X158863237Y-88806990D01*
X158862024Y-88819310D01*
X158862024Y-90200840D01*
X157293466Y-91769399D01*
X154405738Y-91769399D01*
X154437919Y-91747529D01*
X154444670Y-91742235D01*
X154670114Y-91539245D01*
X154676085Y-91533083D01*
X154871895Y-91301374D01*
X154876975Y-91294459D01*
X155039526Y-91038319D01*
X155043620Y-91030779D01*
X155169905Y-90754949D01*
X155172937Y-90746923D01*
X155260619Y-90456505D01*
X155262535Y-90448142D01*
X155310043Y-90148186D01*
X155310817Y-90138977D01*
X155314474Y-89789706D01*
X155313894Y-89780484D01*
X155272678Y-89479600D01*
X155270938Y-89471198D01*
X155189357Y-89179008D01*
X155186493Y-89170921D01*
X155066012Y-88892505D01*
X155062077Y-88884881D01*
X154904926Y-88625393D01*
X154899992Y-88618374D01*
X154709079Y-88382615D01*
X154703238Y-88376330D01*
X154482095Y-88168662D01*
X154475455Y-88163228D01*
X154228174Y-87987494D01*
X154220858Y-87983011D01*
X153952014Y-87842463D01*
X153944158Y-87839014D01*
X153658729Y-87736254D01*
X153650477Y-87733903D01*
X153353741Y-87670829D01*
X153345246Y-87669621D01*
X153042697Y-87647403D01*
X153034117Y-87647358D01*
X152731350Y-87666406D01*
X152722843Y-87667526D01*
X152425464Y-87727489D01*
X152417188Y-87729753D01*
X152130697Y-87829519D01*
X152122804Y-87832886D01*
X151852505Y-87970611D01*
X151845143Y-87975017D01*
X151596034Y-88148152D01*
X151589338Y-88153516D01*
X151366033Y-88358857D01*
X151360127Y-88365080D01*
X151166755Y-88598826D01*
X151161748Y-88605794D01*
X151001888Y-88863622D01*
X150997873Y-88871204D01*
X150874483Y-89148342D01*
X150871535Y-89156399D01*
X150786898Y-89447719D01*
X150785070Y-89456102D01*
X150740754Y-89756212D01*
X150740081Y-89764766D01*
X150736904Y-90068114D01*
X150737398Y-90076680D01*
X150775420Y-90377653D01*
X150777072Y-90386072D01*
X150855589Y-90679101D01*
X150858368Y-90687218D01*
X150975927Y-90966879D01*
X150979782Y-90974544D01*
X151134207Y-91235663D01*
X151139067Y-91242734D01*
X151327501Y-91480479D01*
X151333276Y-91486824D01*
X151552232Y-91696797D01*
X151558814Y-91702301D01*
X151651167Y-91769399D01*
X150365036Y-91769399D01*
X149698540Y-91102903D01*
X149739526Y-91038319D01*
X149743620Y-91030779D01*
X149869905Y-90754949D01*
X149872937Y-90746923D01*
X149960619Y-90456505D01*
X149962535Y-90448142D01*
X150010043Y-90148186D01*
X150010817Y-90138977D01*
X150014474Y-89789706D01*
X150013894Y-89780484D01*
X149972678Y-89479600D01*
X149970938Y-89471198D01*
X149889357Y-89179008D01*
X149886493Y-89170921D01*
X149766012Y-88892505D01*
X149762077Y-88884881D01*
X149604926Y-88625393D01*
X149599992Y-88618374D01*
X149409079Y-88382615D01*
X149403238Y-88376330D01*
X149182095Y-88168662D01*
X149175455Y-88163228D01*
X148928174Y-87987494D01*
X148920858Y-87983011D01*
X148652014Y-87842463D01*
X148644158Y-87839014D01*
X148358729Y-87736254D01*
X148350477Y-87733903D01*
X148053741Y-87670829D01*
X148045246Y-87669621D01*
X147742697Y-87647403D01*
X147734117Y-87647358D01*
X147431350Y-87666406D01*
X147422843Y-87667526D01*
X147125464Y-87727489D01*
X147117188Y-87729753D01*
X146830697Y-87829519D01*
X146822804Y-87832886D01*
X146552505Y-87970611D01*
X146545143Y-87975017D01*
X146296034Y-88148152D01*
X146289338Y-88153516D01*
X146066033Y-88358857D01*
X146060127Y-88365080D01*
X145866755Y-88598826D01*
X145861748Y-88605794D01*
X145701888Y-88863622D01*
X145697873Y-88871204D01*
X145574483Y-89148342D01*
X145571535Y-89156399D01*
X145486898Y-89447719D01*
X145485070Y-89456102D01*
X145440754Y-89756212D01*
X145440081Y-89764766D01*
X145436904Y-90068114D01*
X145437398Y-90076680D01*
X145475420Y-90377653D01*
X145477072Y-90386072D01*
X145555589Y-90679101D01*
X145558368Y-90687218D01*
X145675927Y-90966879D01*
X145679782Y-90974544D01*
X145834207Y-91235663D01*
X145839067Y-91242734D01*
X146027501Y-91480479D01*
X146033276Y-91486824D01*
X146252232Y-91696797D01*
X146258814Y-91702301D01*
X146504242Y-91880614D01*
X146511510Y-91885173D01*
X146778866Y-92028528D01*
X146786686Y-92032059D01*
X147071025Y-92137804D01*
X147079251Y-92140241D01*
X147168571Y-92160206D01*
X147034633Y-92189165D01*
X147026909Y-92191358D01*
X146728775Y-92296933D01*
X146721392Y-92300090D01*
X146439090Y-92442691D01*
X146432168Y-92446761D01*
X146170273Y-92624076D01*
X146163924Y-92628992D01*
X145926683Y-92838148D01*
X145921011Y-92843831D01*
X145712268Y-93081437D01*
X145707363Y-93087794D01*
X145530505Y-93349998D01*
X145526448Y-93356927D01*
X145384339Y-93639478D01*
X145381195Y-93646867D01*
X145276141Y-93945185D01*
X145273962Y-93952913D01*
X145207665Y-94262161D01*
X145206485Y-94270103D01*
X145192977Y-94430973D01*
X145267853Y-94512400D01*
X147524592Y-94512401D01*
X147524593Y-94512400D01*
X150186626Y-94512401D01*
X150261885Y-94426886D01*
X150227765Y-94160538D01*
X150226239Y-94152654D01*
X150146516Y-93846593D01*
X150144002Y-93838968D01*
X150026035Y-93545516D01*
X150022572Y-93538271D01*
X149868275Y-93262188D01*
X149863919Y-93255442D01*
X149675791Y-93001203D01*
X149670613Y-92995066D01*
X149451706Y-92766791D01*
X149445791Y-92761361D01*
X149199652Y-92562752D01*
X149193095Y-92558118D01*
X148923716Y-92392395D01*
X148916623Y-92388631D01*
X148628369Y-92258479D01*
X148620855Y-92255647D01*
X148318399Y-92163178D01*
X148310587Y-92161324D01*
X148302092Y-92159872D01*
X148304130Y-92159483D01*
X148312429Y-92157306D01*
X148599950Y-92060544D01*
X148607877Y-92057261D01*
X148879604Y-91922374D01*
X148887011Y-91918046D01*
X148891416Y-91915053D01*
X149705413Y-92729051D01*
X149747031Y-92778650D01*
X149763921Y-92792822D01*
X149820005Y-92825201D01*
X149873048Y-92862342D01*
X149893028Y-92871659D01*
X149906923Y-92875382D01*
X149919380Y-92882574D01*
X149940096Y-92890114D01*
X150003864Y-92901359D01*
X150066420Y-92918121D01*
X150088383Y-92920042D01*
X150152889Y-92914399D01*
X151523129Y-92914399D01*
X151366033Y-93058857D01*
X151360127Y-93065080D01*
X151166755Y-93298826D01*
X151161748Y-93305794D01*
X151001888Y-93563622D01*
X150997873Y-93571204D01*
X150874483Y-93848342D01*
X150871535Y-93856399D01*
X150786898Y-94147719D01*
X150785070Y-94156102D01*
X150740754Y-94456212D01*
X150740081Y-94464766D01*
X150736904Y-94768114D01*
X150737398Y-94776680D01*
X150775420Y-95077653D01*
X150777072Y-95086072D01*
X150855589Y-95379101D01*
X150858368Y-95387218D01*
X150975927Y-95666879D01*
X150979782Y-95674544D01*
X151134207Y-95935663D01*
X151139067Y-95942734D01*
X151327501Y-96180479D01*
X151333276Y-96186824D01*
X151520536Y-96366401D01*
X149598895Y-96366401D01*
X149603017Y-96362434D01*
X149608437Y-96356509D01*
X149806616Y-96110024D01*
X149811239Y-96103459D01*
X149976491Y-95833789D01*
X149980242Y-95826690D01*
X150109891Y-95538211D01*
X150112709Y-95530692D01*
X150204652Y-95228075D01*
X150206492Y-95220260D01*
X150267807Y-94857745D01*
X150192305Y-94768400D01*
X147928208Y-94768399D01*
X147928207Y-94768400D01*
X145265318Y-94768399D01*
X145190900Y-94846134D01*
X145193654Y-94909266D01*
X145194514Y-94917252D01*
X145248347Y-95228914D01*
X145250215Y-95236723D01*
X145343213Y-95539015D01*
X145346057Y-95546524D01*
X145476711Y-95834550D01*
X145480487Y-95841637D01*
X145646681Y-96110727D01*
X145651327Y-96117276D01*
X145850365Y-96363068D01*
X145853435Y-96366401D01*
X143928892Y-96366401D01*
X144070114Y-96239245D01*
X144076085Y-96233083D01*
X144271895Y-96001374D01*
X144276975Y-95994459D01*
X144439526Y-95738319D01*
X144443620Y-95730779D01*
X144569905Y-95454949D01*
X144572937Y-95446923D01*
X144660619Y-95156505D01*
X144662535Y-95148142D01*
X144710043Y-94848186D01*
X144710817Y-94838977D01*
X144714474Y-94489706D01*
X144713894Y-94480484D01*
X144672678Y-94179600D01*
X144670938Y-94171198D01*
X144589357Y-93879008D01*
X144586493Y-93870921D01*
X144466012Y-93592505D01*
X144462077Y-93584881D01*
X144431631Y-93534608D01*
X145218487Y-92747752D01*
X145274546Y-92700713D01*
X145288717Y-92683824D01*
X145325308Y-92620449D01*
X145367284Y-92560501D01*
X145376602Y-92540518D01*
X145381059Y-92523885D01*
X145389668Y-92508974D01*
X145397208Y-92488256D01*
X145409917Y-92416186D01*
X145428857Y-92345498D01*
X145430778Y-92323535D01*
X145424401Y-92250637D01*
X145424401Y-85936793D01*
X145427680Y-85940004D01*
X145435637Y-85946610D01*
X145642548Y-86091492D01*
X145651477Y-86096710D01*
X145879273Y-86205851D01*
X145888935Y-86209540D01*
X146131498Y-86280012D01*
X146141632Y-86282073D01*
X146243709Y-86294246D01*
X146328400Y-86219054D01*
X146328400Y-84581000D01*
X146584400Y-84581000D01*
X146584400Y-86221301D01*
X146677812Y-86296944D01*
X146912445Y-86247070D01*
X146922350Y-86244099D01*
X147157528Y-86151933D01*
X147166815Y-86147384D01*
X147383782Y-86018046D01*
X147392201Y-86012041D01*
X147585130Y-85849003D01*
X147592455Y-85841703D01*
X147756166Y-85649344D01*
X147762201Y-85640946D01*
X147875294Y-85452725D01*
X147948063Y-85559802D01*
X147955171Y-85568488D01*
X148115296Y-85732000D01*
X148123829Y-85739288D01*
X148310378Y-85871863D01*
X148320068Y-85877525D01*
X148527146Y-85974968D01*
X148537686Y-85978825D01*
X148758746Y-86038058D01*
X148769802Y-86039988D01*
X148997857Y-86059138D01*
X149009080Y-86059079D01*
X149236923Y-86037542D01*
X149247958Y-86035496D01*
X149468387Y-85973951D01*
X149478885Y-85969984D01*
X149684931Y-85870378D01*
X149694561Y-85864614D01*
X149879712Y-85730095D01*
X149888169Y-85722717D01*
X150046572Y-85557536D01*
X150053589Y-85548777D01*
X150180237Y-85358157D01*
X150185593Y-85348293D01*
X150265857Y-85162813D01*
X150353968Y-85360711D01*
X150359426Y-85370517D01*
X150488063Y-85559802D01*
X150495171Y-85568488D01*
X150655296Y-85732000D01*
X150663829Y-85739288D01*
X150850378Y-85871863D01*
X150860068Y-85877525D01*
X151067146Y-85974968D01*
X151077686Y-85978825D01*
X151298746Y-86038058D01*
X151309802Y-86039988D01*
X151537857Y-86059138D01*
X151549080Y-86059079D01*
X151776923Y-86037542D01*
X151787958Y-86035496D01*
X152008387Y-85973951D01*
X152018885Y-85969984D01*
X152224931Y-85870378D01*
X152234561Y-85864614D01*
X152419712Y-85730095D01*
X152428169Y-85722717D01*
X152586572Y-85557536D01*
X152593589Y-85548777D01*
X152720237Y-85358157D01*
X152725593Y-85348293D01*
X152764324Y-85258791D01*
X152764324Y-85489890D01*
X152765537Y-85502210D01*
X152788879Y-85619558D01*
X152798377Y-85642489D01*
X152868305Y-85747144D01*
X152885856Y-85764695D01*
X152990511Y-85834623D01*
X153013442Y-85844121D01*
X153130790Y-85867463D01*
X153143110Y-85868676D01*
X155085890Y-85868676D01*
X155098210Y-85867463D01*
X155215558Y-85844121D01*
X155238489Y-85834623D01*
X155343144Y-85764695D01*
X155360695Y-85747144D01*
X155430623Y-85642489D01*
X155440121Y-85619558D01*
X155448755Y-85576150D01*
X155625780Y-85749504D01*
X155633737Y-85756110D01*
X155840648Y-85900992D01*
X155849577Y-85906210D01*
X156077373Y-86015351D01*
X156087035Y-86019040D01*
X156329598Y-86089512D01*
X156339732Y-86091573D01*
X156441809Y-86103746D01*
X156526500Y-86028554D01*
X156526500Y-84720309D01*
X156782500Y-84720309D01*
X156782500Y-86030801D01*
X156875912Y-86106444D01*
X157110545Y-86056570D01*
X157120450Y-86053599D01*
X157355628Y-85961433D01*
X157364915Y-85956884D01*
X157581882Y-85827546D01*
X157590301Y-85821541D01*
X157783230Y-85658503D01*
X157790555Y-85651203D01*
X157954266Y-85458844D01*
X157960301Y-85450446D01*
X158090395Y-85233931D01*
X158094977Y-85224661D01*
X158187963Y-84989806D01*
X158190970Y-84979911D01*
X158242785Y-84740253D01*
X158167136Y-84646500D01*
X156856309Y-84646500D01*
X156782500Y-84720309D01*
X156526500Y-84720309D01*
X156526500Y-84390500D01*
X158164134Y-84390500D01*
X158239619Y-84301491D01*
X158211674Y-84132696D01*
X158209155Y-84122666D01*
X158127753Y-83883550D01*
X158123630Y-83874066D01*
X158004267Y-83651455D01*
X157998649Y-83642771D01*
X157938757Y-83565000D01*
X161164000Y-83565000D01*
X161164000Y-83660248D01*
G37*
X161164000Y-83660248D02*
X161143989Y-83646877D01*
X161121058Y-83637379D01*
X161003710Y-83614037D01*
X160991390Y-83612824D01*
X159048610Y-83612824D01*
X159036290Y-83614037D01*
X158918942Y-83637379D01*
X158896011Y-83646877D01*
X158791356Y-83716805D01*
X158773805Y-83734356D01*
X158703877Y-83839011D01*
X158694379Y-83861942D01*
X158671037Y-83979290D01*
X158669824Y-83991610D01*
X158669824Y-85934390D01*
X158671037Y-85946710D01*
X158694379Y-86064058D01*
X158703877Y-86086989D01*
X158773805Y-86191644D01*
X158791356Y-86209195D01*
X158833013Y-86237029D01*
X158697647Y-86404193D01*
X158691820Y-86412736D01*
X158567054Y-86632364D01*
X158562699Y-86641744D01*
X158475479Y-86878800D01*
X158472716Y-86888766D01*
X158433731Y-87093131D01*
X158509318Y-87184500D01*
X160148000Y-87184500D01*
X160148000Y-87440500D01*
X158510519Y-87440500D01*
X158435175Y-87527174D01*
X158453864Y-87660144D01*
X158456137Y-87670232D01*
X158531673Y-87911266D01*
X158535564Y-87920848D01*
X158649452Y-88146308D01*
X158654855Y-88155126D01*
X158804038Y-88358958D01*
X158810809Y-88366775D01*
X158988755Y-88541031D01*
X158983556Y-88544505D01*
X158966005Y-88562056D01*
X158896077Y-88666711D01*
X158886579Y-88689642D01*
X158863237Y-88806990D01*
X158862024Y-88819310D01*
X158862024Y-90200840D01*
X157293466Y-91769399D01*
X154405738Y-91769399D01*
X154437919Y-91747529D01*
X154444670Y-91742235D01*
X154670114Y-91539245D01*
X154676085Y-91533083D01*
X154871895Y-91301374D01*
X154876975Y-91294459D01*
X155039526Y-91038319D01*
X155043620Y-91030779D01*
X155169905Y-90754949D01*
X155172937Y-90746923D01*
X155260619Y-90456505D01*
X155262535Y-90448142D01*
X155310043Y-90148186D01*
X155310817Y-90138977D01*
X155314474Y-89789706D01*
X155313894Y-89780484D01*
X155272678Y-89479600D01*
X155270938Y-89471198D01*
X155189357Y-89179008D01*
X155186493Y-89170921D01*
X155066012Y-88892505D01*
X155062077Y-88884881D01*
X154904926Y-88625393D01*
X154899992Y-88618374D01*
X154709079Y-88382615D01*
X154703238Y-88376330D01*
X154482095Y-88168662D01*
X154475455Y-88163228D01*
X154228174Y-87987494D01*
X154220858Y-87983011D01*
X153952014Y-87842463D01*
X153944158Y-87839014D01*
X153658729Y-87736254D01*
X153650477Y-87733903D01*
X153353741Y-87670829D01*
X153345246Y-87669621D01*
X153042697Y-87647403D01*
X153034117Y-87647358D01*
X152731350Y-87666406D01*
X152722843Y-87667526D01*
X152425464Y-87727489D01*
X152417188Y-87729753D01*
X152130697Y-87829519D01*
X152122804Y-87832886D01*
X151852505Y-87970611D01*
X151845143Y-87975017D01*
X151596034Y-88148152D01*
X151589338Y-88153516D01*
X151366033Y-88358857D01*
X151360127Y-88365080D01*
X151166755Y-88598826D01*
X151161748Y-88605794D01*
X151001888Y-88863622D01*
X150997873Y-88871204D01*
X150874483Y-89148342D01*
X150871535Y-89156399D01*
X150786898Y-89447719D01*
X150785070Y-89456102D01*
X150740754Y-89756212D01*
X150740081Y-89764766D01*
X150736904Y-90068114D01*
X150737398Y-90076680D01*
X150775420Y-90377653D01*
X150777072Y-90386072D01*
X150855589Y-90679101D01*
X150858368Y-90687218D01*
X150975927Y-90966879D01*
X150979782Y-90974544D01*
X151134207Y-91235663D01*
X151139067Y-91242734D01*
X151327501Y-91480479D01*
X151333276Y-91486824D01*
X151552232Y-91696797D01*
X151558814Y-91702301D01*
X151651167Y-91769399D01*
X150365036Y-91769399D01*
X149698540Y-91102903D01*
X149739526Y-91038319D01*
X149743620Y-91030779D01*
X149869905Y-90754949D01*
X149872937Y-90746923D01*
X149960619Y-90456505D01*
X149962535Y-90448142D01*
X150010043Y-90148186D01*
X150010817Y-90138977D01*
X150014474Y-89789706D01*
X150013894Y-89780484D01*
X149972678Y-89479600D01*
X149970938Y-89471198D01*
X149889357Y-89179008D01*
X149886493Y-89170921D01*
X149766012Y-88892505D01*
X149762077Y-88884881D01*
X149604926Y-88625393D01*
X149599992Y-88618374D01*
X149409079Y-88382615D01*
X149403238Y-88376330D01*
X149182095Y-88168662D01*
X149175455Y-88163228D01*
X148928174Y-87987494D01*
X148920858Y-87983011D01*
X148652014Y-87842463D01*
X148644158Y-87839014D01*
X148358729Y-87736254D01*
X148350477Y-87733903D01*
X148053741Y-87670829D01*
X148045246Y-87669621D01*
X147742697Y-87647403D01*
X147734117Y-87647358D01*
X147431350Y-87666406D01*
X147422843Y-87667526D01*
X147125464Y-87727489D01*
X147117188Y-87729753D01*
X146830697Y-87829519D01*
X146822804Y-87832886D01*
X146552505Y-87970611D01*
X146545143Y-87975017D01*
X146296034Y-88148152D01*
X146289338Y-88153516D01*
X146066033Y-88358857D01*
X146060127Y-88365080D01*
X145866755Y-88598826D01*
X145861748Y-88605794D01*
X145701888Y-88863622D01*
X145697873Y-88871204D01*
X145574483Y-89148342D01*
X145571535Y-89156399D01*
X145486898Y-89447719D01*
X145485070Y-89456102D01*
X145440754Y-89756212D01*
X145440081Y-89764766D01*
X145436904Y-90068114D01*
X145437398Y-90076680D01*
X145475420Y-90377653D01*
X145477072Y-90386072D01*
X145555589Y-90679101D01*
X145558368Y-90687218D01*
X145675927Y-90966879D01*
X145679782Y-90974544D01*
X145834207Y-91235663D01*
X145839067Y-91242734D01*
X146027501Y-91480479D01*
X146033276Y-91486824D01*
X146252232Y-91696797D01*
X146258814Y-91702301D01*
X146504242Y-91880614D01*
X146511510Y-91885173D01*
X146778866Y-92028528D01*
X146786686Y-92032059D01*
X147071025Y-92137804D01*
X147079251Y-92140241D01*
X147168571Y-92160206D01*
X147034633Y-92189165D01*
X147026909Y-92191358D01*
X146728775Y-92296933D01*
X146721392Y-92300090D01*
X146439090Y-92442691D01*
X146432168Y-92446761D01*
X146170273Y-92624076D01*
X146163924Y-92628992D01*
X145926683Y-92838148D01*
X145921011Y-92843831D01*
X145712268Y-93081437D01*
X145707363Y-93087794D01*
X145530505Y-93349998D01*
X145526448Y-93356927D01*
X145384339Y-93639478D01*
X145381195Y-93646867D01*
X145276141Y-93945185D01*
X145273962Y-93952913D01*
X145207665Y-94262161D01*
X145206485Y-94270103D01*
X145192977Y-94430973D01*
X145267853Y-94512400D01*
X147524592Y-94512401D01*
X147524593Y-94512400D01*
X150186626Y-94512401D01*
X150261885Y-94426886D01*
X150227765Y-94160538D01*
X150226239Y-94152654D01*
X150146516Y-93846593D01*
X150144002Y-93838968D01*
X150026035Y-93545516D01*
X150022572Y-93538271D01*
X149868275Y-93262188D01*
X149863919Y-93255442D01*
X149675791Y-93001203D01*
X149670613Y-92995066D01*
X149451706Y-92766791D01*
X149445791Y-92761361D01*
X149199652Y-92562752D01*
X149193095Y-92558118D01*
X148923716Y-92392395D01*
X148916623Y-92388631D01*
X148628369Y-92258479D01*
X148620855Y-92255647D01*
X148318399Y-92163178D01*
X148310587Y-92161324D01*
X148302092Y-92159872D01*
X148304130Y-92159483D01*
X148312429Y-92157306D01*
X148599950Y-92060544D01*
X148607877Y-92057261D01*
X148879604Y-91922374D01*
X148887011Y-91918046D01*
X148891416Y-91915053D01*
X149705413Y-92729051D01*
X149747031Y-92778650D01*
X149763921Y-92792822D01*
X149820005Y-92825201D01*
X149873048Y-92862342D01*
X149893028Y-92871659D01*
X149906923Y-92875382D01*
X149919380Y-92882574D01*
X149940096Y-92890114D01*
X150003864Y-92901359D01*
X150066420Y-92918121D01*
X150088383Y-92920042D01*
X150152889Y-92914399D01*
X151523129Y-92914399D01*
X151366033Y-93058857D01*
X151360127Y-93065080D01*
X151166755Y-93298826D01*
X151161748Y-93305794D01*
X151001888Y-93563622D01*
X150997873Y-93571204D01*
X150874483Y-93848342D01*
X150871535Y-93856399D01*
X150786898Y-94147719D01*
X150785070Y-94156102D01*
X150740754Y-94456212D01*
X150740081Y-94464766D01*
X150736904Y-94768114D01*
X150737398Y-94776680D01*
X150775420Y-95077653D01*
X150777072Y-95086072D01*
X150855589Y-95379101D01*
X150858368Y-95387218D01*
X150975927Y-95666879D01*
X150979782Y-95674544D01*
X151134207Y-95935663D01*
X151139067Y-95942734D01*
X151327501Y-96180479D01*
X151333276Y-96186824D01*
X151520536Y-96366401D01*
X149598895Y-96366401D01*
X149603017Y-96362434D01*
X149608437Y-96356509D01*
X149806616Y-96110024D01*
X149811239Y-96103459D01*
X149976491Y-95833789D01*
X149980242Y-95826690D01*
X150109891Y-95538211D01*
X150112709Y-95530692D01*
X150204652Y-95228075D01*
X150206492Y-95220260D01*
X150267807Y-94857745D01*
X150192305Y-94768400D01*
X147928208Y-94768399D01*
X147928207Y-94768400D01*
X145265318Y-94768399D01*
X145190900Y-94846134D01*
X145193654Y-94909266D01*
X145194514Y-94917252D01*
X145248347Y-95228914D01*
X145250215Y-95236723D01*
X145343213Y-95539015D01*
X145346057Y-95546524D01*
X145476711Y-95834550D01*
X145480487Y-95841637D01*
X145646681Y-96110727D01*
X145651327Y-96117276D01*
X145850365Y-96363068D01*
X145853435Y-96366401D01*
X143928892Y-96366401D01*
X144070114Y-96239245D01*
X144076085Y-96233083D01*
X144271895Y-96001374D01*
X144276975Y-95994459D01*
X144439526Y-95738319D01*
X144443620Y-95730779D01*
X144569905Y-95454949D01*
X144572937Y-95446923D01*
X144660619Y-95156505D01*
X144662535Y-95148142D01*
X144710043Y-94848186D01*
X144710817Y-94838977D01*
X144714474Y-94489706D01*
X144713894Y-94480484D01*
X144672678Y-94179600D01*
X144670938Y-94171198D01*
X144589357Y-93879008D01*
X144586493Y-93870921D01*
X144466012Y-93592505D01*
X144462077Y-93584881D01*
X144431631Y-93534608D01*
X145218487Y-92747752D01*
X145274546Y-92700713D01*
X145288717Y-92683824D01*
X145325308Y-92620449D01*
X145367284Y-92560501D01*
X145376602Y-92540518D01*
X145381059Y-92523885D01*
X145389668Y-92508974D01*
X145397208Y-92488256D01*
X145409917Y-92416186D01*
X145428857Y-92345498D01*
X145430778Y-92323535D01*
X145424401Y-92250637D01*
X145424401Y-85936793D01*
X145427680Y-85940004D01*
X145435637Y-85946610D01*
X145642548Y-86091492D01*
X145651477Y-86096710D01*
X145879273Y-86205851D01*
X145888935Y-86209540D01*
X146131498Y-86280012D01*
X146141632Y-86282073D01*
X146243709Y-86294246D01*
X146328400Y-86219054D01*
X146328400Y-84581000D01*
X146584400Y-84581000D01*
X146584400Y-86221301D01*
X146677812Y-86296944D01*
X146912445Y-86247070D01*
X146922350Y-86244099D01*
X147157528Y-86151933D01*
X147166815Y-86147384D01*
X147383782Y-86018046D01*
X147392201Y-86012041D01*
X147585130Y-85849003D01*
X147592455Y-85841703D01*
X147756166Y-85649344D01*
X147762201Y-85640946D01*
X147875294Y-85452725D01*
X147948063Y-85559802D01*
X147955171Y-85568488D01*
X148115296Y-85732000D01*
X148123829Y-85739288D01*
X148310378Y-85871863D01*
X148320068Y-85877525D01*
X148527146Y-85974968D01*
X148537686Y-85978825D01*
X148758746Y-86038058D01*
X148769802Y-86039988D01*
X148997857Y-86059138D01*
X149009080Y-86059079D01*
X149236923Y-86037542D01*
X149247958Y-86035496D01*
X149468387Y-85973951D01*
X149478885Y-85969984D01*
X149684931Y-85870378D01*
X149694561Y-85864614D01*
X149879712Y-85730095D01*
X149888169Y-85722717D01*
X150046572Y-85557536D01*
X150053589Y-85548777D01*
X150180237Y-85358157D01*
X150185593Y-85348293D01*
X150265857Y-85162813D01*
X150353968Y-85360711D01*
X150359426Y-85370517D01*
X150488063Y-85559802D01*
X150495171Y-85568488D01*
X150655296Y-85732000D01*
X150663829Y-85739288D01*
X150850378Y-85871863D01*
X150860068Y-85877525D01*
X151067146Y-85974968D01*
X151077686Y-85978825D01*
X151298746Y-86038058D01*
X151309802Y-86039988D01*
X151537857Y-86059138D01*
X151549080Y-86059079D01*
X151776923Y-86037542D01*
X151787958Y-86035496D01*
X152008387Y-85973951D01*
X152018885Y-85969984D01*
X152224931Y-85870378D01*
X152234561Y-85864614D01*
X152419712Y-85730095D01*
X152428169Y-85722717D01*
X152586572Y-85557536D01*
X152593589Y-85548777D01*
X152720237Y-85358157D01*
X152725593Y-85348293D01*
X152764324Y-85258791D01*
X152764324Y-85489890D01*
X152765537Y-85502210D01*
X152788879Y-85619558D01*
X152798377Y-85642489D01*
X152868305Y-85747144D01*
X152885856Y-85764695D01*
X152990511Y-85834623D01*
X153013442Y-85844121D01*
X153130790Y-85867463D01*
X153143110Y-85868676D01*
X155085890Y-85868676D01*
X155098210Y-85867463D01*
X155215558Y-85844121D01*
X155238489Y-85834623D01*
X155343144Y-85764695D01*
X155360695Y-85747144D01*
X155430623Y-85642489D01*
X155440121Y-85619558D01*
X155448755Y-85576150D01*
X155625780Y-85749504D01*
X155633737Y-85756110D01*
X155840648Y-85900992D01*
X155849577Y-85906210D01*
X156077373Y-86015351D01*
X156087035Y-86019040D01*
X156329598Y-86089512D01*
X156339732Y-86091573D01*
X156441809Y-86103746D01*
X156526500Y-86028554D01*
X156526500Y-84720309D01*
X156782500Y-84720309D01*
X156782500Y-86030801D01*
X156875912Y-86106444D01*
X157110545Y-86056570D01*
X157120450Y-86053599D01*
X157355628Y-85961433D01*
X157364915Y-85956884D01*
X157581882Y-85827546D01*
X157590301Y-85821541D01*
X157783230Y-85658503D01*
X157790555Y-85651203D01*
X157954266Y-85458844D01*
X157960301Y-85450446D01*
X158090395Y-85233931D01*
X158094977Y-85224661D01*
X158187963Y-84989806D01*
X158190970Y-84979911D01*
X158242785Y-84740253D01*
X158167136Y-84646500D01*
X156856309Y-84646500D01*
X156782500Y-84720309D01*
X156526500Y-84720309D01*
X156526500Y-84390500D01*
X158164134Y-84390500D01*
X158239619Y-84301491D01*
X158211674Y-84132696D01*
X158209155Y-84122666D01*
X158127753Y-83883550D01*
X158123630Y-83874066D01*
X158004267Y-83651455D01*
X157998649Y-83642771D01*
X157938757Y-83565000D01*
X161164000Y-83565000D01*
X161164000Y-83660248D01*
G36*
X140133424Y-88546863D02*
G01*
X140133424Y-91854590D01*
X140134637Y-91866910D01*
X140157979Y-91984258D01*
X140167477Y-92007189D01*
X140237405Y-92111844D01*
X140254956Y-92129395D01*
X140359611Y-92199323D01*
X140382542Y-92208821D01*
X140499890Y-92232163D01*
X140512210Y-92233376D01*
X143933984Y-92233376D01*
X143531215Y-92636146D01*
X143352014Y-92542463D01*
X143344158Y-92539014D01*
X143058729Y-92436254D01*
X143050477Y-92433903D01*
X142753741Y-92370829D01*
X142745246Y-92369621D01*
X142442697Y-92347403D01*
X142434117Y-92347358D01*
X142131350Y-92366406D01*
X142122843Y-92367526D01*
X141825464Y-92427489D01*
X141817188Y-92429753D01*
X141530697Y-92529519D01*
X141522804Y-92532886D01*
X141252505Y-92670611D01*
X141245143Y-92675017D01*
X140996034Y-92848152D01*
X140989338Y-92853516D01*
X140766033Y-93058857D01*
X140760127Y-93065080D01*
X140566755Y-93298826D01*
X140561748Y-93305794D01*
X140401888Y-93563622D01*
X140397873Y-93571204D01*
X140274483Y-93848342D01*
X140271535Y-93856399D01*
X140186898Y-94147719D01*
X140185070Y-94156102D01*
X140140754Y-94456212D01*
X140140081Y-94464766D01*
X140136904Y-94768114D01*
X140137398Y-94776680D01*
X140161526Y-94967672D01*
X138669001Y-93475148D01*
X138669001Y-90877491D01*
X138674644Y-90812985D01*
X138672723Y-90791022D01*
X138655961Y-90728466D01*
X138644716Y-90664698D01*
X138637176Y-90643982D01*
X138629984Y-90631525D01*
X138626261Y-90617630D01*
X138616944Y-90597650D01*
X138579804Y-90544608D01*
X138547424Y-90488522D01*
X138533252Y-90471633D01*
X138483645Y-90430008D01*
X138032570Y-89978934D01*
X138081080Y-89765416D01*
X138082644Y-89752302D01*
X138086124Y-89503006D01*
X138084927Y-89489854D01*
X138042299Y-89274569D01*
X138038737Y-89262770D01*
X137955274Y-89060271D01*
X137949487Y-89049389D01*
X137828281Y-88866958D01*
X137820491Y-88857407D01*
X137666159Y-88701993D01*
X137656662Y-88694137D01*
X137475082Y-88571660D01*
X137464241Y-88565798D01*
X137362293Y-88522943D01*
X137368972Y-88522088D01*
X137616045Y-88469570D01*
X137625950Y-88466599D01*
X137861128Y-88374433D01*
X137870415Y-88369884D01*
X138087382Y-88240546D01*
X138095801Y-88234541D01*
X138288730Y-88071503D01*
X138296055Y-88064203D01*
X138459766Y-87871844D01*
X138465801Y-87863446D01*
X138595895Y-87646931D01*
X138600477Y-87637661D01*
X138693463Y-87402806D01*
X138696470Y-87392911D01*
X138746779Y-87160217D01*
X140133424Y-88546863D01*
G37*
X140133424Y-88546863D02*
X140133424Y-91854590D01*
X140134637Y-91866910D01*
X140157979Y-91984258D01*
X140167477Y-92007189D01*
X140237405Y-92111844D01*
X140254956Y-92129395D01*
X140359611Y-92199323D01*
X140382542Y-92208821D01*
X140499890Y-92232163D01*
X140512210Y-92233376D01*
X143933984Y-92233376D01*
X143531215Y-92636146D01*
X143352014Y-92542463D01*
X143344158Y-92539014D01*
X143058729Y-92436254D01*
X143050477Y-92433903D01*
X142753741Y-92370829D01*
X142745246Y-92369621D01*
X142442697Y-92347403D01*
X142434117Y-92347358D01*
X142131350Y-92366406D01*
X142122843Y-92367526D01*
X141825464Y-92427489D01*
X141817188Y-92429753D01*
X141530697Y-92529519D01*
X141522804Y-92532886D01*
X141252505Y-92670611D01*
X141245143Y-92675017D01*
X140996034Y-92848152D01*
X140989338Y-92853516D01*
X140766033Y-93058857D01*
X140760127Y-93065080D01*
X140566755Y-93298826D01*
X140561748Y-93305794D01*
X140401888Y-93563622D01*
X140397873Y-93571204D01*
X140274483Y-93848342D01*
X140271535Y-93856399D01*
X140186898Y-94147719D01*
X140185070Y-94156102D01*
X140140754Y-94456212D01*
X140140081Y-94464766D01*
X140136904Y-94768114D01*
X140137398Y-94776680D01*
X140161526Y-94967672D01*
X138669001Y-93475148D01*
X138669001Y-90877491D01*
X138674644Y-90812985D01*
X138672723Y-90791022D01*
X138655961Y-90728466D01*
X138644716Y-90664698D01*
X138637176Y-90643982D01*
X138629984Y-90631525D01*
X138626261Y-90617630D01*
X138616944Y-90597650D01*
X138579804Y-90544608D01*
X138547424Y-90488522D01*
X138533252Y-90471633D01*
X138483645Y-90430008D01*
X138032570Y-89978934D01*
X138081080Y-89765416D01*
X138082644Y-89752302D01*
X138086124Y-89503006D01*
X138084927Y-89489854D01*
X138042299Y-89274569D01*
X138038737Y-89262770D01*
X137955274Y-89060271D01*
X137949487Y-89049389D01*
X137828281Y-88866958D01*
X137820491Y-88857407D01*
X137666159Y-88701993D01*
X137656662Y-88694137D01*
X137475082Y-88571660D01*
X137464241Y-88565798D01*
X137362293Y-88522943D01*
X137368972Y-88522088D01*
X137616045Y-88469570D01*
X137625950Y-88466599D01*
X137861128Y-88374433D01*
X137870415Y-88369884D01*
X138087382Y-88240546D01*
X138095801Y-88234541D01*
X138288730Y-88071503D01*
X138296055Y-88064203D01*
X138459766Y-87871844D01*
X138465801Y-87863446D01*
X138595895Y-87646931D01*
X138600477Y-87637661D01*
X138693463Y-87402806D01*
X138696470Y-87392911D01*
X138746779Y-87160217D01*
X140133424Y-88546863D01*
G36*
X139877254Y-83596914D02*
G01*
X139870109Y-83604391D01*
X139711147Y-83800693D01*
X139705320Y-83809236D01*
X139580554Y-84028864D01*
X139576199Y-84038244D01*
X139488979Y-84275300D01*
X139486216Y-84285266D01*
X139447231Y-84489631D01*
X139522818Y-84581000D01*
X141161500Y-84581000D01*
X141161500Y-86221301D01*
X141254912Y-86296944D01*
X141489545Y-86247070D01*
X141499450Y-86244099D01*
X141734628Y-86151933D01*
X141743915Y-86147384D01*
X141960882Y-86018046D01*
X141969301Y-86012041D01*
X142162230Y-85849003D01*
X142169555Y-85841703D01*
X142333266Y-85649344D01*
X142339301Y-85640946D01*
X142469395Y-85424431D01*
X142473977Y-85415161D01*
X142566224Y-85182172D01*
X142566224Y-85680390D01*
X142567437Y-85692710D01*
X142590779Y-85810058D01*
X142600277Y-85832989D01*
X142670205Y-85937644D01*
X142687756Y-85955195D01*
X142792411Y-86025123D01*
X142815342Y-86034621D01*
X142932690Y-86057963D01*
X142945010Y-86059176D01*
X144152401Y-86059176D01*
X144152401Y-87647424D01*
X141032863Y-87647424D01*
X138510176Y-85124738D01*
X138510176Y-84923674D01*
X139448675Y-84923674D01*
X139467364Y-85056644D01*
X139469637Y-85066732D01*
X139545173Y-85307766D01*
X139549064Y-85317348D01*
X139662952Y-85542808D01*
X139668355Y-85551626D01*
X139817538Y-85755458D01*
X139824309Y-85763275D01*
X140004780Y-85940004D01*
X140012737Y-85946610D01*
X140219648Y-86091492D01*
X140228577Y-86096710D01*
X140456373Y-86205851D01*
X140466035Y-86209540D01*
X140708598Y-86280012D01*
X140718732Y-86282073D01*
X140820809Y-86294246D01*
X140905500Y-86219054D01*
X140905500Y-84910809D01*
X140831691Y-84837000D01*
X139524019Y-84837000D01*
X139448675Y-84923674D01*
X138510176Y-84923674D01*
X138510176Y-83610610D01*
X138508963Y-83598290D01*
X138502341Y-83565000D01*
X139913200Y-83565000D01*
X139877254Y-83596914D01*
G37*
X139877254Y-83596914D02*
X139870109Y-83604391D01*
X139711147Y-83800693D01*
X139705320Y-83809236D01*
X139580554Y-84028864D01*
X139576199Y-84038244D01*
X139488979Y-84275300D01*
X139486216Y-84285266D01*
X139447231Y-84489631D01*
X139522818Y-84581000D01*
X141161500Y-84581000D01*
X141161500Y-86221301D01*
X141254912Y-86296944D01*
X141489545Y-86247070D01*
X141499450Y-86244099D01*
X141734628Y-86151933D01*
X141743915Y-86147384D01*
X141960882Y-86018046D01*
X141969301Y-86012041D01*
X142162230Y-85849003D01*
X142169555Y-85841703D01*
X142333266Y-85649344D01*
X142339301Y-85640946D01*
X142469395Y-85424431D01*
X142473977Y-85415161D01*
X142566224Y-85182172D01*
X142566224Y-85680390D01*
X142567437Y-85692710D01*
X142590779Y-85810058D01*
X142600277Y-85832989D01*
X142670205Y-85937644D01*
X142687756Y-85955195D01*
X142792411Y-86025123D01*
X142815342Y-86034621D01*
X142932690Y-86057963D01*
X142945010Y-86059176D01*
X144152401Y-86059176D01*
X144152401Y-87647424D01*
X141032863Y-87647424D01*
X138510176Y-85124738D01*
X138510176Y-84923674D01*
X139448675Y-84923674D01*
X139467364Y-85056644D01*
X139469637Y-85066732D01*
X139545173Y-85307766D01*
X139549064Y-85317348D01*
X139662952Y-85542808D01*
X139668355Y-85551626D01*
X139817538Y-85755458D01*
X139824309Y-85763275D01*
X140004780Y-85940004D01*
X140012737Y-85946610D01*
X140219648Y-86091492D01*
X140228577Y-86096710D01*
X140456373Y-86205851D01*
X140466035Y-86209540D01*
X140708598Y-86280012D01*
X140718732Y-86282073D01*
X140820809Y-86294246D01*
X140905500Y-86219054D01*
X140905500Y-84910809D01*
X140831691Y-84837000D01*
X139524019Y-84837000D01*
X139448675Y-84923674D01*
X138510176Y-84923674D01*
X138510176Y-83610610D01*
X138508963Y-83598290D01*
X138502341Y-83565000D01*
X139913200Y-83565000D01*
X139877254Y-83596914D01*
M02*
