M48
; DRILL file {KiCad (5.99.0-1105-g741783c6d)} date Sat Mar 14 19:50:08 2020
; FORMAT={-:-/ absolute / inch / decimal}
; #@! TF.CreationDate,2020-03-14T19:50:08+02:00
; #@! TF.GenerationSoftware,Kicad,Pcbnew,(5.99.0-1105-g741783c6d)
; #@! TF.FileFunction,Plated,1,2,PTH
FMAT,2
INCH
T1C0.0315
T2C0.0354
T3C0.0433
T4C0.0472
T5C0.1102
%
G90
G05
T1
X6.242Y-3.852
X6.242Y-3.952
T2
X6.236Y-3.646
X6.236Y-3.746
X6.078Y-3.3
X6.178Y-3.3
T3
X5.398Y-3.788
X5.398Y-3.888
X5.666Y-3.296
X5.766Y-3.296
X5.866Y-3.296
X5.966Y-3.296
X5.426Y-3.296
X5.526Y-3.296
T4
X5.396Y-3.475
X5.396Y-3.575
X6.232Y-3.4
X6.232Y-3.5
T5
X5.6073Y-3.541
X5.6073Y-3.726
X5.6073Y-3.911
X5.816Y-3.541
X5.816Y-3.726
X5.816Y-3.911
X6.0247Y-3.541
X6.0247Y-3.726
X6.0247Y-3.911
T0
M30
