G04 #@! TF.GenerationSoftware,KiCad,Pcbnew,(5.99.0-1730-g52ae0df7a)*
G04 #@! TF.CreationDate,2020-05-20T09:09:00+03:00*
G04 #@! TF.ProjectId,stomp-breakout,73746f6d-702d-4627-9265-616b6f75742e,rev?*
G04 #@! TF.SameCoordinates,Original*
G04 #@! TF.FileFunction,Legend,Top*
G04 #@! TF.FilePolarity,Positive*
%FSLAX46Y46*%
G04 Gerber Fmt 4.6, Leading zero omitted, Abs format (unit mm)*
G04 Created by KiCad (PCBNEW (5.99.0-1730-g52ae0df7a)) date 2020-05-20 09:09:00*
%MOMM*%
%LPD*%
G01*
G04 APERTURE LIST*
%ADD10C,0.120000*%
%ADD11C,0.080000*%
%ADD12C,0.100000*%
%ADD13C,0.150000*%
%ADD14C,0.152400*%
%ADD15O,2.030400X2.030400*%
%ADD16O,1.700000X1.700000*%
%ADD17C,1.700000*%
%ADD18C,1.900000*%
%ADD19O,3.916000X3.916000*%
G04 APERTURE END LIST*
D10*
X158623000Y-96418400D02*
X160096200Y-94945200D01*
X157962600Y-96418400D02*
X158623000Y-96418400D01*
D11*
X158473752Y-88230038D02*
X158073752Y-88230038D01*
X158473752Y-88001466D02*
X158245180Y-88172895D01*
X158073752Y-88001466D02*
X158302323Y-88230038D01*
X158473752Y-87620514D02*
X158473752Y-87849085D01*
X158473752Y-87734800D02*
X158073752Y-87734800D01*
X158130895Y-87772895D01*
X158168990Y-87810990D01*
X158188038Y-87849085D01*
X159096066Y-92043238D02*
X159096066Y-91852761D01*
X159210352Y-92081333D02*
X158810352Y-91948000D01*
X159210352Y-91814666D01*
X158448352Y-96154838D02*
X158048352Y-96154838D01*
X158448352Y-95926266D02*
X158219780Y-96097695D01*
X158048352Y-95926266D02*
X158276923Y-96154838D01*
X158086447Y-95773885D02*
X158067400Y-95754838D01*
X158048352Y-95716742D01*
X158048352Y-95621504D01*
X158067400Y-95583409D01*
X158086447Y-95564361D01*
X158124542Y-95545314D01*
X158162638Y-95545314D01*
X158219780Y-95564361D01*
X158448352Y-95792933D01*
X158448352Y-95545314D01*
X159159552Y-90198561D02*
X158759552Y-90198561D01*
X159159552Y-89969990D02*
X158930980Y-90141419D01*
X158759552Y-89969990D02*
X158988123Y-90198561D01*
X158410257Y-94357819D02*
X158429304Y-94376866D01*
X158448352Y-94434009D01*
X158448352Y-94472104D01*
X158429304Y-94529247D01*
X158391209Y-94567342D01*
X158353114Y-94586390D01*
X158276923Y-94605438D01*
X158219780Y-94605438D01*
X158143590Y-94586390D01*
X158105495Y-94567342D01*
X158067400Y-94529247D01*
X158048352Y-94472104D01*
X158048352Y-94434009D01*
X158067400Y-94376866D01*
X158086447Y-94357819D01*
X158334066Y-94205438D02*
X158334066Y-94014961D01*
X158448352Y-94243533D02*
X158048352Y-94110200D01*
X158448352Y-93976866D01*
D10*
X159054800Y-93700600D02*
X160147000Y-92710000D01*
X158013400Y-93853000D02*
X159029400Y-93726000D01*
X158953200Y-88493600D02*
X159842200Y-89382600D01*
X157988000Y-88442800D02*
X158953200Y-88493600D01*
X158800800Y-92608400D02*
X159410400Y-92405200D01*
X158775400Y-89636600D02*
X159410400Y-89814400D01*
D11*
X157520485Y-96886000D02*
X157544295Y-96826000D01*
X157568104Y-96806000D01*
X157615723Y-96786000D01*
X157687152Y-96786000D01*
X157734771Y-96806000D01*
X157758580Y-96826000D01*
X157782390Y-96866000D01*
X157782390Y-97026000D01*
X157282390Y-97026000D01*
X157282390Y-96886000D01*
X157306200Y-96846000D01*
X157330009Y-96826000D01*
X157377628Y-96806000D01*
X157425247Y-96806000D01*
X157472866Y-96826000D01*
X157496676Y-96846000D01*
X157520485Y-96886000D01*
X157520485Y-97026000D01*
X157782390Y-96606000D02*
X157449057Y-96606000D01*
X157282390Y-96606000D02*
X157306200Y-96626000D01*
X157330009Y-96606000D01*
X157306200Y-96586000D01*
X157282390Y-96606000D01*
X157330009Y-96606000D01*
X157591914Y-96406000D02*
X157591914Y-96086000D01*
X157758580Y-95706000D02*
X157782390Y-95746000D01*
X157782390Y-95826000D01*
X157758580Y-95866000D01*
X157734771Y-95886000D01*
X157687152Y-95906000D01*
X157544295Y-95906000D01*
X157496676Y-95886000D01*
X157472866Y-95866000D01*
X157449057Y-95826000D01*
X157449057Y-95746000D01*
X157472866Y-95706000D01*
X157782390Y-95466000D02*
X157758580Y-95506000D01*
X157734771Y-95526000D01*
X157687152Y-95546000D01*
X157544295Y-95546000D01*
X157496676Y-95526000D01*
X157472866Y-95506000D01*
X157449057Y-95466000D01*
X157449057Y-95406000D01*
X157472866Y-95366000D01*
X157496676Y-95346000D01*
X157544295Y-95326000D01*
X157687152Y-95326000D01*
X157734771Y-95346000D01*
X157758580Y-95366000D01*
X157782390Y-95406000D01*
X157782390Y-95466000D01*
X157782390Y-95086000D02*
X157758580Y-95126000D01*
X157710961Y-95146000D01*
X157282390Y-95146000D01*
X157782390Y-94866000D02*
X157758580Y-94906000D01*
X157734771Y-94926000D01*
X157687152Y-94946000D01*
X157544295Y-94946000D01*
X157496676Y-94926000D01*
X157472866Y-94906000D01*
X157449057Y-94866000D01*
X157449057Y-94806000D01*
X157472866Y-94766000D01*
X157496676Y-94746000D01*
X157544295Y-94726000D01*
X157687152Y-94726000D01*
X157734771Y-94746000D01*
X157758580Y-94766000D01*
X157782390Y-94806000D01*
X157782390Y-94866000D01*
X157782390Y-94546000D02*
X157449057Y-94546000D01*
X157544295Y-94546000D02*
X157496676Y-94526000D01*
X157472866Y-94506000D01*
X157449057Y-94466000D01*
X157449057Y-94426000D01*
X157758580Y-93786000D02*
X157782390Y-93826000D01*
X157782390Y-93906000D01*
X157758580Y-93946000D01*
X157734771Y-93966000D01*
X157687152Y-93986000D01*
X157544295Y-93986000D01*
X157496676Y-93966000D01*
X157472866Y-93946000D01*
X157449057Y-93906000D01*
X157449057Y-93826000D01*
X157472866Y-93786000D01*
X157782390Y-93546000D02*
X157758580Y-93586000D01*
X157734771Y-93606000D01*
X157687152Y-93626000D01*
X157544295Y-93626000D01*
X157496676Y-93606000D01*
X157472866Y-93586000D01*
X157449057Y-93546000D01*
X157449057Y-93486000D01*
X157472866Y-93446000D01*
X157496676Y-93426000D01*
X157544295Y-93406000D01*
X157687152Y-93406000D01*
X157734771Y-93426000D01*
X157758580Y-93446000D01*
X157782390Y-93486000D01*
X157782390Y-93546000D01*
X157782390Y-93226000D02*
X157449057Y-93226000D01*
X157496676Y-93226000D02*
X157472866Y-93206000D01*
X157449057Y-93166000D01*
X157449057Y-93106000D01*
X157472866Y-93066000D01*
X157520485Y-93046000D01*
X157782390Y-93046000D01*
X157520485Y-93046000D02*
X157472866Y-93026000D01*
X157449057Y-92986000D01*
X157449057Y-92926000D01*
X157472866Y-92886000D01*
X157520485Y-92866000D01*
X157782390Y-92866000D01*
X157782390Y-92666000D02*
X157449057Y-92666000D01*
X157496676Y-92666000D02*
X157472866Y-92646000D01*
X157449057Y-92606000D01*
X157449057Y-92546000D01*
X157472866Y-92506000D01*
X157520485Y-92486000D01*
X157782390Y-92486000D01*
X157520485Y-92486000D02*
X157472866Y-92466000D01*
X157449057Y-92426000D01*
X157449057Y-92366000D01*
X157472866Y-92326000D01*
X157520485Y-92306000D01*
X157782390Y-92306000D01*
X157782390Y-92046000D02*
X157758580Y-92086000D01*
X157734771Y-92106000D01*
X157687152Y-92126000D01*
X157544295Y-92126000D01*
X157496676Y-92106000D01*
X157472866Y-92086000D01*
X157449057Y-92046000D01*
X157449057Y-91986000D01*
X157472866Y-91946000D01*
X157496676Y-91926000D01*
X157544295Y-91906000D01*
X157687152Y-91906000D01*
X157734771Y-91926000D01*
X157758580Y-91946000D01*
X157782390Y-91986000D01*
X157782390Y-92046000D01*
X157449057Y-91726000D02*
X157782390Y-91726000D01*
X157496676Y-91726000D02*
X157472866Y-91706000D01*
X157449057Y-91666000D01*
X157449057Y-91606000D01*
X157472866Y-91566000D01*
X157520485Y-91546000D01*
X157782390Y-91546000D01*
X157782390Y-90846000D02*
X157520485Y-90846000D01*
X157472866Y-90866000D01*
X157449057Y-90906000D01*
X157449057Y-90986000D01*
X157472866Y-91026000D01*
X157758580Y-90846000D02*
X157782390Y-90886000D01*
X157782390Y-90986000D01*
X157758580Y-91026000D01*
X157710961Y-91046000D01*
X157663342Y-91046000D01*
X157615723Y-91026000D01*
X157591914Y-90986000D01*
X157591914Y-90886000D01*
X157568104Y-90846000D01*
X157449057Y-90646000D02*
X157782390Y-90646000D01*
X157496676Y-90646000D02*
X157472866Y-90626000D01*
X157449057Y-90586000D01*
X157449057Y-90526000D01*
X157472866Y-90486000D01*
X157520485Y-90466000D01*
X157782390Y-90466000D01*
X157782390Y-90206000D02*
X157758580Y-90246000D01*
X157734771Y-90266000D01*
X157687152Y-90286000D01*
X157544295Y-90286000D01*
X157496676Y-90266000D01*
X157472866Y-90246000D01*
X157449057Y-90206000D01*
X157449057Y-90146000D01*
X157472866Y-90106000D01*
X157496676Y-90086000D01*
X157544295Y-90066000D01*
X157687152Y-90066000D01*
X157734771Y-90086000D01*
X157758580Y-90106000D01*
X157782390Y-90146000D01*
X157782390Y-90206000D01*
X157782390Y-89706000D02*
X157282390Y-89706000D01*
X157758580Y-89706000D02*
X157782390Y-89746000D01*
X157782390Y-89826000D01*
X157758580Y-89866000D01*
X157734771Y-89886000D01*
X157687152Y-89906000D01*
X157544295Y-89906000D01*
X157496676Y-89886000D01*
X157472866Y-89866000D01*
X157449057Y-89826000D01*
X157449057Y-89746000D01*
X157472866Y-89706000D01*
X157758580Y-89346000D02*
X157782390Y-89386000D01*
X157782390Y-89466000D01*
X157758580Y-89506000D01*
X157710961Y-89526000D01*
X157520485Y-89526000D01*
X157472866Y-89506000D01*
X157449057Y-89466000D01*
X157449057Y-89386000D01*
X157472866Y-89346000D01*
X157520485Y-89326000D01*
X157568104Y-89326000D01*
X157615723Y-89526000D01*
X157782390Y-88626000D02*
X157782390Y-88826000D01*
X157282390Y-88826000D01*
X157520485Y-88486000D02*
X157520485Y-88346000D01*
X157782390Y-88286000D02*
X157782390Y-88486000D01*
X157282390Y-88486000D01*
X157282390Y-88286000D01*
X157782390Y-88106000D02*
X157282390Y-88106000D01*
X157282390Y-88006000D01*
X157306200Y-87946000D01*
X157353819Y-87906000D01*
X157401438Y-87886000D01*
X157496676Y-87866000D01*
X157568104Y-87866000D01*
X157663342Y-87886000D01*
X157710961Y-87906000D01*
X157758580Y-87946000D01*
X157782390Y-88006000D01*
X157782390Y-88106000D01*
X158571380Y-93331628D02*
X158595190Y-93267342D01*
X158595190Y-93160200D01*
X158571380Y-93117342D01*
X158547571Y-93095914D01*
X158499952Y-93074485D01*
X158452333Y-93074485D01*
X158404714Y-93095914D01*
X158380904Y-93117342D01*
X158357095Y-93160200D01*
X158333285Y-93245914D01*
X158309476Y-93288771D01*
X158285666Y-93310200D01*
X158238047Y-93331628D01*
X158190428Y-93331628D01*
X158142809Y-93310200D01*
X158119000Y-93288771D01*
X158095190Y-93245914D01*
X158095190Y-93138771D01*
X158119000Y-93074485D01*
X158261857Y-92945914D02*
X158261857Y-92774485D01*
X158095190Y-92881628D02*
X158523761Y-92881628D01*
X158571380Y-92860200D01*
X158595190Y-92817342D01*
X158595190Y-92774485D01*
X158595190Y-92431628D02*
X158333285Y-92431628D01*
X158285666Y-92453057D01*
X158261857Y-92495914D01*
X158261857Y-92581628D01*
X158285666Y-92624485D01*
X158571380Y-92431628D02*
X158595190Y-92474485D01*
X158595190Y-92581628D01*
X158571380Y-92624485D01*
X158523761Y-92645914D01*
X158476142Y-92645914D01*
X158428523Y-92624485D01*
X158404714Y-92581628D01*
X158404714Y-92474485D01*
X158380904Y-92431628D01*
X158261857Y-92217342D02*
X158595190Y-92217342D01*
X158309476Y-92217342D02*
X158285666Y-92195914D01*
X158261857Y-92153057D01*
X158261857Y-92088771D01*
X158285666Y-92045914D01*
X158333285Y-92024485D01*
X158595190Y-92024485D01*
X158595190Y-91617342D02*
X158095190Y-91617342D01*
X158571380Y-91617342D02*
X158595190Y-91660200D01*
X158595190Y-91745914D01*
X158571380Y-91788771D01*
X158547571Y-91810200D01*
X158499952Y-91831628D01*
X158357095Y-91831628D01*
X158309476Y-91810200D01*
X158285666Y-91788771D01*
X158261857Y-91745914D01*
X158261857Y-91660200D01*
X158285666Y-91617342D01*
X158595190Y-91210200D02*
X158333285Y-91210200D01*
X158285666Y-91231628D01*
X158261857Y-91274485D01*
X158261857Y-91360200D01*
X158285666Y-91403057D01*
X158571380Y-91210200D02*
X158595190Y-91253057D01*
X158595190Y-91360200D01*
X158571380Y-91403057D01*
X158523761Y-91424485D01*
X158476142Y-91424485D01*
X158428523Y-91403057D01*
X158404714Y-91360200D01*
X158404714Y-91253057D01*
X158380904Y-91210200D01*
X158595190Y-90995914D02*
X158261857Y-90995914D01*
X158357095Y-90995914D02*
X158309476Y-90974485D01*
X158285666Y-90953057D01*
X158261857Y-90910200D01*
X158261857Y-90867342D01*
X158595190Y-90524485D02*
X158095190Y-90524485D01*
X158571380Y-90524485D02*
X158595190Y-90567342D01*
X158595190Y-90653057D01*
X158571380Y-90695914D01*
X158547571Y-90717342D01*
X158499952Y-90738771D01*
X158357095Y-90738771D01*
X158309476Y-90717342D01*
X158285666Y-90695914D01*
X158261857Y-90653057D01*
X158261857Y-90567342D01*
X158285666Y-90524485D01*
X158595190Y-89753057D02*
X158595190Y-89967342D01*
X158095190Y-89967342D01*
X158333285Y-89603057D02*
X158333285Y-89453057D01*
X158595190Y-89388771D02*
X158595190Y-89603057D01*
X158095190Y-89603057D01*
X158095190Y-89388771D01*
X158595190Y-89195914D02*
X158095190Y-89195914D01*
X158095190Y-89088771D01*
X158119000Y-89024485D01*
X158166619Y-88981628D01*
X158214238Y-88960200D01*
X158309476Y-88938771D01*
X158380904Y-88938771D01*
X158476142Y-88960200D01*
X158523761Y-88981628D01*
X158571380Y-89024485D01*
X158595190Y-89088771D01*
X158595190Y-89195914D01*
D12*
X158412690Y-86048785D02*
X158769833Y-86048785D01*
X158841261Y-86067833D01*
X158888880Y-86105928D01*
X158912690Y-86163071D01*
X158912690Y-86201166D01*
X158769833Y-85877357D02*
X158769833Y-85686880D01*
X158912690Y-85915452D02*
X158412690Y-85782119D01*
X158912690Y-85648785D01*
X158865071Y-85286880D02*
X158888880Y-85305928D01*
X158912690Y-85363071D01*
X158912690Y-85401166D01*
X158888880Y-85458309D01*
X158841261Y-85496404D01*
X158793642Y-85515452D01*
X158698404Y-85534500D01*
X158626976Y-85534500D01*
X158531738Y-85515452D01*
X158484119Y-85496404D01*
X158436500Y-85458309D01*
X158412690Y-85401166D01*
X158412690Y-85363071D01*
X158436500Y-85305928D01*
X158460309Y-85286880D01*
X158912690Y-85115452D02*
X158412690Y-85115452D01*
X158912690Y-84886880D02*
X158626976Y-85058309D01*
X158412690Y-84886880D02*
X158698404Y-85115452D01*
X138805409Y-84524914D02*
X138448266Y-84524914D01*
X138376838Y-84505866D01*
X138329219Y-84467771D01*
X138305409Y-84410628D01*
X138305409Y-84372533D01*
X138448266Y-84696342D02*
X138448266Y-84886819D01*
X138305409Y-84658247D02*
X138805409Y-84791580D01*
X138305409Y-84924914D01*
X138353028Y-85286819D02*
X138329219Y-85267771D01*
X138305409Y-85210628D01*
X138305409Y-85172533D01*
X138329219Y-85115390D01*
X138376838Y-85077295D01*
X138424457Y-85058247D01*
X138519695Y-85039200D01*
X138591123Y-85039200D01*
X138686361Y-85058247D01*
X138733980Y-85077295D01*
X138781600Y-85115390D01*
X138805409Y-85172533D01*
X138805409Y-85210628D01*
X138781600Y-85267771D01*
X138757790Y-85286819D01*
X138305409Y-85458247D02*
X138805409Y-85458247D01*
X138305409Y-85686819D02*
X138591123Y-85515390D01*
X138805409Y-85686819D02*
X138519695Y-85458247D01*
X139269771Y-89840314D02*
X138869771Y-89983171D01*
X139269771Y-90126028D01*
X139469771Y-90468885D02*
X139469771Y-90526028D01*
X139441200Y-90583171D01*
X139412628Y-90611742D01*
X139355485Y-90640314D01*
X139241200Y-90668885D01*
X139098342Y-90668885D01*
X138984057Y-90640314D01*
X138926914Y-90611742D01*
X138898342Y-90583171D01*
X138869771Y-90526028D01*
X138869771Y-90468885D01*
X138898342Y-90411742D01*
X138926914Y-90383171D01*
X138984057Y-90354600D01*
X139098342Y-90326028D01*
X139241200Y-90326028D01*
X139355485Y-90354600D01*
X139412628Y-90383171D01*
X139441200Y-90411742D01*
X139469771Y-90468885D01*
X138926914Y-90926028D02*
X138898342Y-90954600D01*
X138869771Y-90926028D01*
X138898342Y-90897457D01*
X138926914Y-90926028D01*
X138869771Y-90926028D01*
X139269771Y-91468885D02*
X138869771Y-91468885D01*
X139498342Y-91326028D02*
X139069771Y-91183171D01*
X139069771Y-91554600D01*
X139412628Y-92211742D02*
X139441200Y-92240314D01*
X139469771Y-92297457D01*
X139469771Y-92440314D01*
X139441200Y-92497457D01*
X139412628Y-92526028D01*
X139355485Y-92554600D01*
X139298342Y-92554600D01*
X139212628Y-92526028D01*
X138869771Y-92183171D01*
X138869771Y-92554600D01*
X139469771Y-92926028D02*
X139469771Y-92983171D01*
X139441200Y-93040314D01*
X139412628Y-93068885D01*
X139355485Y-93097457D01*
X139241200Y-93126028D01*
X139098342Y-93126028D01*
X138984057Y-93097457D01*
X138926914Y-93068885D01*
X138898342Y-93040314D01*
X138869771Y-92983171D01*
X138869771Y-92926028D01*
X138898342Y-92868885D01*
X138926914Y-92840314D01*
X138984057Y-92811742D01*
X139098342Y-92783171D01*
X139241200Y-92783171D01*
X139355485Y-92811742D01*
X139412628Y-92840314D01*
X139441200Y-92868885D01*
X139469771Y-92926028D01*
X139412628Y-93354600D02*
X139441200Y-93383171D01*
X139469771Y-93440314D01*
X139469771Y-93583171D01*
X139441200Y-93640314D01*
X139412628Y-93668885D01*
X139355485Y-93697457D01*
X139298342Y-93697457D01*
X139212628Y-93668885D01*
X138869771Y-93326028D01*
X138869771Y-93697457D01*
X139469771Y-94068885D02*
X139469771Y-94126028D01*
X139441200Y-94183171D01*
X139412628Y-94211742D01*
X139355485Y-94240314D01*
X139241200Y-94268885D01*
X139098342Y-94268885D01*
X138984057Y-94240314D01*
X138926914Y-94211742D01*
X138898342Y-94183171D01*
X138869771Y-94126028D01*
X138869771Y-94068885D01*
X138898342Y-94011742D01*
X138926914Y-93983171D01*
X138984057Y-93954600D01*
X139098342Y-93926028D01*
X139241200Y-93926028D01*
X139355485Y-93954600D01*
X139412628Y-93983171D01*
X139441200Y-94011742D01*
X139469771Y-94068885D01*
X139098342Y-94526028D02*
X139098342Y-94983171D01*
X139469771Y-95383171D02*
X139469771Y-95440314D01*
X139441200Y-95497457D01*
X139412628Y-95526028D01*
X139355485Y-95554600D01*
X139241200Y-95583171D01*
X139098342Y-95583171D01*
X138984057Y-95554600D01*
X138926914Y-95526028D01*
X138898342Y-95497457D01*
X138869771Y-95440314D01*
X138869771Y-95383171D01*
X138898342Y-95326028D01*
X138926914Y-95297457D01*
X138984057Y-95268885D01*
X139098342Y-95240314D01*
X139241200Y-95240314D01*
X139355485Y-95268885D01*
X139412628Y-95297457D01*
X139441200Y-95326028D01*
X139469771Y-95383171D01*
X139469771Y-96126028D02*
X139469771Y-95840314D01*
X139184057Y-95811742D01*
X139212628Y-95840314D01*
X139241200Y-95897457D01*
X139241200Y-96040314D01*
X139212628Y-96097457D01*
X139184057Y-96126028D01*
X139126914Y-96154600D01*
X138984057Y-96154600D01*
X138926914Y-96126028D01*
X138898342Y-96097457D01*
X138869771Y-96040314D01*
X138869771Y-95897457D01*
X138898342Y-95840314D01*
X138926914Y-95811742D01*
X139098342Y-96411742D02*
X139098342Y-96868885D01*
X139412628Y-97126028D02*
X139441200Y-97154600D01*
X139469771Y-97211742D01*
X139469771Y-97354600D01*
X139441200Y-97411742D01*
X139412628Y-97440314D01*
X139355485Y-97468885D01*
X139298342Y-97468885D01*
X139212628Y-97440314D01*
X138869771Y-97097457D01*
X138869771Y-97468885D01*
X139469771Y-97840314D02*
X139469771Y-97897457D01*
X139441200Y-97954600D01*
X139412628Y-97983171D01*
X139355485Y-98011742D01*
X139241200Y-98040314D01*
X139098342Y-98040314D01*
X138984057Y-98011742D01*
X138926914Y-97983171D01*
X138898342Y-97954600D01*
X138869771Y-97897457D01*
X138869771Y-97840314D01*
X138898342Y-97783171D01*
X138926914Y-97754600D01*
X138984057Y-97726028D01*
X139098342Y-97697457D01*
X139241200Y-97697457D01*
X139355485Y-97726028D01*
X139412628Y-97754600D01*
X139441200Y-97783171D01*
X139469771Y-97840314D01*
X159207257Y-102646200D02*
X159150114Y-102617628D01*
X159064400Y-102617628D01*
X158978685Y-102646200D01*
X158921542Y-102703342D01*
X158892971Y-102760485D01*
X158864400Y-102874771D01*
X158864400Y-102960485D01*
X158892971Y-103074771D01*
X158921542Y-103131914D01*
X158978685Y-103189057D01*
X159064400Y-103217628D01*
X159121542Y-103217628D01*
X159207257Y-103189057D01*
X159235828Y-103160485D01*
X159235828Y-102960485D01*
X159121542Y-102960485D01*
X159492971Y-103217628D02*
X159492971Y-102617628D01*
X159835828Y-103217628D01*
X159835828Y-102617628D01*
X160121542Y-103217628D02*
X160121542Y-102617628D01*
X160264400Y-102617628D01*
X160350114Y-102646200D01*
X160407257Y-102703342D01*
X160435828Y-102760485D01*
X160464400Y-102874771D01*
X160464400Y-102960485D01*
X160435828Y-103074771D01*
X160407257Y-103131914D01*
X160350114Y-103189057D01*
X160264400Y-103217628D01*
X160121542Y-103217628D01*
D11*
X141478038Y-83315200D02*
X141439942Y-83296152D01*
X141382800Y-83296152D01*
X141325657Y-83315200D01*
X141287561Y-83353295D01*
X141268514Y-83391390D01*
X141249466Y-83467580D01*
X141249466Y-83524723D01*
X141268514Y-83600914D01*
X141287561Y-83639009D01*
X141325657Y-83677104D01*
X141382800Y-83696152D01*
X141420895Y-83696152D01*
X141478038Y-83677104D01*
X141497085Y-83658057D01*
X141497085Y-83524723D01*
X141420895Y-83524723D01*
X141668514Y-83696152D02*
X141668514Y-83296152D01*
X141897085Y-83696152D01*
X141897085Y-83296152D01*
X142087561Y-83696152D02*
X142087561Y-83296152D01*
X142182800Y-83296152D01*
X142239942Y-83315200D01*
X142278038Y-83353295D01*
X142297085Y-83391390D01*
X142316133Y-83467580D01*
X142316133Y-83524723D01*
X142297085Y-83600914D01*
X142278038Y-83639009D01*
X142239942Y-83677104D01*
X142182800Y-83696152D01*
X142087561Y-83696152D01*
D12*
X138261790Y-83964428D02*
X138261790Y-83364428D01*
X138737980Y-83964428D02*
X138737980Y-83364428D01*
X139309409Y-83964428D01*
X139309409Y-83364428D01*
X135909071Y-86285357D02*
X135994785Y-86313928D01*
X136137642Y-86313928D01*
X136194785Y-86285357D01*
X136223357Y-86256785D01*
X136251928Y-86199642D01*
X136251928Y-86142500D01*
X136223357Y-86085357D01*
X136194785Y-86056785D01*
X136137642Y-86028214D01*
X136023357Y-85999642D01*
X135966214Y-85971071D01*
X135937642Y-85942500D01*
X135909071Y-85885357D01*
X135909071Y-85828214D01*
X135937642Y-85771071D01*
X135966214Y-85742500D01*
X136023357Y-85713928D01*
X136166214Y-85713928D01*
X136251928Y-85742500D01*
X135845571Y-83427928D02*
X136188428Y-83427928D01*
X136017000Y-84027928D02*
X136017000Y-83427928D01*
X158956500Y-83355690D02*
X159146976Y-83355690D01*
X159242214Y-83379500D01*
X159337452Y-83427119D01*
X159385071Y-83522357D01*
X159385071Y-83689023D01*
X159337452Y-83784261D01*
X159242214Y-83831880D01*
X159146976Y-83855690D01*
X158956500Y-83855690D01*
X158861261Y-83831880D01*
X158766023Y-83784261D01*
X158718404Y-83689023D01*
X158718404Y-83522357D01*
X158766023Y-83427119D01*
X158861261Y-83379500D01*
X158956500Y-83355690D01*
X159813642Y-83355690D02*
X159813642Y-83760452D01*
X159861261Y-83808071D01*
X159908880Y-83831880D01*
X160004119Y-83855690D01*
X160194595Y-83855690D01*
X160289833Y-83831880D01*
X160337452Y-83808071D01*
X160385071Y-83760452D01*
X160385071Y-83355690D01*
X160718404Y-83355690D02*
X161289833Y-83355690D01*
X161004119Y-83855690D02*
X161004119Y-83355690D01*
X160991571Y-86933057D02*
X161077285Y-86961628D01*
X161220142Y-86961628D01*
X161277285Y-86933057D01*
X161305857Y-86904485D01*
X161334428Y-86847342D01*
X161334428Y-86790200D01*
X161305857Y-86733057D01*
X161277285Y-86704485D01*
X161220142Y-86675914D01*
X161105857Y-86647342D01*
X161048714Y-86618771D01*
X161020142Y-86590200D01*
X160991571Y-86533057D01*
X160991571Y-86475914D01*
X161020142Y-86418771D01*
X161048714Y-86390200D01*
X161105857Y-86361628D01*
X161248714Y-86361628D01*
X161334428Y-86390200D01*
X161093171Y-84050228D02*
X161436028Y-84050228D01*
X161264600Y-84650228D02*
X161264600Y-84050228D01*
D11*
X157530838Y-83416800D02*
X157492742Y-83397752D01*
X157435600Y-83397752D01*
X157378457Y-83416800D01*
X157340361Y-83454895D01*
X157321314Y-83492990D01*
X157302266Y-83569180D01*
X157302266Y-83626323D01*
X157321314Y-83702514D01*
X157340361Y-83740609D01*
X157378457Y-83778704D01*
X157435600Y-83797752D01*
X157473695Y-83797752D01*
X157530838Y-83778704D01*
X157549885Y-83759657D01*
X157549885Y-83626323D01*
X157473695Y-83626323D01*
X157721314Y-83797752D02*
X157721314Y-83397752D01*
X157949885Y-83797752D01*
X157949885Y-83397752D01*
X158140361Y-83797752D02*
X158140361Y-83397752D01*
X158235600Y-83397752D01*
X158292742Y-83416800D01*
X158330838Y-83454895D01*
X158349885Y-83492990D01*
X158368933Y-83569180D01*
X158368933Y-83626323D01*
X158349885Y-83702514D01*
X158330838Y-83740609D01*
X158292742Y-83778704D01*
X158235600Y-83797752D01*
X158140361Y-83797752D01*
X155117847Y-83346952D02*
X155251180Y-83746952D01*
X155384514Y-83346952D01*
X155517847Y-83594571D02*
X155822609Y-83594571D01*
X155670228Y-83746952D02*
X155670228Y-83442190D01*
X135813847Y-98155152D02*
X135947180Y-98555152D01*
X136080514Y-98155152D01*
X136213847Y-98402771D02*
X136518609Y-98402771D01*
X136366228Y-98555152D02*
X136366228Y-98250390D01*
X136042438Y-100815800D02*
X136004342Y-100796752D01*
X135947200Y-100796752D01*
X135890057Y-100815800D01*
X135851961Y-100853895D01*
X135832914Y-100891990D01*
X135813866Y-100968180D01*
X135813866Y-101025323D01*
X135832914Y-101101514D01*
X135851961Y-101139609D01*
X135890057Y-101177704D01*
X135947200Y-101196752D01*
X135985295Y-101196752D01*
X136042438Y-101177704D01*
X136061485Y-101158657D01*
X136061485Y-101025323D01*
X135985295Y-101025323D01*
X136232914Y-101196752D02*
X136232914Y-100796752D01*
X136461485Y-101196752D01*
X136461485Y-100796752D01*
X136651961Y-101196752D02*
X136651961Y-100796752D01*
X136747200Y-100796752D01*
X136804342Y-100815800D01*
X136842438Y-100853895D01*
X136861485Y-100891990D01*
X136880533Y-100968180D01*
X136880533Y-101025323D01*
X136861485Y-101101514D01*
X136842438Y-101139609D01*
X136804342Y-101177704D01*
X136747200Y-101196752D01*
X136651961Y-101196752D01*
D13*
X139466066Y-87785923D02*
X139666066Y-87831161D01*
X139999400Y-87831161D01*
X140132733Y-87785923D01*
X140199400Y-87740685D01*
X140266066Y-87650209D01*
X140266066Y-87559733D01*
X140199400Y-87469257D01*
X140132733Y-87424019D01*
X139999400Y-87378780D01*
X139732733Y-87333542D01*
X139599400Y-87288304D01*
X139532733Y-87243066D01*
X139466066Y-87152590D01*
X139466066Y-87062114D01*
X139532733Y-86971638D01*
X139599400Y-86926400D01*
X139732733Y-86881161D01*
X140066066Y-86881161D01*
X140266066Y-86926400D01*
X140666066Y-87197828D02*
X141199400Y-87197828D01*
X140866066Y-86881161D02*
X140866066Y-87695447D01*
X140932733Y-87785923D01*
X141066066Y-87831161D01*
X141199400Y-87831161D01*
X141866066Y-87831161D02*
X141732733Y-87785923D01*
X141666066Y-87740685D01*
X141599400Y-87650209D01*
X141599400Y-87378780D01*
X141666066Y-87288304D01*
X141732733Y-87243066D01*
X141866066Y-87197828D01*
X142066066Y-87197828D01*
X142199400Y-87243066D01*
X142266066Y-87288304D01*
X142332733Y-87378780D01*
X142332733Y-87650209D01*
X142266066Y-87740685D01*
X142199400Y-87785923D01*
X142066066Y-87831161D01*
X141866066Y-87831161D01*
X142932733Y-87831161D02*
X142932733Y-87197828D01*
X142932733Y-87288304D02*
X142999400Y-87243066D01*
X143132733Y-87197828D01*
X143332733Y-87197828D01*
X143466066Y-87243066D01*
X143532733Y-87333542D01*
X143532733Y-87831161D01*
X143532733Y-87333542D02*
X143599400Y-87243066D01*
X143732733Y-87197828D01*
X143932733Y-87197828D01*
X144066066Y-87243066D01*
X144132733Y-87333542D01*
X144132733Y-87831161D01*
X144799400Y-87197828D02*
X144799400Y-88147828D01*
X144799400Y-87243066D02*
X144932733Y-87197828D01*
X145199400Y-87197828D01*
X145332733Y-87243066D01*
X145399400Y-87288304D01*
X145466066Y-87378780D01*
X145466066Y-87650209D01*
X145399400Y-87740685D01*
X145332733Y-87785923D01*
X145199400Y-87831161D01*
X144932733Y-87831161D01*
X144799400Y-87785923D01*
X147599400Y-87333542D02*
X147799400Y-87378780D01*
X147866066Y-87424019D01*
X147932733Y-87514495D01*
X147932733Y-87650209D01*
X147866066Y-87740685D01*
X147799400Y-87785923D01*
X147666066Y-87831161D01*
X147132733Y-87831161D01*
X147132733Y-86881161D01*
X147599400Y-86881161D01*
X147732733Y-86926400D01*
X147799400Y-86971638D01*
X147866066Y-87062114D01*
X147866066Y-87152590D01*
X147799400Y-87243066D01*
X147732733Y-87288304D01*
X147599400Y-87333542D01*
X147132733Y-87333542D01*
X148532733Y-87831161D02*
X148532733Y-87197828D01*
X148532733Y-87378780D02*
X148599400Y-87288304D01*
X148666066Y-87243066D01*
X148799400Y-87197828D01*
X148932733Y-87197828D01*
X149932733Y-87785923D02*
X149799400Y-87831161D01*
X149532733Y-87831161D01*
X149399400Y-87785923D01*
X149332733Y-87695447D01*
X149332733Y-87333542D01*
X149399400Y-87243066D01*
X149532733Y-87197828D01*
X149799400Y-87197828D01*
X149932733Y-87243066D01*
X149999400Y-87333542D01*
X149999400Y-87424019D01*
X149332733Y-87514495D01*
X151199400Y-87831161D02*
X151199400Y-87333542D01*
X151132733Y-87243066D01*
X150999400Y-87197828D01*
X150732733Y-87197828D01*
X150599400Y-87243066D01*
X151199400Y-87785923D02*
X151066066Y-87831161D01*
X150732733Y-87831161D01*
X150599400Y-87785923D01*
X150532733Y-87695447D01*
X150532733Y-87604971D01*
X150599400Y-87514495D01*
X150732733Y-87469257D01*
X151066066Y-87469257D01*
X151199400Y-87424019D01*
X151866066Y-87831161D02*
X151866066Y-86881161D01*
X151999400Y-87469257D02*
X152399400Y-87831161D01*
X152399400Y-87197828D02*
X151866066Y-87559733D01*
X153199400Y-87831161D02*
X153066066Y-87785923D01*
X152999400Y-87740685D01*
X152932733Y-87650209D01*
X152932733Y-87378780D01*
X152999400Y-87288304D01*
X153066066Y-87243066D01*
X153199400Y-87197828D01*
X153399400Y-87197828D01*
X153532733Y-87243066D01*
X153599400Y-87288304D01*
X153666066Y-87378780D01*
X153666066Y-87650209D01*
X153599400Y-87740685D01*
X153532733Y-87785923D01*
X153399400Y-87831161D01*
X153199400Y-87831161D01*
X154866066Y-87197828D02*
X154866066Y-87831161D01*
X154266066Y-87197828D02*
X154266066Y-87695447D01*
X154332733Y-87785923D01*
X154466066Y-87831161D01*
X154666066Y-87831161D01*
X154799400Y-87785923D01*
X154866066Y-87740685D01*
X155332733Y-87197828D02*
X155866066Y-87197828D01*
X155532733Y-86881161D02*
X155532733Y-87695447D01*
X155599400Y-87785923D01*
X155732733Y-87831161D01*
X155866066Y-87831161D01*
D12*
X143128000Y-102772333D02*
X143228000Y-102805666D01*
X143394666Y-102805666D01*
X143461333Y-102772333D01*
X143494666Y-102739000D01*
X143528000Y-102672333D01*
X143528000Y-102605666D01*
X143494666Y-102539000D01*
X143461333Y-102505666D01*
X143394666Y-102472333D01*
X143261333Y-102439000D01*
X143194666Y-102405666D01*
X143161333Y-102372333D01*
X143128000Y-102305666D01*
X143128000Y-102239000D01*
X143161333Y-102172333D01*
X143194666Y-102139000D01*
X143261333Y-102105666D01*
X143428000Y-102105666D01*
X143528000Y-102139000D01*
X143961333Y-102105666D02*
X144094666Y-102105666D01*
X144161333Y-102139000D01*
X144228000Y-102205666D01*
X144261333Y-102339000D01*
X144261333Y-102572333D01*
X144228000Y-102705666D01*
X144161333Y-102772333D01*
X144094666Y-102805666D01*
X143961333Y-102805666D01*
X143894666Y-102772333D01*
X143828000Y-102705666D01*
X143794666Y-102572333D01*
X143794666Y-102339000D01*
X143828000Y-102205666D01*
X143894666Y-102139000D01*
X143961333Y-102105666D01*
X144894666Y-102805666D02*
X144561333Y-102805666D01*
X144561333Y-102105666D01*
X145128000Y-102805666D02*
X145128000Y-102105666D01*
X145294666Y-102105666D01*
X145394666Y-102139000D01*
X145461333Y-102205666D01*
X145494666Y-102272333D01*
X145528000Y-102405666D01*
X145528000Y-102505666D01*
X145494666Y-102639000D01*
X145461333Y-102705666D01*
X145394666Y-102772333D01*
X145294666Y-102805666D01*
X145128000Y-102805666D01*
X145828000Y-102439000D02*
X146061333Y-102439000D01*
X146161333Y-102805666D02*
X145828000Y-102805666D01*
X145828000Y-102105666D01*
X146161333Y-102105666D01*
X146861333Y-102805666D02*
X146628000Y-102472333D01*
X146461333Y-102805666D02*
X146461333Y-102105666D01*
X146728000Y-102105666D01*
X146794666Y-102139000D01*
X146828000Y-102172333D01*
X146861333Y-102239000D01*
X146861333Y-102339000D01*
X146828000Y-102405666D01*
X146794666Y-102439000D01*
X146728000Y-102472333D01*
X146461333Y-102472333D01*
X147594666Y-102105666D02*
X147994666Y-102105666D01*
X147794666Y-102805666D02*
X147794666Y-102105666D01*
X148228000Y-102805666D02*
X148228000Y-102105666D01*
X148228000Y-102439000D02*
X148628000Y-102439000D01*
X148628000Y-102805666D02*
X148628000Y-102105666D01*
X148961333Y-102805666D02*
X148961333Y-102105666D01*
X149261333Y-102772333D02*
X149361333Y-102805666D01*
X149528000Y-102805666D01*
X149594666Y-102772333D01*
X149628000Y-102739000D01*
X149661333Y-102672333D01*
X149661333Y-102605666D01*
X149628000Y-102539000D01*
X149594666Y-102505666D01*
X149528000Y-102472333D01*
X149394666Y-102439000D01*
X149328000Y-102405666D01*
X149294666Y-102372333D01*
X149261333Y-102305666D01*
X149261333Y-102239000D01*
X149294666Y-102172333D01*
X149328000Y-102139000D01*
X149394666Y-102105666D01*
X149561333Y-102105666D01*
X149661333Y-102139000D01*
X150461333Y-102772333D02*
X150561333Y-102805666D01*
X150728000Y-102805666D01*
X150794666Y-102772333D01*
X150828000Y-102739000D01*
X150861333Y-102672333D01*
X150861333Y-102605666D01*
X150828000Y-102539000D01*
X150794666Y-102505666D01*
X150728000Y-102472333D01*
X150594666Y-102439000D01*
X150528000Y-102405666D01*
X150494666Y-102372333D01*
X150461333Y-102305666D01*
X150461333Y-102239000D01*
X150494666Y-102172333D01*
X150528000Y-102139000D01*
X150594666Y-102105666D01*
X150761333Y-102105666D01*
X150861333Y-102139000D01*
X151161333Y-102805666D02*
X151161333Y-102105666D01*
X151494666Y-102805666D02*
X151494666Y-102105666D01*
X151661333Y-102105666D01*
X151761333Y-102139000D01*
X151828000Y-102205666D01*
X151861333Y-102272333D01*
X151894666Y-102405666D01*
X151894666Y-102505666D01*
X151861333Y-102639000D01*
X151828000Y-102705666D01*
X151761333Y-102772333D01*
X151661333Y-102805666D01*
X151494666Y-102805666D01*
X152194666Y-102439000D02*
X152428000Y-102439000D01*
X152528000Y-102805666D02*
X152194666Y-102805666D01*
X152194666Y-102105666D01*
X152528000Y-102105666D01*
D11*
X151136400Y-86140952D02*
X151212590Y-86140952D01*
X151250685Y-86160000D01*
X151288780Y-86198095D01*
X151307828Y-86274285D01*
X151307828Y-86407619D01*
X151288780Y-86483809D01*
X151250685Y-86521904D01*
X151212590Y-86540952D01*
X151136400Y-86540952D01*
X151098304Y-86521904D01*
X151060209Y-86483809D01*
X151041161Y-86407619D01*
X151041161Y-86274285D01*
X151060209Y-86198095D01*
X151098304Y-86160000D01*
X151136400Y-86140952D01*
X151479257Y-86140952D02*
X151479257Y-86464761D01*
X151498304Y-86502857D01*
X151517352Y-86521904D01*
X151555447Y-86540952D01*
X151631638Y-86540952D01*
X151669733Y-86521904D01*
X151688780Y-86502857D01*
X151707828Y-86464761D01*
X151707828Y-86140952D01*
X151841161Y-86140952D02*
X152069733Y-86140952D01*
X151955447Y-86540952D02*
X151955447Y-86140952D01*
X148717042Y-86521904D02*
X148774185Y-86540952D01*
X148869423Y-86540952D01*
X148907519Y-86521904D01*
X148926566Y-86502857D01*
X148945614Y-86464761D01*
X148945614Y-86426666D01*
X148926566Y-86388571D01*
X148907519Y-86369523D01*
X148869423Y-86350476D01*
X148793233Y-86331428D01*
X148755138Y-86312380D01*
X148736090Y-86293333D01*
X148717042Y-86255238D01*
X148717042Y-86217142D01*
X148736090Y-86179047D01*
X148755138Y-86160000D01*
X148793233Y-86140952D01*
X148888471Y-86140952D01*
X148945614Y-86160000D01*
X149078947Y-86140952D02*
X149174185Y-86540952D01*
X149250376Y-86255238D01*
X149326566Y-86540952D01*
X149421804Y-86140952D01*
X146215138Y-86160000D02*
X146177042Y-86140952D01*
X146119900Y-86140952D01*
X146062757Y-86160000D01*
X146024661Y-86198095D01*
X146005614Y-86236190D01*
X145986566Y-86312380D01*
X145986566Y-86369523D01*
X146005614Y-86445714D01*
X146024661Y-86483809D01*
X146062757Y-86521904D01*
X146119900Y-86540952D01*
X146157995Y-86540952D01*
X146215138Y-86521904D01*
X146234185Y-86502857D01*
X146234185Y-86369523D01*
X146157995Y-86369523D01*
X146405614Y-86540952D02*
X146405614Y-86140952D01*
X146634185Y-86540952D01*
X146634185Y-86140952D01*
X146824661Y-86540952D02*
X146824661Y-86140952D01*
X146919900Y-86140952D01*
X146977042Y-86160000D01*
X147015138Y-86198095D01*
X147034185Y-86236190D01*
X147053233Y-86312380D01*
X147053233Y-86369523D01*
X147034185Y-86445714D01*
X147015138Y-86483809D01*
X146977042Y-86521904D01*
X146919900Y-86540952D01*
X146824661Y-86540952D01*
X143706876Y-86540952D02*
X143706876Y-86140952D01*
X143897352Y-86540952D02*
X143897352Y-86140952D01*
X144125923Y-86540952D01*
X144125923Y-86140952D01*
D14*
X138526400Y-85840400D02*
X156926400Y-85840400D01*
X156926400Y-85840400D02*
X156926400Y-103440400D01*
X156926400Y-103440400D02*
X138526400Y-103440400D01*
X138526400Y-103440400D02*
X138526400Y-85840400D01*
D11*
X152806400Y-86677500D02*
X152806400Y-83439000D01*
X142646400Y-86677500D02*
X142646400Y-83439000D01*
X152806400Y-85979000D02*
X142646400Y-85979000D01*
X142646400Y-83439000D02*
X152806400Y-83439000D01*
X142646400Y-86677500D02*
X152806400Y-86677500D01*
%LPC*%
D15*
X157937200Y-102158800D03*
X141033500Y-84709000D03*
D16*
X136906000Y-92151200D03*
D17*
X136906000Y-89611200D03*
X159893000Y-100163000D03*
G36*
G01*
X159093000Y-96813000D02*
X160693000Y-96813000D01*
G75*
G02*
X160743000Y-96863000I0J-50000D01*
G01*
X160743000Y-98463000D01*
G75*
G02*
X160693000Y-98513000I-50000J0D01*
G01*
X159093000Y-98513000D01*
G75*
G02*
X159043000Y-98463000I0J50000D01*
G01*
X159043000Y-96863000D01*
G75*
G02*
X159093000Y-96813000I50000J0D01*
G01*
G37*
D18*
X160147000Y-94805500D03*
X160147000Y-92265500D03*
G36*
G01*
X159247000Y-88775500D02*
X161047000Y-88775500D01*
G75*
G02*
X161097000Y-88825500I0J-50000D01*
G01*
X161097000Y-90625500D01*
G75*
G02*
X161047000Y-90675500I-50000J0D01*
G01*
X159247000Y-90675500D01*
G75*
G02*
X159197000Y-90625500I0J50000D01*
G01*
X159197000Y-88825500D01*
G75*
G02*
X159247000Y-88775500I50000J0D01*
G01*
G37*
G36*
G01*
X136144800Y-85547200D02*
X136144800Y-83616800D01*
G75*
G02*
X136194800Y-83566800I50000J0D01*
G01*
X138125200Y-83566800D01*
G75*
G02*
X138175200Y-83616800I0J-50000D01*
G01*
X138175200Y-85547200D01*
G75*
G02*
X138125200Y-85597200I-50000J0D01*
G01*
X136194800Y-85597200D01*
G75*
G02*
X136144800Y-85547200I0J50000D01*
G01*
G37*
D15*
X137160000Y-86931500D03*
G36*
G01*
X159004800Y-85928200D02*
X159004800Y-83997800D01*
G75*
G02*
X159054800Y-83947800I50000J0D01*
G01*
X160985200Y-83947800D01*
G75*
G02*
X161035200Y-83997800I0J-50000D01*
G01*
X161035200Y-85928200D01*
G75*
G02*
X160985200Y-85978200I-50000J0D01*
G01*
X159054800Y-85978200D01*
G75*
G02*
X159004800Y-85928200I0J50000D01*
G01*
G37*
X160020000Y-87312500D03*
X156654500Y-84518500D03*
G36*
G01*
X153099300Y-85483700D02*
X153099300Y-83553300D01*
G75*
G02*
X153149300Y-83503300I50000J0D01*
G01*
X155079700Y-83503300D01*
G75*
G02*
X155129700Y-83553300I0J-50000D01*
G01*
X155129700Y-85483700D01*
G75*
G02*
X155079700Y-85533700I-50000J0D01*
G01*
X153149300Y-85533700D01*
G75*
G02*
X153099300Y-85483700I0J50000D01*
G01*
G37*
X137096500Y-102108000D03*
G36*
G01*
X136131300Y-98552800D02*
X138061700Y-98552800D01*
G75*
G02*
X138111700Y-98602800I0J-50000D01*
G01*
X138111700Y-100533200D01*
G75*
G02*
X138061700Y-100583200I-50000J0D01*
G01*
X136131300Y-100583200D01*
G75*
G02*
X136081300Y-100533200I0J50000D01*
G01*
X136081300Y-98602800D01*
G75*
G02*
X136131300Y-98552800I50000J0D01*
G01*
G37*
D19*
X153026400Y-99340400D03*
X153026400Y-94640400D03*
X153026400Y-89940400D03*
X147726400Y-99340400D03*
X147726400Y-94640400D03*
X147726400Y-89940400D03*
X142426400Y-99340400D03*
X142426400Y-94640400D03*
G36*
G01*
X144384400Y-88032400D02*
X144384400Y-91848400D01*
G75*
G02*
X144334400Y-91898400I-50000J0D01*
G01*
X140518400Y-91898400D01*
G75*
G02*
X140468400Y-91848400I0J50000D01*
G01*
X140468400Y-88032400D01*
G75*
G02*
X140518400Y-87982400I50000J0D01*
G01*
X144334400Y-87982400D01*
G75*
G02*
X144384400Y-88032400I0J-50000D01*
G01*
G37*
D15*
X151536400Y-84709000D03*
X148996400Y-84709000D03*
X146456400Y-84709000D03*
G36*
G01*
X142901200Y-85674200D02*
X142901200Y-83743800D01*
G75*
G02*
X142951200Y-83693800I50000J0D01*
G01*
X144881600Y-83693800D01*
G75*
G02*
X144931600Y-83743800I0J-50000D01*
G01*
X144931600Y-85674200D01*
G75*
G02*
X144881600Y-85724200I-50000J0D01*
G01*
X142951200Y-85724200D01*
G75*
G02*
X142901200Y-85674200I0J50000D01*
G01*
G37*
D16*
X136906000Y-97282000D03*
D17*
X136906000Y-94742000D03*
M02*
