G04 #@! TF.GenerationSoftware,KiCad,Pcbnew,(5.99.0-1730-g52ae0df7a)*
G04 #@! TF.CreationDate,2020-05-20T09:09:00+03:00*
G04 #@! TF.ProjectId,stomp-breakout,73746f6d-702d-4627-9265-616b6f75742e,rev?*
G04 #@! TF.SameCoordinates,Original*
G04 #@! TF.FileFunction,Legend,Bot*
G04 #@! TF.FilePolarity,Positive*
%FSLAX46Y46*%
G04 Gerber Fmt 4.6, Leading zero omitted, Abs format (unit mm)*
G04 Created by KiCad (PCBNEW (5.99.0-1730-g52ae0df7a)) date 2020-05-20 09:09:00*
%MOMM*%
%LPD*%
G01*
G04 APERTURE LIST*
%ADD10C,0.080000*%
%ADD11C,0.100000*%
%ADD12C,0.120000*%
%ADD13C,0.152400*%
%ADD14C,0.127000*%
%ADD15O,2.030400X2.030400*%
%ADD16O,1.700000X1.700000*%
%ADD17C,1.700000*%
%ADD18C,1.900000*%
%ADD19O,3.916000X3.916000*%
G04 APERTURE END LIST*
D10*
X159613561Y-102847800D02*
X159651657Y-102828752D01*
X159708800Y-102828752D01*
X159765942Y-102847800D01*
X159804038Y-102885895D01*
X159823085Y-102923990D01*
X159842133Y-103000180D01*
X159842133Y-103057323D01*
X159823085Y-103133514D01*
X159804038Y-103171609D01*
X159765942Y-103209704D01*
X159708800Y-103228752D01*
X159670704Y-103228752D01*
X159613561Y-103209704D01*
X159594514Y-103190657D01*
X159594514Y-103057323D01*
X159670704Y-103057323D01*
X159423085Y-103228752D02*
X159423085Y-102828752D01*
X159194514Y-103228752D01*
X159194514Y-102828752D01*
X159004038Y-103228752D02*
X159004038Y-102828752D01*
X158908800Y-102828752D01*
X158851657Y-102847800D01*
X158813561Y-102885895D01*
X158794514Y-102923990D01*
X158775466Y-103000180D01*
X158775466Y-103057323D01*
X158794514Y-103133514D01*
X158813561Y-103171609D01*
X158851657Y-103209704D01*
X158908800Y-103228752D01*
X159004038Y-103228752D01*
D11*
X142087561Y-83315200D02*
X142125657Y-83296152D01*
X142182800Y-83296152D01*
X142239942Y-83315200D01*
X142278038Y-83353295D01*
X142297085Y-83391390D01*
X142316133Y-83467580D01*
X142316133Y-83524723D01*
X142297085Y-83600914D01*
X142278038Y-83639009D01*
X142239942Y-83677104D01*
X142182800Y-83696152D01*
X142144704Y-83696152D01*
X142087561Y-83677104D01*
X142068514Y-83658057D01*
X142068514Y-83524723D01*
X142144704Y-83524723D01*
X141897085Y-83696152D02*
X141897085Y-83296152D01*
X141668514Y-83696152D01*
X141668514Y-83296152D01*
X141478038Y-83696152D02*
X141478038Y-83296152D01*
X141382800Y-83296152D01*
X141325657Y-83315200D01*
X141287561Y-83353295D01*
X141268514Y-83391390D01*
X141249466Y-83467580D01*
X141249466Y-83524723D01*
X141268514Y-83600914D01*
X141287561Y-83639009D01*
X141325657Y-83677104D01*
X141382800Y-83696152D01*
X141478038Y-83696152D01*
X158875357Y-89488928D02*
X158875357Y-88888928D01*
X158532500Y-89488928D02*
X158789642Y-89146071D01*
X158532500Y-88888928D02*
X158875357Y-89231785D01*
X157961071Y-89488928D02*
X158303928Y-89488928D01*
X158132500Y-89488928D02*
X158132500Y-88888928D01*
X158189642Y-88974642D01*
X158246785Y-89031785D01*
X158303928Y-89060357D01*
X159002357Y-95838928D02*
X159002357Y-95238928D01*
X158659500Y-95838928D02*
X158916642Y-95496071D01*
X158659500Y-95238928D02*
X159002357Y-95581785D01*
X158430928Y-95296071D02*
X158402357Y-95267500D01*
X158345214Y-95238928D01*
X158202357Y-95238928D01*
X158145214Y-95267500D01*
X158116642Y-95296071D01*
X158088071Y-95353214D01*
X158088071Y-95410357D01*
X158116642Y-95496071D01*
X158459500Y-95838928D01*
X158088071Y-95838928D01*
X158796028Y-93076685D02*
X158824600Y-93105257D01*
X158910314Y-93133828D01*
X158967457Y-93133828D01*
X159053171Y-93105257D01*
X159110314Y-93048114D01*
X159138885Y-92990971D01*
X159167457Y-92876685D01*
X159167457Y-92790971D01*
X159138885Y-92676685D01*
X159110314Y-92619542D01*
X159053171Y-92562400D01*
X158967457Y-92533828D01*
X158910314Y-92533828D01*
X158824600Y-92562400D01*
X158796028Y-92590971D01*
X158567457Y-92962400D02*
X158281742Y-92962400D01*
X158624600Y-93133828D02*
X158424600Y-92533828D01*
X158224600Y-93133828D01*
X159262714Y-91412190D02*
X159548428Y-91412190D01*
X159548428Y-90912190D01*
X159062714Y-91150285D02*
X158862714Y-91150285D01*
X158777000Y-91412190D02*
X159062714Y-91412190D01*
X159062714Y-90912190D01*
X158777000Y-90912190D01*
X158519857Y-91412190D02*
X158519857Y-90912190D01*
X158377000Y-90912190D01*
X158291285Y-90936000D01*
X158234142Y-90983619D01*
X158205571Y-91031238D01*
X158177000Y-91126476D01*
X158177000Y-91197904D01*
X158205571Y-91293142D01*
X158234142Y-91340761D01*
X158291285Y-91388380D01*
X158377000Y-91412190D01*
X158519857Y-91412190D01*
X158412690Y-85020214D02*
X158769833Y-85020214D01*
X158841261Y-85001166D01*
X158888880Y-84963071D01*
X158912690Y-84905928D01*
X158912690Y-84867833D01*
X158769833Y-85191642D02*
X158769833Y-85382119D01*
X158912690Y-85153547D02*
X158412690Y-85286880D01*
X158912690Y-85420214D01*
X158865071Y-85782119D02*
X158888880Y-85763071D01*
X158912690Y-85705928D01*
X158912690Y-85667833D01*
X158888880Y-85610690D01*
X158841261Y-85572595D01*
X158793642Y-85553547D01*
X158698404Y-85534500D01*
X158626976Y-85534500D01*
X158531738Y-85553547D01*
X158484119Y-85572595D01*
X158436500Y-85610690D01*
X158412690Y-85667833D01*
X158412690Y-85705928D01*
X158436500Y-85763071D01*
X158460309Y-85782119D01*
X158912690Y-85953547D02*
X158412690Y-85953547D01*
X158912690Y-86182119D02*
X158626976Y-86010690D01*
X158412690Y-86182119D02*
X158698404Y-85953547D01*
X138805409Y-85629685D02*
X138448266Y-85629685D01*
X138376838Y-85648733D01*
X138329219Y-85686828D01*
X138305409Y-85743971D01*
X138305409Y-85782066D01*
X138448266Y-85458257D02*
X138448266Y-85267780D01*
X138305409Y-85496352D02*
X138805409Y-85363019D01*
X138305409Y-85229685D01*
X138353028Y-84867780D02*
X138329219Y-84886828D01*
X138305409Y-84943971D01*
X138305409Y-84982066D01*
X138329219Y-85039209D01*
X138376838Y-85077304D01*
X138424457Y-85096352D01*
X138519695Y-85115400D01*
X138591123Y-85115400D01*
X138686361Y-85096352D01*
X138733980Y-85077304D01*
X138781600Y-85039209D01*
X138805409Y-84982066D01*
X138805409Y-84943971D01*
X138781600Y-84886828D01*
X138757790Y-84867780D01*
X138305409Y-84696352D02*
X138805409Y-84696352D01*
X138305409Y-84467780D02*
X138591123Y-84639209D01*
X138805409Y-84467780D02*
X138519695Y-84696352D01*
X155748161Y-87149800D02*
X155748161Y-87716466D01*
X155776257Y-87783133D01*
X155804352Y-87816466D01*
X155860542Y-87849800D01*
X155944828Y-87849800D01*
X156001019Y-87816466D01*
X155748161Y-87583133D02*
X155804352Y-87616466D01*
X155916733Y-87616466D01*
X155972923Y-87583133D01*
X156001019Y-87549800D01*
X156029114Y-87483133D01*
X156029114Y-87283133D01*
X156001019Y-87216466D01*
X155972923Y-87183133D01*
X155916733Y-87149800D01*
X155804352Y-87149800D01*
X155748161Y-87183133D01*
X155467209Y-87616466D02*
X155467209Y-87149800D01*
X155467209Y-86916466D02*
X155495304Y-86949800D01*
X155467209Y-86983133D01*
X155439114Y-86949800D01*
X155467209Y-86916466D01*
X155467209Y-86983133D01*
X155270542Y-87149800D02*
X155045780Y-87149800D01*
X155186257Y-86916466D02*
X155186257Y-87516466D01*
X155158161Y-87583133D01*
X155101971Y-87616466D01*
X155045780Y-87616466D01*
X154849114Y-87616466D02*
X154849114Y-86916466D01*
X154596257Y-87616466D02*
X154596257Y-87249800D01*
X154624352Y-87183133D01*
X154680542Y-87149800D01*
X154764828Y-87149800D01*
X154821019Y-87183133D01*
X154849114Y-87216466D01*
X154062447Y-87149800D02*
X154062447Y-87616466D01*
X154315304Y-87149800D02*
X154315304Y-87516466D01*
X154287209Y-87583133D01*
X154231019Y-87616466D01*
X154146733Y-87616466D01*
X154090542Y-87583133D01*
X154062447Y-87549800D01*
X153781495Y-87616466D02*
X153781495Y-86916466D01*
X153781495Y-87183133D02*
X153725304Y-87149800D01*
X153612923Y-87149800D01*
X153556733Y-87183133D01*
X153528638Y-87216466D01*
X153500542Y-87283133D01*
X153500542Y-87483133D01*
X153528638Y-87549800D01*
X153556733Y-87583133D01*
X153612923Y-87616466D01*
X153725304Y-87616466D01*
X153781495Y-87583133D01*
X153247685Y-87549800D02*
X153219590Y-87583133D01*
X153247685Y-87616466D01*
X153275780Y-87583133D01*
X153247685Y-87549800D01*
X153247685Y-87616466D01*
X152713876Y-87583133D02*
X152770066Y-87616466D01*
X152882447Y-87616466D01*
X152938638Y-87583133D01*
X152966733Y-87549800D01*
X152994828Y-87483133D01*
X152994828Y-87283133D01*
X152966733Y-87216466D01*
X152938638Y-87183133D01*
X152882447Y-87149800D01*
X152770066Y-87149800D01*
X152713876Y-87183133D01*
X152376733Y-87616466D02*
X152432923Y-87583133D01*
X152461019Y-87549800D01*
X152489114Y-87483133D01*
X152489114Y-87283133D01*
X152461019Y-87216466D01*
X152432923Y-87183133D01*
X152376733Y-87149800D01*
X152292447Y-87149800D01*
X152236257Y-87183133D01*
X152208161Y-87216466D01*
X152180066Y-87283133D01*
X152180066Y-87483133D01*
X152208161Y-87549800D01*
X152236257Y-87583133D01*
X152292447Y-87616466D01*
X152376733Y-87616466D01*
X151927209Y-87616466D02*
X151927209Y-87149800D01*
X151927209Y-87216466D02*
X151899114Y-87183133D01*
X151842923Y-87149800D01*
X151758638Y-87149800D01*
X151702447Y-87183133D01*
X151674352Y-87249800D01*
X151674352Y-87616466D01*
X151674352Y-87249800D02*
X151646257Y-87183133D01*
X151590066Y-87149800D01*
X151505780Y-87149800D01*
X151449590Y-87183133D01*
X151421495Y-87249800D01*
X151421495Y-87616466D01*
X150719114Y-86883133D02*
X151224828Y-87783133D01*
X150522447Y-87616466D02*
X150522447Y-87149800D01*
X150522447Y-87283133D02*
X150494352Y-87216466D01*
X150466257Y-87183133D01*
X150410066Y-87149800D01*
X150353876Y-87149800D01*
X150072923Y-87616466D02*
X150129114Y-87583133D01*
X150157209Y-87549800D01*
X150185304Y-87483133D01*
X150185304Y-87283133D01*
X150157209Y-87216466D01*
X150129114Y-87183133D01*
X150072923Y-87149800D01*
X149988638Y-87149800D01*
X149932447Y-87183133D01*
X149904352Y-87216466D01*
X149876257Y-87283133D01*
X149876257Y-87483133D01*
X149904352Y-87549800D01*
X149932447Y-87583133D01*
X149988638Y-87616466D01*
X150072923Y-87616466D01*
X149370542Y-87583133D02*
X149426733Y-87616466D01*
X149539114Y-87616466D01*
X149595304Y-87583133D01*
X149623400Y-87549800D01*
X149651495Y-87483133D01*
X149651495Y-87283133D01*
X149623400Y-87216466D01*
X149595304Y-87183133D01*
X149539114Y-87149800D01*
X149426733Y-87149800D01*
X149370542Y-87183133D01*
X149117685Y-87616466D02*
X149117685Y-86916466D01*
X149061495Y-87349800D02*
X148892923Y-87616466D01*
X148892923Y-87149800D02*
X149117685Y-87416466D01*
X148555780Y-87616466D02*
X148611971Y-87583133D01*
X148640066Y-87549800D01*
X148668161Y-87483133D01*
X148668161Y-87283133D01*
X148640066Y-87216466D01*
X148611971Y-87183133D01*
X148555780Y-87149800D01*
X148471495Y-87149800D01*
X148415304Y-87183133D01*
X148387209Y-87216466D01*
X148359114Y-87283133D01*
X148359114Y-87483133D01*
X148387209Y-87549800D01*
X148415304Y-87583133D01*
X148471495Y-87616466D01*
X148555780Y-87616466D01*
X148021971Y-87616466D02*
X148078161Y-87583133D01*
X148106257Y-87516466D01*
X148106257Y-86916466D01*
X147544352Y-87616466D02*
X147544352Y-87249800D01*
X147572447Y-87183133D01*
X147628638Y-87149800D01*
X147741019Y-87149800D01*
X147797209Y-87183133D01*
X147544352Y-87583133D02*
X147600542Y-87616466D01*
X147741019Y-87616466D01*
X147797209Y-87583133D01*
X147825304Y-87516466D01*
X147825304Y-87449800D01*
X147797209Y-87383133D01*
X147741019Y-87349800D01*
X147600542Y-87349800D01*
X147544352Y-87316466D01*
X146841971Y-86883133D02*
X147347685Y-87783133D01*
X146673400Y-87583133D02*
X146617209Y-87616466D01*
X146504828Y-87616466D01*
X146448638Y-87583133D01*
X146420542Y-87516466D01*
X146420542Y-87483133D01*
X146448638Y-87416466D01*
X146504828Y-87383133D01*
X146589114Y-87383133D01*
X146645304Y-87349800D01*
X146673400Y-87283133D01*
X146673400Y-87249800D01*
X146645304Y-87183133D01*
X146589114Y-87149800D01*
X146504828Y-87149800D01*
X146448638Y-87183133D01*
X146251971Y-87149800D02*
X146027209Y-87149800D01*
X146167685Y-86916466D02*
X146167685Y-87516466D01*
X146139590Y-87583133D01*
X146083400Y-87616466D01*
X146027209Y-87616466D01*
X145746257Y-87616466D02*
X145802447Y-87583133D01*
X145830542Y-87549800D01*
X145858638Y-87483133D01*
X145858638Y-87283133D01*
X145830542Y-87216466D01*
X145802447Y-87183133D01*
X145746257Y-87149800D01*
X145661971Y-87149800D01*
X145605780Y-87183133D01*
X145577685Y-87216466D01*
X145549590Y-87283133D01*
X145549590Y-87483133D01*
X145577685Y-87549800D01*
X145605780Y-87583133D01*
X145661971Y-87616466D01*
X145746257Y-87616466D01*
X145296733Y-87616466D02*
X145296733Y-87149800D01*
X145296733Y-87216466D02*
X145268638Y-87183133D01*
X145212447Y-87149800D01*
X145128161Y-87149800D01*
X145071971Y-87183133D01*
X145043876Y-87249800D01*
X145043876Y-87616466D01*
X145043876Y-87249800D02*
X145015780Y-87183133D01*
X144959590Y-87149800D01*
X144875304Y-87149800D01*
X144819114Y-87183133D01*
X144791019Y-87249800D01*
X144791019Y-87616466D01*
X144510066Y-87149800D02*
X144510066Y-87849800D01*
X144510066Y-87183133D02*
X144453876Y-87149800D01*
X144341495Y-87149800D01*
X144285304Y-87183133D01*
X144257209Y-87216466D01*
X144229114Y-87283133D01*
X144229114Y-87483133D01*
X144257209Y-87549800D01*
X144285304Y-87583133D01*
X144341495Y-87616466D01*
X144453876Y-87616466D01*
X144510066Y-87583133D01*
X143976257Y-87349800D02*
X143526733Y-87349800D01*
X143245780Y-87616466D02*
X143245780Y-86916466D01*
X143245780Y-87183133D02*
X143189590Y-87149800D01*
X143077209Y-87149800D01*
X143021019Y-87183133D01*
X142992923Y-87216466D01*
X142964828Y-87283133D01*
X142964828Y-87483133D01*
X142992923Y-87549800D01*
X143021019Y-87583133D01*
X143077209Y-87616466D01*
X143189590Y-87616466D01*
X143245780Y-87583133D01*
X142711971Y-87616466D02*
X142711971Y-87149800D01*
X142711971Y-87283133D02*
X142683876Y-87216466D01*
X142655780Y-87183133D01*
X142599590Y-87149800D01*
X142543400Y-87149800D01*
X142121971Y-87583133D02*
X142178161Y-87616466D01*
X142290542Y-87616466D01*
X142346733Y-87583133D01*
X142374828Y-87516466D01*
X142374828Y-87249800D01*
X142346733Y-87183133D01*
X142290542Y-87149800D01*
X142178161Y-87149800D01*
X142121971Y-87183133D01*
X142093876Y-87249800D01*
X142093876Y-87316466D01*
X142374828Y-87383133D01*
X141588161Y-87616466D02*
X141588161Y-87249800D01*
X141616257Y-87183133D01*
X141672447Y-87149800D01*
X141784828Y-87149800D01*
X141841019Y-87183133D01*
X141588161Y-87583133D02*
X141644352Y-87616466D01*
X141784828Y-87616466D01*
X141841019Y-87583133D01*
X141869114Y-87516466D01*
X141869114Y-87449800D01*
X141841019Y-87383133D01*
X141784828Y-87349800D01*
X141644352Y-87349800D01*
X141588161Y-87316466D01*
X141307209Y-87616466D02*
X141307209Y-86916466D01*
X141251019Y-87349800D02*
X141082447Y-87616466D01*
X141082447Y-87149800D02*
X141307209Y-87416466D01*
X140745304Y-87616466D02*
X140801495Y-87583133D01*
X140829590Y-87549800D01*
X140857685Y-87483133D01*
X140857685Y-87283133D01*
X140829590Y-87216466D01*
X140801495Y-87183133D01*
X140745304Y-87149800D01*
X140661019Y-87149800D01*
X140604828Y-87183133D01*
X140576733Y-87216466D01*
X140548638Y-87283133D01*
X140548638Y-87483133D01*
X140576733Y-87549800D01*
X140604828Y-87583133D01*
X140661019Y-87616466D01*
X140745304Y-87616466D01*
X140042923Y-87149800D02*
X140042923Y-87616466D01*
X140295780Y-87149800D02*
X140295780Y-87516466D01*
X140267685Y-87583133D01*
X140211495Y-87616466D01*
X140127209Y-87616466D01*
X140071019Y-87583133D01*
X140042923Y-87549800D01*
X139846257Y-87149800D02*
X139621495Y-87149800D01*
X139761971Y-86916466D02*
X139761971Y-87516466D01*
X139733876Y-87583133D01*
X139677685Y-87616466D01*
X139621495Y-87616466D01*
D10*
X137746609Y-91370933D02*
X137984704Y-91537600D01*
X137746609Y-91656647D02*
X138246609Y-91656647D01*
X138246609Y-91466171D01*
X138222800Y-91418552D01*
X138198990Y-91394742D01*
X138151371Y-91370933D01*
X138079942Y-91370933D01*
X138032323Y-91394742D01*
X138008514Y-91418552D01*
X137984704Y-91466171D01*
X137984704Y-91656647D01*
X138198990Y-91180457D02*
X138222800Y-91156647D01*
X138246609Y-91109028D01*
X138246609Y-90989980D01*
X138222800Y-90942361D01*
X138198990Y-90918552D01*
X138151371Y-90894742D01*
X138103752Y-90894742D01*
X138032323Y-90918552D01*
X137746609Y-91204266D01*
X137746609Y-90894742D01*
D11*
X160577200Y-102322285D02*
X160605771Y-102350857D01*
X160691485Y-102379428D01*
X160748628Y-102379428D01*
X160834342Y-102350857D01*
X160891485Y-102293714D01*
X160920057Y-102236571D01*
X160948628Y-102122285D01*
X160948628Y-102036571D01*
X160920057Y-101922285D01*
X160891485Y-101865142D01*
X160834342Y-101808000D01*
X160748628Y-101779428D01*
X160691485Y-101779428D01*
X160605771Y-101808000D01*
X160577200Y-101836571D01*
X160005771Y-102379428D02*
X160348628Y-102379428D01*
X160177200Y-102379428D02*
X160177200Y-101779428D01*
X160234342Y-101865142D01*
X160291485Y-101922285D01*
X160348628Y-101950857D01*
X136188428Y-83427928D02*
X135845571Y-83427928D01*
X136017000Y-84027928D02*
X136017000Y-83427928D01*
X136251928Y-86285357D02*
X136166214Y-86313928D01*
X136023357Y-86313928D01*
X135966214Y-86285357D01*
X135937642Y-86256785D01*
X135909071Y-86199642D01*
X135909071Y-86142500D01*
X135937642Y-86085357D01*
X135966214Y-86056785D01*
X136023357Y-86028214D01*
X136137642Y-85999642D01*
X136194785Y-85971071D01*
X136223357Y-85942500D01*
X136251928Y-85885357D01*
X136251928Y-85828214D01*
X136223357Y-85771071D01*
X136194785Y-85742500D01*
X136137642Y-85713928D01*
X135994785Y-85713928D01*
X135909071Y-85742500D01*
X139309409Y-83964428D02*
X139309409Y-83364428D01*
X138833219Y-83964428D02*
X138833219Y-83364428D01*
X138261790Y-83964428D01*
X138261790Y-83364428D01*
X161436028Y-84050228D02*
X161093171Y-84050228D01*
X161264600Y-84650228D02*
X161264600Y-84050228D01*
X161334428Y-86945757D02*
X161248714Y-86974328D01*
X161105857Y-86974328D01*
X161048714Y-86945757D01*
X161020142Y-86917185D01*
X160991571Y-86860042D01*
X160991571Y-86802900D01*
X161020142Y-86745757D01*
X161048714Y-86717185D01*
X161105857Y-86688614D01*
X161220142Y-86660042D01*
X161277285Y-86631471D01*
X161305857Y-86602900D01*
X161334428Y-86545757D01*
X161334428Y-86488614D01*
X161305857Y-86431471D01*
X161277285Y-86402900D01*
X161220142Y-86374328D01*
X161077285Y-86374328D01*
X160991571Y-86402900D01*
X161083500Y-83355690D02*
X160893023Y-83355690D01*
X160797785Y-83379500D01*
X160702547Y-83427119D01*
X160654928Y-83522357D01*
X160654928Y-83689023D01*
X160702547Y-83784261D01*
X160797785Y-83831880D01*
X160893023Y-83855690D01*
X161083500Y-83855690D01*
X161178738Y-83831880D01*
X161273976Y-83784261D01*
X161321595Y-83689023D01*
X161321595Y-83522357D01*
X161273976Y-83427119D01*
X161178738Y-83379500D01*
X161083500Y-83355690D01*
X160226357Y-83355690D02*
X160226357Y-83760452D01*
X160178738Y-83808071D01*
X160131119Y-83831880D01*
X160035880Y-83855690D01*
X159845404Y-83855690D01*
X159750166Y-83831880D01*
X159702547Y-83808071D01*
X159654928Y-83760452D01*
X159654928Y-83355690D01*
X159321595Y-83355690D02*
X158750166Y-83355690D01*
X159035880Y-83855690D02*
X159035880Y-83355690D01*
D10*
X158089561Y-83416800D02*
X158127657Y-83397752D01*
X158184800Y-83397752D01*
X158241942Y-83416800D01*
X158280038Y-83454895D01*
X158299085Y-83492990D01*
X158318133Y-83569180D01*
X158318133Y-83626323D01*
X158299085Y-83702514D01*
X158280038Y-83740609D01*
X158241942Y-83778704D01*
X158184800Y-83797752D01*
X158146704Y-83797752D01*
X158089561Y-83778704D01*
X158070514Y-83759657D01*
X158070514Y-83626323D01*
X158146704Y-83626323D01*
X157899085Y-83797752D02*
X157899085Y-83397752D01*
X157670514Y-83797752D01*
X157670514Y-83397752D01*
X157480038Y-83797752D02*
X157480038Y-83397752D01*
X157384800Y-83397752D01*
X157327657Y-83416800D01*
X157289561Y-83454895D01*
X157270514Y-83492990D01*
X157251466Y-83569180D01*
X157251466Y-83626323D01*
X157270514Y-83702514D01*
X157289561Y-83740609D01*
X157327657Y-83778704D01*
X157384800Y-83797752D01*
X157480038Y-83797752D01*
X155828952Y-83372352D02*
X155695619Y-83772352D01*
X155562285Y-83372352D01*
X155428952Y-83619971D02*
X155124190Y-83619971D01*
X155276571Y-83772352D02*
X155276571Y-83467590D01*
X136499552Y-98155152D02*
X136366219Y-98555152D01*
X136232885Y-98155152D01*
X136099552Y-98402771D02*
X135794790Y-98402771D01*
X135947171Y-98555152D02*
X135947171Y-98250390D01*
X136651961Y-100815800D02*
X136690057Y-100796752D01*
X136747200Y-100796752D01*
X136804342Y-100815800D01*
X136842438Y-100853895D01*
X136861485Y-100891990D01*
X136880533Y-100968180D01*
X136880533Y-101025323D01*
X136861485Y-101101514D01*
X136842438Y-101139609D01*
X136804342Y-101177704D01*
X136747200Y-101196752D01*
X136709104Y-101196752D01*
X136651961Y-101177704D01*
X136632914Y-101158657D01*
X136632914Y-101025323D01*
X136709104Y-101025323D01*
X136461485Y-101196752D02*
X136461485Y-100796752D01*
X136232914Y-101196752D01*
X136232914Y-100796752D01*
X136042438Y-101196752D02*
X136042438Y-100796752D01*
X135947200Y-100796752D01*
X135890057Y-100815800D01*
X135851961Y-100853895D01*
X135832914Y-100891990D01*
X135813866Y-100968180D01*
X135813866Y-101025323D01*
X135832914Y-101101514D01*
X135851961Y-101139609D01*
X135890057Y-101177704D01*
X135947200Y-101196752D01*
X136042438Y-101196752D01*
D11*
X153440685Y-102772333D02*
X153326400Y-102805666D01*
X153135923Y-102805666D01*
X153059733Y-102772333D01*
X153021638Y-102739000D01*
X152983542Y-102672333D01*
X152983542Y-102605666D01*
X153021638Y-102539000D01*
X153059733Y-102505666D01*
X153135923Y-102472333D01*
X153288304Y-102439000D01*
X153364495Y-102405666D01*
X153402590Y-102372333D01*
X153440685Y-102305666D01*
X153440685Y-102239000D01*
X153402590Y-102172333D01*
X153364495Y-102139000D01*
X153288304Y-102105666D01*
X153097828Y-102105666D01*
X152983542Y-102139000D01*
X152716876Y-102105666D02*
X152526400Y-102805666D01*
X152374019Y-102305666D01*
X152221638Y-102805666D01*
X152031161Y-102105666D01*
X151726400Y-102805666D02*
X151726400Y-102105666D01*
X151459733Y-102105666D02*
X151002590Y-102105666D01*
X151231161Y-102805666D02*
X151231161Y-102105666D01*
X150278780Y-102739000D02*
X150316876Y-102772333D01*
X150431161Y-102805666D01*
X150507352Y-102805666D01*
X150621638Y-102772333D01*
X150697828Y-102705666D01*
X150735923Y-102639000D01*
X150774019Y-102505666D01*
X150774019Y-102405666D01*
X150735923Y-102272333D01*
X150697828Y-102205666D01*
X150621638Y-102139000D01*
X150507352Y-102105666D01*
X150431161Y-102105666D01*
X150316876Y-102139000D01*
X150278780Y-102172333D01*
X149935923Y-102805666D02*
X149935923Y-102105666D01*
X149935923Y-102439000D02*
X149478780Y-102439000D01*
X149478780Y-102805666D02*
X149478780Y-102105666D01*
X148069257Y-102139000D02*
X148145447Y-102105666D01*
X148259733Y-102105666D01*
X148374019Y-102139000D01*
X148450209Y-102205666D01*
X148488304Y-102272333D01*
X148526400Y-102405666D01*
X148526400Y-102505666D01*
X148488304Y-102639000D01*
X148450209Y-102705666D01*
X148374019Y-102772333D01*
X148259733Y-102805666D01*
X148183542Y-102805666D01*
X148069257Y-102772333D01*
X148031161Y-102739000D01*
X148031161Y-102505666D01*
X148183542Y-102505666D01*
X147535923Y-102105666D02*
X147383542Y-102105666D01*
X147307352Y-102139000D01*
X147231161Y-102205666D01*
X147193066Y-102339000D01*
X147193066Y-102572333D01*
X147231161Y-102705666D01*
X147307352Y-102772333D01*
X147383542Y-102805666D01*
X147535923Y-102805666D01*
X147612114Y-102772333D01*
X147688304Y-102705666D01*
X147726400Y-102572333D01*
X147726400Y-102339000D01*
X147688304Y-102205666D01*
X147612114Y-102139000D01*
X147535923Y-102105666D01*
X146850209Y-102439000D02*
X146583542Y-102439000D01*
X146469257Y-102805666D02*
X146850209Y-102805666D01*
X146850209Y-102105666D01*
X146469257Y-102105666D01*
X146164495Y-102772333D02*
X146050209Y-102805666D01*
X145859733Y-102805666D01*
X145783542Y-102772333D01*
X145745447Y-102739000D01*
X145707352Y-102672333D01*
X145707352Y-102605666D01*
X145745447Y-102539000D01*
X145783542Y-102505666D01*
X145859733Y-102472333D01*
X146012114Y-102439000D01*
X146088304Y-102405666D01*
X146126400Y-102372333D01*
X146164495Y-102305666D01*
X146164495Y-102239000D01*
X146126400Y-102172333D01*
X146088304Y-102139000D01*
X146012114Y-102105666D01*
X145821638Y-102105666D01*
X145707352Y-102139000D01*
X144754971Y-102805666D02*
X144754971Y-102105666D01*
X144754971Y-102439000D02*
X144297828Y-102439000D01*
X144297828Y-102805666D02*
X144297828Y-102105666D01*
X143916876Y-102439000D02*
X143650209Y-102439000D01*
X143535923Y-102805666D02*
X143916876Y-102805666D01*
X143916876Y-102105666D01*
X143535923Y-102105666D01*
X142735923Y-102805666D02*
X143002590Y-102472333D01*
X143193066Y-102805666D02*
X143193066Y-102105666D01*
X142888304Y-102105666D01*
X142812114Y-102139000D01*
X142774019Y-102172333D01*
X142735923Y-102239000D01*
X142735923Y-102339000D01*
X142774019Y-102405666D01*
X142812114Y-102439000D01*
X142888304Y-102472333D01*
X143193066Y-102472333D01*
X142393066Y-102439000D02*
X142126400Y-102439000D01*
X142012114Y-102805666D02*
X142393066Y-102805666D01*
X142393066Y-102105666D01*
X142012114Y-102105666D01*
D10*
X151999900Y-86140952D02*
X151923709Y-86140952D01*
X151885614Y-86160000D01*
X151847519Y-86198095D01*
X151828471Y-86274285D01*
X151828471Y-86407619D01*
X151847519Y-86483809D01*
X151885614Y-86521904D01*
X151923709Y-86540952D01*
X151999900Y-86540952D01*
X152037995Y-86521904D01*
X152076090Y-86483809D01*
X152095138Y-86407619D01*
X152095138Y-86274285D01*
X152076090Y-86198095D01*
X152037995Y-86160000D01*
X151999900Y-86140952D01*
X151657042Y-86140952D02*
X151657042Y-86464761D01*
X151637995Y-86502857D01*
X151618947Y-86521904D01*
X151580852Y-86540952D01*
X151504661Y-86540952D01*
X151466566Y-86521904D01*
X151447519Y-86502857D01*
X151428471Y-86464761D01*
X151428471Y-86140952D01*
X151295138Y-86140952D02*
X151066566Y-86140952D01*
X151180852Y-86540952D02*
X151180852Y-86140952D01*
X149402757Y-86521904D02*
X149345614Y-86540952D01*
X149250376Y-86540952D01*
X149212280Y-86521904D01*
X149193233Y-86502857D01*
X149174185Y-86464761D01*
X149174185Y-86426666D01*
X149193233Y-86388571D01*
X149212280Y-86369523D01*
X149250376Y-86350476D01*
X149326566Y-86331428D01*
X149364661Y-86312380D01*
X149383709Y-86293333D01*
X149402757Y-86255238D01*
X149402757Y-86217142D01*
X149383709Y-86179047D01*
X149364661Y-86160000D01*
X149326566Y-86140952D01*
X149231328Y-86140952D01*
X149174185Y-86160000D01*
X149040852Y-86140952D02*
X148945614Y-86540952D01*
X148869423Y-86255238D01*
X148793233Y-86540952D01*
X148697995Y-86140952D01*
X146824661Y-86160000D02*
X146862757Y-86140952D01*
X146919900Y-86140952D01*
X146977042Y-86160000D01*
X147015138Y-86198095D01*
X147034185Y-86236190D01*
X147053233Y-86312380D01*
X147053233Y-86369523D01*
X147034185Y-86445714D01*
X147015138Y-86483809D01*
X146977042Y-86521904D01*
X146919900Y-86540952D01*
X146881804Y-86540952D01*
X146824661Y-86521904D01*
X146805614Y-86502857D01*
X146805614Y-86369523D01*
X146881804Y-86369523D01*
X146634185Y-86540952D02*
X146634185Y-86140952D01*
X146405614Y-86540952D01*
X146405614Y-86140952D01*
X146215138Y-86540952D02*
X146215138Y-86140952D01*
X146119900Y-86140952D01*
X146062757Y-86160000D01*
X146024661Y-86198095D01*
X146005614Y-86236190D01*
X145986566Y-86312380D01*
X145986566Y-86369523D01*
X146005614Y-86445714D01*
X146024661Y-86483809D01*
X146062757Y-86521904D01*
X146119900Y-86540952D01*
X146215138Y-86540952D01*
X144125923Y-86540952D02*
X144125923Y-86140952D01*
X143935447Y-86540952D02*
X143935447Y-86140952D01*
X143706876Y-86540952D01*
X143706876Y-86140952D01*
X137819628Y-96868419D02*
X137795819Y-96892228D01*
X137772009Y-96963657D01*
X137772009Y-97011276D01*
X137795819Y-97082704D01*
X137843438Y-97130323D01*
X137891057Y-97154133D01*
X137986295Y-97177942D01*
X138057723Y-97177942D01*
X138152961Y-97154133D01*
X138200580Y-97130323D01*
X138248200Y-97082704D01*
X138272009Y-97011276D01*
X138272009Y-96963657D01*
X138248200Y-96892228D01*
X138224390Y-96868419D01*
X137772009Y-96416038D02*
X137772009Y-96654133D01*
X138272009Y-96654133D01*
X137772009Y-95963657D02*
X138010104Y-96130323D01*
X137772009Y-96249371D02*
X138272009Y-96249371D01*
X138272009Y-96058895D01*
X138248200Y-96011276D01*
X138224390Y-95987466D01*
X138176771Y-95963657D01*
X138105342Y-95963657D01*
X138057723Y-95987466D01*
X138033914Y-96011276D01*
X138010104Y-96058895D01*
X138010104Y-96249371D01*
D12*
X138276000Y-89611200D02*
G75*
G03*
X138276000Y-89611200I-1370000J0D01*
G01*
X136906000Y-90981200D02*
X136906000Y-91051200D01*
X158246000Y-97663000D02*
X158746000Y-97663000D01*
X158496000Y-97413000D02*
X158496000Y-97913000D01*
X159609000Y-101514000D02*
X160177000Y-101514000D01*
X159375000Y-101474000D02*
X160411000Y-101474000D01*
X159216000Y-101434000D02*
X160570000Y-101434000D01*
X159088000Y-101394000D02*
X160698000Y-101394000D01*
X158978000Y-101354000D02*
X160808000Y-101354000D01*
X158882000Y-101314000D02*
X160904000Y-101314000D01*
X158795000Y-101274000D02*
X160991000Y-101274000D01*
X158715000Y-101234000D02*
X161071000Y-101234000D01*
X160933000Y-101194000D02*
X161144000Y-101194000D01*
X158642000Y-101194000D02*
X158853000Y-101194000D01*
X160933000Y-101154000D02*
X161212000Y-101154000D01*
X158574000Y-101154000D02*
X158853000Y-101154000D01*
X160933000Y-101114000D02*
X161276000Y-101114000D01*
X158510000Y-101114000D02*
X158853000Y-101114000D01*
X160933000Y-101074000D02*
X161336000Y-101074000D01*
X158450000Y-101074000D02*
X158853000Y-101074000D01*
X160933000Y-101034000D02*
X161393000Y-101034000D01*
X158393000Y-101034000D02*
X158853000Y-101034000D01*
X160933000Y-100994000D02*
X161447000Y-100994000D01*
X158339000Y-100994000D02*
X158853000Y-100994000D01*
X160933000Y-100954000D02*
X161498000Y-100954000D01*
X158288000Y-100954000D02*
X158853000Y-100954000D01*
X160933000Y-100914000D02*
X161546000Y-100914000D01*
X158240000Y-100914000D02*
X158853000Y-100914000D01*
X160933000Y-100874000D02*
X161592000Y-100874000D01*
X158194000Y-100874000D02*
X158853000Y-100874000D01*
X160933000Y-100834000D02*
X161636000Y-100834000D01*
X158150000Y-100834000D02*
X158853000Y-100834000D01*
X160933000Y-100794000D02*
X161678000Y-100794000D01*
X158108000Y-100794000D02*
X158853000Y-100794000D01*
X160933000Y-100754000D02*
X161719000Y-100754000D01*
X158067000Y-100754000D02*
X158853000Y-100754000D01*
X160933000Y-100714000D02*
X161757000Y-100714000D01*
X158029000Y-100714000D02*
X158853000Y-100714000D01*
X160933000Y-100674000D02*
X161794000Y-100674000D01*
X157992000Y-100674000D02*
X158853000Y-100674000D01*
X160933000Y-100634000D02*
X161830000Y-100634000D01*
X157956000Y-100634000D02*
X158853000Y-100634000D01*
X160933000Y-100594000D02*
X161864000Y-100594000D01*
X157922000Y-100594000D02*
X158853000Y-100594000D01*
X160933000Y-100554000D02*
X161897000Y-100554000D01*
X157889000Y-100554000D02*
X158853000Y-100554000D01*
X160933000Y-100514000D02*
X161928000Y-100514000D01*
X157858000Y-100514000D02*
X158853000Y-100514000D01*
X160933000Y-100474000D02*
X161958000Y-100474000D01*
X157828000Y-100474000D02*
X158853000Y-100474000D01*
X160933000Y-100434000D02*
X161988000Y-100434000D01*
X157798000Y-100434000D02*
X158853000Y-100434000D01*
X160933000Y-100394000D02*
X162015000Y-100394000D01*
X157771000Y-100394000D02*
X158853000Y-100394000D01*
X160933000Y-100354000D02*
X162042000Y-100354000D01*
X157744000Y-100354000D02*
X158853000Y-100354000D01*
X160933000Y-100314000D02*
X162068000Y-100314000D01*
X157718000Y-100314000D02*
X158853000Y-100314000D01*
X160933000Y-100274000D02*
X162093000Y-100274000D01*
X157693000Y-100274000D02*
X158853000Y-100274000D01*
X160933000Y-100234000D02*
X162117000Y-100234000D01*
X157669000Y-100234000D02*
X158853000Y-100234000D01*
X160933000Y-100194000D02*
X162140000Y-100194000D01*
X157646000Y-100194000D02*
X158853000Y-100194000D01*
X160933000Y-100154000D02*
X162161000Y-100154000D01*
X157625000Y-100154000D02*
X158853000Y-100154000D01*
X160933000Y-100114000D02*
X162183000Y-100114000D01*
X157603000Y-100114000D02*
X158853000Y-100114000D01*
X160933000Y-100074000D02*
X162203000Y-100074000D01*
X157583000Y-100074000D02*
X158853000Y-100074000D01*
X160933000Y-100034000D02*
X162222000Y-100034000D01*
X157564000Y-100034000D02*
X158853000Y-100034000D01*
X160933000Y-99994000D02*
X162241000Y-99994000D01*
X157545000Y-99994000D02*
X158853000Y-99994000D01*
X160933000Y-99954000D02*
X162258000Y-99954000D01*
X157528000Y-99954000D02*
X158853000Y-99954000D01*
X160933000Y-99914000D02*
X162275000Y-99914000D01*
X157511000Y-99914000D02*
X158853000Y-99914000D01*
X160933000Y-99874000D02*
X162291000Y-99874000D01*
X157495000Y-99874000D02*
X158853000Y-99874000D01*
X160933000Y-99834000D02*
X162307000Y-99834000D01*
X157479000Y-99834000D02*
X158853000Y-99834000D01*
X160933000Y-99794000D02*
X162321000Y-99794000D01*
X157465000Y-99794000D02*
X158853000Y-99794000D01*
X160933000Y-99754000D02*
X162335000Y-99754000D01*
X157451000Y-99754000D02*
X158853000Y-99754000D01*
X160933000Y-99714000D02*
X162348000Y-99714000D01*
X157438000Y-99714000D02*
X158853000Y-99714000D01*
X160933000Y-99674000D02*
X162361000Y-99674000D01*
X157425000Y-99674000D02*
X158853000Y-99674000D01*
X160933000Y-99634000D02*
X162373000Y-99634000D01*
X157413000Y-99634000D02*
X158853000Y-99634000D01*
X160933000Y-99593000D02*
X162384000Y-99593000D01*
X157402000Y-99593000D02*
X158853000Y-99593000D01*
X160933000Y-99553000D02*
X162394000Y-99553000D01*
X157392000Y-99553000D02*
X158853000Y-99553000D01*
X160933000Y-99513000D02*
X162404000Y-99513000D01*
X157382000Y-99513000D02*
X158853000Y-99513000D01*
X160933000Y-99473000D02*
X162413000Y-99473000D01*
X157373000Y-99473000D02*
X158853000Y-99473000D01*
X160933000Y-99433000D02*
X162421000Y-99433000D01*
X157365000Y-99433000D02*
X158853000Y-99433000D01*
X160933000Y-99393000D02*
X162429000Y-99393000D01*
X157357000Y-99393000D02*
X158853000Y-99393000D01*
X160933000Y-99353000D02*
X162436000Y-99353000D01*
X157350000Y-99353000D02*
X158853000Y-99353000D01*
X160933000Y-99313000D02*
X162443000Y-99313000D01*
X157343000Y-99313000D02*
X158853000Y-99313000D01*
X160933000Y-99273000D02*
X162449000Y-99273000D01*
X157337000Y-99273000D02*
X158853000Y-99273000D01*
X160933000Y-99233000D02*
X162454000Y-99233000D01*
X157332000Y-99233000D02*
X158853000Y-99233000D01*
X160933000Y-99193000D02*
X162458000Y-99193000D01*
X157328000Y-99193000D02*
X158853000Y-99193000D01*
X160933000Y-99153000D02*
X162462000Y-99153000D01*
X157324000Y-99153000D02*
X158853000Y-99153000D01*
X157320000Y-99113000D02*
X162466000Y-99113000D01*
X157317000Y-99073000D02*
X162469000Y-99073000D01*
X157315000Y-99033000D02*
X162471000Y-99033000D01*
X157314000Y-98993000D02*
X162472000Y-98993000D01*
X157313000Y-98953000D02*
X162473000Y-98953000D01*
X157313000Y-98913000D02*
X162473000Y-98913000D01*
X162513000Y-98913000D02*
G75*
G03*
X162513000Y-98913000I-2620000J0D01*
G01*
X161227000Y-89705500D02*
X161692000Y-89705500D01*
X158602000Y-89705500D02*
X159067000Y-89705500D01*
X161227429Y-94519979D02*
G75*
G03*
X161227000Y-90010816I-1080429J2254479D01*
G01*
X159066571Y-94519979D02*
G75*
G02*
X159067000Y-90010816I1080429J2254479D01*
G01*
X161227827Y-95053315D02*
G75*
G03*
X161691830Y-89705500I-1080827J2787815D01*
G01*
X159066173Y-95053315D02*
G75*
G02*
X158602170Y-89705500I1080827J2787815D01*
G01*
D13*
X156926400Y-85840400D02*
X138526400Y-85840400D01*
X138526400Y-85840400D02*
X138526400Y-103440400D01*
X138526400Y-103440400D02*
X156926400Y-103440400D01*
X156926400Y-103440400D02*
X156926400Y-85840400D01*
D14*
X147726400Y-94005400D02*
X147726400Y-95275400D01*
X147091400Y-94640400D02*
X148361400Y-94640400D01*
X148361400Y-94640400D02*
G75*
G03*
X148361400Y-94640400I-635000J0D01*
G01*
D10*
X142646400Y-86677500D02*
X142646400Y-83439000D01*
X152806400Y-86614000D02*
X152806400Y-83439000D01*
X142646400Y-85979000D02*
X152806400Y-85979000D01*
X152806400Y-83439000D02*
X142646400Y-83439000D01*
X142646400Y-86677500D02*
X152806400Y-86677500D01*
D12*
X136906000Y-96112000D02*
X136906000Y-96182000D01*
X138276000Y-94742000D02*
G75*
G03*
X138276000Y-94742000I-1370000J0D01*
G01*
%LPC*%
D15*
X157937200Y-102158800D03*
X141033500Y-84709000D03*
D16*
X136906000Y-92151200D03*
D17*
X136906000Y-89611200D03*
X159893000Y-100163000D03*
G36*
G01*
X159093000Y-96813000D02*
X160693000Y-96813000D01*
G75*
G02*
X160743000Y-96863000I0J-50000D01*
G01*
X160743000Y-98463000D01*
G75*
G02*
X160693000Y-98513000I-50000J0D01*
G01*
X159093000Y-98513000D01*
G75*
G02*
X159043000Y-98463000I0J50000D01*
G01*
X159043000Y-96863000D01*
G75*
G02*
X159093000Y-96813000I50000J0D01*
G01*
G37*
D18*
X160147000Y-94805500D03*
X160147000Y-92265500D03*
G36*
G01*
X159247000Y-88775500D02*
X161047000Y-88775500D01*
G75*
G02*
X161097000Y-88825500I0J-50000D01*
G01*
X161097000Y-90625500D01*
G75*
G02*
X161047000Y-90675500I-50000J0D01*
G01*
X159247000Y-90675500D01*
G75*
G02*
X159197000Y-90625500I0J50000D01*
G01*
X159197000Y-88825500D01*
G75*
G02*
X159247000Y-88775500I50000J0D01*
G01*
G37*
G36*
G01*
X136144800Y-85547200D02*
X136144800Y-83616800D01*
G75*
G02*
X136194800Y-83566800I50000J0D01*
G01*
X138125200Y-83566800D01*
G75*
G02*
X138175200Y-83616800I0J-50000D01*
G01*
X138175200Y-85547200D01*
G75*
G02*
X138125200Y-85597200I-50000J0D01*
G01*
X136194800Y-85597200D01*
G75*
G02*
X136144800Y-85547200I0J50000D01*
G01*
G37*
D15*
X137160000Y-86931500D03*
G36*
G01*
X159004800Y-85928200D02*
X159004800Y-83997800D01*
G75*
G02*
X159054800Y-83947800I50000J0D01*
G01*
X160985200Y-83947800D01*
G75*
G02*
X161035200Y-83997800I0J-50000D01*
G01*
X161035200Y-85928200D01*
G75*
G02*
X160985200Y-85978200I-50000J0D01*
G01*
X159054800Y-85978200D01*
G75*
G02*
X159004800Y-85928200I0J50000D01*
G01*
G37*
X160020000Y-87312500D03*
X156654500Y-84518500D03*
G36*
G01*
X153099300Y-85483700D02*
X153099300Y-83553300D01*
G75*
G02*
X153149300Y-83503300I50000J0D01*
G01*
X155079700Y-83503300D01*
G75*
G02*
X155129700Y-83553300I0J-50000D01*
G01*
X155129700Y-85483700D01*
G75*
G02*
X155079700Y-85533700I-50000J0D01*
G01*
X153149300Y-85533700D01*
G75*
G02*
X153099300Y-85483700I0J50000D01*
G01*
G37*
X137096500Y-102108000D03*
G36*
G01*
X136131300Y-98552800D02*
X138061700Y-98552800D01*
G75*
G02*
X138111700Y-98602800I0J-50000D01*
G01*
X138111700Y-100533200D01*
G75*
G02*
X138061700Y-100583200I-50000J0D01*
G01*
X136131300Y-100583200D01*
G75*
G02*
X136081300Y-100533200I0J50000D01*
G01*
X136081300Y-98602800D01*
G75*
G02*
X136131300Y-98552800I50000J0D01*
G01*
G37*
D19*
X153026400Y-99340400D03*
X153026400Y-94640400D03*
X153026400Y-89940400D03*
X147726400Y-99340400D03*
X147726400Y-94640400D03*
X147726400Y-89940400D03*
X142426400Y-99340400D03*
X142426400Y-94640400D03*
G36*
G01*
X144384400Y-88032400D02*
X144384400Y-91848400D01*
G75*
G02*
X144334400Y-91898400I-50000J0D01*
G01*
X140518400Y-91898400D01*
G75*
G02*
X140468400Y-91848400I0J50000D01*
G01*
X140468400Y-88032400D01*
G75*
G02*
X140518400Y-87982400I50000J0D01*
G01*
X144334400Y-87982400D01*
G75*
G02*
X144384400Y-88032400I0J-50000D01*
G01*
G37*
D15*
X151536400Y-84709000D03*
X148996400Y-84709000D03*
X146456400Y-84709000D03*
G36*
G01*
X142901200Y-85674200D02*
X142901200Y-83743800D01*
G75*
G02*
X142951200Y-83693800I50000J0D01*
G01*
X144881600Y-83693800D01*
G75*
G02*
X144931600Y-83743800I0J-50000D01*
G01*
X144931600Y-85674200D01*
G75*
G02*
X144881600Y-85724200I-50000J0D01*
G01*
X142951200Y-85724200D01*
G75*
G02*
X142901200Y-85674200I0J50000D01*
G01*
G37*
D16*
X136906000Y-97282000D03*
D17*
X136906000Y-94742000D03*
M02*
