M48
; DRILL file {KiCad (5.99.0-1730-g52ae0df7a)} date Wed May 20 09:09:02 2020
; FORMAT={-:-/ absolute / inch / decimal}
; #@! TF.CreationDate,2020-05-20T09:09:02+03:00
; #@! TF.GenerationSoftware,Kicad,Pcbnew,(5.99.0-1730-g52ae0df7a)
; #@! TF.FileFunction,Plated,1,2,PTH
FMAT,2
INCH
T1C0.0157
T2C0.0315
T3C0.0354
T4C0.0433
T5C0.0472
T6C0.1102
%
G90
G05
T1
X5.516Y-3.658
X5.921Y-3.955
X6.189Y-3.709
T2
X6.295Y-3.845
X6.295Y-3.9434
X5.39Y-3.73
X5.39Y-3.83
X5.39Y-3.528
X5.39Y-3.628
T3
X6.305Y-3.5325
X6.305Y-3.6325
X6.305Y-3.7325
T4
X6.0675Y-3.3275
X6.1675Y-3.3275
X5.3975Y-3.92
X5.3975Y-4.02
X5.666Y-3.335
X5.766Y-3.335
X5.866Y-3.335
X5.966Y-3.335
T5
X5.5525Y-3.335
X6.218Y-4.022
X6.3Y-3.345
X6.3Y-3.4375
X5.4Y-3.33
X5.4Y-3.4225
T6
X5.6073Y-3.541
X5.6073Y-3.726
X5.6073Y-3.911
X5.816Y-3.541
X5.816Y-3.726
X5.816Y-3.911
X6.0247Y-3.541
X6.0247Y-3.726
X6.0247Y-3.911
T0
M30
