<svg version="1.1" xmlns="http://www.w3.org/2000/svg" xmlns:xlink="http://www.w3.org/1999/xlink" stroke-linecap="round" stroke-linejoin="round" stroke-width="0" fill-rule="evenodd" clip-rule="evenodd" id="FXNSnJ5svXZcSYoQV62r_bottom" viewBox="135636 -103505 25908 20320" width="25.908mm" height="20.32mm" class="w-100 h-100"><defs><style>.FXNSnJ5svXZcSYoQV62r_fr4 {color: #666666;}
.FXNSnJ5svXZcSYoQV62r_cu {color: #cccccc;}
.FXNSnJ5svXZcSYoQV62r_cf {color: #cc9933;}
.FXNSnJ5svXZcSYoQV62r_sm {color: #004200; opacity: 0.75;}
.FXNSnJ5svXZcSYoQV62r_ss {color: #ffffff;}
.FXNSnJ5svXZcSYoQV62r_sp {color: #999999;}
.FXNSnJ5svXZcSYoQV62r_out {color: #000000;}</style><rect x="-1015.2" y="-1015.2" width="2030.4" height="2030.4" rx="1015.2" ry="1015.2" id="V554Zf2ZSvNa7oeQjsX-_pad-10"/><rect x="-850" y="-850" width="1700" height="1700" rx="850" ry="850" id="V554Zf2ZSvNa7oeQjsX-_pad-11"/><circle cx="0" cy="0" r="850" id="V554Zf2ZSvNa7oeQjsX-_pad-12"/><circle cx="0" cy="0" r="950" id="V554Zf2ZSvNa7oeQjsX-_pad-13"/><rect x="-1958" y="-1958" width="3916" height="3916" rx="1958" ry="1958" id="V554Zf2ZSvNa7oeQjsX-_pad-14"/><rect x="-965.2" y="-965.2" width="1930.4" height="1930.4" rx="965.2" ry="965.2" id="u33qTQ3N_O99dTa6FZZf_pad-10"/><rect x="-800" y="-800" width="1600" height="1600" rx="800" ry="800" id="u33qTQ3N_O99dTa6FZZf_pad-11"/><circle cx="0" cy="0" r="800" id="u33qTQ3N_O99dTa6FZZf_pad-12"/><rect x="-800" y="-800" width="1600" height="1600" id="u33qTQ3N_O99dTa6FZZf_pad-13"/><circle cx="0" cy="0" r="900" id="u33qTQ3N_O99dTa6FZZf_pad-14"/><rect x="-900" y="-900" width="1800" height="1800" id="u33qTQ3N_O99dTa6FZZf_pad-15"/><rect x="-965.2" y="-965.2" width="1930.4" height="1930.4" id="u33qTQ3N_O99dTa6FZZf_pad-16"/><rect x="-1908" y="-1908" width="3816" height="3816" rx="1908" ry="1908" id="u33qTQ3N_O99dTa6FZZf_pad-17"/><rect x="-1908" y="-1908" width="3816" height="3816" id="u33qTQ3N_O99dTa6FZZf_pad-18"/><circle cx="0" cy="0" r="400" id="u33qTQ3N_O99dTa6FZZf_pad-19"/><rect x="-1015.2" y="-1015.2" width="2030.4" height="2030.4" rx="1015.2" ry="1015.2" id="w8HUdo8HEXnG61DlAU3d_pad-15"/><rect x="-850" y="-850" width="1700" height="1700" rx="850" ry="850" id="w8HUdo8HEXnG61DlAU3d_pad-16"/><circle cx="0" cy="0" r="850" id="w8HUdo8HEXnG61DlAU3d_pad-17"/><circle cx="0" cy="0" r="950" id="w8HUdo8HEXnG61DlAU3d_pad-18"/><rect x="-1958" y="-1958" width="3916" height="3916" rx="1958" ry="1958" id="w8HUdo8HEXnG61DlAU3d_pad-19"/><mask id="w8HUdo8HEXnG61DlAU3d_clear-1" fill="#000" stroke="#000"><g><rect x="135476" y="-103516.6" width="27720.9999127" height="20270.448" fill="#fff"/><use xlink:href="#w8HUdo8HEXnG61DlAU3d_pad-15" x="157937.2" y="-102158.8"/><use xlink:href="#w8HUdo8HEXnG61DlAU3d_pad-15" x="141033.5" y="-84709"/><use xlink:href="#w8HUdo8HEXnG61DlAU3d_pad-16" x="136906" y="-92151.2"/><use xlink:href="#w8HUdo8HEXnG61DlAU3d_pad-17" x="136906" y="-89611.2"/><use xlink:href="#w8HUdo8HEXnG61DlAU3d_pad-17" x="159893" y="-100163"/><path d="M 159093 -96813 160693 -96813 A 50 50 0 0 0 160743 -96863 L 160743 -98463 A 50 50 0 0 0 160693 -98513 L 159093 -98513 A 50 50 0 0 0 159043 -98463 L 159043 -96863 A 50 50 0 0 0 159093 -96813"/><use xlink:href="#w8HUdo8HEXnG61DlAU3d_pad-18" x="160147" y="-94805.5"/><use xlink:href="#w8HUdo8HEXnG61DlAU3d_pad-18" x="160147" y="-92265.5"/><path d="M 159247 -88775.5 161047 -88775.5 A 50 50 0 0 0 161097 -88825.5 L 161097 -90625.5 A 50 50 0 0 0 161047 -90675.5 L 159247 -90675.5 A 50 50 0 0 0 159197 -90625.5 L 159197 -88825.5 A 50 50 0 0 0 159247 -88775.5"/><path d="M 136144.8 -85547.2 136144.8 -83616.8 A 50 50 0 0 0 136194.8 -83566.8 L 138125.2 -83566.8 A 50 50 0 0 0 138175.2 -83616.8 L 138175.2 -85547.2 A 50 50 0 0 0 138125.2 -85597.2 L 136194.8 -85597.2 A 50 50 0 0 0 136144.8 -85547.2"/><use xlink:href="#w8HUdo8HEXnG61DlAU3d_pad-15" x="137160" y="-86931.5"/><path d="M 159004.8 -85928.2 159004.8 -83997.8 A 50 50 0 0 0 159054.8 -83947.8 L 160985.2 -83947.8 A 50 50 0 0 0 161035.2 -83997.8 L 161035.2 -85928.2 A 50 50 0 0 0 160985.2 -85978.2 L 159054.8 -85978.2 A 50 50 0 0 0 159004.8 -85928.2"/><use xlink:href="#w8HUdo8HEXnG61DlAU3d_pad-15" x="160020" y="-87312.5"/><use xlink:href="#w8HUdo8HEXnG61DlAU3d_pad-15" x="156654.5" y="-84518.5"/><path d="M 153099.3 -85483.7 153099.3 -83553.3 A 50 50 0 0 0 153149.3 -83503.3 L 155079.7 -83503.3 A 50 50 0 0 0 155129.7 -83553.3 L 155129.7 -85483.7 A 50 50 0 0 0 155079.7 -85533.7 L 153149.3 -85533.7 A 50 50 0 0 0 153099.3 -85483.7"/><use xlink:href="#w8HUdo8HEXnG61DlAU3d_pad-15" x="137096.5" y="-102108"/><path d="M 136131.3 -98552.8 138061.7 -98552.8 A 50 50 0 0 0 138111.7 -98602.8 L 138111.7 -100533.2 A 50 50 0 0 0 138061.7 -100583.2 L 136131.3 -100583.2 A 50 50 0 0 0 136081.3 -100533.2 L 136081.3 -98602.8 A 50 50 0 0 0 136131.3 -98552.8"/><use xlink:href="#w8HUdo8HEXnG61DlAU3d_pad-19" x="153026.4" y="-99340.4"/><use xlink:href="#w8HUdo8HEXnG61DlAU3d_pad-19" x="153026.4" y="-94640.4"/><use xlink:href="#w8HUdo8HEXnG61DlAU3d_pad-19" x="153026.4" y="-89940.4"/><use xlink:href="#w8HUdo8HEXnG61DlAU3d_pad-19" x="147726.4" y="-99340.4"/><use xlink:href="#w8HUdo8HEXnG61DlAU3d_pad-19" x="147726.4" y="-94640.4"/><use xlink:href="#w8HUdo8HEXnG61DlAU3d_pad-19" x="147726.4" y="-89940.4"/><use xlink:href="#w8HUdo8HEXnG61DlAU3d_pad-19" x="142426.4" y="-99340.4"/><use xlink:href="#w8HUdo8HEXnG61DlAU3d_pad-19" x="142426.4" y="-94640.4"/><path d="M 144384.4 -88032.4 144384.4 -91848.4 A 50 50 0 0 0 144334.4 -91898.4 L 140518.4 -91898.4 A 50 50 0 0 0 140468.4 -91848.4 L 140468.4 -88032.4 A 50 50 0 0 0 140518.4 -87982.4 L 144334.4 -87982.4 A 50 50 0 0 0 144384.4 -88032.4"/><use xlink:href="#w8HUdo8HEXnG61DlAU3d_pad-15" x="151536.4" y="-84709"/><use xlink:href="#w8HUdo8HEXnG61DlAU3d_pad-15" x="148996.4" y="-84709"/><use xlink:href="#w8HUdo8HEXnG61DlAU3d_pad-15" x="146456.4" y="-84709"/><path d="M 142901.2 -85674.2 142901.2 -83743.8 A 50 50 0 0 0 142951.2 -83693.8 L 144881.6 -83693.8 A 50 50 0 0 0 144931.6 -83743.8 L 144931.6 -85674.2 A 50 50 0 0 0 144881.6 -85724.2 L 142951.2 -85724.2 A 50 50 0 0 0 142901.2 -85674.2"/><use xlink:href="#w8HUdo8HEXnG61DlAU3d_pad-16" x="136906" y="-97282"/><use xlink:href="#w8HUdo8HEXnG61DlAU3d_pad-17" x="136906" y="-94742"/></g></mask><circle cx="0" cy="0" r="7.85" id="HiPIQ1uB9s_EYX6Gvy98_pad-1"/><circle cx="0" cy="0" r="15.75" id="HiPIQ1uB9s_EYX6Gvy98_pad-2"/><circle cx="0" cy="0" r="17.7" id="HiPIQ1uB9s_EYX6Gvy98_pad-3"/><circle cx="0" cy="0" r="21.65" id="HiPIQ1uB9s_EYX6Gvy98_pad-4"/><circle cx="0" cy="0" r="23.6" id="HiPIQ1uB9s_EYX6Gvy98_pad-5"/><circle cx="0" cy="0" r="55.1" id="HiPIQ1uB9s_EYX6Gvy98_pad-6"/><g id="FXNSnJ5svXZcSYoQV62r_bottom_soldermask"><use xlink:href="#V554Zf2ZSvNa7oeQjsX-_pad-10" x="157937.2" y="-102158.8"/><use xlink:href="#V554Zf2ZSvNa7oeQjsX-_pad-10" x="141033.5" y="-84709"/><use xlink:href="#V554Zf2ZSvNa7oeQjsX-_pad-11" x="136906" y="-92151.2"/><use xlink:href="#V554Zf2ZSvNa7oeQjsX-_pad-12" x="136906" y="-89611.2"/><use xlink:href="#V554Zf2ZSvNa7oeQjsX-_pad-12" x="159893" y="-100163"/><path d="M 159093 -96813 160693 -96813 A 50 50 0 0 0 160743 -96863 L 160743 -98463 A 50 50 0 0 0 160693 -98513 L 159093 -98513 A 50 50 0 0 0 159043 -98463 L 159043 -96863 A 50 50 0 0 0 159093 -96813"/><use xlink:href="#V554Zf2ZSvNa7oeQjsX-_pad-13" x="160147" y="-94805.5"/><use xlink:href="#V554Zf2ZSvNa7oeQjsX-_pad-13" x="160147" y="-92265.5"/><path d="M 159247 -88775.5 161047 -88775.5 A 50 50 0 0 0 161097 -88825.5 L 161097 -90625.5 A 50 50 0 0 0 161047 -90675.5 L 159247 -90675.5 A 50 50 0 0 0 159197 -90625.5 L 159197 -88825.5 A 50 50 0 0 0 159247 -88775.5"/><path d="M 136144.8 -85547.2 136144.8 -83616.8 A 50 50 0 0 0 136194.8 -83566.8 L 138125.2 -83566.8 A 50 50 0 0 0 138175.2 -83616.8 L 138175.2 -85547.2 A 50 50 0 0 0 138125.2 -85597.2 L 136194.8 -85597.2 A 50 50 0 0 0 136144.8 -85547.2"/><use xlink:href="#V554Zf2ZSvNa7oeQjsX-_pad-10" x="137160" y="-86931.5"/><path d="M 159004.8 -85928.2 159004.8 -83997.8 A 50 50 0 0 0 159054.8 -83947.8 L 160985.2 -83947.8 A 50 50 0 0 0 161035.2 -83997.8 L 161035.2 -85928.2 A 50 50 0 0 0 160985.2 -85978.2 L 159054.8 -85978.2 A 50 50 0 0 0 159004.8 -85928.2"/><use xlink:href="#V554Zf2ZSvNa7oeQjsX-_pad-10" x="160020" y="-87312.5"/><use xlink:href="#V554Zf2ZSvNa7oeQjsX-_pad-10" x="156654.5" y="-84518.5"/><path d="M 153099.3 -85483.7 153099.3 -83553.3 A 50 50 0 0 0 153149.3 -83503.3 L 155079.7 -83503.3 A 50 50 0 0 0 155129.7 -83553.3 L 155129.7 -85483.7 A 50 50 0 0 0 155079.7 -85533.7 L 153149.3 -85533.7 A 50 50 0 0 0 153099.3 -85483.7"/><use xlink:href="#V554Zf2ZSvNa7oeQjsX-_pad-10" x="137096.5" y="-102108"/><path d="M 136131.3 -98552.8 138061.7 -98552.8 A 50 50 0 0 0 138111.7 -98602.8 L 138111.7 -100533.2 A 50 50 0 0 0 138061.7 -100583.2 L 136131.3 -100583.2 A 50 50 0 0 0 136081.3 -100533.2 L 136081.3 -98602.8 A 50 50 0 0 0 136131.3 -98552.8"/><use xlink:href="#V554Zf2ZSvNa7oeQjsX-_pad-14" x="153026.4" y="-99340.4"/><use xlink:href="#V554Zf2ZSvNa7oeQjsX-_pad-14" x="153026.4" y="-94640.4"/><use xlink:href="#V554Zf2ZSvNa7oeQjsX-_pad-14" x="153026.4" y="-89940.4"/><use xlink:href="#V554Zf2ZSvNa7oeQjsX-_pad-14" x="147726.4" y="-99340.4"/><use xlink:href="#V554Zf2ZSvNa7oeQjsX-_pad-14" x="147726.4" y="-94640.4"/><use xlink:href="#V554Zf2ZSvNa7oeQjsX-_pad-14" x="147726.4" y="-89940.4"/><use xlink:href="#V554Zf2ZSvNa7oeQjsX-_pad-14" x="142426.4" y="-99340.4"/><use xlink:href="#V554Zf2ZSvNa7oeQjsX-_pad-14" x="142426.4" y="-94640.4"/><path d="M 144384.4 -88032.4 144384.4 -91848.4 A 50 50 0 0 0 144334.4 -91898.4 L 140518.4 -91898.4 A 50 50 0 0 0 140468.4 -91848.4 L 140468.4 -88032.4 A 50 50 0 0 0 140518.4 -87982.4 L 144334.4 -87982.4 A 50 50 0 0 0 144384.4 -88032.4"/><use xlink:href="#V554Zf2ZSvNa7oeQjsX-_pad-10" x="151536.4" y="-84709"/><use xlink:href="#V554Zf2ZSvNa7oeQjsX-_pad-10" x="148996.4" y="-84709"/><use xlink:href="#V554Zf2ZSvNa7oeQjsX-_pad-10" x="146456.4" y="-84709"/><path d="M 142901.2 -85674.2 142901.2 -83743.8 A 50 50 0 0 0 142951.2 -83693.8 L 144881.6 -83693.8 A 50 50 0 0 0 144931.6 -83743.8 L 144931.6 -85674.2 A 50 50 0 0 0 144881.6 -85724.2 L 142951.2 -85724.2 A 50 50 0 0 0 142901.2 -85674.2"/><use xlink:href="#V554Zf2ZSvNa7oeQjsX-_pad-11" x="136906" y="-97282"/><use xlink:href="#V554Zf2ZSvNa7oeQjsX-_pad-12" x="136906" y="-94742"/></g><g id="FXNSnJ5svXZcSYoQV62r_bottom_copper"><use xlink:href="#u33qTQ3N_O99dTa6FZZf_pad-10" x="157937.2" y="-102158.8"/><use xlink:href="#u33qTQ3N_O99dTa6FZZf_pad-10" x="141033.5" y="-84709"/><use xlink:href="#u33qTQ3N_O99dTa6FZZf_pad-11" x="136906" y="-92151.2"/><use xlink:href="#u33qTQ3N_O99dTa6FZZf_pad-12" x="136906" y="-89611.2"/><use xlink:href="#u33qTQ3N_O99dTa6FZZf_pad-12" x="159893" y="-100163"/><use xlink:href="#u33qTQ3N_O99dTa6FZZf_pad-13" x="159893" y="-97663"/><use xlink:href="#u33qTQ3N_O99dTa6FZZf_pad-14" x="160147" y="-94805.5"/><use xlink:href="#u33qTQ3N_O99dTa6FZZf_pad-14" x="160147" y="-92265.5"/><use xlink:href="#u33qTQ3N_O99dTa6FZZf_pad-15" x="160147" y="-89725.5"/><use xlink:href="#u33qTQ3N_O99dTa6FZZf_pad-16" x="137160" y="-84582"/><use xlink:href="#u33qTQ3N_O99dTa6FZZf_pad-10" x="137160" y="-86931.5"/><use xlink:href="#u33qTQ3N_O99dTa6FZZf_pad-16" x="160020" y="-84963"/><use xlink:href="#u33qTQ3N_O99dTa6FZZf_pad-10" x="160020" y="-87312.5"/><use xlink:href="#u33qTQ3N_O99dTa6FZZf_pad-10" x="156654.5" y="-84518.5"/><use xlink:href="#u33qTQ3N_O99dTa6FZZf_pad-16" x="154114.5" y="-84518.5"/><use xlink:href="#u33qTQ3N_O99dTa6FZZf_pad-10" x="137096.5" y="-102108"/><use xlink:href="#u33qTQ3N_O99dTa6FZZf_pad-16" x="137096.5" y="-99568"/><use xlink:href="#u33qTQ3N_O99dTa6FZZf_pad-17" x="153026.4" y="-99340.4"/><use xlink:href="#u33qTQ3N_O99dTa6FZZf_pad-17" x="153026.4" y="-94640.4"/><use xlink:href="#u33qTQ3N_O99dTa6FZZf_pad-17" x="153026.4" y="-89940.4"/><use xlink:href="#u33qTQ3N_O99dTa6FZZf_pad-17" x="147726.4" y="-99340.4"/><use xlink:href="#u33qTQ3N_O99dTa6FZZf_pad-17" x="147726.4" y="-94640.4"/><use xlink:href="#u33qTQ3N_O99dTa6FZZf_pad-17" x="147726.4" y="-89940.4"/><use xlink:href="#u33qTQ3N_O99dTa6FZZf_pad-17" x="142426.4" y="-99340.4"/><use xlink:href="#u33qTQ3N_O99dTa6FZZf_pad-17" x="142426.4" y="-94640.4"/><use xlink:href="#u33qTQ3N_O99dTa6FZZf_pad-18" x="142426.4" y="-89940.4"/><use xlink:href="#u33qTQ3N_O99dTa6FZZf_pad-10" x="151536.4" y="-84709"/><use xlink:href="#u33qTQ3N_O99dTa6FZZf_pad-10" x="148996.4" y="-84709"/><use xlink:href="#u33qTQ3N_O99dTa6FZZf_pad-10" x="146456.4" y="-84709"/><use xlink:href="#u33qTQ3N_O99dTa6FZZf_pad-16" x="143916.4" y="-84709"/><use xlink:href="#u33qTQ3N_O99dTa6FZZf_pad-11" x="136906" y="-97282"/><use xlink:href="#u33qTQ3N_O99dTa6FZZf_pad-12" x="136906" y="-94742"/><use xlink:href="#u33qTQ3N_O99dTa6FZZf_pad-19" x="150393.4" y="-100457"/><use xlink:href="#u33qTQ3N_O99dTa6FZZf_pad-19" x="140106.4" y="-92913.2"/><use xlink:href="#u33qTQ3N_O99dTa6FZZf_pad-19" x="157200.6" y="-94208.6"/><path d="M 143916.4 -84709 144788.401 -85581.001 144788.401 -92278.399 142426.4 -94640.4 M 147449.389 -102410.411 142000.649 -102410.411 M 147449.389 -102410.411 155145.589 -102410.411 159893 -97663 M 157937.2 -102158.8 157454.6 -102158.8" fill="none" stroke-width="508"/><path d="M 154710.599 -101702.401 157873.7 -98539.3 157873.7 -97078.8 160147 -94805.5" fill="none" stroke-width="381"/><path d="M 159893 -98027.398 159893 -97663" fill="none" stroke-width="609.6"/><path d="M 147726.4 -89940.4 150127.899 -92341.899 157530.601 -92341.899 160147 -89725.5" fill="none" stroke-width="381"/><path d="M 153026.4 -94640.4 156768.8 -94640.4 157200.6 -94208.6" fill="none" stroke-width="508"/><path d="M 160147 -92265.5 160147 -92668.974 155877.073 -96938.901 M 138096.501 -93712.283 138096.501 -90852.501 M 155877.073 -96938.901 141323.119 -96938.901 138096.501 -93712.283 M 138096.501 -90852.501 136906 -89662" fill="none" stroke-width="381"/><path d="M 142000.649 -102410.411 138515.701 -98925.463 138515.701 -96351.701 136906 -94742" fill="none" stroke-width="508"/><path d="M 150088.401 -101702.401 154710.599 -101702.401 M 147726.4 -99340.4 150088.401 -101702.401" fill="none" stroke-width="381"/><path d="M 137160 -84674 142426.4 -89940.4" fill="none" stroke-width="508"/><path d="M 142426.4 -99340.4 147726.4 -99340.4" fill="none" stroke-width="381"/><path d="M 161164.001 -99496.44 161060.053 -99316.397 160936.844 -99300.177 160126.21 -100110.809 160126.21 -100215.191 160936.844 -101025.823 161060.053 -101009.603 161164.001 -100829.56 161164.001 -103125 159214.961 -103125 159236.966 -103099.144 159243.001 -103090.746 159373.095 -102874.231 159377.677 -102864.961 159470.663 -102630.106 159473.67 -102620.211 159525.485 -102380.553 159449.836 -102286.8 156427.719 -102286.8 156352.375 -102373.474 156371.064 -102506.444 156373.337 -102516.532 156448.873 -102757.566 156452.764 -102767.148 156566.652 -102992.608 156572.055 -103001.426 156662.498 -103125 138331.026 -103125 138396.266 -103048.344 138402.301 -103039.946 138532.395 -102823.431 138536.977 -102814.161 138629.963 -102579.306 138632.97 -102569.411 138684.785 -102329.753 138609.136 -102236 136968.5 -102235.999 136968.501 -101980 138606.134 -101980.001 138681.619 -101890.992 138653.675 -101722.196 138651.155 -101712.166 138569.753 -101473.05 138565.63 -101463.566 138446.267 -101240.955 138440.649 -101232.271 138286.531 -101032.146 138279.572 -101024.497 138149.48 -100903.184 138197.558 -100893.621 138220.489 -100884.123 138325.144 -100814.195 138342.695 -100796.644 138412.623 -100691.989 138422.121 -100669.058 138445.463 -100551.71 138446.676 -100539.39 138446.676 -99755.876 141531.296 -102840.496 141578.335 -102896.556 141595.224 -102910.727 141658.604 -102947.321 141718.548 -102989.294 141738.529 -102998.611 141755.161 -103003.068 141770.076 -103011.678 141790.793 -103019.219 141862.862 -103031.926 141933.55 -103050.867 141955.513 -103052.788 142028.411 -103046.411 155117.838 -103046.411 155190.724 -103052.787 155212.686 -103050.866 155283.362 -103031.929 155355.446 -103019.219 155376.162 -103011.678 155391.077 -103003.068 155407.709 -102998.611 155427.69 -102989.294 155487.634 -102947.321 155551.014 -102910.727 155567.902 -102896.557 155614.947 -102840.492 156425.667 -102029.772 156426.518 -102030.8 157735.391 -102030.8 157809.2 -101956.991 157809.2 -100646.239 158467.799 -99987.64 158459.959 -100032.103 158459 -100043.064 158459 -100282.936 158459.959 -100293.897 158501.613 -100530.126 158504.46 -100540.753 158556.513 -100683.768 158477.583 -100648.295 158467.834 -100644.843 158223.623 -100580.319 158213.442 -100578.506 158147.602 -100572.282 158065.2 -100647.261 158065.2 -101956.991 158139.009 -102030.8 159446.834 -102030.8 159522.319 -101941.791 159494.374 -101772.996 159491.855 -101762.966 159410.453 -101523.85 159406.33 -101514.366 159404.685 -101511.299 159515.247 -101551.54 159525.874 -101554.387 159762.103 -101596.041 159773.064 -101597 160012.936 -101597 160023.897 -101596.041 160260.126 -101554.387 160270.753 -101551.54 160496.16 -101469.498 160506.132 -101464.848 160739.603 -101330.053 160755.823 -101206.844 159711.98 -100163 159982.095 -99892.885 160755.823 -99119.156 160739.603 -98995.947 160506.132 -98861.152 160496.16 -98856.502 160472.735 -98847.976 160699.19 -98847.976 160711.51 -98846.763 160828.858 -98823.421 160851.789 -98813.923 160956.444 -98743.995 160973.995 -98726.444 161043.923 -98621.789 161053.421 -98598.858 161076.763 -98481.51 161077.976 -98469.19 161077.976 -96856.81 161076.763 -96844.49 161053.421 -96727.142 161043.923 -96704.211 160973.995 -96599.556 160956.444 -96582.005 160851.789 -96512.077 160828.858 -96502.579 160711.51 -96479.237 160699.19 -96478.024 159284.111 -96478.024 159742.204 -96019.931 159857.782 -96057.484 159869.051 -96060.034 160090.781 -96089.225 160102.325 -96089.679 160325.663 -96077.975 160337.097 -96076.317 160554.561 -96024.108 160565.502 -96020.394 160769.81 -95929.43 160779.89 -95923.785 160964.201 -95797.112 160973.084 -95789.724 161131.224 -95631.584 161138.612 -95622.701 161164.001 -95585.76 161164.001 -99496.44"/><path d="M 161164.001 -99496.44 161060.053 -99316.397 160936.844 -99300.177 160126.21 -100110.809 160126.21 -100215.191 160936.844 -101025.823 161060.053 -101009.603 161164.001 -100829.56 161164.001 -103125 159214.961 -103125 159236.966 -103099.144 159243.001 -103090.746 159373.095 -102874.231 159377.677 -102864.961 159470.663 -102630.106 159473.67 -102620.211 159525.485 -102380.553 159449.836 -102286.8 156427.719 -102286.8 156352.375 -102373.474 156371.064 -102506.444 156373.337 -102516.532 156448.873 -102757.566 156452.764 -102767.148 156566.652 -102992.608 156572.055 -103001.426 156662.498 -103125 138331.026 -103125 138396.266 -103048.344 138402.301 -103039.946 138532.395 -102823.431 138536.977 -102814.161 138629.963 -102579.306 138632.97 -102569.411 138684.785 -102329.753 138609.136 -102236 136968.5 -102235.999 136968.501 -101980 138606.134 -101980.001 138681.619 -101890.992 138653.675 -101722.196 138651.155 -101712.166 138569.753 -101473.05 138565.63 -101463.566 138446.267 -101240.955 138440.649 -101232.271 138286.531 -101032.146 138279.572 -101024.497 138149.48 -100903.184 138197.558 -100893.621 138220.489 -100884.123 138325.144 -100814.195 138342.695 -100796.644 138412.623 -100691.989 138422.121 -100669.058 138445.463 -100551.71 138446.676 -100539.39 138446.676 -99755.876 141531.296 -102840.496 141578.335 -102896.556 141595.224 -102910.727 141658.604 -102947.321 141718.548 -102989.294 141738.529 -102998.611 141755.161 -103003.068 141770.076 -103011.678 141790.793 -103019.219 141862.862 -103031.926 141933.55 -103050.867 141955.513 -103052.788 142028.411 -103046.411 155117.838 -103046.411 155190.724 -103052.787 155212.686 -103050.866 155283.362 -103031.929 155355.446 -103019.219 155376.162 -103011.678 155391.077 -103003.068 155407.709 -102998.611 155427.69 -102989.294 155487.634 -102947.321 155551.014 -102910.727 155567.902 -102896.557 155614.947 -102840.492 156425.667 -102029.772 156426.518 -102030.8 157735.391 -102030.8 157809.2 -101956.991 157809.2 -100646.239 158467.799 -99987.64 158459.959 -100032.103 158459 -100043.064 158459 -100282.936 158459.959 -100293.897 158501.613 -100530.126 158504.46 -100540.753 158556.513 -100683.768 158477.583 -100648.295 158467.834 -100644.843 158223.623 -100580.319 158213.442 -100578.506 158147.602 -100572.282 158065.2 -100647.261 158065.2 -101956.991 158139.009 -102030.8 159446.834 -102030.8 159522.319 -101941.791 159494.374 -101772.996 159491.855 -101762.966 159410.453 -101523.85 159406.33 -101514.366 159404.685 -101511.299 159515.247 -101551.54 159525.874 -101554.387 159762.103 -101596.041 159773.064 -101597 160012.936 -101597 160023.897 -101596.041 160260.126 -101554.387 160270.753 -101551.54 160496.16 -101469.498 160506.132 -101464.848 160739.603 -101330.053 160755.823 -101206.844 159711.98 -100163 159982.095 -99892.885 160755.823 -99119.156 160739.603 -98995.947 160506.132 -98861.152 160496.16 -98856.502 160472.735 -98847.976 160699.19 -98847.976 160711.51 -98846.763 160828.858 -98823.421 160851.789 -98813.923 160956.444 -98743.995 160973.995 -98726.444 161043.923 -98621.789 161053.421 -98598.858 161076.763 -98481.51 161077.976 -98469.19 161077.976 -96856.81 161076.763 -96844.49 161053.421 -96727.142 161043.923 -96704.211 160973.995 -96599.556 160956.444 -96582.005 160851.789 -96512.077 160828.858 -96502.579 160711.51 -96479.237 160699.19 -96478.024 159284.111 -96478.024 159742.204 -96019.931 159857.782 -96057.484 159869.051 -96060.034 160090.781 -96089.225 160102.325 -96089.679 160325.663 -96077.975 160337.097 -96076.317 160554.561 -96024.108 160565.502 -96020.394 160769.81 -95929.43 160779.89 -95923.785 160964.201 -95797.112 160973.084 -95789.724 161131.224 -95631.584 161138.612 -95622.701 161164.001 -95585.76 161164.001 -99496.44" fill="none" stroke-width="254"/><path d="M 151596.034 -97548.152 151589.338 -97553.516 151366.033 -97758.857 151360.127 -97765.08 151166.755 -97998.826 151161.748 -98005.794 151001.888 -98263.622 150997.873 -98271.204 150874.483 -98548.342 150871.535 -98556.399 150786.898 -98847.719 150785.07 -98856.102 150740.754 -99156.212 150740.081 -99164.766 150736.904 -99468.114 150737.398 -99476.68 150775.42 -99777.653 150777.072 -99786.072 150855.589 -100079.101 150858.368 -100087.218 150975.927 -100366.879 150979.782 -100374.544 151134.207 -100635.663 151139.067 -100642.734 151327.501 -100880.479 151333.276 -100886.824 151552.232 -101096.797 151558.814 -101102.301 151596.802 -101129.901 150325.538 -101129.901 149698.539 -100502.903 149739.526 -100438.319 149743.62 -100430.779 149869.905 -100154.949 149872.937 -100146.923 149960.619 -99856.505 149962.535 -99848.142 150010.043 -99548.186 150010.817 -99538.977 150014.474 -99189.706 150013.894 -99180.484 149972.678 -98879.6 149970.938 -98871.198 149889.357 -98579.008 149886.493 -98570.921 149766.012 -98292.505 149762.077 -98284.881 149604.926 -98025.393 149599.992 -98018.374 149409.079 -97782.615 149403.238 -97776.33 149182.095 -97568.662 149175.455 -97563.228 149102.528 -97511.401 151648.912 -97511.401 151596.034 -97548.152"/><path d="M 151596.034 -97548.152 151589.338 -97553.516 151366.033 -97758.857 151360.127 -97765.08 151166.755 -97998.826 151161.748 -98005.794 151001.888 -98263.622 150997.873 -98271.204 150874.483 -98548.342 150871.535 -98556.399 150786.898 -98847.719 150785.07 -98856.102 150740.754 -99156.212 150740.081 -99164.766 150736.904 -99468.114 150737.398 -99476.68 150775.42 -99777.653 150777.072 -99786.072 150855.589 -100079.101 150858.368 -100087.218 150975.927 -100366.879 150979.782 -100374.544 151134.207 -100635.663 151139.067 -100642.734 151327.501 -100880.479 151333.276 -100886.824 151552.232 -101096.797 151558.814 -101102.301 151596.802 -101129.901 150325.538 -101129.901 149698.539 -100502.903 149739.526 -100438.319 149743.62 -100430.779 149869.905 -100154.949 149872.937 -100146.923 149960.619 -99856.505 149962.535 -99848.142 150010.043 -99548.186 150010.817 -99538.977 150014.474 -99189.706 150013.894 -99180.484 149972.678 -98879.6 149970.938 -98871.198 149889.357 -98579.008 149886.493 -98570.921 149766.012 -98292.505 149762.077 -98284.881 149604.926 -98025.393 149599.992 -98018.374 149409.079 -97782.615 149403.238 -97776.33 149182.095 -97568.662 149175.455 -97563.228 149102.528 -97511.401 151648.912 -97511.401 151596.034 -97548.152" fill="none" stroke-width="254"/><path d="M 161164 -83660.248 161143.989 -83646.877 161121.058 -83637.379 161003.71 -83614.037 160991.39 -83612.824 159048.61 -83612.824 159036.29 -83614.037 158918.942 -83637.379 158896.011 -83646.877 158791.356 -83716.805 158773.805 -83734.356 158703.877 -83839.011 158694.379 -83861.942 158671.037 -83979.29 158669.824 -83991.61 158669.824 -85934.39 158671.037 -85946.71 158694.379 -86064.058 158703.877 -86086.989 158773.805 -86191.644 158791.356 -86209.195 158833.013 -86237.029 158697.647 -86404.193 158691.82 -86412.736 158567.054 -86632.364 158562.699 -86641.744 158475.479 -86878.8 158472.716 -86888.766 158433.731 -87093.131 158509.318 -87184.5 160148 -87184.5 160148 -87440.5 158510.519 -87440.5 158435.175 -87527.174 158453.864 -87660.144 158456.137 -87670.232 158531.673 -87911.266 158535.564 -87920.848 158649.452 -88146.308 158654.855 -88155.126 158804.038 -88358.958 158810.809 -88366.775 158988.755 -88541.031 158983.556 -88544.505 158966.005 -88562.056 158896.077 -88666.711 158886.579 -88689.642 158863.237 -88806.99 158862.024 -88819.31 158862.024 -90200.84 157293.466 -91769.399 154405.738 -91769.399 154437.919 -91747.529 154444.67 -91742.235 154670.114 -91539.245 154676.085 -91533.083 154871.895 -91301.374 154876.975 -91294.459 155039.526 -91038.319 155043.62 -91030.779 155169.905 -90754.949 155172.937 -90746.923 155260.619 -90456.505 155262.535 -90448.142 155310.043 -90148.186 155310.817 -90138.977 155314.474 -89789.706 155313.894 -89780.484 155272.678 -89479.6 155270.938 -89471.198 155189.357 -89179.008 155186.493 -89170.921 155066.012 -88892.505 155062.077 -88884.881 154904.926 -88625.393 154899.992 -88618.374 154709.079 -88382.615 154703.238 -88376.33 154482.095 -88168.662 154475.455 -88163.228 154228.174 -87987.494 154220.858 -87983.011 153952.014 -87842.463 153944.158 -87839.014 153658.729 -87736.254 153650.477 -87733.903 153353.741 -87670.829 153345.246 -87669.621 153042.697 -87647.403 153034.117 -87647.358 152731.35 -87666.406 152722.843 -87667.526 152425.464 -87727.489 152417.188 -87729.753 152130.697 -87829.519 152122.804 -87832.886 151852.505 -87970.611 151845.143 -87975.017 151596.034 -88148.152 151589.338 -88153.516 151366.033 -88358.857 151360.127 -88365.08 151166.755 -88598.826 151161.748 -88605.794 151001.888 -88863.622 150997.873 -88871.204 150874.483 -89148.342 150871.535 -89156.399 150786.898 -89447.719 150785.07 -89456.102 150740.754 -89756.212 150740.081 -89764.766 150736.904 -90068.114 150737.398 -90076.68 150775.42 -90377.653 150777.072 -90386.072 150855.589 -90679.101 150858.368 -90687.218 150975.927 -90966.879 150979.782 -90974.544 151134.207 -91235.663 151139.067 -91242.734 151327.501 -91480.479 151333.276 -91486.824 151552.232 -91696.797 151558.814 -91702.301 151651.167 -91769.399 150365.036 -91769.399 149698.54 -91102.903 149739.526 -91038.319 149743.62 -91030.779 149869.905 -90754.949 149872.937 -90746.923 149960.619 -90456.505 149962.535 -90448.142 150010.043 -90148.186 150010.817 -90138.977 150014.474 -89789.706 150013.894 -89780.484 149972.678 -89479.6 149970.938 -89471.198 149889.357 -89179.008 149886.493 -89170.921 149766.012 -88892.505 149762.077 -88884.881 149604.926 -88625.393 149599.992 -88618.374 149409.079 -88382.615 149403.238 -88376.33 149182.095 -88168.662 149175.455 -88163.228 148928.174 -87987.494 148920.858 -87983.011 148652.014 -87842.463 148644.158 -87839.014 148358.729 -87736.254 148350.477 -87733.903 148053.741 -87670.829 148045.246 -87669.621 147742.697 -87647.403 147734.117 -87647.358 147431.35 -87666.406 147422.843 -87667.526 147125.464 -87727.489 147117.188 -87729.753 146830.697 -87829.519 146822.804 -87832.886 146552.505 -87970.611 146545.143 -87975.017 146296.034 -88148.152 146289.338 -88153.516 146066.033 -88358.857 146060.127 -88365.08 145866.755 -88598.826 145861.748 -88605.794 145701.888 -88863.622 145697.873 -88871.204 145574.483 -89148.342 145571.535 -89156.399 145486.898 -89447.719 145485.07 -89456.102 145440.754 -89756.212 145440.081 -89764.766 145436.904 -90068.114 145437.398 -90076.68 145475.42 -90377.653 145477.072 -90386.072 145555.589 -90679.101 145558.368 -90687.218 145675.927 -90966.879 145679.782 -90974.544 145834.207 -91235.663 145839.067 -91242.734 146027.501 -91480.479 146033.276 -91486.824 146252.232 -91696.797 146258.814 -91702.301 146504.242 -91880.614 146511.51 -91885.173 146778.866 -92028.528 146786.686 -92032.059 147071.025 -92137.804 147079.251 -92140.241 147168.571 -92160.206 147034.633 -92189.165 147026.909 -92191.358 146728.775 -92296.933 146721.392 -92300.09 146439.09 -92442.691 146432.168 -92446.761 146170.273 -92624.076 146163.924 -92628.992 145926.683 -92838.148 145921.011 -92843.831 145712.268 -93081.437 145707.363 -93087.794 145530.505 -93349.998 145526.448 -93356.927 145384.339 -93639.478 145381.195 -93646.867 145276.141 -93945.185 145273.962 -93952.913 145207.665 -94262.161 145206.485 -94270.103 145192.977 -94430.973 145267.853 -94512.4 147524.592 -94512.401 147524.593 -94512.4 150186.626 -94512.401 150261.885 -94426.886 150227.765 -94160.538 150226.239 -94152.654 150146.516 -93846.593 150144.002 -93838.968 150026.035 -93545.516 150022.572 -93538.271 149868.275 -93262.188 149863.919 -93255.442 149675.791 -93001.203 149670.613 -92995.066 149451.706 -92766.791 149445.791 -92761.361 149199.652 -92562.752 149193.095 -92558.118 148923.716 -92392.395 148916.623 -92388.631 148628.369 -92258.479 148620.855 -92255.647 148318.399 -92163.178 148310.587 -92161.324 148302.092 -92159.872 148304.13 -92159.483 148312.429 -92157.306 148599.95 -92060.544 148607.877 -92057.261 148879.604 -91922.374 148887.011 -91918.046 148891.416 -91915.053 149705.413 -92729.051 149747.031 -92778.65 149763.921 -92792.822 149820.005 -92825.201 149873.048 -92862.342 149893.028 -92871.659 149906.923 -92875.382 149919.38 -92882.574 149940.096 -92890.114 150003.864 -92901.359 150066.42 -92918.121 150088.383 -92920.042 150152.889 -92914.399 151523.129 -92914.399 151366.033 -93058.857 151360.127 -93065.08 151166.755 -93298.826 151161.748 -93305.794 151001.888 -93563.622 150997.873 -93571.204 150874.483 -93848.342 150871.535 -93856.399 150786.898 -94147.719 150785.07 -94156.102 150740.754 -94456.212 150740.081 -94464.766 150736.904 -94768.114 150737.398 -94776.68 150775.42 -95077.653 150777.072 -95086.072 150855.589 -95379.101 150858.368 -95387.218 150975.927 -95666.879 150979.782 -95674.544 151134.207 -95935.663 151139.067 -95942.734 151327.501 -96180.479 151333.276 -96186.824 151520.536 -96366.401 149598.895 -96366.401 149603.017 -96362.434 149608.437 -96356.509 149806.616 -96110.024 149811.239 -96103.459 149976.491 -95833.789 149980.242 -95826.69 150109.891 -95538.211 150112.709 -95530.692 150204.652 -95228.075 150206.492 -95220.26 150267.807 -94857.745 150192.305 -94768.4 147928.208 -94768.399 147928.207 -94768.4 145265.318 -94768.399 145190.9 -94846.134 145193.654 -94909.266 145194.514 -94917.252 145248.347 -95228.914 145250.215 -95236.723 145343.213 -95539.015 145346.057 -95546.524 145476.711 -95834.55 145480.487 -95841.637 145646.681 -96110.727 145651.327 -96117.276 145850.365 -96363.068 145853.435 -96366.401 143928.892 -96366.401 144070.114 -96239.245 144076.085 -96233.083 144271.895 -96001.374 144276.975 -95994.459 144439.526 -95738.319 144443.62 -95730.779 144569.905 -95454.949 144572.937 -95446.923 144660.619 -95156.505 144662.535 -95148.142 144710.043 -94848.186 144710.817 -94838.977 144714.474 -94489.706 144713.894 -94480.484 144672.678 -94179.6 144670.938 -94171.198 144589.357 -93879.008 144586.493 -93870.921 144466.012 -93592.505 144462.077 -93584.881 144431.631 -93534.608 145218.487 -92747.752 145274.546 -92700.713 145288.717 -92683.824 145325.308 -92620.449 145367.284 -92560.501 145376.602 -92540.518 145381.059 -92523.885 145389.668 -92508.974 145397.208 -92488.256 145409.917 -92416.186 145428.857 -92345.498 145430.778 -92323.535 145424.401 -92250.637 145424.401 -85936.793 145427.68 -85940.004 145435.637 -85946.61 145642.548 -86091.492 145651.477 -86096.71 145879.273 -86205.851 145888.935 -86209.54 146131.498 -86280.012 146141.632 -86282.073 146243.709 -86294.246 146328.4 -86219.054 146328.4 -84581 146584.4 -84581 146584.4 -86221.301 146677.812 -86296.944 146912.445 -86247.07 146922.35 -86244.099 147157.528 -86151.933 147166.815 -86147.384 147383.782 -86018.046 147392.201 -86012.041 147585.13 -85849.003 147592.455 -85841.703 147756.166 -85649.344 147762.201 -85640.946 147875.294 -85452.725 147948.063 -85559.802 147955.171 -85568.488 148115.296 -85732 148123.829 -85739.288 148310.378 -85871.863 148320.068 -85877.525 148527.146 -85974.968 148537.686 -85978.825 148758.746 -86038.058 148769.802 -86039.988 148997.857 -86059.138 149009.08 -86059.079 149236.923 -86037.542 149247.958 -86035.496 149468.387 -85973.951 149478.885 -85969.984 149684.931 -85870.378 149694.561 -85864.614 149879.712 -85730.095 149888.169 -85722.717 150046.572 -85557.536 150053.589 -85548.777 150180.237 -85358.157 150185.593 -85348.293 150265.857 -85162.813 150353.968 -85360.711 150359.426 -85370.517 150488.063 -85559.802 150495.171 -85568.488 150655.296 -85732 150663.829 -85739.288 150850.378 -85871.863 150860.068 -85877.525 151067.146 -85974.968 151077.686 -85978.825 151298.746 -86038.058 151309.802 -86039.988 151537.857 -86059.138 151549.08 -86059.079 151776.923 -86037.542 151787.958 -86035.496 152008.387 -85973.951 152018.885 -85969.984 152224.931 -85870.378 152234.561 -85864.614 152419.712 -85730.095 152428.169 -85722.717 152586.572 -85557.536 152593.589 -85548.777 152720.237 -85358.157 152725.593 -85348.293 152764.324 -85258.791 152764.324 -85489.89 152765.537 -85502.21 152788.879 -85619.558 152798.377 -85642.489 152868.305 -85747.144 152885.856 -85764.695 152990.511 -85834.623 153013.442 -85844.121 153130.79 -85867.463 153143.11 -85868.676 155085.89 -85868.676 155098.21 -85867.463 155215.558 -85844.121 155238.489 -85834.623 155343.144 -85764.695 155360.695 -85747.144 155430.623 -85642.489 155440.121 -85619.558 155448.755 -85576.15 155625.78 -85749.504 155633.737 -85756.11 155840.648 -85900.992 155849.577 -85906.21 156077.373 -86015.351 156087.035 -86019.04 156329.598 -86089.512 156339.732 -86091.573 156441.809 -86103.746 156526.5 -86028.554 156526.5 -84720.309 156782.5 -84720.309 156782.5 -86030.801 156875.912 -86106.444 157110.545 -86056.57 157120.45 -86053.599 157355.628 -85961.433 157364.915 -85956.884 157581.882 -85827.546 157590.301 -85821.541 157783.23 -85658.503 157790.555 -85651.203 157954.266 -85458.844 157960.301 -85450.446 158090.395 -85233.931 158094.977 -85224.661 158187.963 -84989.806 158190.97 -84979.911 158242.785 -84740.253 158167.136 -84646.5 156856.309 -84646.5 156782.5 -84720.309 156526.5 -84720.309 156526.5 -84390.5 158164.134 -84390.5 158239.619 -84301.491 158211.674 -84132.696 158209.155 -84122.666 158127.753 -83883.55 158123.63 -83874.066 158004.267 -83651.455 157998.649 -83642.771 157938.757 -83565 161164 -83565 161164 -83660.248"/><path d="M 161164 -83660.248 161143.989 -83646.877 161121.058 -83637.379 161003.71 -83614.037 160991.39 -83612.824 159048.61 -83612.824 159036.29 -83614.037 158918.942 -83637.379 158896.011 -83646.877 158791.356 -83716.805 158773.805 -83734.356 158703.877 -83839.011 158694.379 -83861.942 158671.037 -83979.29 158669.824 -83991.61 158669.824 -85934.39 158671.037 -85946.71 158694.379 -86064.058 158703.877 -86086.989 158773.805 -86191.644 158791.356 -86209.195 158833.013 -86237.029 158697.647 -86404.193 158691.82 -86412.736 158567.054 -86632.364 158562.699 -86641.744 158475.479 -86878.8 158472.716 -86888.766 158433.731 -87093.131 158509.318 -87184.5 160148 -87184.5 160148 -87440.5 158510.519 -87440.5 158435.175 -87527.174 158453.864 -87660.144 158456.137 -87670.232 158531.673 -87911.266 158535.564 -87920.848 158649.452 -88146.308 158654.855 -88155.126 158804.038 -88358.958 158810.809 -88366.775 158988.755 -88541.031 158983.556 -88544.505 158966.005 -88562.056 158896.077 -88666.711 158886.579 -88689.642 158863.237 -88806.99 158862.024 -88819.31 158862.024 -90200.84 157293.466 -91769.399 154405.738 -91769.399 154437.919 -91747.529 154444.67 -91742.235 154670.114 -91539.245 154676.085 -91533.083 154871.895 -91301.374 154876.975 -91294.459 155039.526 -91038.319 155043.62 -91030.779 155169.905 -90754.949 155172.937 -90746.923 155260.619 -90456.505 155262.535 -90448.142 155310.043 -90148.186 155310.817 -90138.977 155314.474 -89789.706 155313.894 -89780.484 155272.678 -89479.6 155270.938 -89471.198 155189.357 -89179.008 155186.493 -89170.921 155066.012 -88892.505 155062.077 -88884.881 154904.926 -88625.393 154899.992 -88618.374 154709.079 -88382.615 154703.238 -88376.33 154482.095 -88168.662 154475.455 -88163.228 154228.174 -87987.494 154220.858 -87983.011 153952.014 -87842.463 153944.158 -87839.014 153658.729 -87736.254 153650.477 -87733.903 153353.741 -87670.829 153345.246 -87669.621 153042.697 -87647.403 153034.117 -87647.358 152731.35 -87666.406 152722.843 -87667.526 152425.464 -87727.489 152417.188 -87729.753 152130.697 -87829.519 152122.804 -87832.886 151852.505 -87970.611 151845.143 -87975.017 151596.034 -88148.152 151589.338 -88153.516 151366.033 -88358.857 151360.127 -88365.08 151166.755 -88598.826 151161.748 -88605.794 151001.888 -88863.622 150997.873 -88871.204 150874.483 -89148.342 150871.535 -89156.399 150786.898 -89447.719 150785.07 -89456.102 150740.754 -89756.212 150740.081 -89764.766 150736.904 -90068.114 150737.398 -90076.68 150775.42 -90377.653 150777.072 -90386.072 150855.589 -90679.101 150858.368 -90687.218 150975.927 -90966.879 150979.782 -90974.544 151134.207 -91235.663 151139.067 -91242.734 151327.501 -91480.479 151333.276 -91486.824 151552.232 -91696.797 151558.814 -91702.301 151651.167 -91769.399 150365.036 -91769.399 149698.54 -91102.903 149739.526 -91038.319 149743.62 -91030.779 149869.905 -90754.949 149872.937 -90746.923 149960.619 -90456.505 149962.535 -90448.142 150010.043 -90148.186 150010.817 -90138.977 150014.474 -89789.706 150013.894 -89780.484 149972.678 -89479.6 149970.938 -89471.198 149889.357 -89179.008 149886.493 -89170.921 149766.012 -88892.505 149762.077 -88884.881 149604.926 -88625.393 149599.992 -88618.374 149409.079 -88382.615 149403.238 -88376.33 149182.095 -88168.662 149175.455 -88163.228 148928.174 -87987.494 148920.858 -87983.011 148652.014 -87842.463 148644.158 -87839.014 148358.729 -87736.254 148350.477 -87733.903 148053.741 -87670.829 148045.246 -87669.621 147742.697 -87647.403 147734.117 -87647.358 147431.35 -87666.406 147422.843 -87667.526 147125.464 -87727.489 147117.188 -87729.753 146830.697 -87829.519 146822.804 -87832.886 146552.505 -87970.611 146545.143 -87975.017 146296.034 -88148.152 146289.338 -88153.516 146066.033 -88358.857 146060.127 -88365.08 145866.755 -88598.826 145861.748 -88605.794 145701.888 -88863.622 145697.873 -88871.204 145574.483 -89148.342 145571.535 -89156.399 145486.898 -89447.719 145485.07 -89456.102 145440.754 -89756.212 145440.081 -89764.766 145436.904 -90068.114 145437.398 -90076.68 145475.42 -90377.653 145477.072 -90386.072 145555.589 -90679.101 145558.368 -90687.218 145675.927 -90966.879 145679.782 -90974.544 145834.207 -91235.663 145839.067 -91242.734 146027.501 -91480.479 146033.276 -91486.824 146252.232 -91696.797 146258.814 -91702.301 146504.242 -91880.614 146511.51 -91885.173 146778.866 -92028.528 146786.686 -92032.059 147071.025 -92137.804 147079.251 -92140.241 147168.571 -92160.206 147034.633 -92189.165 147026.909 -92191.358 146728.775 -92296.933 146721.392 -92300.09 146439.09 -92442.691 146432.168 -92446.761 146170.273 -92624.076 146163.924 -92628.992 145926.683 -92838.148 145921.011 -92843.831 145712.268 -93081.437 145707.363 -93087.794 145530.505 -93349.998 145526.448 -93356.927 145384.339 -93639.478 145381.195 -93646.867 145276.141 -93945.185 145273.962 -93952.913 145207.665 -94262.161 145206.485 -94270.103 145192.977 -94430.973 145267.853 -94512.4 147524.592 -94512.401 147524.593 -94512.4 150186.626 -94512.401 150261.885 -94426.886 150227.765 -94160.538 150226.239 -94152.654 150146.516 -93846.593 150144.002 -93838.968 150026.035 -93545.516 150022.572 -93538.271 149868.275 -93262.188 149863.919 -93255.442 149675.791 -93001.203 149670.613 -92995.066 149451.706 -92766.791 149445.791 -92761.361 149199.652 -92562.752 149193.095 -92558.118 148923.716 -92392.395 148916.623 -92388.631 148628.369 -92258.479 148620.855 -92255.647 148318.399 -92163.178 148310.587 -92161.324 148302.092 -92159.872 148304.13 -92159.483 148312.429 -92157.306 148599.95 -92060.544 148607.877 -92057.261 148879.604 -91922.374 148887.011 -91918.046 148891.416 -91915.053 149705.413 -92729.051 149747.031 -92778.65 149763.921 -92792.822 149820.005 -92825.201 149873.048 -92862.342 149893.028 -92871.659 149906.923 -92875.382 149919.38 -92882.574 149940.096 -92890.114 150003.864 -92901.359 150066.42 -92918.121 150088.383 -92920.042 150152.889 -92914.399 151523.129 -92914.399 151366.033 -93058.857 151360.127 -93065.08 151166.755 -93298.826 151161.748 -93305.794 151001.888 -93563.622 150997.873 -93571.204 150874.483 -93848.342 150871.535 -93856.399 150786.898 -94147.719 150785.07 -94156.102 150740.754 -94456.212 150740.081 -94464.766 150736.904 -94768.114 150737.398 -94776.68 150775.42 -95077.653 150777.072 -95086.072 150855.589 -95379.101 150858.368 -95387.218 150975.927 -95666.879 150979.782 -95674.544 151134.207 -95935.663 151139.067 -95942.734 151327.501 -96180.479 151333.276 -96186.824 151520.536 -96366.401 149598.895 -96366.401 149603.017 -96362.434 149608.437 -96356.509 149806.616 -96110.024 149811.239 -96103.459 149976.491 -95833.789 149980.242 -95826.69 150109.891 -95538.211 150112.709 -95530.692 150204.652 -95228.075 150206.492 -95220.26 150267.807 -94857.745 150192.305 -94768.4 147928.208 -94768.399 147928.207 -94768.4 145265.318 -94768.399 145190.9 -94846.134 145193.654 -94909.266 145194.514 -94917.252 145248.347 -95228.914 145250.215 -95236.723 145343.213 -95539.015 145346.057 -95546.524 145476.711 -95834.55 145480.487 -95841.637 145646.681 -96110.727 145651.327 -96117.276 145850.365 -96363.068 145853.435 -96366.401 143928.892 -96366.401 144070.114 -96239.245 144076.085 -96233.083 144271.895 -96001.374 144276.975 -95994.459 144439.526 -95738.319 144443.62 -95730.779 144569.905 -95454.949 144572.937 -95446.923 144660.619 -95156.505 144662.535 -95148.142 144710.043 -94848.186 144710.817 -94838.977 144714.474 -94489.706 144713.894 -94480.484 144672.678 -94179.6 144670.938 -94171.198 144589.357 -93879.008 144586.493 -93870.921 144466.012 -93592.505 144462.077 -93584.881 144431.631 -93534.608 145218.487 -92747.752 145274.546 -92700.713 145288.717 -92683.824 145325.308 -92620.449 145367.284 -92560.501 145376.602 -92540.518 145381.059 -92523.885 145389.668 -92508.974 145397.208 -92488.256 145409.917 -92416.186 145428.857 -92345.498 145430.778 -92323.535 145424.401 -92250.637 145424.401 -85936.793 145427.68 -85940.004 145435.637 -85946.61 145642.548 -86091.492 145651.477 -86096.71 145879.273 -86205.851 145888.935 -86209.54 146131.498 -86280.012 146141.632 -86282.073 146243.709 -86294.246 146328.4 -86219.054 146328.4 -84581 146584.4 -84581 146584.4 -86221.301 146677.812 -86296.944 146912.445 -86247.07 146922.35 -86244.099 147157.528 -86151.933 147166.815 -86147.384 147383.782 -86018.046 147392.201 -86012.041 147585.13 -85849.003 147592.455 -85841.703 147756.166 -85649.344 147762.201 -85640.946 147875.294 -85452.725 147948.063 -85559.802 147955.171 -85568.488 148115.296 -85732 148123.829 -85739.288 148310.378 -85871.863 148320.068 -85877.525 148527.146 -85974.968 148537.686 -85978.825 148758.746 -86038.058 148769.802 -86039.988 148997.857 -86059.138 149009.08 -86059.079 149236.923 -86037.542 149247.958 -86035.496 149468.387 -85973.951 149478.885 -85969.984 149684.931 -85870.378 149694.561 -85864.614 149879.712 -85730.095 149888.169 -85722.717 150046.572 -85557.536 150053.589 -85548.777 150180.237 -85358.157 150185.593 -85348.293 150265.857 -85162.813 150353.968 -85360.711 150359.426 -85370.517 150488.063 -85559.802 150495.171 -85568.488 150655.296 -85732 150663.829 -85739.288 150850.378 -85871.863 150860.068 -85877.525 151067.146 -85974.968 151077.686 -85978.825 151298.746 -86038.058 151309.802 -86039.988 151537.857 -86059.138 151549.08 -86059.079 151776.923 -86037.542 151787.958 -86035.496 152008.387 -85973.951 152018.885 -85969.984 152224.931 -85870.378 152234.561 -85864.614 152419.712 -85730.095 152428.169 -85722.717 152586.572 -85557.536 152593.589 -85548.777 152720.237 -85358.157 152725.593 -85348.293 152764.324 -85258.791 152764.324 -85489.89 152765.537 -85502.21 152788.879 -85619.558 152798.377 -85642.489 152868.305 -85747.144 152885.856 -85764.695 152990.511 -85834.623 153013.442 -85844.121 153130.79 -85867.463 153143.11 -85868.676 155085.89 -85868.676 155098.21 -85867.463 155215.558 -85844.121 155238.489 -85834.623 155343.144 -85764.695 155360.695 -85747.144 155430.623 -85642.489 155440.121 -85619.558 155448.755 -85576.15 155625.78 -85749.504 155633.737 -85756.11 155840.648 -85900.992 155849.577 -85906.21 156077.373 -86015.351 156087.035 -86019.04 156329.598 -86089.512 156339.732 -86091.573 156441.809 -86103.746 156526.5 -86028.554 156526.5 -84720.309 156782.5 -84720.309 156782.5 -86030.801 156875.912 -86106.444 157110.545 -86056.57 157120.45 -86053.599 157355.628 -85961.433 157364.915 -85956.884 157581.882 -85827.546 157590.301 -85821.541 157783.23 -85658.503 157790.555 -85651.203 157954.266 -85458.844 157960.301 -85450.446 158090.395 -85233.931 158094.977 -85224.661 158187.963 -84989.806 158190.97 -84979.911 158242.785 -84740.253 158167.136 -84646.5 156856.309 -84646.5 156782.5 -84720.309 156526.5 -84720.309 156526.5 -84390.5 158164.134 -84390.5 158239.619 -84301.491 158211.674 -84132.696 158209.155 -84122.666 158127.753 -83883.55 158123.63 -83874.066 158004.267 -83651.455 157998.649 -83642.771 157938.757 -83565 161164 -83565 161164 -83660.248" fill="none" stroke-width="254"/><path d="M 140133.424 -88546.863 140133.424 -91854.59 140134.637 -91866.91 140157.979 -91984.258 140167.477 -92007.189 140237.405 -92111.844 140254.956 -92129.395 140359.611 -92199.323 140382.542 -92208.821 140499.89 -92232.163 140512.21 -92233.376 143933.984 -92233.376 143531.215 -92636.146 143352.014 -92542.463 143344.158 -92539.014 143058.729 -92436.254 143050.477 -92433.903 142753.741 -92370.829 142745.246 -92369.621 142442.697 -92347.403 142434.117 -92347.358 142131.35 -92366.406 142122.843 -92367.526 141825.464 -92427.489 141817.188 -92429.753 141530.697 -92529.519 141522.804 -92532.886 141252.505 -92670.611 141245.143 -92675.017 140996.034 -92848.152 140989.338 -92853.516 140766.033 -93058.857 140760.127 -93065.08 140566.755 -93298.826 140561.748 -93305.794 140401.888 -93563.622 140397.873 -93571.204 140274.483 -93848.342 140271.535 -93856.399 140186.898 -94147.719 140185.07 -94156.102 140140.754 -94456.212 140140.081 -94464.766 140136.904 -94768.114 140137.398 -94776.68 140161.526 -94967.672 138669.001 -93475.148 138669.001 -90877.491 138674.644 -90812.985 138672.723 -90791.022 138655.961 -90728.466 138644.716 -90664.698 138637.176 -90643.982 138629.984 -90631.525 138626.261 -90617.63 138616.944 -90597.65 138579.804 -90544.608 138547.424 -90488.522 138533.252 -90471.633 138483.645 -90430.008 138032.57 -89978.934 138081.08 -89765.416 138082.644 -89752.302 138086.124 -89503.006 138084.927 -89489.854 138042.299 -89274.569 138038.737 -89262.77 137955.274 -89060.271 137949.487 -89049.389 137828.281 -88866.958 137820.491 -88857.407 137666.159 -88701.993 137656.662 -88694.137 137475.082 -88571.66 137464.241 -88565.798 137362.293 -88522.943 137368.972 -88522.088 137616.045 -88469.57 137625.95 -88466.599 137861.128 -88374.433 137870.415 -88369.884 138087.382 -88240.546 138095.801 -88234.541 138288.73 -88071.503 138296.055 -88064.203 138459.766 -87871.844 138465.801 -87863.446 138595.895 -87646.931 138600.477 -87637.661 138693.463 -87402.806 138696.47 -87392.911 138746.779 -87160.217 140133.424 -88546.863"/><path d="M 140133.424 -88546.863 140133.424 -91854.59 140134.637 -91866.91 140157.979 -91984.258 140167.477 -92007.189 140237.405 -92111.844 140254.956 -92129.395 140359.611 -92199.323 140382.542 -92208.821 140499.89 -92232.163 140512.21 -92233.376 143933.984 -92233.376 143531.215 -92636.146 143352.014 -92542.463 143344.158 -92539.014 143058.729 -92436.254 143050.477 -92433.903 142753.741 -92370.829 142745.246 -92369.621 142442.697 -92347.403 142434.117 -92347.358 142131.35 -92366.406 142122.843 -92367.526 141825.464 -92427.489 141817.188 -92429.753 141530.697 -92529.519 141522.804 -92532.886 141252.505 -92670.611 141245.143 -92675.017 140996.034 -92848.152 140989.338 -92853.516 140766.033 -93058.857 140760.127 -93065.08 140566.755 -93298.826 140561.748 -93305.794 140401.888 -93563.622 140397.873 -93571.204 140274.483 -93848.342 140271.535 -93856.399 140186.898 -94147.719 140185.07 -94156.102 140140.754 -94456.212 140140.081 -94464.766 140136.904 -94768.114 140137.398 -94776.68 140161.526 -94967.672 138669.001 -93475.148 138669.001 -90877.491 138674.644 -90812.985 138672.723 -90791.022 138655.961 -90728.466 138644.716 -90664.698 138637.176 -90643.982 138629.984 -90631.525 138626.261 -90617.63 138616.944 -90597.65 138579.804 -90544.608 138547.424 -90488.522 138533.252 -90471.633 138483.645 -90430.008 138032.57 -89978.934 138081.08 -89765.416 138082.644 -89752.302 138086.124 -89503.006 138084.927 -89489.854 138042.299 -89274.569 138038.737 -89262.77 137955.274 -89060.271 137949.487 -89049.389 137828.281 -88866.958 137820.491 -88857.407 137666.159 -88701.993 137656.662 -88694.137 137475.082 -88571.66 137464.241 -88565.798 137362.293 -88522.943 137368.972 -88522.088 137616.045 -88469.57 137625.95 -88466.599 137861.128 -88374.433 137870.415 -88369.884 138087.382 -88240.546 138095.801 -88234.541 138288.73 -88071.503 138296.055 -88064.203 138459.766 -87871.844 138465.801 -87863.446 138595.895 -87646.931 138600.477 -87637.661 138693.463 -87402.806 138696.47 -87392.911 138746.779 -87160.217 140133.424 -88546.863" fill="none" stroke-width="254"/><path d="M 139877.254 -83596.914 139870.109 -83604.391 139711.147 -83800.693 139705.32 -83809.236 139580.554 -84028.864 139576.199 -84038.244 139488.979 -84275.3 139486.216 -84285.266 139447.231 -84489.631 139522.818 -84581 141161.5 -84581 141161.5 -86221.301 141254.912 -86296.944 141489.545 -86247.07 141499.45 -86244.099 141734.628 -86151.933 141743.915 -86147.384 141960.882 -86018.046 141969.301 -86012.041 142162.23 -85849.003 142169.555 -85841.703 142333.266 -85649.344 142339.301 -85640.946 142469.395 -85424.431 142473.977 -85415.161 142566.224 -85182.172 142566.224 -85680.39 142567.437 -85692.71 142590.779 -85810.058 142600.277 -85832.989 142670.205 -85937.644 142687.756 -85955.195 142792.411 -86025.123 142815.342 -86034.621 142932.69 -86057.963 142945.01 -86059.176 144152.401 -86059.176 144152.401 -87647.424 141032.863 -87647.424 138510.176 -85124.738 138510.176 -84923.674 139448.675 -84923.674 139467.364 -85056.644 139469.637 -85066.732 139545.173 -85307.766 139549.064 -85317.348 139662.952 -85542.808 139668.355 -85551.626 139817.538 -85755.458 139824.309 -85763.275 140004.78 -85940.004 140012.737 -85946.61 140219.648 -86091.492 140228.577 -86096.71 140456.373 -86205.851 140466.035 -86209.54 140708.598 -86280.012 140718.732 -86282.073 140820.809 -86294.246 140905.5 -86219.054 140905.5 -84910.809 140831.691 -84837 139524.019 -84837 139448.675 -84923.674 138510.176 -84923.674 138510.176 -83610.61 138508.963 -83598.29 138502.341 -83565 139913.2 -83565 139877.254 -83596.914"/><path d="M 139877.254 -83596.914 139870.109 -83604.391 139711.147 -83800.693 139705.32 -83809.236 139580.554 -84028.864 139576.199 -84038.244 139488.979 -84275.3 139486.216 -84285.266 139447.231 -84489.631 139522.818 -84581 141161.5 -84581 141161.5 -86221.301 141254.912 -86296.944 141489.545 -86247.07 141499.45 -86244.099 141734.628 -86151.933 141743.915 -86147.384 141960.882 -86018.046 141969.301 -86012.041 142162.23 -85849.003 142169.555 -85841.703 142333.266 -85649.344 142339.301 -85640.946 142469.395 -85424.431 142473.977 -85415.161 142566.224 -85182.172 142566.224 -85680.39 142567.437 -85692.71 142590.779 -85810.058 142600.277 -85832.989 142670.205 -85937.644 142687.756 -85955.195 142792.411 -86025.123 142815.342 -86034.621 142932.69 -86057.963 142945.01 -86059.176 144152.401 -86059.176 144152.401 -87647.424 141032.863 -87647.424 138510.176 -85124.738 138510.176 -84923.674 139448.675 -84923.674 139467.364 -85056.644 139469.637 -85066.732 139545.173 -85307.766 139549.064 -85317.348 139662.952 -85542.808 139668.355 -85551.626 139817.538 -85755.458 139824.309 -85763.275 140004.78 -85940.004 140012.737 -85946.61 140219.648 -86091.492 140228.577 -86096.71 140456.373 -86205.851 140466.035 -86209.54 140708.598 -86280.012 140718.732 -86282.073 140820.809 -86294.246 140905.5 -86219.054 140905.5 -84910.809 140831.691 -84837 139524.019 -84837 139448.675 -84923.674 138510.176 -84923.674 138510.176 -83610.61 138508.963 -83598.29 138502.341 -83565 139913.2 -83565 139877.254 -83596.914" fill="none" stroke-width="254"/></g><g id="FXNSnJ5svXZcSYoQV62r_bottom_silkscreen"><g mask="url(#w8HUdo8HEXnG61DlAU3d_clear-1)"><path d="M 159613.561 -102847.8 159651.657 -102828.752 159708.8 -102828.752 159765.942 -102847.8 159804.038 -102885.895 159823.085 -102923.99 159842.133 -103000.18 159842.133 -103057.323 159823.085 -103133.514 159804.038 -103171.609 159765.942 -103209.704 159708.8 -103228.752 159670.704 -103228.752 159613.561 -103209.704 159594.514 -103190.657 159594.514 -103057.323 159670.704 -103057.323 M 159423.085 -103228.752 159423.085 -102828.752 159194.514 -103228.752 159194.514 -102828.752 M 159004.038 -103228.752 159004.038 -102828.752 158908.8 -102828.752 158851.657 -102847.8 158813.561 -102885.895 158794.514 -102923.99 158775.466 -103000.18 158775.466 -103057.323 158794.514 -103133.514 158813.561 -103171.609 158851.657 -103209.704 158908.8 -103228.752 159004.038 -103228.752" fill="none" stroke-width="80"/><path d="M 142087.561 -83315.2 142125.657 -83296.152 142182.8 -83296.152 142239.942 -83315.2 142278.038 -83353.295 142297.085 -83391.39 142316.133 -83467.58 142316.133 -83524.723 142297.085 -83600.914 142278.038 -83639.009 142239.942 -83677.104 142182.8 -83696.152 142144.704 -83696.152 142087.561 -83677.104 142068.514 -83658.057 142068.514 -83524.723 142144.704 -83524.723 M 141897.085 -83696.152 141897.085 -83296.152 141668.514 -83696.152 141668.514 -83296.152 M 141478.038 -83696.152 141478.038 -83296.152 141382.8 -83296.152 141325.657 -83315.2 141287.561 -83353.295 141268.514 -83391.39 141249.466 -83467.58 141249.466 -83524.723 141268.514 -83600.914 141287.561 -83639.009 141325.657 -83677.104 141382.8 -83696.152 141478.038 -83696.152 M 158875.357 -89488.928 158875.357 -88888.928 M 158532.5 -89488.928 158789.642 -89146.071 M 158532.5 -88888.928 158875.357 -89231.785 M 157961.071 -89488.928 158303.928 -89488.928 M 158132.5 -89488.928 158132.5 -88888.928 158189.642 -88974.642 158246.785 -89031.785 158303.928 -89060.357 M 159002.357 -95838.928 159002.357 -95238.928 M 158659.5 -95838.928 158916.642 -95496.071 M 158659.5 -95238.928 159002.357 -95581.785 M 158430.928 -95296.071 158402.357 -95267.5 158345.214 -95238.928 158202.357 -95238.928 158145.214 -95267.5 158116.642 -95296.071 158088.071 -95353.214 158088.071 -95410.357 158116.642 -95496.071 158459.5 -95838.928 158088.071 -95838.928 M 158796.028 -93076.685 158824.6 -93105.257 158910.314 -93133.828 158967.457 -93133.828 159053.171 -93105.257 159110.314 -93048.114 159138.885 -92990.971 159167.457 -92876.685 159167.457 -92790.971 159138.885 -92676.685 159110.314 -92619.542 159053.171 -92562.4 158967.457 -92533.828 158910.314 -92533.828 158824.6 -92562.4 158796.028 -92590.971 M 158567.457 -92962.4 158281.742 -92962.4 M 158624.6 -93133.828 158424.6 -92533.828 158224.6 -93133.828 M 159262.714 -91412.19 159548.428 -91412.19 159548.428 -90912.19 M 159062.714 -91150.285 158862.714 -91150.285 M 158777 -91412.19 159062.714 -91412.19 159062.714 -90912.19 158777 -90912.19 M 158519.857 -91412.19 158519.857 -90912.19 158377 -90912.19 158291.285 -90936 158234.142 -90983.619 158205.571 -91031.238 158177 -91126.476 158177 -91197.904 158205.571 -91293.142 158234.142 -91340.761 158291.285 -91388.38 158377 -91412.19 158519.857 -91412.19" fill="none" stroke-width="100"/><path d="M 158412.69 -85020.214 158769.833 -85020.214 158841.261 -85001.166 158888.88 -84963.071 158912.69 -84905.928 158912.69 -84867.833 M 158769.833 -85191.642 158769.833 -85382.119 M 158912.69 -85153.547 158412.69 -85286.88 158912.69 -85420.214 M 158865.071 -85782.119 158888.88 -85763.071 158912.69 -85705.928 158912.69 -85667.833 158888.88 -85610.69 158841.261 -85572.595 158793.642 -85553.547 158698.404 -85534.5 158626.976 -85534.5 158531.738 -85553.547 158484.119 -85572.595 158436.5 -85610.69 158412.69 -85667.833 158412.69 -85705.928 158436.5 -85763.071 158460.309 -85782.119 M 158912.69 -85953.547 158412.69 -85953.547 M 158912.69 -86182.119 158626.976 -86010.69 M 158412.69 -86182.119 158698.404 -85953.547" fill="none" stroke-width="80"/><path d="M 138805.409 -85629.685 138448.266 -85629.685 138376.838 -85648.733 138329.219 -85686.828 138305.409 -85743.971 138305.409 -85782.066 M 138448.266 -85458.257 138448.266 -85267.78 M 138305.409 -85496.352 138805.409 -85363.019 138305.409 -85229.685 M 138353.028 -84867.78 138329.219 -84886.828 138305.409 -84943.971 138305.409 -84982.066 138329.219 -85039.209 138376.838 -85077.304 138424.457 -85096.352 138519.695 -85115.4 138591.123 -85115.4 138686.361 -85096.352 138733.98 -85077.304 138781.6 -85039.209 138805.409 -84982.066 138805.409 -84943.971 138781.6 -84886.828 138757.79 -84867.78 M 138305.409 -84696.352 138805.409 -84696.352 M 138305.409 -84467.78 138591.123 -84639.209 M 138805.409 -84467.78 138519.695 -84696.352 M 155748.161 -87149.8 155748.161 -87716.466 155776.257 -87783.133 155804.352 -87816.466 155860.542 -87849.8 155944.828 -87849.8 156001.019 -87816.466 M 155748.161 -87583.133 155804.352 -87616.466 155916.733 -87616.466 155972.923 -87583.133 156001.019 -87549.8 156029.114 -87483.133 156029.114 -87283.133 156001.019 -87216.466 155972.923 -87183.133 155916.733 -87149.8 155804.352 -87149.8 155748.161 -87183.133 M 155467.209 -87616.466 155467.209 -87149.8 M 155467.209 -86916.466 155495.304 -86949.8 155467.209 -86983.133 155439.114 -86949.8 155467.209 -86916.466 155467.209 -86983.133 M 155270.542 -87149.8 155045.78 -87149.8 M 155186.257 -86916.466 155186.257 -87516.466 155158.161 -87583.133 155101.971 -87616.466 155045.78 -87616.466 M 154849.114 -87616.466 154849.114 -86916.466 M 154596.257 -87616.466 154596.257 -87249.8 154624.352 -87183.133 154680.542 -87149.8 154764.828 -87149.8 154821.019 -87183.133 154849.114 -87216.466 M 154062.447 -87149.8 154062.447 -87616.466 M 154315.304 -87149.8 154315.304 -87516.466 154287.209 -87583.133 154231.019 -87616.466 154146.733 -87616.466 154090.542 -87583.133 154062.447 -87549.8 M 153781.495 -87616.466 153781.495 -86916.466 M 153781.495 -87183.133 153725.304 -87149.8 153612.923 -87149.8 153556.733 -87183.133 153528.638 -87216.466 153500.542 -87283.133 153500.542 -87483.133 153528.638 -87549.8 153556.733 -87583.133 153612.923 -87616.466 153725.304 -87616.466 153781.495 -87583.133 M 153247.685 -87549.8 153219.59 -87583.133 153247.685 -87616.466 153275.78 -87583.133 153247.685 -87549.8 153247.685 -87616.466 M 152713.876 -87583.133 152770.066 -87616.466 152882.447 -87616.466 152938.638 -87583.133 152966.733 -87549.8 152994.828 -87483.133 152994.828 -87283.133 152966.733 -87216.466 152938.638 -87183.133 152882.447 -87149.8 152770.066 -87149.8 152713.876 -87183.133 M 152376.733 -87616.466 152432.923 -87583.133 152461.019 -87549.8 152489.114 -87483.133 152489.114 -87283.133 152461.019 -87216.466 152432.923 -87183.133 152376.733 -87149.8 152292.447 -87149.8 152236.257 -87183.133 152208.161 -87216.466 152180.066 -87283.133 152180.066 -87483.133 152208.161 -87549.8 152236.257 -87583.133 152292.447 -87616.466 152376.733 -87616.466 M 151927.209 -87616.466 151927.209 -87149.8 M 151927.209 -87216.466 151899.114 -87183.133 151842.923 -87149.8 151758.638 -87149.8 151702.447 -87183.133 151674.352 -87249.8 151674.352 -87616.466 M 151674.352 -87249.8 151646.257 -87183.133 151590.066 -87149.8 151505.78 -87149.8 151449.59 -87183.133 151421.495 -87249.8 151421.495 -87616.466 M 150719.114 -86883.133 151224.828 -87783.133 M 150522.447 -87616.466 150522.447 -87149.8 M 150522.447 -87283.133 150494.352 -87216.466 150466.257 -87183.133 150410.066 -87149.8 150353.876 -87149.8 M 150072.923 -87616.466 150129.114 -87583.133 150157.209 -87549.8 150185.304 -87483.133 150185.304 -87283.133 150157.209 -87216.466 150129.114 -87183.133 150072.923 -87149.8 149988.638 -87149.8 149932.447 -87183.133 149904.352 -87216.466 149876.257 -87283.133 149876.257 -87483.133 149904.352 -87549.8 149932.447 -87583.133 149988.638 -87616.466 150072.923 -87616.466 M 149370.542 -87583.133 149426.733 -87616.466 149539.114 -87616.466 149595.304 -87583.133 149623.4 -87549.8 149651.495 -87483.133 149651.495 -87283.133 149623.4 -87216.466 149595.304 -87183.133 149539.114 -87149.8 149426.733 -87149.8 149370.542 -87183.133 M 149117.685 -87616.466 149117.685 -86916.466 M 149061.495 -87349.8 148892.923 -87616.466 M 148892.923 -87149.8 149117.685 -87416.466 M 148555.78 -87616.466 148611.971 -87583.133 148640.066 -87549.8 148668.161 -87483.133 148668.161 -87283.133 148640.066 -87216.466 148611.971 -87183.133 148555.78 -87149.8 148471.495 -87149.8 148415.304 -87183.133 148387.209 -87216.466 148359.114 -87283.133 148359.114 -87483.133 148387.209 -87549.8 148415.304 -87583.133 148471.495 -87616.466 148555.78 -87616.466 M 148021.971 -87616.466 148078.161 -87583.133 148106.257 -87516.466 148106.257 -86916.466 M 147544.352 -87616.466 147544.352 -87249.8 147572.447 -87183.133 147628.638 -87149.8 147741.019 -87149.8 147797.209 -87183.133 M 147544.352 -87583.133 147600.542 -87616.466 147741.019 -87616.466 147797.209 -87583.133 147825.304 -87516.466 147825.304 -87449.8 147797.209 -87383.133 147741.019 -87349.8 147600.542 -87349.8 147544.352 -87316.466 M 146841.971 -86883.133 147347.685 -87783.133 M 146673.4 -87583.133 146617.209 -87616.466 146504.828 -87616.466 146448.638 -87583.133 146420.542 -87516.466 146420.542 -87483.133 146448.638 -87416.466 146504.828 -87383.133 146589.114 -87383.133 146645.304 -87349.8 146673.4 -87283.133 146673.4 -87249.8 146645.304 -87183.133 146589.114 -87149.8 146504.828 -87149.8 146448.638 -87183.133 M 146251.971 -87149.8 146027.209 -87149.8 M 146167.685 -86916.466 146167.685 -87516.466 146139.59 -87583.133 146083.4 -87616.466 146027.209 -87616.466 M 145746.257 -87616.466 145802.447 -87583.133 145830.542 -87549.8 145858.638 -87483.133 145858.638 -87283.133 145830.542 -87216.466 145802.447 -87183.133 145746.257 -87149.8 145661.971 -87149.8 145605.78 -87183.133 145577.685 -87216.466 145549.59 -87283.133 145549.59 -87483.133 145577.685 -87549.8 145605.78 -87583.133 145661.971 -87616.466 145746.257 -87616.466 M 145296.733 -87616.466 145296.733 -87149.8 M 145296.733 -87216.466 145268.638 -87183.133 145212.447 -87149.8 145128.161 -87149.8 145071.971 -87183.133 145043.876 -87249.8 145043.876 -87616.466 M 145043.876 -87249.8 145015.78 -87183.133 144959.59 -87149.8 144875.304 -87149.8 144819.114 -87183.133 144791.019 -87249.8 144791.019 -87616.466 M 144510.066 -87149.8 144510.066 -87849.8 M 144510.066 -87183.133 144453.876 -87149.8 144341.495 -87149.8 144285.304 -87183.133 144257.209 -87216.466 144229.114 -87283.133 144229.114 -87483.133 144257.209 -87549.8 144285.304 -87583.133 144341.495 -87616.466 144453.876 -87616.466 144510.066 -87583.133 M 143976.257 -87349.8 143526.733 -87349.8 M 143245.78 -87616.466 143245.78 -86916.466 M 143245.78 -87183.133 143189.59 -87149.8 143077.209 -87149.8 143021.019 -87183.133 142992.923 -87216.466 142964.828 -87283.133 142964.828 -87483.133 142992.923 -87549.8 143021.019 -87583.133 143077.209 -87616.466 143189.59 -87616.466 143245.78 -87583.133 M 142711.971 -87616.466 142711.971 -87149.8 M 142711.971 -87283.133 142683.876 -87216.466 142655.78 -87183.133 142599.59 -87149.8 142543.4 -87149.8 M 142121.971 -87583.133 142178.161 -87616.466 142290.542 -87616.466 142346.733 -87583.133 142374.828 -87516.466 142374.828 -87249.8 142346.733 -87183.133 142290.542 -87149.8 142178.161 -87149.8 142121.971 -87183.133 142093.876 -87249.8 142093.876 -87316.466 142374.828 -87383.133 M 141588.161 -87616.466 141588.161 -87249.8 141616.257 -87183.133 141672.447 -87149.8 141784.828 -87149.8 141841.019 -87183.133 M 141588.161 -87583.133 141644.352 -87616.466 141784.828 -87616.466 141841.019 -87583.133 141869.114 -87516.466 141869.114 -87449.8 141841.019 -87383.133 141784.828 -87349.8 141644.352 -87349.8 141588.161 -87316.466 M 141307.209 -87616.466 141307.209 -86916.466 M 141251.019 -87349.8 141082.447 -87616.466 M 141082.447 -87149.8 141307.209 -87416.466 M 140745.304 -87616.466 140801.495 -87583.133 140829.59 -87549.8 140857.685 -87483.133 140857.685 -87283.133 140829.59 -87216.466 140801.495 -87183.133 140745.304 -87149.8 140661.019 -87149.8 140604.828 -87183.133 140576.733 -87216.466 140548.638 -87283.133 140548.638 -87483.133 140576.733 -87549.8 140604.828 -87583.133 140661.019 -87616.466 140745.304 -87616.466 M 140042.923 -87149.8 140042.923 -87616.466 M 140295.78 -87149.8 140295.78 -87516.466 140267.685 -87583.133 140211.495 -87616.466 140127.209 -87616.466 140071.019 -87583.133 140042.923 -87549.8 M 139846.257 -87149.8 139621.495 -87149.8 M 139761.971 -86916.466 139761.971 -87516.466 139733.876 -87583.133 139677.685 -87616.466 139621.495 -87616.466" fill="none" stroke-width="100"/><path d="M 137746.609 -91370.933 137984.704 -91537.6 M 137746.609 -91656.647 138246.609 -91656.647 138246.609 -91466.171 138222.8 -91418.552 138198.99 -91394.742 138151.371 -91370.933 138079.942 -91370.933 138032.323 -91394.742 138008.514 -91418.552 137984.704 -91466.171 137984.704 -91656.647 M 138198.99 -91180.457 138222.8 -91156.647 138246.609 -91109.028 138246.609 -90989.98 138222.8 -90942.361 138198.99 -90918.552 138151.371 -90894.742 138103.752 -90894.742 138032.323 -90918.552 137746.609 -91204.266 137746.609 -90894.742" fill="none" stroke-width="80"/><path d="M 160577.2 -102322.285 160605.771 -102350.857 160691.485 -102379.428 160748.628 -102379.428 160834.342 -102350.857 160891.485 -102293.714 160920.057 -102236.571 160948.628 -102122.285 160948.628 -102036.571 160920.057 -101922.285 160891.485 -101865.142 160834.342 -101808 160748.628 -101779.428 160691.485 -101779.428 160605.771 -101808 160577.2 -101836.571 M 160005.771 -102379.428 160348.628 -102379.428 M 160177.2 -102379.428 160177.2 -101779.428 160234.342 -101865.142 160291.485 -101922.285 160348.628 -101950.857 M 136188.428 -83427.928 135845.571 -83427.928 M 136017 -84027.928 136017 -83427.928 M 136251.928 -86285.357 136166.214 -86313.928 136023.357 -86313.928 135966.214 -86285.357 135937.642 -86256.785 135909.071 -86199.642 135909.071 -86142.5 135937.642 -86085.357 135966.214 -86056.785 136023.357 -86028.214 136137.642 -85999.642 136194.785 -85971.071 136223.357 -85942.5 136251.928 -85885.357 136251.928 -85828.214 136223.357 -85771.071 136194.785 -85742.5 136137.642 -85713.928 135994.785 -85713.928 135909.071 -85742.5 M 139309.409 -83964.428 139309.409 -83364.428 M 138833.219 -83964.428 138833.219 -83364.428 138261.79 -83964.428 138261.79 -83364.428 M 161436.028 -84050.228 161093.171 -84050.228 M 161264.6 -84650.228 161264.6 -84050.228 M 161334.428 -86945.757 161248.714 -86974.328 161105.857 -86974.328 161048.714 -86945.757 161020.142 -86917.185 160991.571 -86860.042 160991.571 -86802.9 161020.142 -86745.757 161048.714 -86717.185 161105.857 -86688.614 161220.142 -86660.042 161277.285 -86631.471 161305.857 -86602.9 161334.428 -86545.757 161334.428 -86488.614 161305.857 -86431.471 161277.285 -86402.9 161220.142 -86374.328 161077.285 -86374.328 160991.571 -86402.9 M 161083.5 -83355.69 160893.023 -83355.69 160797.785 -83379.5 160702.547 -83427.119 160654.928 -83522.357 160654.928 -83689.023 160702.547 -83784.261 160797.785 -83831.88 160893.023 -83855.69 161083.5 -83855.69 161178.738 -83831.88 161273.976 -83784.261 161321.595 -83689.023 161321.595 -83522.357 161273.976 -83427.119 161178.738 -83379.5 161083.5 -83355.69 M 160226.357 -83355.69 160226.357 -83760.452 160178.738 -83808.071 160131.119 -83831.88 160035.88 -83855.69 159845.404 -83855.69 159750.166 -83831.88 159702.547 -83808.071 159654.928 -83760.452 159654.928 -83355.69 M 159321.595 -83355.69 158750.166 -83355.69 M 159035.88 -83855.69 159035.88 -83355.69" fill="none" stroke-width="100"/><path d="M 158089.561 -83416.8 158127.657 -83397.752 158184.8 -83397.752 158241.942 -83416.8 158280.038 -83454.895 158299.085 -83492.99 158318.133 -83569.18 158318.133 -83626.323 158299.085 -83702.514 158280.038 -83740.609 158241.942 -83778.704 158184.8 -83797.752 158146.704 -83797.752 158089.561 -83778.704 158070.514 -83759.657 158070.514 -83626.323 158146.704 -83626.323 M 157899.085 -83797.752 157899.085 -83397.752 157670.514 -83797.752 157670.514 -83397.752 M 157480.038 -83797.752 157480.038 -83397.752 157384.8 -83397.752 157327.657 -83416.8 157289.561 -83454.895 157270.514 -83492.99 157251.466 -83569.18 157251.466 -83626.323 157270.514 -83702.514 157289.561 -83740.609 157327.657 -83778.704 157384.8 -83797.752 157480.038 -83797.752 M 155828.952 -83372.352 155695.619 -83772.352 155562.285 -83372.352 M 155428.952 -83619.971 155124.19 -83619.971 M 155276.571 -83772.352 155276.571 -83467.59 M 136499.552 -98155.152 136366.219 -98555.152 136232.885 -98155.152 M 136099.552 -98402.771 135794.79 -98402.771 M 135947.171 -98555.152 135947.171 -98250.39 M 136651.961 -100815.8 136690.057 -100796.752 136747.2 -100796.752 136804.342 -100815.8 136842.438 -100853.895 136861.485 -100891.99 136880.533 -100968.18 136880.533 -101025.323 136861.485 -101101.514 136842.438 -101139.609 136804.342 -101177.704 136747.2 -101196.752 136709.104 -101196.752 136651.961 -101177.704 136632.914 -101158.657 136632.914 -101025.323 136709.104 -101025.323 M 136461.485 -101196.752 136461.485 -100796.752 136232.914 -101196.752 136232.914 -100796.752 M 136042.438 -101196.752 136042.438 -100796.752 135947.2 -100796.752 135890.057 -100815.8 135851.961 -100853.895 135832.914 -100891.99 135813.866 -100968.18 135813.866 -101025.323 135832.914 -101101.514 135851.961 -101139.609 135890.057 -101177.704 135947.2 -101196.752 136042.438 -101196.752" fill="none" stroke-width="80"/><path d="M 153440.685 -102772.333 153326.4 -102805.666 153135.923 -102805.666 153059.733 -102772.333 153021.638 -102739 152983.542 -102672.333 152983.542 -102605.666 153021.638 -102539 153059.733 -102505.666 153135.923 -102472.333 153288.304 -102439 153364.495 -102405.666 153402.59 -102372.333 153440.685 -102305.666 153440.685 -102239 153402.59 -102172.333 153364.495 -102139 153288.304 -102105.666 153097.828 -102105.666 152983.542 -102139 M 152716.876 -102105.666 152526.4 -102805.666 152374.019 -102305.666 152221.638 -102805.666 152031.161 -102105.666 M 151726.4 -102805.666 151726.4 -102105.666 M 151459.733 -102105.666 151002.59 -102105.666 M 151231.161 -102805.666 151231.161 -102105.666 M 150278.78 -102739 150316.876 -102772.333 150431.161 -102805.666 150507.352 -102805.666 150621.638 -102772.333 150697.828 -102705.666 150735.923 -102639 150774.019 -102505.666 150774.019 -102405.666 150735.923 -102272.333 150697.828 -102205.666 150621.638 -102139 150507.352 -102105.666 150431.161 -102105.666 150316.876 -102139 150278.78 -102172.333 M 149935.923 -102805.666 149935.923 -102105.666 M 149935.923 -102439 149478.78 -102439 M 149478.78 -102805.666 149478.78 -102105.666 M 148069.257 -102139 148145.447 -102105.666 148259.733 -102105.666 148374.019 -102139 148450.209 -102205.666 148488.304 -102272.333 148526.4 -102405.666 148526.4 -102505.666 148488.304 -102639 148450.209 -102705.666 148374.019 -102772.333 148259.733 -102805.666 148183.542 -102805.666 148069.257 -102772.333 148031.161 -102739 148031.161 -102505.666 148183.542 -102505.666 M 147535.923 -102105.666 147383.542 -102105.666 147307.352 -102139 147231.161 -102205.666 147193.066 -102339 147193.066 -102572.333 147231.161 -102705.666 147307.352 -102772.333 147383.542 -102805.666 147535.923 -102805.666 147612.114 -102772.333 147688.304 -102705.666 147726.4 -102572.333 147726.4 -102339 147688.304 -102205.666 147612.114 -102139 147535.923 -102105.666 M 146850.209 -102439 146583.542 -102439 M 146469.257 -102805.666 146850.209 -102805.666 146850.209 -102105.666 146469.257 -102105.666 M 146164.495 -102772.333 146050.209 -102805.666 145859.733 -102805.666 145783.542 -102772.333 145745.447 -102739 145707.352 -102672.333 145707.352 -102605.666 145745.447 -102539 145783.542 -102505.666 145859.733 -102472.333 146012.114 -102439 146088.304 -102405.666 146126.4 -102372.333 146164.495 -102305.666 146164.495 -102239 146126.4 -102172.333 146088.304 -102139 146012.114 -102105.666 145821.638 -102105.666 145707.352 -102139 M 144754.971 -102805.666 144754.971 -102105.666 M 144754.971 -102439 144297.828 -102439 M 144297.828 -102805.666 144297.828 -102105.666 M 143916.876 -102439 143650.209 -102439 M 143535.923 -102805.666 143916.876 -102805.666 143916.876 -102105.666 143535.923 -102105.666 M 142735.923 -102805.666 143002.59 -102472.333 M 143193.066 -102805.666 143193.066 -102105.666 142888.304 -102105.666 142812.114 -102139 142774.019 -102172.333 142735.923 -102239 142735.923 -102339 142774.019 -102405.666 142812.114 -102439 142888.304 -102472.333 143193.066 -102472.333 M 142393.066 -102439 142126.4 -102439 M 142012.114 -102805.666 142393.066 -102805.666 142393.066 -102105.666 142012.114 -102105.666" fill="none" stroke-width="100"/><path d="M 151999.9 -86140.952 151923.709 -86140.952 151885.614 -86160 151847.519 -86198.095 151828.471 -86274.285 151828.471 -86407.619 151847.519 -86483.809 151885.614 -86521.904 151923.709 -86540.952 151999.9 -86540.952 152037.995 -86521.904 152076.09 -86483.809 152095.138 -86407.619 152095.138 -86274.285 152076.09 -86198.095 152037.995 -86160 151999.9 -86140.952 M 151657.042 -86140.952 151657.042 -86464.761 151637.995 -86502.857 151618.947 -86521.904 151580.852 -86540.952 151504.661 -86540.952 151466.566 -86521.904 151447.519 -86502.857 151428.471 -86464.761 151428.471 -86140.952 M 151295.138 -86140.952 151066.566 -86140.952 M 151180.852 -86540.952 151180.852 -86140.952 M 149402.757 -86521.904 149345.614 -86540.952 149250.376 -86540.952 149212.28 -86521.904 149193.233 -86502.857 149174.185 -86464.761 149174.185 -86426.666 149193.233 -86388.571 149212.28 -86369.523 149250.376 -86350.476 149326.566 -86331.428 149364.661 -86312.38 149383.709 -86293.333 149402.757 -86255.238 149402.757 -86217.142 149383.709 -86179.047 149364.661 -86160 149326.566 -86140.952 149231.328 -86140.952 149174.185 -86160 M 149040.852 -86140.952 148945.614 -86540.952 148869.423 -86255.238 148793.233 -86540.952 148697.995 -86140.952 M 146824.661 -86160 146862.757 -86140.952 146919.9 -86140.952 146977.042 -86160 147015.138 -86198.095 147034.185 -86236.19 147053.233 -86312.38 147053.233 -86369.523 147034.185 -86445.714 147015.138 -86483.809 146977.042 -86521.904 146919.9 -86540.952 146881.804 -86540.952 146824.661 -86521.904 146805.614 -86502.857 146805.614 -86369.523 146881.804 -86369.523 M 146634.185 -86540.952 146634.185 -86140.952 146405.614 -86540.952 146405.614 -86140.952 M 146215.138 -86540.952 146215.138 -86140.952 146119.9 -86140.952 146062.757 -86160 146024.661 -86198.095 146005.614 -86236.19 145986.566 -86312.38 145986.566 -86369.523 146005.614 -86445.714 146024.661 -86483.809 146062.757 -86521.904 146119.9 -86540.952 146215.138 -86540.952 M 144125.923 -86540.952 144125.923 -86140.952 M 143935.447 -86540.952 143935.447 -86140.952 143706.876 -86540.952 143706.876 -86140.952 M 137819.628 -96868.419 137795.819 -96892.228 137772.009 -96963.657 137772.009 -97011.276 137795.819 -97082.704 137843.438 -97130.323 137891.057 -97154.133 137986.295 -97177.942 138057.723 -97177.942 138152.961 -97154.133 138200.58 -97130.323 138248.2 -97082.704 138272.009 -97011.276 138272.009 -96963.657 138248.2 -96892.228 138224.39 -96868.419 M 137772.009 -96416.038 137772.009 -96654.133 138272.009 -96654.133 M 137772.009 -95963.657 138010.104 -96130.323 M 137772.009 -96249.371 138272.009 -96249.371 138272.009 -96058.895 138248.2 -96011.276 138224.39 -95987.466 138176.771 -95963.657 138105.342 -95963.657 138057.723 -95987.466 138033.914 -96011.276 138010.104 -96058.895 138010.104 -96249.371" fill="none" stroke-width="80"/><path d="M 138276 -89611.2 A 1370 1370 0 0 1 135536 -89611.2 1370 1370 0 0 1 138276 -89611.2 M 136906 -90981.2 136906 -91051.2 M 158246 -97663 158746 -97663 M 158496 -97413 158496 -97913 M 159609 -101514 160177 -101514 M 159375 -101474 160411 -101474 M 159216 -101434 160570 -101434 M 159088 -101394 160698 -101394 M 158978 -101354 160808 -101354 M 158882 -101314 160904 -101314 M 158795 -101274 160991 -101274 M 158715 -101234 161071 -101234 M 160933 -101194 161144 -101194 M 158642 -101194 158853 -101194 M 160933 -101154 161212 -101154 M 158574 -101154 158853 -101154 M 160933 -101114 161276 -101114 M 158510 -101114 158853 -101114 M 160933 -101074 161336 -101074 M 158450 -101074 158853 -101074 M 160933 -101034 161393 -101034 M 158393 -101034 158853 -101034 M 160933 -100994 161447 -100994 M 158339 -100994 158853 -100994 M 160933 -100954 161498 -100954 M 158288 -100954 158853 -100954 M 160933 -100914 161546 -100914 M 158240 -100914 158853 -100914 M 160933 -100874 161592 -100874 M 158194 -100874 158853 -100874 M 160933 -100834 161636 -100834 M 158150 -100834 158853 -100834 M 160933 -100794 161678 -100794 M 158108 -100794 158853 -100794 M 160933 -100754 161719 -100754 M 158067 -100754 158853 -100754 M 160933 -100714 161757 -100714 M 158029 -100714 158853 -100714 M 160933 -100674 161794 -100674 M 157992 -100674 158853 -100674 M 160933 -100634 161830 -100634 M 157956 -100634 158853 -100634 M 160933 -100594 161864 -100594 M 157922 -100594 158853 -100594 M 160933 -100554 161897 -100554 M 157889 -100554 158853 -100554 M 160933 -100514 161928 -100514 M 157858 -100514 158853 -100514 M 160933 -100474 161958 -100474 M 157828 -100474 158853 -100474 M 160933 -100434 161988 -100434 M 157798 -100434 158853 -100434 M 160933 -100394 162015 -100394 M 157771 -100394 158853 -100394 M 160933 -100354 162042 -100354 M 157744 -100354 158853 -100354 M 160933 -100314 162068 -100314 M 157718 -100314 158853 -100314 M 160933 -100274 162093 -100274 M 157693 -100274 158853 -100274 M 160933 -100234 162117 -100234 M 157669 -100234 158853 -100234 M 160933 -100194 162140 -100194 M 157646 -100194 158853 -100194 M 160933 -100154 162161 -100154 M 157625 -100154 158853 -100154 M 160933 -100114 162183 -100114 M 157603 -100114 158853 -100114 M 160933 -100074 162203 -100074 M 157583 -100074 158853 -100074 M 160933 -100034 162222 -100034 M 157564 -100034 158853 -100034 M 160933 -99994 162241 -99994 M 157545 -99994 158853 -99994 M 160933 -99954 162258 -99954 M 157528 -99954 158853 -99954 M 160933 -99914 162275 -99914 M 157511 -99914 158853 -99914 M 160933 -99874 162291 -99874 M 157495 -99874 158853 -99874 M 160933 -99834 162307 -99834 M 157479 -99834 158853 -99834 M 160933 -99794 162321 -99794 M 157465 -99794 158853 -99794 M 160933 -99754 162335 -99754 M 157451 -99754 158853 -99754 M 160933 -99714 162348 -99714 M 157438 -99714 158853 -99714 M 160933 -99674 162361 -99674 M 157425 -99674 158853 -99674 M 160933 -99634 162373 -99634 M 157413 -99634 158853 -99634 M 160933 -99593 162384 -99593 M 157402 -99593 158853 -99593 M 160933 -99553 162394 -99553 M 157392 -99553 158853 -99553 M 160933 -99513 162404 -99513 M 157382 -99513 158853 -99513 M 160933 -99473 162413 -99473 M 157373 -99473 158853 -99473 M 160933 -99433 162421 -99433 M 157365 -99433 158853 -99433 M 160933 -99393 162429 -99393 M 157357 -99393 158853 -99393 M 160933 -99353 162436 -99353 M 157350 -99353 158853 -99353 M 160933 -99313 162443 -99313 M 157343 -99313 158853 -99313 M 160933 -99273 162449 -99273 M 157337 -99273 158853 -99273 M 160933 -99233 162454 -99233 M 157332 -99233 158853 -99233 M 160933 -99193 162458 -99193 M 157328 -99193 158853 -99193 M 160933 -99153 162462 -99153 M 157324 -99153 158853 -99153 M 157320 -99113 162466 -99113 M 157317 -99073 162469 -99073 M 157315 -99033 162471 -99033 M 157314 -98993 162472 -98993 M 157313 -98953 162473 -98953 M 157313 -98913 162473 -98913 M 162513 -98913 A 2620 2620 0 0 1 157273 -98913 2620 2620 0 0 1 162513 -98913 M 161227 -89705.5 161692 -89705.5 M 158602 -89705.5 159067 -89705.5 M 161227.429 -94519.979 A 2500.0004771 2500.0004771 0 0 1 161227 -90010.816 M 159066.571 -94519.979 A 2500.0004771 2500.0004771 0 0 0 159067 -90010.816 M 161227.827 -95053.315 A 2989.9999127 2989.9999127 0 0 1 161691.83 -89705.5 M 159066.173 -95053.315 A 2989.9999127 2989.9999127 0 0 0 158602.17 -89705.5" fill="none" stroke-width="120"/><path d="M 156926.4 -85840.4 138526.4 -85840.4 138526.4 -103440.4 156926.4 -103440.4 156926.4 -85840.4" fill="none" stroke-width="152.4"/><path d="M 147726.4 -94005.4 147726.4 -95275.4 M 147091.4 -94640.4 148361.4 -94640.4 A 635 635 0 0 1 147091.4 -94640.4 635 635 0 0 1 148361.4 -94640.4" fill="none" stroke-width="127"/><path d="M 142646.4 -86677.5 142646.4 -83439 M 152806.4 -86614 152806.4 -83439 M 142646.4 -85979 152806.4 -85979 M 152806.4 -83439 142646.4 -83439 M 142646.4 -86677.5 152806.4 -86677.5" fill="none" stroke-width="80"/><path d="M 136906 -96112 136906 -96182 M 138276 -94742 A 1370 1370 0 0 1 135536 -94742 1370 1370 0 0 1 138276 -94742" fill="none" stroke-width="120"/></g></g><g id="FXNSnJ5svXZcSYoQV62r_bottom_drill1" transform="scale(25.4,25.4)"><use xlink:href="#HiPIQ1uB9s_EYX6Gvy98_pad-1" x="5516" y="-3658"/><use xlink:href="#HiPIQ1uB9s_EYX6Gvy98_pad-1" x="5921" y="-3955"/><use xlink:href="#HiPIQ1uB9s_EYX6Gvy98_pad-1" x="6189" y="-3709"/><use xlink:href="#HiPIQ1uB9s_EYX6Gvy98_pad-2" x="6295" y="-3845"/><use xlink:href="#HiPIQ1uB9s_EYX6Gvy98_pad-2" x="6295" y="-3943.4"/><use xlink:href="#HiPIQ1uB9s_EYX6Gvy98_pad-2" x="5390" y="-3730"/><use xlink:href="#HiPIQ1uB9s_EYX6Gvy98_pad-2" x="5390" y="-3830"/><use xlink:href="#HiPIQ1uB9s_EYX6Gvy98_pad-2" x="5390" y="-3528"/><use xlink:href="#HiPIQ1uB9s_EYX6Gvy98_pad-2" x="5390" y="-3628"/><use xlink:href="#HiPIQ1uB9s_EYX6Gvy98_pad-3" x="6305" y="-3532.5"/><use xlink:href="#HiPIQ1uB9s_EYX6Gvy98_pad-3" x="6305" y="-3632.5"/><use xlink:href="#HiPIQ1uB9s_EYX6Gvy98_pad-3" x="6305" y="-3732.5"/><use xlink:href="#HiPIQ1uB9s_EYX6Gvy98_pad-4" x="6067.5" y="-3327.5"/><use xlink:href="#HiPIQ1uB9s_EYX6Gvy98_pad-4" x="6167.5" y="-3327.5"/><use xlink:href="#HiPIQ1uB9s_EYX6Gvy98_pad-4" x="5397.5" y="-3920"/><use xlink:href="#HiPIQ1uB9s_EYX6Gvy98_pad-4" x="5397.5" y="-4020"/><use xlink:href="#HiPIQ1uB9s_EYX6Gvy98_pad-4" x="5666" y="-3335"/><use xlink:href="#HiPIQ1uB9s_EYX6Gvy98_pad-4" x="5766" y="-3335"/><use xlink:href="#HiPIQ1uB9s_EYX6Gvy98_pad-4" x="5866" y="-3335"/><use xlink:href="#HiPIQ1uB9s_EYX6Gvy98_pad-4" x="5966" y="-3335"/><use xlink:href="#HiPIQ1uB9s_EYX6Gvy98_pad-5" x="5552.5" y="-3335"/><use xlink:href="#HiPIQ1uB9s_EYX6Gvy98_pad-5" x="6218" y="-4022"/><use xlink:href="#HiPIQ1uB9s_EYX6Gvy98_pad-5" x="6300" y="-3345"/><use xlink:href="#HiPIQ1uB9s_EYX6Gvy98_pad-5" x="6300" y="-3437.5"/><use xlink:href="#HiPIQ1uB9s_EYX6Gvy98_pad-5" x="5400" y="-3330"/><use xlink:href="#HiPIQ1uB9s_EYX6Gvy98_pad-5" x="5400" y="-3422.5"/><use xlink:href="#HiPIQ1uB9s_EYX6Gvy98_pad-6" x="5607.3" y="-3541"/><use xlink:href="#HiPIQ1uB9s_EYX6Gvy98_pad-6" x="5607.3" y="-3726"/><use xlink:href="#HiPIQ1uB9s_EYX6Gvy98_pad-6" x="5607.3" y="-3911"/><use xlink:href="#HiPIQ1uB9s_EYX6Gvy98_pad-6" x="5816" y="-3541"/><use xlink:href="#HiPIQ1uB9s_EYX6Gvy98_pad-6" x="5816" y="-3726"/><use xlink:href="#HiPIQ1uB9s_EYX6Gvy98_pad-6" x="5816" y="-3911"/><use xlink:href="#HiPIQ1uB9s_EYX6Gvy98_pad-6" x="6024.7" y="-3541"/><use xlink:href="#HiPIQ1uB9s_EYX6Gvy98_pad-6" x="6024.7" y="-3726"/><use xlink:href="#HiPIQ1uB9s_EYX6Gvy98_pad-6" x="6024.7" y="-3911"/></g><clipPath id="FXNSnJ5svXZcSYoQV62r_bottom_outline"><path d="M 135636 -103505 135636 -83185 161544 -83185 161544 -103505 135636 -103505" fill="none" stroke-width="50"/></clipPath><mask id="FXNSnJ5svXZcSYoQV62r_bottom_mech-mask"><g fill="#000" stroke="#000"><rect x="135636" y="-103505" width="25908" height="20320" fill="#fff"/><use xlink:href="#FXNSnJ5svXZcSYoQV62r_bottom_drill1"/></g></mask><mask id="FXNSnJ5svXZcSYoQV62r_bottom_cf-mask"><g fill="#fff" stroke="#fff"><use xlink:href="#FXNSnJ5svXZcSYoQV62r_bottom_soldermask"/></g></mask><mask id="FXNSnJ5svXZcSYoQV62r_bottom_sm-mask"><g fill="#000" stroke="#000"><rect x="135636" y="-103505" width="25908" height="20320" fill="#fff"/><use xlink:href="#FXNSnJ5svXZcSYoQV62r_bottom_soldermask"/></g></mask></defs><g transform="translate(0,-186690) scale(1,-1)"><g mask="url(#FXNSnJ5svXZcSYoQV62r_bottom_mech-mask)" clip-path="url(#FXNSnJ5svXZcSYoQV62r_bottom_outline)" transform="translate(297180,0) scale(-1,1)"><rect x="135636" y="-103505" width="25908" height="20320" fill="currentColor" class="FXNSnJ5svXZcSYoQV62r_fr4"/><use xlink:href="#FXNSnJ5svXZcSYoQV62r_bottom_copper" fill="currentColor" stroke="currentColor" class="FXNSnJ5svXZcSYoQV62r_cu"/><use xlink:href="#FXNSnJ5svXZcSYoQV62r_bottom_copper" fill="currentColor" stroke="currentColor" class="FXNSnJ5svXZcSYoQV62r_cf" mask="url(#FXNSnJ5svXZcSYoQV62r_bottom_cf-mask)"/><g mask="url(#FXNSnJ5svXZcSYoQV62r_bottom_sm-mask)"><rect x="135636" y="-103505" width="25908" height="20320" fill="currentColor" class="FXNSnJ5svXZcSYoQV62r_sm"/><use xlink:href="#FXNSnJ5svXZcSYoQV62r_bottom_silkscreen" fill="currentColor" stroke="currentColor" class="FXNSnJ5svXZcSYoQV62r_ss"/></g></g></g></svg>