<svg version="1.1" xmlns="http://www.w3.org/2000/svg" xmlns:xlink="http://www.w3.org/1999/xlink" stroke-linecap="round" stroke-linejoin="round" stroke-width="0" fill-rule="evenodd" width="25.402001mm" height="19.814mm" viewBox="135889 -103252 25402.001 19814" id="smg_-9jTvHq9o4QVomQn"><defs><rect x="-965.2" y="-965.2" width="1930.4" height="1930.4" rx="965.2" ry="965.2" id="smg_-9jTvHq9o4QVomQn_pad-10"/><rect x="-800" y="-800" width="1600" height="1600" rx="800" ry="800" id="smg_-9jTvHq9o4QVomQn_pad-11"/><circle cx="0" cy="0" r="800" id="smg_-9jTvHq9o4QVomQn_pad-12"/><rect x="-800" y="-800" width="1600" height="1600" id="smg_-9jTvHq9o4QVomQn_pad-13"/><circle cx="0" cy="0" r="900" id="smg_-9jTvHq9o4QVomQn_pad-14"/><rect x="-900" y="-900" width="1800" height="1800" id="smg_-9jTvHq9o4QVomQn_pad-15"/><rect x="-965.2" y="-965.2" width="1930.4" height="1930.4" id="smg_-9jTvHq9o4QVomQn_pad-16"/><rect x="-1908" y="-1908" width="3816" height="3816" rx="1908" ry="1908" id="smg_-9jTvHq9o4QVomQn_pad-17"/><rect x="-1908" y="-1908" width="3816" height="3816" id="smg_-9jTvHq9o4QVomQn_pad-18"/><circle cx="0" cy="0" r="400" id="smg_-9jTvHq9o4QVomQn_pad-19"/></defs><g transform="translate(0,-186690) scale(1,-1)" fill="currentColor" stroke="currentColor"><use xlink:href="#smg_-9jTvHq9o4QVomQn_pad-10" x="157937.2" y="-102158.8"/><use xlink:href="#smg_-9jTvHq9o4QVomQn_pad-10" x="141033.5" y="-84709"/><use xlink:href="#smg_-9jTvHq9o4QVomQn_pad-11" x="136906" y="-92151.2"/><use xlink:href="#smg_-9jTvHq9o4QVomQn_pad-12" x="136906" y="-89611.2"/><use xlink:href="#smg_-9jTvHq9o4QVomQn_pad-12" x="159893" y="-100163"/><use xlink:href="#smg_-9jTvHq9o4QVomQn_pad-13" x="159893" y="-97663"/><use xlink:href="#smg_-9jTvHq9o4QVomQn_pad-14" x="160147" y="-94805.5"/><use xlink:href="#smg_-9jTvHq9o4QVomQn_pad-14" x="160147" y="-92265.5"/><use xlink:href="#smg_-9jTvHq9o4QVomQn_pad-15" x="160147" y="-89725.5"/><use xlink:href="#smg_-9jTvHq9o4QVomQn_pad-16" x="137160" y="-84582"/><use xlink:href="#smg_-9jTvHq9o4QVomQn_pad-10" x="137160" y="-86931.5"/><use xlink:href="#smg_-9jTvHq9o4QVomQn_pad-16" x="160020" y="-84963"/><use xlink:href="#smg_-9jTvHq9o4QVomQn_pad-10" x="160020" y="-87312.5"/><use xlink:href="#smg_-9jTvHq9o4QVomQn_pad-10" x="156654.5" y="-84518.5"/><use xlink:href="#smg_-9jTvHq9o4QVomQn_pad-16" x="154114.5" y="-84518.5"/><use xlink:href="#smg_-9jTvHq9o4QVomQn_pad-10" x="137096.5" y="-102108"/><use xlink:href="#smg_-9jTvHq9o4QVomQn_pad-16" x="137096.5" y="-99568"/><use xlink:href="#smg_-9jTvHq9o4QVomQn_pad-17" x="153026.4" y="-99340.4"/><use xlink:href="#smg_-9jTvHq9o4QVomQn_pad-17" x="153026.4" y="-94640.4"/><use xlink:href="#smg_-9jTvHq9o4QVomQn_pad-17" x="153026.4" y="-89940.4"/><use xlink:href="#smg_-9jTvHq9o4QVomQn_pad-17" x="147726.4" y="-99340.4"/><use xlink:href="#smg_-9jTvHq9o4QVomQn_pad-17" x="147726.4" y="-94640.4"/><use xlink:href="#smg_-9jTvHq9o4QVomQn_pad-17" x="147726.4" y="-89940.4"/><use xlink:href="#smg_-9jTvHq9o4QVomQn_pad-17" x="142426.4" y="-99340.4"/><use xlink:href="#smg_-9jTvHq9o4QVomQn_pad-17" x="142426.4" y="-94640.4"/><use xlink:href="#smg_-9jTvHq9o4QVomQn_pad-18" x="142426.4" y="-89940.4"/><use xlink:href="#smg_-9jTvHq9o4QVomQn_pad-10" x="151536.4" y="-84709"/><use xlink:href="#smg_-9jTvHq9o4QVomQn_pad-10" x="148996.4" y="-84709"/><use xlink:href="#smg_-9jTvHq9o4QVomQn_pad-10" x="146456.4" y="-84709"/><use xlink:href="#smg_-9jTvHq9o4QVomQn_pad-16" x="143916.4" y="-84709"/><use xlink:href="#smg_-9jTvHq9o4QVomQn_pad-11" x="136906" y="-97282"/><use xlink:href="#smg_-9jTvHq9o4QVomQn_pad-12" x="136906" y="-94742"/><use xlink:href="#smg_-9jTvHq9o4QVomQn_pad-19" x="150393.4" y="-100457"/><use xlink:href="#smg_-9jTvHq9o4QVomQn_pad-19" x="140106.4" y="-92913.2"/><use xlink:href="#smg_-9jTvHq9o4QVomQn_pad-19" x="157200.6" y="-94208.6"/><path d="M 160020 -87312.5 159448.5 -87312.5 158597.6 -88163.4 M 157200.6 -94208.6 157810.2 -93599 157810.2 -87172.8 160020 -84963" fill="none" stroke-width="508"/><path d="M 156083 -87249 156083 -86487 M 156083 -96837.5 156083 -87249 M 156083 -86487 154114.5 -84518.5 M 140081 -102552.5 143027.4 -102552.5 M 137096.5 -99568 140081 -102552.5" fill="none" stroke-width="609.6"/><path d="M 136906 -92202 136906 -94742" fill="none" stroke-width="508"/><path d="M 136906 -97282 136906 -99377.5 137096.5 -99568" fill="none" stroke-width="609.6"/><path d="M 142426.4 -89940.4 145427.899 -92941.899 145427.899 -95743.681 146726.117 -97041.899 150727.899 -97041.899 153026.4 -99340.4" fill="none" stroke-width="381"/><path d="M 137160 -84582 137160 -84674" fill="none" stroke-width="508"/><path d="M 143027.4 -102552.5 151765 -102552.5 153385.246 -102552.5 156083 -99854.746 156083 -96837.5 M 140906.5 -102552.5 143027.4 -102552.5" fill="none" stroke-width="609.6"/><path d="M 151536.4 -88450.4 151536.4 -84709" fill="none" stroke-width="508"/><path d="M 147726.4 -89940.4 147726.4 -85953.6 147751.8 -85953.6 148996.4 -84709" fill="none" stroke-width="381"/><path d="M 151536.4 -88450.4 153026.4 -89940.4" fill="none" stroke-width="508"/><path d="M 158453.864 -87660.143 158456.137 -87670.232 158531.673 -87911.266 158535.564 -87920.848 158649.452 -88146.308 158654.855 -88155.126 158804.038 -88358.958 158810.809 -88366.775 158988.755 -88541.031 158983.556 -88544.505 158966.005 -88562.056 158896.077 -88666.711 158886.579 -88689.642 158863.237 -88806.99 158862.024 -88819.31 158862.024 -90631.69 158863.237 -90644.01 158886.579 -90761.358 158896.077 -90784.289 158966.005 -90888.944 158983.556 -90906.495 159088.211 -90976.423 159111.142 -90985.921 159228.49 -91009.263 159240.81 -91010.476 159884.96 -91010.476 159707.679 -91057.978 159696.84 -91061.977 159494.982 -91158.258 159485.052 -91164.166 159304.121 -91295.62 159295.436 -91303.238 159141.489 -91465.462 159134.336 -91474.536 159012.531 -91662.099 159007.152 -91672.324 158921.567 -91878.944 158918.14 -91889.978 158871.642 -92108.735 158870.284 -92120.208 158864.43 -92343.774 158865.186 -92355.303 158900.172 -92576.195 158903.016 -92587.392 158977.669 -92798.208 158982.506 -92808.7 159094.328 -93002.381 159100.996 -93011.816 159246.242 -93181.876 159254.517 -93189.938 159428.321 -93330.682 159437.927 -93337.1 159634.469 -93443.814 159645.084 -93448.375 159857.782 -93517.484 159869.051 -93520.034 159979.827 -93534.618 159935.089 -93538.139 159923.703 -93540.095 159707.679 -93597.978 159696.84 -93601.977 159494.982 -93698.258 159485.052 -93704.166 159304.121 -93835.62 159295.436 -93843.238 159141.489 -94005.462 159134.336 -94014.536 159012.531 -94202.099 159007.152 -94212.324 158921.567 -94418.944 158918.14 -94429.978 158871.642 -94648.735 158870.284 -94660.208 158864.43 -94883.774 158865.186 -94895.303 158900.172 -95116.195 158903.016 -95127.392 158977.669 -95338.208 158982.506 -95348.7 159094.328 -95542.381 159100.996 -95551.816 159246.242 -95721.876 159254.517 -95729.938 159428.321 -95870.682 159437.927 -95877.1 159634.469 -95983.814 159645.084 -95988.375 159857.782 -96057.484 159869.051 -96060.034 160090.781 -96089.225 160102.325 -96089.679 160325.663 -96077.975 160337.097 -96076.317 160554.561 -96024.108 160565.502 -96020.394 160769.81 -95929.43 160779.89 -95923.785 160964.201 -95797.112 160973.084 -95789.724 161131.224 -95631.584 161138.612 -95622.701 161164.001 -95585.76 161164.001 -99496.44 161060.053 -99316.397 160936.844 -99300.177 160126.21 -100110.809 160126.21 -100215.191 160936.844 -101025.823 161060.053 -101009.603 161164.001 -100829.56 161164.001 -103125 159214.961 -103125 159236.966 -103099.144 159243.001 -103090.746 159373.095 -102874.231 159377.677 -102864.961 159470.663 -102630.106 159473.67 -102620.211 159525.485 -102380.553 159449.836 -102286.8 156427.719 -102286.8 156352.375 -102373.474 156371.064 -102506.444 156373.337 -102516.532 156448.873 -102757.566 156452.764 -102767.148 156566.652 -102992.608 156572.055 -103001.426 156662.498 -103125 153774.459 -103125 153785.024 -103119.617 153801.069 -103107.959 153940.876 -102968.152 153940.881 -102968.145 154969.595 -101939.431 156350.931 -101939.431 156426.518 -102030.8 157735.391 -102030.8 157809.2 -101956.991 157809.2 -100647.261 158065.2 -100647.261 158065.2 -101956.991 158139.009 -102030.8 159446.834 -102030.8 159522.319 -101941.791 159494.374 -101772.996 159491.855 -101762.966 159410.453 -101523.85 159406.33 -101514.366 159404.685 -101511.299 159515.247 -101551.54 159525.874 -101554.387 159762.103 -101596.041 159773.064 -101597 160012.936 -101597 160023.897 -101596.041 160260.126 -101554.387 160270.753 -101551.54 160496.16 -101469.498 160506.132 -101464.848 160739.603 -101330.053 160755.823 -101206.844 159622.885 -100073.905 158849.157 -99300.177 158725.947 -99316.397 158591.152 -99549.868 158586.502 -99559.84 158504.46 -99785.247 158501.613 -99795.874 158459.959 -100032.103 158459 -100043.064 158459 -100282.936 158459.959 -100293.897 158501.613 -100530.126 158504.46 -100540.753 158556.513 -100683.768 158477.583 -100648.295 158467.834 -100644.843 158223.623 -100580.319 158213.442 -100578.506 158147.602 -100572.282 158065.2 -100647.261 157809.2 -100647.261 157809.2 -100643.757 157713.384 -100568.086 157443.713 -100632.331 157433.883 -100635.543 157201.027 -100733.427 157191.854 -100738.202 156978.112 -100872.803 156969.842 -100879.012 156780.954 -101046.714 156773.809 -101054.191 156614.847 -101250.493 156609.02 -101259.036 156484.254 -101478.664 156479.899 -101488.044 156392.679 -101725.1 156389.916 -101735.066 156350.931 -101939.431 154969.595 -101939.431 156599.847 -100309.18 156638.46 -100270.568 156650.117 -100254.523 156670.405 -100214.706 156696.668 -100178.557 156705.672 -100160.886 156719.482 -100118.386 156739.769 -100078.569 156745.897 -100059.709 156752.888 -100015.573 156766.697 -99973.073 156769.799 -99953.485 156769.799 -99904.096 156769.8 -99904.084 156769.8 -96856.81 158708.024 -96856.81 158708.024 -98469.19 158709.237 -98481.51 158732.579 -98598.858 158742.077 -98621.789 158812.005 -98726.444 158829.556 -98743.995 158934.211 -98813.923 158957.142 -98823.421 159074.49 -98846.763 159086.81 -98847.976 159313.265 -98847.976 159289.84 -98856.502 159279.868 -98861.152 159046.397 -98995.947 159030.177 -99119.156 159840.809 -99929.79 159945.191 -99929.79 160755.823 -99119.156 160739.603 -98995.947 160506.132 -98861.152 160496.16 -98856.502 160472.735 -98847.976 160699.19 -98847.976 160711.51 -98846.763 160828.858 -98823.421 160851.789 -98813.923 160956.444 -98743.995 160973.995 -98726.444 161043.923 -98621.789 161053.421 -98598.858 161076.763 -98481.51 161077.976 -98469.19 161077.976 -96856.81 161076.763 -96844.49 161053.421 -96727.142 161043.923 -96704.211 160973.995 -96599.556 160956.444 -96582.005 160851.789 -96512.077 160828.858 -96502.579 160711.51 -96479.237 160699.19 -96478.024 159086.81 -96478.024 159074.49 -96479.237 158957.142 -96502.579 158934.211 -96512.077 158829.556 -96582.005 158812.005 -96599.556 158742.077 -96704.211 158732.579 -96727.142 158709.237 -96844.49 158708.024 -96856.81 156769.8 -96856.81 156769.8 -94862.386 156895.514 -94936.733 156912.973 -94943.805 157123.101 -94994.252 157141.868 -94995.878 157357.541 -94982.309 157375.956 -94978.344 157578.105 -94901.959 157594.54 -94892.754 157765.292 -94760.306 157778.294 -94746.676 157902.552 -94569.875 157910.972 -94553.024 157977.827 -94347.265 157980.926 -94328.18 157980.93 -94327.709 158240.294 -94068.346 158296.345 -94021.314 158310.516 -94004.425 158347.104 -93941.053 158389.083 -93881.101 158398.4 -93861.12 158402.857 -93844.488 158411.467 -93829.573 158419.008 -93808.856 158431.715 -93736.787 158450.656 -93666.099 158452.577 -93644.136 158446.2 -93571.238 158446.2 -87605.611 158453.864 -87660.143"/><path d="M 158453.864 -87660.143 158456.137 -87670.232 158531.673 -87911.266 158535.564 -87920.848 158649.452 -88146.308 158654.855 -88155.126 158804.038 -88358.958 158810.809 -88366.775 158988.755 -88541.031 158983.556 -88544.505 158966.005 -88562.056 158896.077 -88666.711 158886.579 -88689.642 158863.237 -88806.99 158862.024 -88819.31 158862.024 -90631.69 158863.237 -90644.01 158886.579 -90761.358 158896.077 -90784.289 158966.005 -90888.944 158983.556 -90906.495 159088.211 -90976.423 159111.142 -90985.921 159228.49 -91009.263 159240.81 -91010.476 159884.96 -91010.476 159707.679 -91057.978 159696.84 -91061.977 159494.982 -91158.258 159485.052 -91164.166 159304.121 -91295.62 159295.436 -91303.238 159141.489 -91465.462 159134.336 -91474.536 159012.531 -91662.099 159007.152 -91672.324 158921.567 -91878.944 158918.14 -91889.978 158871.642 -92108.735 158870.284 -92120.208 158864.43 -92343.774 158865.186 -92355.303 158900.172 -92576.195 158903.016 -92587.392 158977.669 -92798.208 158982.506 -92808.7 159094.328 -93002.381 159100.996 -93011.816 159246.242 -93181.876 159254.517 -93189.938 159428.321 -93330.682 159437.927 -93337.1 159634.469 -93443.814 159645.084 -93448.375 159857.782 -93517.484 159869.051 -93520.034 159979.827 -93534.618 159935.089 -93538.139 159923.703 -93540.095 159707.679 -93597.978 159696.84 -93601.977 159494.982 -93698.258 159485.052 -93704.166 159304.121 -93835.62 159295.436 -93843.238 159141.489 -94005.462 159134.336 -94014.536 159012.531 -94202.099 159007.152 -94212.324 158921.567 -94418.944 158918.14 -94429.978 158871.642 -94648.735 158870.284 -94660.208 158864.43 -94883.774 158865.186 -94895.303 158900.172 -95116.195 158903.016 -95127.392 158977.669 -95338.208 158982.506 -95348.7 159094.328 -95542.381 159100.996 -95551.816 159246.242 -95721.876 159254.517 -95729.938 159428.321 -95870.682 159437.927 -95877.1 159634.469 -95983.814 159645.084 -95988.375 159857.782 -96057.484 159869.051 -96060.034 160090.781 -96089.225 160102.325 -96089.679 160325.663 -96077.975 160337.097 -96076.317 160554.561 -96024.108 160565.502 -96020.394 160769.81 -95929.43 160779.89 -95923.785 160964.201 -95797.112 160973.084 -95789.724 161131.224 -95631.584 161138.612 -95622.701 161164.001 -95585.76 161164.001 -99496.44 161060.053 -99316.397 160936.844 -99300.177 160126.21 -100110.809 160126.21 -100215.191 160936.844 -101025.823 161060.053 -101009.603 161164.001 -100829.56 161164.001 -103125 159214.961 -103125 159236.966 -103099.144 159243.001 -103090.746 159373.095 -102874.231 159377.677 -102864.961 159470.663 -102630.106 159473.67 -102620.211 159525.485 -102380.553 159449.836 -102286.8 156427.719 -102286.8 156352.375 -102373.474 156371.064 -102506.444 156373.337 -102516.532 156448.873 -102757.566 156452.764 -102767.148 156566.652 -102992.608 156572.055 -103001.426 156662.498 -103125 153774.459 -103125 153785.024 -103119.617 153801.069 -103107.959 153940.876 -102968.152 153940.881 -102968.145 154969.595 -101939.431 156350.931 -101939.431 156426.518 -102030.8 157735.391 -102030.8 157809.2 -101956.991 157809.2 -100647.261 158065.2 -100647.261 158065.2 -101956.991 158139.009 -102030.8 159446.834 -102030.8 159522.319 -101941.791 159494.374 -101772.996 159491.855 -101762.966 159410.453 -101523.85 159406.33 -101514.366 159404.685 -101511.299 159515.247 -101551.54 159525.874 -101554.387 159762.103 -101596.041 159773.064 -101597 160012.936 -101597 160023.897 -101596.041 160260.126 -101554.387 160270.753 -101551.54 160496.16 -101469.498 160506.132 -101464.848 160739.603 -101330.053 160755.823 -101206.844 159622.885 -100073.905 158849.157 -99300.177 158725.947 -99316.397 158591.152 -99549.868 158586.502 -99559.84 158504.46 -99785.247 158501.613 -99795.874 158459.959 -100032.103 158459 -100043.064 158459 -100282.936 158459.959 -100293.897 158501.613 -100530.126 158504.46 -100540.753 158556.513 -100683.768 158477.583 -100648.295 158467.834 -100644.843 158223.623 -100580.319 158213.442 -100578.506 158147.602 -100572.282 158065.2 -100647.261 157809.2 -100647.261 157809.2 -100643.757 157713.384 -100568.086 157443.713 -100632.331 157433.883 -100635.543 157201.027 -100733.427 157191.854 -100738.202 156978.112 -100872.803 156969.842 -100879.012 156780.954 -101046.714 156773.809 -101054.191 156614.847 -101250.493 156609.02 -101259.036 156484.254 -101478.664 156479.899 -101488.044 156392.679 -101725.1 156389.916 -101735.066 156350.931 -101939.431 154969.595 -101939.431 156599.847 -100309.18 156638.46 -100270.568 156650.117 -100254.523 156670.405 -100214.706 156696.668 -100178.557 156705.672 -100160.886 156719.482 -100118.386 156739.769 -100078.569 156745.897 -100059.709 156752.888 -100015.573 156766.697 -99973.073 156769.799 -99953.485 156769.799 -99904.096 156769.8 -99904.084 156769.8 -96856.81 158708.024 -96856.81 158708.024 -98469.19 158709.237 -98481.51 158732.579 -98598.858 158742.077 -98621.789 158812.005 -98726.444 158829.556 -98743.995 158934.211 -98813.923 158957.142 -98823.421 159074.49 -98846.763 159086.81 -98847.976 159313.265 -98847.976 159289.84 -98856.502 159279.868 -98861.152 159046.397 -98995.947 159030.177 -99119.156 159840.809 -99929.79 159945.191 -99929.79 160755.823 -99119.156 160739.603 -98995.947 160506.132 -98861.152 160496.16 -98856.502 160472.735 -98847.976 160699.19 -98847.976 160711.51 -98846.763 160828.858 -98823.421 160851.789 -98813.923 160956.444 -98743.995 160973.995 -98726.444 161043.923 -98621.789 161053.421 -98598.858 161076.763 -98481.51 161077.976 -98469.19 161077.976 -96856.81 161076.763 -96844.49 161053.421 -96727.142 161043.923 -96704.211 160973.995 -96599.556 160956.444 -96582.005 160851.789 -96512.077 160828.858 -96502.579 160711.51 -96479.237 160699.19 -96478.024 159086.81 -96478.024 159074.49 -96479.237 158957.142 -96502.579 158934.211 -96512.077 158829.556 -96582.005 158812.005 -96599.556 158742.077 -96704.211 158732.579 -96727.142 158709.237 -96844.49 158708.024 -96856.81 156769.8 -96856.81 156769.8 -94862.386 156895.514 -94936.733 156912.973 -94943.805 157123.101 -94994.252 157141.868 -94995.878 157357.541 -94982.309 157375.956 -94978.344 157578.105 -94901.959 157594.54 -94892.754 157765.292 -94760.306 157778.294 -94746.676 157902.552 -94569.875 157910.972 -94553.024 157977.827 -94347.265 157980.926 -94328.18 157980.93 -94327.709 158240.294 -94068.346 158296.345 -94021.314 158310.516 -94004.425 158347.104 -93941.053 158389.083 -93881.101 158398.4 -93861.12 158402.857 -93844.488 158411.467 -93829.573 158419.008 -93808.856 158431.715 -93736.787 158450.656 -93666.099 158452.577 -93644.136 158446.2 -93571.238 158446.2 -87605.611 158453.864 -87660.143" fill="none" stroke-width="254"/><path d="M 138537.221 -101980.001 139532.553 -102975.334 139665.178 -103107.96 139681.223 -103119.617 139691.788 -103125 138331.026 -103125 138396.266 -103048.344 138402.301 -103039.946 138532.395 -102823.431 138536.977 -102814.161 138629.963 -102579.306 138632.97 -102569.411 138684.785 -102329.753 138609.136 -102236 136968.5 -102235.999 136968.501 -101980 138537.221 -101980.001"/><path d="M 138537.221 -101980.001 139532.553 -102975.334 139665.178 -103107.96 139681.223 -103119.617 139691.788 -103125 138331.026 -103125 138396.266 -103048.344 138402.301 -103039.946 138532.395 -102823.431 138536.977 -102814.161 138629.963 -102579.306 138632.97 -102569.411 138684.785 -102329.753 138609.136 -102236 136968.5 -102235.999 136968.501 -101980 138537.221 -101980.001" fill="none" stroke-width="254"/><path d="M 139877.254 -83596.914 139870.109 -83604.391 139711.147 -83800.693 139705.32 -83809.236 139580.554 -84028.864 139576.199 -84038.244 139488.979 -84275.3 139486.216 -84285.266 139447.231 -84489.631 139522.818 -84581 141161.5 -84581 141161.5 -86221.301 141254.912 -86296.944 141489.545 -86247.07 141499.45 -86244.099 141734.628 -86151.933 141743.915 -86147.384 141960.882 -86018.046 141969.301 -86012.041 142162.23 -85849.003 142169.555 -85841.703 142333.266 -85649.344 142339.301 -85640.946 142469.395 -85424.431 142473.977 -85415.161 142566.224 -85182.172 142566.224 -85680.39 142567.437 -85692.71 142590.779 -85810.058 142600.277 -85832.989 142670.205 -85937.644 142687.756 -85955.195 142792.411 -86025.123 142815.342 -86034.621 142932.69 -86057.963 142945.01 -86059.176 144887.79 -86059.176 144900.11 -86057.963 145017.458 -86034.621 145040.389 -86025.123 145145.044 -85955.195 145162.595 -85937.644 145232.523 -85832.989 145242.021 -85810.058 145250.655 -85766.65 145427.68 -85940.004 145435.637 -85946.61 145642.548 -86091.492 145651.477 -86096.71 145879.273 -86205.851 145888.935 -86209.54 146131.498 -86280.012 146141.632 -86282.073 146243.709 -86294.246 146328.4 -86219.054 146328.4 -84581 146584.4 -84581 146584.4 -86221.301 146677.812 -86296.944 146912.445 -86247.07 146922.35 -86244.099 147153.901 -86153.354 147153.901 -87721.755 147125.463 -87727.489 147117.188 -87729.753 146830.697 -87829.519 146822.804 -87832.886 146552.505 -87970.611 146545.143 -87975.017 146296.034 -88148.152 146289.338 -88153.516 146066.033 -88358.857 146060.127 -88365.08 145866.755 -88598.826 145861.748 -88605.794 145701.888 -88863.622 145697.873 -88871.204 145574.483 -89148.342 145571.535 -89156.399 145486.898 -89447.719 145485.07 -89456.102 145440.754 -89756.212 145440.081 -89764.766 145436.904 -90068.114 145437.398 -90076.68 145475.42 -90377.653 145477.072 -90386.072 145555.589 -90679.101 145558.368 -90687.218 145675.927 -90966.879 145679.782 -90974.544 145834.207 -91235.663 145839.067 -91242.734 146027.501 -91480.479 146033.276 -91486.824 146252.232 -91696.797 146258.814 -91702.301 146504.242 -91880.614 146511.51 -91885.173 146778.866 -92028.528 146786.686 -92032.059 147071.025 -92137.804 147079.251 -92140.241 147168.571 -92160.206 147034.633 -92189.165 147026.909 -92191.358 146728.775 -92296.933 146721.392 -92300.09 146439.09 -92442.691 146432.168 -92446.761 146170.273 -92624.076 146163.924 -92628.992 145982.291 -92789.123 145976.115 -92754.096 145968.574 -92733.38 145961.382 -92720.923 145957.659 -92707.028 145948.342 -92687.048 145911.202 -92634.005 145878.821 -92577.92 145864.65 -92561.031 145815.038 -92519.402 144719.376 -91423.74 144719.376 -88026.21 144718.163 -88013.89 144694.821 -87896.542 144685.323 -87873.611 144615.395 -87768.956 144597.844 -87751.405 144493.189 -87681.477 144470.258 -87671.979 144352.91 -87648.637 144340.59 -87647.424 140512.21 -87647.424 140499.89 -87648.637 140382.542 -87671.979 140359.611 -87681.477 140254.956 -87751.405 140237.405 -87768.956 140167.477 -87873.611 140157.979 -87896.542 140134.637 -88013.89 140133.424 -88026.21 140133.424 -91854.59 140134.637 -91866.91 140157.979 -91984.258 140167.477 -92007.189 140237.405 -92111.844 140254.956 -92129.395 140359.611 -92199.323 140382.542 -92208.821 140499.89 -92232.163 140512.21 -92233.376 143909.74 -92233.376 144855.399 -93179.035 144855.4 -95718.689 144849.756 -95783.196 144851.677 -95805.16 144868.441 -95867.719 144879.684 -95931.483 144887.225 -95952.201 144894.416 -95964.657 144898.139 -95978.55 144907.456 -95998.531 144944.598 -96051.575 144976.977 -96107.659 144991.149 -96124.548 145040.762 -96166.179 146303.62 -97429.038 146345.249 -97478.65 146362.138 -97492.821 146369.516 -97497.081 146296.034 -97548.152 146289.338 -97553.516 146066.033 -97758.857 146060.127 -97765.08 145866.755 -97998.826 145861.748 -98005.794 145701.888 -98263.622 145697.873 -98271.204 145574.483 -98548.342 145571.535 -98556.399 145486.898 -98847.719 145485.07 -98856.102 145440.754 -99156.212 145440.081 -99164.766 145436.904 -99468.114 145437.398 -99476.68 145475.42 -99777.653 145477.072 -99786.072 145555.589 -100079.101 145558.368 -100087.218 145675.927 -100366.879 145679.782 -100374.544 145834.207 -100635.663 145839.067 -100642.734 146027.501 -100880.479 146033.276 -100886.824 146252.232 -101096.797 146258.814 -101102.301 146504.242 -101280.614 146511.51 -101285.173 146778.866 -101428.528 146786.686 -101432.059 147071.025 -101537.804 147079.251 -101540.241 147375.31 -101606.418 147383.792 -101607.716 147686.092 -101633.101 147694.671 -101633.236 147997.621 -101617.359 148006.139 -101616.328 148304.13 -101559.483 148312.429 -101557.306 148599.95 -101460.544 148607.877 -101457.261 148879.604 -101322.374 148887.011 -101318.045 149137.919 -101147.529 149144.67 -101142.235 149370.114 -100939.245 149376.085 -100933.083 149571.895 -100701.374 149576.975 -100694.459 149739.526 -100438.319 149743.62 -100430.779 149869.905 -100154.949 149872.937 -100146.923 149960.619 -99856.505 149962.535 -99848.142 150010.043 -99548.186 150010.817 -99538.977 150014.474 -99189.706 150013.894 -99180.484 149972.678 -98879.6 149970.938 -98871.198 149889.357 -98579.008 149886.493 -98570.921 149766.012 -98292.505 149762.077 -98284.881 149604.926 -98025.393 149599.992 -98018.374 149409.079 -97782.615 149403.238 -97776.33 149230.8 -97614.399 150490.764 -97614.399 151054.742 -98178.377 151001.888 -98263.622 150997.873 -98271.204 150874.483 -98548.342 150871.535 -98556.399 150786.898 -98847.719 150785.07 -98856.102 150740.754 -99156.212 150740.081 -99164.766 150736.904 -99468.114 150737.398 -99476.68 150775.42 -99777.653 150777.072 -99786.072 150855.589 -100079.101 150858.368 -100087.218 150975.927 -100366.879 150979.782 -100374.544 151134.207 -100635.663 151139.067 -100642.734 151327.501 -100880.479 151333.276 -100886.824 151552.232 -101096.797 151558.814 -101102.301 151804.242 -101280.614 151811.51 -101285.173 152078.866 -101428.528 152086.686 -101432.059 152371.025 -101537.804 152379.251 -101540.241 152675.31 -101606.418 152683.792 -101607.716 152986.092 -101633.101 152994.671 -101633.236 153297.621 -101617.359 153306.139 -101616.328 153360.51 -101605.956 153100.766 -101865.7 140365.481 -101865.7 138446.676 -99946.896 138446.676 -99468.114 140136.904 -99468.114 140137.398 -99476.68 140175.42 -99777.653 140177.072 -99786.072 140255.589 -100079.101 140258.368 -100087.218 140375.927 -100366.879 140379.782 -100374.544 140534.207 -100635.663 140539.067 -100642.734 140727.501 -100880.479 140733.276 -100886.824 140952.232 -101096.797 140958.814 -101102.301 141204.242 -101280.614 141211.51 -101285.173 141478.866 -101428.528 141486.686 -101432.059 141771.025 -101537.804 141779.251 -101540.241 142075.31 -101606.418 142083.792 -101607.716 142386.092 -101633.101 142394.671 -101633.236 142697.621 -101617.359 142706.139 -101616.328 143004.13 -101559.483 143012.429 -101557.306 143299.95 -101460.544 143307.877 -101457.261 143579.604 -101322.374 143587.011 -101318.045 143837.919 -101147.529 143844.67 -101142.235 144070.114 -100939.245 144076.085 -100933.083 144271.895 -100701.374 144276.975 -100694.459 144439.526 -100438.319 144443.62 -100430.779 144569.905 -100154.949 144572.937 -100146.923 144660.619 -99856.505 144662.535 -99848.142 144710.043 -99548.186 144710.817 -99538.977 144714.474 -99189.706 144713.894 -99180.484 144672.678 -98879.6 144670.938 -98871.198 144589.357 -98579.008 144586.493 -98570.921 144466.012 -98292.505 144462.077 -98284.881 144304.926 -98025.393 144299.992 -98018.374 144109.079 -97782.615 144103.238 -97776.33 143882.095 -97568.662 143875.455 -97563.228 143628.174 -97387.494 143620.858 -97383.011 143352.014 -97242.463 143344.158 -97239.014 143058.729 -97136.254 143050.477 -97133.903 142753.741 -97070.829 142745.246 -97069.621 142442.697 -97047.403 142434.117 -97047.358 142131.35 -97066.406 142122.843 -97067.526 141825.464 -97127.489 141817.188 -97129.753 141530.697 -97229.519 141522.804 -97232.886 141252.505 -97370.611 141245.143 -97375.017 140996.034 -97548.152 140989.338 -97553.516 140766.033 -97758.857 140760.127 -97765.08 140566.755 -97998.826 140561.748 -98005.794 140401.888 -98263.622 140397.873 -98271.204 140274.483 -98548.342 140271.535 -98556.399 140186.898 -98847.719 140185.07 -98856.102 140140.754 -99156.212 140140.081 -99164.766 140136.904 -99468.114 138446.676 -99468.114 138446.676 -98596.61 138445.463 -98584.29 138422.121 -98466.942 138412.623 -98444.011 138342.695 -98339.356 138325.144 -98321.805 138220.489 -98251.877 138197.558 -98242.379 138080.21 -98219.037 138067.89 -98217.824 137633.119 -98217.824 137640.475 -98212.077 137799.088 -98061.033 137807.141 -98051.703 137933.394 -97872.728 137939.481 -97862.012 138028.567 -97661.923 138032.458 -97650.228 138081.08 -97436.216 138082.644 -97423.102 138086.124 -97173.806 138084.927 -97160.654 138042.299 -96945.369 138038.737 -96933.57 137955.274 -96731.071 137949.487 -96720.189 137828.281 -96537.758 137820.491 -96528.207 137666.159 -96372.793 137656.662 -96364.937 137475.082 -96242.46 137464.241 -96236.598 137262.33 -96151.723 137250.556 -96148.079 137036.005 -96104.037 137023.748 -96102.749 136804.728 -96101.22 136792.454 -96102.337 136577.309 -96143.379 136565.485 -96146.858 136362.41 -96228.906 136351.488 -96234.616 136168.216 -96354.546 136158.611 -96362.269 136016 -96501.923 136016 -95519.118 136133.221 -95640.504 136142.607 -95648.492 136322.458 -95773.493 136333.217 -95779.506 136533.923 -95867.192 136545.645 -95871 136759.56 -95918.033 136771.798 -95919.492 136990.775 -95924.079 137003.064 -95923.134 137218.761 -95885.101 137230.632 -95881.786 137434.834 -95802.581 137445.835 -95797.024 137630.763 -95679.664 137640.475 -95672.077 137799.088 -95521.033 137807.141 -95511.703 137933.394 -95332.728 137939.481 -95322.012 138028.567 -95121.923 138032.458 -95110.228 138081.08 -94896.216 138082.644 -94883.102 138084.249 -94768.114 140136.904 -94768.114 140137.398 -94776.68 140175.42 -95077.653 140177.072 -95086.072 140255.589 -95379.101 140258.368 -95387.218 140375.927 -95666.879 140379.782 -95674.544 140534.207 -95935.663 140539.067 -95942.734 140727.501 -96180.479 140733.276 -96186.824 140952.232 -96396.797 140958.814 -96402.301 141204.242 -96580.614 141211.51 -96585.173 141478.866 -96728.528 141486.686 -96732.059 141771.025 -96837.804 141779.251 -96840.241 142075.31 -96906.418 142083.792 -96907.716 142386.092 -96933.101 142394.671 -96933.236 142697.621 -96917.359 142706.139 -96916.328 143004.13 -96859.483 143012.429 -96857.306 143299.95 -96760.544 143307.877 -96757.261 143579.604 -96622.374 143587.011 -96618.045 143837.919 -96447.529 143844.67 -96442.235 144070.114 -96239.245 144076.085 -96233.083 144271.895 -96001.374 144276.975 -95994.459 144439.526 -95738.319 144443.62 -95730.779 144569.905 -95454.949 144572.937 -95446.923 144660.619 -95156.505 144662.535 -95148.142 144710.043 -94848.186 144710.817 -94838.977 144714.474 -94489.706 144713.894 -94480.484 144672.678 -94179.6 144670.938 -94171.198 144589.357 -93879.008 144586.493 -93870.921 144466.012 -93592.505 144462.077 -93584.881 144304.926 -93325.393 144299.992 -93318.374 144109.079 -93082.615 144103.238 -93076.33 143882.095 -92868.662 143875.455 -92863.228 143628.174 -92687.494 143620.858 -92683.011 143352.014 -92542.463 143344.158 -92539.014 143058.729 -92436.254 143050.477 -92433.903 142753.741 -92370.829 142745.246 -92369.621 142442.697 -92347.403 142434.117 -92347.358 142131.35 -92366.406 142122.843 -92367.526 141825.464 -92427.489 141817.188 -92429.753 141530.697 -92529.519 141522.804 -92532.886 141252.505 -92670.611 141245.143 -92675.017 140996.034 -92848.152 140989.338 -92853.516 140766.033 -93058.857 140760.127 -93065.08 140566.755 -93298.826 140561.748 -93305.794 140401.888 -93563.622 140397.873 -93571.204 140274.483 -93848.342 140271.535 -93856.399 140186.898 -94147.719 140185.07 -94156.102 140140.754 -94456.212 140140.081 -94464.766 140136.904 -94768.114 138084.249 -94768.114 138086.124 -94633.806 138084.927 -94620.654 138042.299 -94405.369 138038.737 -94393.57 137955.274 -94191.071 137949.487 -94180.189 137828.281 -93997.758 137820.491 -93988.207 137666.159 -93832.793 137656.662 -93824.937 137542 -93747.597 137542 -93145.196 137630.764 -93088.864 137640.475 -93081.277 137799.088 -92930.233 137807.141 -92920.903 137933.394 -92741.928 137939.481 -92731.212 138028.567 -92531.123 138032.458 -92519.428 138081.08 -92305.416 138082.644 -92292.302 138086.124 -92043.006 138084.927 -92029.854 138042.299 -91814.569 138038.737 -91802.77 137955.274 -91600.271 137949.487 -91589.389 137828.281 -91406.958 137820.491 -91397.407 137666.159 -91241.993 137656.662 -91234.137 137475.082 -91111.66 137464.241 -91105.798 137262.33 -91020.923 137250.556 -91017.279 137036.005 -90973.237 137023.748 -90971.949 136804.728 -90970.42 136792.454 -90971.537 136577.309 -91012.579 136565.485 -91016.058 136362.41 -91098.106 136351.488 -91103.816 136168.216 -91223.746 136158.611 -91231.469 136016 -91371.123 136016 -90388.318 136133.221 -90509.704 136142.607 -90517.692 136322.458 -90642.693 136333.217 -90648.706 136533.923 -90736.392 136545.645 -90740.2 136759.56 -90787.233 136771.798 -90788.692 136990.775 -90793.279 137003.064 -90792.334 137218.761 -90754.301 137230.632 -90750.986 137434.834 -90671.781 137445.835 -90666.224 137630.763 -90548.864 137640.475 -90541.277 137799.088 -90390.233 137807.141 -90380.903 137933.394 -90201.928 137939.481 -90191.212 138028.567 -89991.123 138032.458 -89979.428 138081.08 -89765.416 138082.644 -89752.302 138086.124 -89503.006 138084.927 -89489.854 138042.299 -89274.569 138038.737 -89262.77 137955.274 -89060.271 137949.487 -89049.389 137828.281 -88866.958 137820.491 -88857.407 137666.159 -88701.993 137656.662 -88694.137 137475.082 -88571.66 137464.241 -88565.798 137362.293 -88522.943 137368.972 -88522.088 137616.045 -88469.57 137625.95 -88466.599 137861.128 -88374.433 137870.415 -88369.884 138087.382 -88240.546 138095.801 -88234.541 138288.73 -88071.503 138296.055 -88064.203 138459.766 -87871.844 138465.801 -87863.446 138595.895 -87646.931 138600.477 -87637.661 138693.463 -87402.806 138696.47 -87392.911 138748.285 -87153.253 138672.636 -87059.5 137032 -87059.5 137032 -86803.5 138669.634 -86803.5 138745.119 -86714.491 138717.174 -86545.696 138714.655 -86535.666 138633.253 -86296.55 138629.13 -86287.066 138509.767 -86064.455 138504.149 -86055.771 138350.031 -85855.646 138349.097 -85854.619 138388.644 -85828.195 138406.195 -85810.644 138476.123 -85705.989 138485.621 -85683.058 138508.963 -85565.71 138510.176 -85553.39 138510.176 -84923.674 139448.675 -84923.674 139467.364 -85056.644 139469.637 -85066.732 139545.173 -85307.766 139549.064 -85317.348 139662.952 -85542.808 139668.355 -85551.626 139817.538 -85755.458 139824.309 -85763.275 140004.78 -85940.004 140012.737 -85946.61 140219.648 -86091.492 140228.577 -86096.71 140456.373 -86205.851 140466.035 -86209.54 140708.598 -86280.012 140718.732 -86282.073 140820.809 -86294.246 140905.5 -86219.054 140905.5 -84910.809 140831.691 -84837 139524.019 -84837 139448.675 -84923.674 138510.176 -84923.674 138510.176 -83610.61 138508.963 -83598.29 138502.341 -83565 139913.2 -83565 139877.254 -83596.914"/><path d="M 139877.254 -83596.914 139870.109 -83604.391 139711.147 -83800.693 139705.32 -83809.236 139580.554 -84028.864 139576.199 -84038.244 139488.979 -84275.3 139486.216 -84285.266 139447.231 -84489.631 139522.818 -84581 141161.5 -84581 141161.5 -86221.301 141254.912 -86296.944 141489.545 -86247.07 141499.45 -86244.099 141734.628 -86151.933 141743.915 -86147.384 141960.882 -86018.046 141969.301 -86012.041 142162.23 -85849.003 142169.555 -85841.703 142333.266 -85649.344 142339.301 -85640.946 142469.395 -85424.431 142473.977 -85415.161 142566.224 -85182.172 142566.224 -85680.39 142567.437 -85692.71 142590.779 -85810.058 142600.277 -85832.989 142670.205 -85937.644 142687.756 -85955.195 142792.411 -86025.123 142815.342 -86034.621 142932.69 -86057.963 142945.01 -86059.176 144887.79 -86059.176 144900.11 -86057.963 145017.458 -86034.621 145040.389 -86025.123 145145.044 -85955.195 145162.595 -85937.644 145232.523 -85832.989 145242.021 -85810.058 145250.655 -85766.65 145427.68 -85940.004 145435.637 -85946.61 145642.548 -86091.492 145651.477 -86096.71 145879.273 -86205.851 145888.935 -86209.54 146131.498 -86280.012 146141.632 -86282.073 146243.709 -86294.246 146328.4 -86219.054 146328.4 -84581 146584.4 -84581 146584.4 -86221.301 146677.812 -86296.944 146912.445 -86247.07 146922.35 -86244.099 147153.901 -86153.354 147153.901 -87721.755 147125.463 -87727.489 147117.188 -87729.753 146830.697 -87829.519 146822.804 -87832.886 146552.505 -87970.611 146545.143 -87975.017 146296.034 -88148.152 146289.338 -88153.516 146066.033 -88358.857 146060.127 -88365.08 145866.755 -88598.826 145861.748 -88605.794 145701.888 -88863.622 145697.873 -88871.204 145574.483 -89148.342 145571.535 -89156.399 145486.898 -89447.719 145485.07 -89456.102 145440.754 -89756.212 145440.081 -89764.766 145436.904 -90068.114 145437.398 -90076.68 145475.42 -90377.653 145477.072 -90386.072 145555.589 -90679.101 145558.368 -90687.218 145675.927 -90966.879 145679.782 -90974.544 145834.207 -91235.663 145839.067 -91242.734 146027.501 -91480.479 146033.276 -91486.824 146252.232 -91696.797 146258.814 -91702.301 146504.242 -91880.614 146511.51 -91885.173 146778.866 -92028.528 146786.686 -92032.059 147071.025 -92137.804 147079.251 -92140.241 147168.571 -92160.206 147034.633 -92189.165 147026.909 -92191.358 146728.775 -92296.933 146721.392 -92300.09 146439.09 -92442.691 146432.168 -92446.761 146170.273 -92624.076 146163.924 -92628.992 145982.291 -92789.123 145976.115 -92754.096 145968.574 -92733.38 145961.382 -92720.923 145957.659 -92707.028 145948.342 -92687.048 145911.202 -92634.005 145878.821 -92577.92 145864.65 -92561.031 145815.038 -92519.402 144719.376 -91423.74 144719.376 -88026.21 144718.163 -88013.89 144694.821 -87896.542 144685.323 -87873.611 144615.395 -87768.956 144597.844 -87751.405 144493.189 -87681.477 144470.258 -87671.979 144352.91 -87648.637 144340.59 -87647.424 140512.21 -87647.424 140499.89 -87648.637 140382.542 -87671.979 140359.611 -87681.477 140254.956 -87751.405 140237.405 -87768.956 140167.477 -87873.611 140157.979 -87896.542 140134.637 -88013.89 140133.424 -88026.21 140133.424 -91854.59 140134.637 -91866.91 140157.979 -91984.258 140167.477 -92007.189 140237.405 -92111.844 140254.956 -92129.395 140359.611 -92199.323 140382.542 -92208.821 140499.89 -92232.163 140512.21 -92233.376 143909.74 -92233.376 144855.399 -93179.035 144855.4 -95718.689 144849.756 -95783.196 144851.677 -95805.16 144868.441 -95867.719 144879.684 -95931.483 144887.225 -95952.201 144894.416 -95964.657 144898.139 -95978.55 144907.456 -95998.531 144944.598 -96051.575 144976.977 -96107.659 144991.149 -96124.548 145040.762 -96166.179 146303.62 -97429.038 146345.249 -97478.65 146362.138 -97492.821 146369.516 -97497.081 146296.034 -97548.152 146289.338 -97553.516 146066.033 -97758.857 146060.127 -97765.08 145866.755 -97998.826 145861.748 -98005.794 145701.888 -98263.622 145697.873 -98271.204 145574.483 -98548.342 145571.535 -98556.399 145486.898 -98847.719 145485.07 -98856.102 145440.754 -99156.212 145440.081 -99164.766 145436.904 -99468.114 145437.398 -99476.68 145475.42 -99777.653 145477.072 -99786.072 145555.589 -100079.101 145558.368 -100087.218 145675.927 -100366.879 145679.782 -100374.544 145834.207 -100635.663 145839.067 -100642.734 146027.501 -100880.479 146033.276 -100886.824 146252.232 -101096.797 146258.814 -101102.301 146504.242 -101280.614 146511.51 -101285.173 146778.866 -101428.528 146786.686 -101432.059 147071.025 -101537.804 147079.251 -101540.241 147375.31 -101606.418 147383.792 -101607.716 147686.092 -101633.101 147694.671 -101633.236 147997.621 -101617.359 148006.139 -101616.328 148304.13 -101559.483 148312.429 -101557.306 148599.95 -101460.544 148607.877 -101457.261 148879.604 -101322.374 148887.011 -101318.045 149137.919 -101147.529 149144.67 -101142.235 149370.114 -100939.245 149376.085 -100933.083 149571.895 -100701.374 149576.975 -100694.459 149739.526 -100438.319 149743.62 -100430.779 149869.905 -100154.949 149872.937 -100146.923 149960.619 -99856.505 149962.535 -99848.142 150010.043 -99548.186 150010.817 -99538.977 150014.474 -99189.706 150013.894 -99180.484 149972.678 -98879.6 149970.938 -98871.198 149889.357 -98579.008 149886.493 -98570.921 149766.012 -98292.505 149762.077 -98284.881 149604.926 -98025.393 149599.992 -98018.374 149409.079 -97782.615 149403.238 -97776.33 149230.8 -97614.399 150490.764 -97614.399 151054.742 -98178.377 151001.888 -98263.622 150997.873 -98271.204 150874.483 -98548.342 150871.535 -98556.399 150786.898 -98847.719 150785.07 -98856.102 150740.754 -99156.212 150740.081 -99164.766 150736.904 -99468.114 150737.398 -99476.68 150775.42 -99777.653 150777.072 -99786.072 150855.589 -100079.101 150858.368 -100087.218 150975.927 -100366.879 150979.782 -100374.544 151134.207 -100635.663 151139.067 -100642.734 151327.501 -100880.479 151333.276 -100886.824 151552.232 -101096.797 151558.814 -101102.301 151804.242 -101280.614 151811.51 -101285.173 152078.866 -101428.528 152086.686 -101432.059 152371.025 -101537.804 152379.251 -101540.241 152675.31 -101606.418 152683.792 -101607.716 152986.092 -101633.101 152994.671 -101633.236 153297.621 -101617.359 153306.139 -101616.328 153360.51 -101605.956 153100.766 -101865.7 140365.481 -101865.7 138446.676 -99946.896 138446.676 -99468.114 140136.904 -99468.114 140137.398 -99476.68 140175.42 -99777.653 140177.072 -99786.072 140255.589 -100079.101 140258.368 -100087.218 140375.927 -100366.879 140379.782 -100374.544 140534.207 -100635.663 140539.067 -100642.734 140727.501 -100880.479 140733.276 -100886.824 140952.232 -101096.797 140958.814 -101102.301 141204.242 -101280.614 141211.51 -101285.173 141478.866 -101428.528 141486.686 -101432.059 141771.025 -101537.804 141779.251 -101540.241 142075.31 -101606.418 142083.792 -101607.716 142386.092 -101633.101 142394.671 -101633.236 142697.621 -101617.359 142706.139 -101616.328 143004.13 -101559.483 143012.429 -101557.306 143299.95 -101460.544 143307.877 -101457.261 143579.604 -101322.374 143587.011 -101318.045 143837.919 -101147.529 143844.67 -101142.235 144070.114 -100939.245 144076.085 -100933.083 144271.895 -100701.374 144276.975 -100694.459 144439.526 -100438.319 144443.62 -100430.779 144569.905 -100154.949 144572.937 -100146.923 144660.619 -99856.505 144662.535 -99848.142 144710.043 -99548.186 144710.817 -99538.977 144714.474 -99189.706 144713.894 -99180.484 144672.678 -98879.6 144670.938 -98871.198 144589.357 -98579.008 144586.493 -98570.921 144466.012 -98292.505 144462.077 -98284.881 144304.926 -98025.393 144299.992 -98018.374 144109.079 -97782.615 144103.238 -97776.33 143882.095 -97568.662 143875.455 -97563.228 143628.174 -97387.494 143620.858 -97383.011 143352.014 -97242.463 143344.158 -97239.014 143058.729 -97136.254 143050.477 -97133.903 142753.741 -97070.829 142745.246 -97069.621 142442.697 -97047.403 142434.117 -97047.358 142131.35 -97066.406 142122.843 -97067.526 141825.464 -97127.489 141817.188 -97129.753 141530.697 -97229.519 141522.804 -97232.886 141252.505 -97370.611 141245.143 -97375.017 140996.034 -97548.152 140989.338 -97553.516 140766.033 -97758.857 140760.127 -97765.08 140566.755 -97998.826 140561.748 -98005.794 140401.888 -98263.622 140397.873 -98271.204 140274.483 -98548.342 140271.535 -98556.399 140186.898 -98847.719 140185.07 -98856.102 140140.754 -99156.212 140140.081 -99164.766 140136.904 -99468.114 138446.676 -99468.114 138446.676 -98596.61 138445.463 -98584.29 138422.121 -98466.942 138412.623 -98444.011 138342.695 -98339.356 138325.144 -98321.805 138220.489 -98251.877 138197.558 -98242.379 138080.21 -98219.037 138067.89 -98217.824 137633.119 -98217.824 137640.475 -98212.077 137799.088 -98061.033 137807.141 -98051.703 137933.394 -97872.728 137939.481 -97862.012 138028.567 -97661.923 138032.458 -97650.228 138081.08 -97436.216 138082.644 -97423.102 138086.124 -97173.806 138084.927 -97160.654 138042.299 -96945.369 138038.737 -96933.57 137955.274 -96731.071 137949.487 -96720.189 137828.281 -96537.758 137820.491 -96528.207 137666.159 -96372.793 137656.662 -96364.937 137475.082 -96242.46 137464.241 -96236.598 137262.33 -96151.723 137250.556 -96148.079 137036.005 -96104.037 137023.748 -96102.749 136804.728 -96101.22 136792.454 -96102.337 136577.309 -96143.379 136565.485 -96146.858 136362.41 -96228.906 136351.488 -96234.616 136168.216 -96354.546 136158.611 -96362.269 136016 -96501.923 136016 -95519.118 136133.221 -95640.504 136142.607 -95648.492 136322.458 -95773.493 136333.217 -95779.506 136533.923 -95867.192 136545.645 -95871 136759.56 -95918.033 136771.798 -95919.492 136990.775 -95924.079 137003.064 -95923.134 137218.761 -95885.101 137230.632 -95881.786 137434.834 -95802.581 137445.835 -95797.024 137630.763 -95679.664 137640.475 -95672.077 137799.088 -95521.033 137807.141 -95511.703 137933.394 -95332.728 137939.481 -95322.012 138028.567 -95121.923 138032.458 -95110.228 138081.08 -94896.216 138082.644 -94883.102 138084.249 -94768.114 140136.904 -94768.114 140137.398 -94776.68 140175.42 -95077.653 140177.072 -95086.072 140255.589 -95379.101 140258.368 -95387.218 140375.927 -95666.879 140379.782 -95674.544 140534.207 -95935.663 140539.067 -95942.734 140727.501 -96180.479 140733.276 -96186.824 140952.232 -96396.797 140958.814 -96402.301 141204.242 -96580.614 141211.51 -96585.173 141478.866 -96728.528 141486.686 -96732.059 141771.025 -96837.804 141779.251 -96840.241 142075.31 -96906.418 142083.792 -96907.716 142386.092 -96933.101 142394.671 -96933.236 142697.621 -96917.359 142706.139 -96916.328 143004.13 -96859.483 143012.429 -96857.306 143299.95 -96760.544 143307.877 -96757.261 143579.604 -96622.374 143587.011 -96618.045 143837.919 -96447.529 143844.67 -96442.235 144070.114 -96239.245 144076.085 -96233.083 144271.895 -96001.374 144276.975 -95994.459 144439.526 -95738.319 144443.62 -95730.779 144569.905 -95454.949 144572.937 -95446.923 144660.619 -95156.505 144662.535 -95148.142 144710.043 -94848.186 144710.817 -94838.977 144714.474 -94489.706 144713.894 -94480.484 144672.678 -94179.6 144670.938 -94171.198 144589.357 -93879.008 144586.493 -93870.921 144466.012 -93592.505 144462.077 -93584.881 144304.926 -93325.393 144299.992 -93318.374 144109.079 -93082.615 144103.238 -93076.33 143882.095 -92868.662 143875.455 -92863.228 143628.174 -92687.494 143620.858 -92683.011 143352.014 -92542.463 143344.158 -92539.014 143058.729 -92436.254 143050.477 -92433.903 142753.741 -92370.829 142745.246 -92369.621 142442.697 -92347.403 142434.117 -92347.358 142131.35 -92366.406 142122.843 -92367.526 141825.464 -92427.489 141817.188 -92429.753 141530.697 -92529.519 141522.804 -92532.886 141252.505 -92670.611 141245.143 -92675.017 140996.034 -92848.152 140989.338 -92853.516 140766.033 -93058.857 140760.127 -93065.08 140566.755 -93298.826 140561.748 -93305.794 140401.888 -93563.622 140397.873 -93571.204 140274.483 -93848.342 140271.535 -93856.399 140186.898 -94147.719 140185.07 -94156.102 140140.754 -94456.212 140140.081 -94464.766 140136.904 -94768.114 138084.249 -94768.114 138086.124 -94633.806 138084.927 -94620.654 138042.299 -94405.369 138038.737 -94393.57 137955.274 -94191.071 137949.487 -94180.189 137828.281 -93997.758 137820.491 -93988.207 137666.159 -93832.793 137656.662 -93824.937 137542 -93747.597 137542 -93145.196 137630.764 -93088.864 137640.475 -93081.277 137799.088 -92930.233 137807.141 -92920.903 137933.394 -92741.928 137939.481 -92731.212 138028.567 -92531.123 138032.458 -92519.428 138081.08 -92305.416 138082.644 -92292.302 138086.124 -92043.006 138084.927 -92029.854 138042.299 -91814.569 138038.737 -91802.77 137955.274 -91600.271 137949.487 -91589.389 137828.281 -91406.958 137820.491 -91397.407 137666.159 -91241.993 137656.662 -91234.137 137475.082 -91111.66 137464.241 -91105.798 137262.33 -91020.923 137250.556 -91017.279 137036.005 -90973.237 137023.748 -90971.949 136804.728 -90970.42 136792.454 -90971.537 136577.309 -91012.579 136565.485 -91016.058 136362.41 -91098.106 136351.488 -91103.816 136168.216 -91223.746 136158.611 -91231.469 136016 -91371.123 136016 -90388.318 136133.221 -90509.704 136142.607 -90517.692 136322.458 -90642.693 136333.217 -90648.706 136533.923 -90736.392 136545.645 -90740.2 136759.56 -90787.233 136771.798 -90788.692 136990.775 -90793.279 137003.064 -90792.334 137218.761 -90754.301 137230.632 -90750.986 137434.834 -90671.781 137445.835 -90666.224 137630.763 -90548.864 137640.475 -90541.277 137799.088 -90390.233 137807.141 -90380.903 137933.394 -90201.928 137939.481 -90191.212 138028.567 -89991.123 138032.458 -89979.428 138081.08 -89765.416 138082.644 -89752.302 138086.124 -89503.006 138084.927 -89489.854 138042.299 -89274.569 138038.737 -89262.77 137955.274 -89060.271 137949.487 -89049.389 137828.281 -88866.958 137820.491 -88857.407 137666.159 -88701.993 137656.662 -88694.137 137475.082 -88571.66 137464.241 -88565.798 137362.293 -88522.943 137368.972 -88522.088 137616.045 -88469.57 137625.95 -88466.599 137861.128 -88374.433 137870.415 -88369.884 138087.382 -88240.546 138095.801 -88234.541 138288.73 -88071.503 138296.055 -88064.203 138459.766 -87871.844 138465.801 -87863.446 138595.895 -87646.931 138600.477 -87637.661 138693.463 -87402.806 138696.47 -87392.911 138748.285 -87153.253 138672.636 -87059.5 137032 -87059.5 137032 -86803.5 138669.634 -86803.5 138745.119 -86714.491 138717.174 -86545.696 138714.655 -86535.666 138633.253 -86296.55 138629.13 -86287.066 138509.767 -86064.455 138504.149 -86055.771 138350.031 -85855.646 138349.097 -85854.619 138388.644 -85828.195 138406.195 -85810.644 138476.123 -85705.989 138485.621 -85683.058 138508.963 -85565.71 138510.176 -85553.39 138510.176 -84923.674 139448.675 -84923.674 139467.364 -85056.644 139469.637 -85066.732 139545.173 -85307.766 139549.064 -85317.348 139662.952 -85542.808 139668.355 -85551.626 139817.538 -85755.458 139824.309 -85763.275 140004.78 -85940.004 140012.737 -85946.61 140219.648 -86091.492 140228.577 -86096.71 140456.373 -86205.851 140466.035 -86209.54 140708.598 -86280.012 140718.732 -86282.073 140820.809 -86294.246 140905.5 -86219.054 140905.5 -84910.809 140831.691 -84837 139524.019 -84837 139448.675 -84923.674 138510.176 -84923.674 138510.176 -83610.61 138508.963 -83598.29 138502.341 -83565 139913.2 -83565 139877.254 -83596.914" fill="none" stroke-width="254"/><path d="M 150353.968 -85360.711 150359.426 -85370.517 150488.063 -85559.802 150495.171 -85568.488 150655.296 -85732 150663.829 -85739.288 150850.378 -85871.863 150860.068 -85877.525 150900.401 -85896.504 150900.4 -88422.649 150894.024 -88495.535 150895.945 -88517.498 150914.883 -88588.177 150927.592 -88660.255 150935.133 -88680.972 150943.742 -88695.884 150948.199 -88712.519 150957.517 -88732.5 150999.488 -88792.441 151021.926 -88831.303 151001.888 -88863.621 150997.873 -88871.204 150874.483 -89148.342 150871.535 -89156.399 150786.898 -89447.719 150785.07 -89456.102 150740.754 -89756.212 150740.081 -89764.766 150736.904 -90068.114 150737.398 -90076.68 150775.42 -90377.653 150777.072 -90386.072 150855.589 -90679.101 150858.368 -90687.218 150975.927 -90966.879 150979.782 -90974.544 151134.207 -91235.663 151139.067 -91242.734 151327.501 -91480.479 151333.276 -91486.824 151552.232 -91696.797 151558.814 -91702.301 151804.242 -91880.614 151811.51 -91885.173 152078.866 -92028.528 152086.686 -92032.059 152371.025 -92137.804 152379.251 -92140.241 152675.31 -92206.418 152683.792 -92207.716 152986.092 -92233.101 152994.671 -92233.236 153297.621 -92217.359 153306.139 -92216.328 153604.13 -92159.483 153612.429 -92157.306 153899.95 -92060.544 153907.877 -92057.261 154179.604 -91922.374 154187.011 -91918.045 154437.919 -91747.529 154444.67 -91742.235 154670.114 -91539.245 154676.085 -91533.083 154871.895 -91301.374 154876.975 -91294.459 155039.526 -91038.319 155043.62 -91030.779 155169.905 -90754.949 155172.937 -90746.923 155260.619 -90456.505 155262.535 -90448.142 155310.043 -90148.186 155310.817 -90138.977 155314.474 -89789.706 155313.894 -89780.484 155272.678 -89479.6 155270.938 -89471.198 155189.357 -89179.008 155186.493 -89170.921 155066.012 -88892.505 155062.077 -88884.881 154904.926 -88625.393 154899.992 -88618.374 154709.079 -88382.615 154703.238 -88376.33 154482.095 -88168.662 154475.455 -88163.228 154228.174 -87987.494 154220.858 -87983.011 153952.014 -87842.463 153944.158 -87839.014 153658.729 -87736.254 153650.477 -87733.903 153353.741 -87670.829 153345.246 -87669.621 153042.697 -87647.403 153034.117 -87647.358 152731.35 -87666.406 152722.843 -87667.526 152425.464 -87727.489 152417.188 -87729.753 152172.4 -87814.997 152172.4 -85895.772 152224.931 -85870.378 152234.561 -85864.614 152419.712 -85730.095 152428.169 -85722.717 152586.572 -85557.536 152593.589 -85548.777 152720.237 -85358.157 152725.593 -85348.293 152764.324 -85258.791 152764.324 -85489.89 152765.537 -85502.21 152788.879 -85619.558 152798.377 -85642.489 152868.305 -85747.144 152885.856 -85764.695 152990.511 -85834.623 153013.442 -85844.121 153130.79 -85867.463 153143.11 -85868.676 154493.395 -85868.676 155396.2 -86771.482 155396.2 -87298.337 155396.201 -87298.349 155396.2 -96886.837 155396.201 -96886.849 155396.2 -99570.265 155289.674 -99676.791 155310.043 -99548.186 155310.817 -99538.977 155314.474 -99189.706 155313.894 -99180.484 155272.678 -98879.6 155270.938 -98871.198 155189.357 -98579.008 155186.493 -98570.921 155066.012 -98292.505 155062.077 -98284.881 154904.926 -98025.393 154899.992 -98018.374 154709.079 -97782.615 154703.238 -97776.33 154482.095 -97568.662 154475.455 -97563.228 154228.174 -97387.494 154220.858 -97383.011 153952.014 -97242.463 153944.158 -97239.014 153658.729 -97136.254 153650.477 -97133.903 153353.741 -97070.829 153345.246 -97069.621 153042.697 -97047.403 153034.117 -97047.358 152731.35 -97066.406 152722.843 -97067.526 152425.464 -97127.489 152417.188 -97129.753 152130.697 -97229.519 152122.804 -97232.886 151861.608 -97365.973 151150.401 -96654.766 151108.767 -96605.148 151091.877 -96590.976 151035.781 -96558.589 150982.749 -96521.456 150962.767 -96512.138 150948.877 -96508.416 150936.42 -96501.224 150915.702 -96493.683 150851.924 -96482.438 150789.378 -96465.677 150767.414 -96463.756 150702.908 -96469.399 149491.864 -96469.399 149603.017 -96362.434 149608.437 -96356.509 149806.616 -96110.024 149811.239 -96103.459 149976.491 -95833.789 149980.242 -95826.69 150109.891 -95538.211 150112.709 -95530.692 150204.652 -95228.075 150206.492 -95220.26 150267.807 -94857.745 150192.305 -94768.4 147598.4 -94768.399 147598.4 -94768.114 150736.904 -94768.114 150737.398 -94776.68 150775.42 -95077.653 150777.072 -95086.072 150855.589 -95379.101 150858.368 -95387.218 150975.927 -95666.879 150979.782 -95674.544 151134.207 -95935.663 151139.067 -95942.734 151327.501 -96180.479 151333.276 -96186.824 151552.232 -96396.797 151558.814 -96402.301 151804.242 -96580.614 151811.51 -96585.173 152078.866 -96728.528 152086.686 -96732.059 152371.025 -96837.804 152379.251 -96840.241 152675.31 -96906.418 152683.792 -96907.716 152986.092 -96933.101 152994.671 -96933.236 153297.621 -96917.359 153306.139 -96916.328 153604.13 -96859.483 153612.429 -96857.306 153899.95 -96760.544 153907.877 -96757.261 154179.604 -96622.374 154187.011 -96618.045 154437.919 -96447.529 154444.67 -96442.235 154670.114 -96239.245 154676.085 -96233.083 154871.895 -96001.374 154876.975 -95994.459 155039.526 -95738.319 155043.62 -95730.779 155169.905 -95454.949 155172.937 -95446.923 155260.619 -95156.505 155262.535 -95148.142 155310.043 -94848.186 155310.817 -94838.977 155314.474 -94489.706 155313.894 -94480.484 155272.678 -94179.6 155270.938 -94171.198 155189.357 -93879.008 155186.493 -93870.921 155066.012 -93592.505 155062.077 -93584.881 154904.926 -93325.393 154899.992 -93318.374 154709.079 -93082.615 154703.238 -93076.33 154482.095 -92868.662 154475.455 -92863.228 154228.174 -92687.494 154220.858 -92683.011 153952.014 -92542.463 153944.158 -92539.014 153658.729 -92436.254 153650.477 -92433.903 153353.741 -92370.829 153345.246 -92369.621 153042.697 -92347.403 153034.117 -92347.358 152731.35 -92366.406 152722.843 -92367.526 152425.464 -92427.489 152417.188 -92429.753 152130.697 -92529.519 152122.804 -92532.886 151852.505 -92670.611 151845.143 -92675.017 151596.034 -92848.152 151589.338 -92853.516 151366.033 -93058.857 151360.127 -93065.08 151166.755 -93298.826 151161.748 -93305.794 151001.888 -93563.622 150997.873 -93571.204 150874.483 -93848.342 150871.535 -93856.399 150786.898 -94147.719 150785.07 -94156.102 150740.754 -94456.212 150740.081 -94464.766 150736.904 -94768.114 147598.4 -94768.114 147598.401 -94512.4 150186.626 -94512.401 150261.885 -94426.886 150227.765 -94160.538 150226.239 -94152.654 150146.516 -93846.593 150144.002 -93838.968 150026.035 -93545.516 150022.572 -93538.271 149868.275 -93262.188 149863.919 -93255.442 149675.791 -93001.203 149670.613 -92995.066 149451.706 -92766.791 149445.791 -92761.361 149199.652 -92562.752 149193.095 -92558.118 148923.716 -92392.395 148916.623 -92388.631 148628.369 -92258.479 148620.855 -92255.647 148318.399 -92163.178 148310.587 -92161.324 148302.092 -92159.872 148304.13 -92159.483 148312.429 -92157.306 148599.95 -92060.544 148607.877 -92057.261 148879.604 -91922.374 148887.011 -91918.045 149137.919 -91747.529 149144.67 -91742.235 149370.114 -91539.245 149376.085 -91533.083 149571.895 -91301.374 149576.975 -91294.459 149739.526 -91038.319 149743.62 -91030.779 149869.905 -90754.949 149872.937 -90746.923 149960.619 -90456.505 149962.535 -90448.142 150010.043 -90148.186 150010.817 -90138.977 150014.474 -89789.706 150013.894 -89780.484 149972.678 -89479.6 149970.938 -89471.198 149889.357 -89179.008 149886.493 -89170.921 149766.012 -88892.505 149762.077 -88884.881 149604.926 -88625.393 149599.992 -88618.374 149409.079 -88382.615 149403.238 -88376.33 149182.095 -88168.662 149175.455 -88163.228 148928.174 -87987.494 148920.858 -87983.011 148652.014 -87842.463 148644.158 -87839.014 148358.728 -87736.254 148350.477 -87733.903 148298.9 -87722.94 148298.9 -86216.135 148536.605 -85978.43 148537.685 -85978.825 148758.746 -86038.058 148769.802 -86039.988 148997.857 -86059.138 149009.08 -86059.079 149236.923 -86037.542 149247.958 -86035.496 149468.387 -85973.951 149478.885 -85969.984 149684.931 -85870.378 149694.561 -85864.614 149879.712 -85730.095 149888.169 -85722.717 150046.572 -85557.536 150053.589 -85548.777 150180.237 -85358.157 150185.593 -85348.293 150265.857 -85162.813 150353.968 -85360.711"/><path d="M 150353.968 -85360.711 150359.426 -85370.517 150488.063 -85559.802 150495.171 -85568.488 150655.296 -85732 150663.829 -85739.288 150850.378 -85871.863 150860.068 -85877.525 150900.401 -85896.504 150900.4 -88422.649 150894.024 -88495.535 150895.945 -88517.498 150914.883 -88588.177 150927.592 -88660.255 150935.133 -88680.972 150943.742 -88695.884 150948.199 -88712.519 150957.517 -88732.5 150999.488 -88792.441 151021.926 -88831.303 151001.888 -88863.621 150997.873 -88871.204 150874.483 -89148.342 150871.535 -89156.399 150786.898 -89447.719 150785.07 -89456.102 150740.754 -89756.212 150740.081 -89764.766 150736.904 -90068.114 150737.398 -90076.68 150775.42 -90377.653 150777.072 -90386.072 150855.589 -90679.101 150858.368 -90687.218 150975.927 -90966.879 150979.782 -90974.544 151134.207 -91235.663 151139.067 -91242.734 151327.501 -91480.479 151333.276 -91486.824 151552.232 -91696.797 151558.814 -91702.301 151804.242 -91880.614 151811.51 -91885.173 152078.866 -92028.528 152086.686 -92032.059 152371.025 -92137.804 152379.251 -92140.241 152675.31 -92206.418 152683.792 -92207.716 152986.092 -92233.101 152994.671 -92233.236 153297.621 -92217.359 153306.139 -92216.328 153604.13 -92159.483 153612.429 -92157.306 153899.95 -92060.544 153907.877 -92057.261 154179.604 -91922.374 154187.011 -91918.045 154437.919 -91747.529 154444.67 -91742.235 154670.114 -91539.245 154676.085 -91533.083 154871.895 -91301.374 154876.975 -91294.459 155039.526 -91038.319 155043.62 -91030.779 155169.905 -90754.949 155172.937 -90746.923 155260.619 -90456.505 155262.535 -90448.142 155310.043 -90148.186 155310.817 -90138.977 155314.474 -89789.706 155313.894 -89780.484 155272.678 -89479.6 155270.938 -89471.198 155189.357 -89179.008 155186.493 -89170.921 155066.012 -88892.505 155062.077 -88884.881 154904.926 -88625.393 154899.992 -88618.374 154709.079 -88382.615 154703.238 -88376.33 154482.095 -88168.662 154475.455 -88163.228 154228.174 -87987.494 154220.858 -87983.011 153952.014 -87842.463 153944.158 -87839.014 153658.729 -87736.254 153650.477 -87733.903 153353.741 -87670.829 153345.246 -87669.621 153042.697 -87647.403 153034.117 -87647.358 152731.35 -87666.406 152722.843 -87667.526 152425.464 -87727.489 152417.188 -87729.753 152172.4 -87814.997 152172.4 -85895.772 152224.931 -85870.378 152234.561 -85864.614 152419.712 -85730.095 152428.169 -85722.717 152586.572 -85557.536 152593.589 -85548.777 152720.237 -85358.157 152725.593 -85348.293 152764.324 -85258.791 152764.324 -85489.89 152765.537 -85502.21 152788.879 -85619.558 152798.377 -85642.489 152868.305 -85747.144 152885.856 -85764.695 152990.511 -85834.623 153013.442 -85844.121 153130.79 -85867.463 153143.11 -85868.676 154493.395 -85868.676 155396.2 -86771.482 155396.2 -87298.337 155396.201 -87298.349 155396.2 -96886.837 155396.201 -96886.849 155396.2 -99570.265 155289.674 -99676.791 155310.043 -99548.186 155310.817 -99538.977 155314.474 -99189.706 155313.894 -99180.484 155272.678 -98879.6 155270.938 -98871.198 155189.357 -98579.008 155186.493 -98570.921 155066.012 -98292.505 155062.077 -98284.881 154904.926 -98025.393 154899.992 -98018.374 154709.079 -97782.615 154703.238 -97776.33 154482.095 -97568.662 154475.455 -97563.228 154228.174 -97387.494 154220.858 -97383.011 153952.014 -97242.463 153944.158 -97239.014 153658.729 -97136.254 153650.477 -97133.903 153353.741 -97070.829 153345.246 -97069.621 153042.697 -97047.403 153034.117 -97047.358 152731.35 -97066.406 152722.843 -97067.526 152425.464 -97127.489 152417.188 -97129.753 152130.697 -97229.519 152122.804 -97232.886 151861.608 -97365.973 151150.401 -96654.766 151108.767 -96605.148 151091.877 -96590.976 151035.781 -96558.589 150982.749 -96521.456 150962.767 -96512.138 150948.877 -96508.416 150936.42 -96501.224 150915.702 -96493.683 150851.924 -96482.438 150789.378 -96465.677 150767.414 -96463.756 150702.908 -96469.399 149491.864 -96469.399 149603.017 -96362.434 149608.437 -96356.509 149806.616 -96110.024 149811.239 -96103.459 149976.491 -95833.789 149980.242 -95826.69 150109.891 -95538.211 150112.709 -95530.692 150204.652 -95228.075 150206.492 -95220.26 150267.807 -94857.745 150192.305 -94768.4 147598.4 -94768.399 147598.4 -94768.114 150736.904 -94768.114 150737.398 -94776.68 150775.42 -95077.653 150777.072 -95086.072 150855.589 -95379.101 150858.368 -95387.218 150975.927 -95666.879 150979.782 -95674.544 151134.207 -95935.663 151139.067 -95942.734 151327.501 -96180.479 151333.276 -96186.824 151552.232 -96396.797 151558.814 -96402.301 151804.242 -96580.614 151811.51 -96585.173 152078.866 -96728.528 152086.686 -96732.059 152371.025 -96837.804 152379.251 -96840.241 152675.31 -96906.418 152683.792 -96907.716 152986.092 -96933.101 152994.671 -96933.236 153297.621 -96917.359 153306.139 -96916.328 153604.13 -96859.483 153612.429 -96857.306 153899.95 -96760.544 153907.877 -96757.261 154179.604 -96622.374 154187.011 -96618.045 154437.919 -96447.529 154444.67 -96442.235 154670.114 -96239.245 154676.085 -96233.083 154871.895 -96001.374 154876.975 -95994.459 155039.526 -95738.319 155043.62 -95730.779 155169.905 -95454.949 155172.937 -95446.923 155260.619 -95156.505 155262.535 -95148.142 155310.043 -94848.186 155310.817 -94838.977 155314.474 -94489.706 155313.894 -94480.484 155272.678 -94179.6 155270.938 -94171.198 155189.357 -93879.008 155186.493 -93870.921 155066.012 -93592.505 155062.077 -93584.881 154904.926 -93325.393 154899.992 -93318.374 154709.079 -93082.615 154703.238 -93076.33 154482.095 -92868.662 154475.455 -92863.228 154228.174 -92687.494 154220.858 -92683.011 153952.014 -92542.463 153944.158 -92539.014 153658.729 -92436.254 153650.477 -92433.903 153353.741 -92370.829 153345.246 -92369.621 153042.697 -92347.403 153034.117 -92347.358 152731.35 -92366.406 152722.843 -92367.526 152425.464 -92427.489 152417.188 -92429.753 152130.697 -92529.519 152122.804 -92532.886 151852.505 -92670.611 151845.143 -92675.017 151596.034 -92848.152 151589.338 -92853.516 151366.033 -93058.857 151360.127 -93065.08 151166.755 -93298.826 151161.748 -93305.794 151001.888 -93563.622 150997.873 -93571.204 150874.483 -93848.342 150871.535 -93856.399 150786.898 -94147.719 150785.07 -94156.102 150740.754 -94456.212 150740.081 -94464.766 150736.904 -94768.114 147598.4 -94768.114 147598.401 -94512.4 150186.626 -94512.401 150261.885 -94426.886 150227.765 -94160.538 150226.239 -94152.654 150146.516 -93846.593 150144.002 -93838.968 150026.035 -93545.516 150022.572 -93538.271 149868.275 -93262.188 149863.919 -93255.442 149675.791 -93001.203 149670.613 -92995.066 149451.706 -92766.791 149445.791 -92761.361 149199.652 -92562.752 149193.095 -92558.118 148923.716 -92392.395 148916.623 -92388.631 148628.369 -92258.479 148620.855 -92255.647 148318.399 -92163.178 148310.587 -92161.324 148302.092 -92159.872 148304.13 -92159.483 148312.429 -92157.306 148599.95 -92060.544 148607.877 -92057.261 148879.604 -91922.374 148887.011 -91918.045 149137.919 -91747.529 149144.67 -91742.235 149370.114 -91539.245 149376.085 -91533.083 149571.895 -91301.374 149576.975 -91294.459 149739.526 -91038.319 149743.62 -91030.779 149869.905 -90754.949 149872.937 -90746.923 149960.619 -90456.505 149962.535 -90448.142 150010.043 -90148.186 150010.817 -90138.977 150014.474 -89789.706 150013.894 -89780.484 149972.678 -89479.6 149970.938 -89471.198 149889.357 -89179.008 149886.493 -89170.921 149766.012 -88892.505 149762.077 -88884.881 149604.926 -88625.393 149599.992 -88618.374 149409.079 -88382.615 149403.238 -88376.33 149182.095 -88168.662 149175.455 -88163.228 148928.174 -87987.494 148920.858 -87983.011 148652.014 -87842.463 148644.158 -87839.014 148358.728 -87736.254 148350.477 -87733.903 148298.9 -87722.94 148298.9 -86216.135 148536.605 -85978.43 148537.685 -85978.825 148758.746 -86038.058 148769.802 -86039.988 148997.857 -86059.138 149009.08 -86059.079 149236.923 -86037.542 149247.958 -86035.496 149468.387 -85973.951 149478.885 -85969.984 149684.931 -85870.378 149694.561 -85864.614 149879.712 -85730.095 149888.169 -85722.717 150046.572 -85557.536 150053.589 -85548.777 150180.237 -85358.157 150185.593 -85348.293 150265.857 -85162.813 150353.968 -85360.711" fill="none" stroke-width="254"/><path d="M 161164 -83660.248 161143.989 -83646.877 161121.058 -83637.379 161003.71 -83614.037 160991.39 -83612.824 159048.61 -83612.824 159036.29 -83614.037 158918.942 -83637.379 158896.011 -83646.877 158791.356 -83716.805 158773.805 -83734.356 158703.877 -83839.011 158694.379 -83861.942 158671.037 -83979.29 158669.824 -83991.61 158669.824 -85413.737 157380.114 -86703.448 157324.056 -86750.486 157309.885 -86767.375 157273.299 -86830.743 157231.317 -86890.699 157221.999 -86910.683 157217.543 -86927.315 157208.935 -86942.224 157201.394 -86962.942 157188.685 -87035.016 157169.745 -87105.703 157167.824 -87127.665 157174.201 -87200.566 157174.2 -93335.561 157074.254 -93435.507 156924.557 -93468.968 156906.988 -93475.765 156769.8 -93554.016 156769.8 -86437.662 156769.799 -86437.65 156769.799 -86388.261 156766.697 -86368.673 156752.888 -86326.173 156745.897 -86282.037 156739.769 -86263.177 156719.482 -86223.36 156705.672 -86180.86 156696.668 -86163.189 156670.405 -86127.04 156650.117 -86087.223 156638.46 -86071.178 156526.5 -85959.219 156526.5 -84720.309 156782.5 -84720.309 156782.5 -86030.801 156875.912 -86106.444 157110.545 -86056.57 157120.45 -86053.599 157355.628 -85961.433 157364.915 -85956.884 157581.882 -85827.546 157590.301 -85821.541 157783.23 -85658.503 157790.555 -85651.203 157954.266 -85458.844 157960.301 -85450.446 158090.395 -85233.931 158094.977 -85224.661 158187.963 -84989.806 158190.97 -84979.911 158242.785 -84740.253 158167.136 -84646.5 156856.309 -84646.5 156782.5 -84720.309 156526.5 -84720.309 156526.5 -84390.5 158164.134 -84390.5 158239.619 -84301.491 158211.674 -84132.696 158209.155 -84122.666 158127.753 -83883.55 158123.63 -83874.066 158004.267 -83651.455 157998.649 -83642.771 157938.757 -83565 161164 -83565 161164 -83660.248"/><path d="M 161164 -83660.248 161143.989 -83646.877 161121.058 -83637.379 161003.71 -83614.037 160991.39 -83612.824 159048.61 -83612.824 159036.29 -83614.037 158918.942 -83637.379 158896.011 -83646.877 158791.356 -83716.805 158773.805 -83734.356 158703.877 -83839.011 158694.379 -83861.942 158671.037 -83979.29 158669.824 -83991.61 158669.824 -85413.737 157380.114 -86703.448 157324.056 -86750.486 157309.885 -86767.375 157273.299 -86830.743 157231.317 -86890.699 157221.999 -86910.683 157217.543 -86927.315 157208.935 -86942.224 157201.394 -86962.942 157188.685 -87035.016 157169.745 -87105.703 157167.824 -87127.665 157174.201 -87200.566 157174.2 -93335.561 157074.254 -93435.507 156924.557 -93468.968 156906.988 -93475.765 156769.8 -93554.016 156769.8 -86437.662 156769.799 -86437.65 156769.799 -86388.261 156766.697 -86368.673 156752.888 -86326.173 156745.897 -86282.037 156739.769 -86263.177 156719.482 -86223.36 156705.672 -86180.86 156696.668 -86163.189 156670.405 -86127.04 156650.117 -86087.223 156638.46 -86071.178 156526.5 -85959.219 156526.5 -84720.309 156782.5 -84720.309 156782.5 -86030.801 156875.912 -86106.444 157110.545 -86056.57 157120.45 -86053.599 157355.628 -85961.433 157364.915 -85956.884 157581.882 -85827.546 157590.301 -85821.541 157783.23 -85658.503 157790.555 -85651.203 157954.266 -85458.844 157960.301 -85450.446 158090.395 -85233.931 158094.977 -85224.661 158187.963 -84989.806 158190.97 -84979.911 158242.785 -84740.253 158167.136 -84646.5 156856.309 -84646.5 156782.5 -84720.309 156526.5 -84720.309 156526.5 -84390.5 158164.134 -84390.5 158239.619 -84301.491 158211.674 -84132.696 158209.155 -84122.666 158127.753 -83883.55 158123.63 -83874.066 158004.267 -83651.455 157998.649 -83642.771 157938.757 -83565 161164 -83565 161164 -83660.248" fill="none" stroke-width="254"/></g></svg>