<svg version="1.1" xmlns="http://www.w3.org/2000/svg" xmlns:xlink="http://www.w3.org/1999/xlink" stroke-linecap="round" stroke-linejoin="round" stroke-width="0" fill-rule="evenodd" width="25.712181mm" height="20.260448mm" viewBox="135773.847 -103516.6 25712.181 20260.448" id="yKTi60lyQIuRcheqQR3n"><defs><rect x="-1015.2" y="-1015.2" width="2030.4" height="2030.4" rx="1015.2" ry="1015.2" id="yKTi60lyQIuRcheqQR3n_pad-15"/><rect x="-850" y="-850" width="1700" height="1700" rx="850" ry="850" id="yKTi60lyQIuRcheqQR3n_pad-16"/><circle cx="0" cy="0" r="850" id="yKTi60lyQIuRcheqQR3n_pad-17"/><circle cx="0" cy="0" r="950" id="yKTi60lyQIuRcheqQR3n_pad-18"/><rect x="-1958" y="-1958" width="3916" height="3916" rx="1958" ry="1958" id="yKTi60lyQIuRcheqQR3n_pad-19"/><mask id="yKTi60lyQIuRcheqQR3n_clear-1" fill="#000" stroke="#000"><g><rect x="135773.847" y="-103516.6" width="25712.181" height="20260.448" fill="#fff"/><use xlink:href="#yKTi60lyQIuRcheqQR3n_pad-15" x="157937.2" y="-102158.8"/><use xlink:href="#yKTi60lyQIuRcheqQR3n_pad-15" x="141033.5" y="-84709"/><use xlink:href="#yKTi60lyQIuRcheqQR3n_pad-16" x="136906" y="-92151.2"/><use xlink:href="#yKTi60lyQIuRcheqQR3n_pad-17" x="136906" y="-89611.2"/><use xlink:href="#yKTi60lyQIuRcheqQR3n_pad-17" x="159893" y="-100163"/><path d="M 159093 -96813 160693 -96813 A 50 50 0 0 0 160743 -96863 L 160743 -98463 A 50 50 0 0 0 160693 -98513 L 159093 -98513 A 50 50 0 0 0 159043 -98463 L 159043 -96863 A 50 50 0 0 0 159093 -96813"/><use xlink:href="#yKTi60lyQIuRcheqQR3n_pad-18" x="160147" y="-94805.5"/><use xlink:href="#yKTi60lyQIuRcheqQR3n_pad-18" x="160147" y="-92265.5"/><path d="M 159247 -88775.5 161047 -88775.5 A 50 50 0 0 0 161097 -88825.5 L 161097 -90625.5 A 50 50 0 0 0 161047 -90675.5 L 159247 -90675.5 A 50 50 0 0 0 159197 -90625.5 L 159197 -88825.5 A 50 50 0 0 0 159247 -88775.5"/><path d="M 136144.8 -85547.2 136144.8 -83616.8 A 50 50 0 0 0 136194.8 -83566.8 L 138125.2 -83566.8 A 50 50 0 0 0 138175.2 -83616.8 L 138175.2 -85547.2 A 50 50 0 0 0 138125.2 -85597.2 L 136194.8 -85597.2 A 50 50 0 0 0 136144.8 -85547.2"/><use xlink:href="#yKTi60lyQIuRcheqQR3n_pad-15" x="137160" y="-86931.5"/><path d="M 159004.8 -85928.2 159004.8 -83997.8 A 50 50 0 0 0 159054.8 -83947.8 L 160985.2 -83947.8 A 50 50 0 0 0 161035.2 -83997.8 L 161035.2 -85928.2 A 50 50 0 0 0 160985.2 -85978.2 L 159054.8 -85978.2 A 50 50 0 0 0 159004.8 -85928.2"/><use xlink:href="#yKTi60lyQIuRcheqQR3n_pad-15" x="160020" y="-87312.5"/><use xlink:href="#yKTi60lyQIuRcheqQR3n_pad-15" x="156654.5" y="-84518.5"/><path d="M 153099.3 -85483.7 153099.3 -83553.3 A 50 50 0 0 0 153149.3 -83503.3 L 155079.7 -83503.3 A 50 50 0 0 0 155129.7 -83553.3 L 155129.7 -85483.7 A 50 50 0 0 0 155079.7 -85533.7 L 153149.3 -85533.7 A 50 50 0 0 0 153099.3 -85483.7"/><use xlink:href="#yKTi60lyQIuRcheqQR3n_pad-15" x="137096.5" y="-102108"/><path d="M 136131.3 -98552.8 138061.7 -98552.8 A 50 50 0 0 0 138111.7 -98602.8 L 138111.7 -100533.2 A 50 50 0 0 0 138061.7 -100583.2 L 136131.3 -100583.2 A 50 50 0 0 0 136081.3 -100533.2 L 136081.3 -98602.8 A 50 50 0 0 0 136131.3 -98552.8"/><use xlink:href="#yKTi60lyQIuRcheqQR3n_pad-19" x="153026.4" y="-99340.4"/><use xlink:href="#yKTi60lyQIuRcheqQR3n_pad-19" x="153026.4" y="-94640.4"/><use xlink:href="#yKTi60lyQIuRcheqQR3n_pad-19" x="153026.4" y="-89940.4"/><use xlink:href="#yKTi60lyQIuRcheqQR3n_pad-19" x="147726.4" y="-99340.4"/><use xlink:href="#yKTi60lyQIuRcheqQR3n_pad-19" x="147726.4" y="-94640.4"/><use xlink:href="#yKTi60lyQIuRcheqQR3n_pad-19" x="147726.4" y="-89940.4"/><use xlink:href="#yKTi60lyQIuRcheqQR3n_pad-19" x="142426.4" y="-99340.4"/><use xlink:href="#yKTi60lyQIuRcheqQR3n_pad-19" x="142426.4" y="-94640.4"/><path d="M 144384.4 -88032.4 144384.4 -91848.4 A 50 50 0 0 0 144334.4 -91898.4 L 140518.4 -91898.4 A 50 50 0 0 0 140468.4 -91848.4 L 140468.4 -88032.4 A 50 50 0 0 0 140518.4 -87982.4 L 144334.4 -87982.4 A 50 50 0 0 0 144384.4 -88032.4"/><use xlink:href="#yKTi60lyQIuRcheqQR3n_pad-15" x="151536.4" y="-84709"/><use xlink:href="#yKTi60lyQIuRcheqQR3n_pad-15" x="148996.4" y="-84709"/><use xlink:href="#yKTi60lyQIuRcheqQR3n_pad-15" x="146456.4" y="-84709"/><path d="M 142901.2 -85674.2 142901.2 -83743.8 A 50 50 0 0 0 142951.2 -83693.8 L 144881.6 -83693.8 A 50 50 0 0 0 144931.6 -83743.8 L 144931.6 -85674.2 A 50 50 0 0 0 144881.6 -85724.2 L 142951.2 -85724.2 A 50 50 0 0 0 142901.2 -85674.2"/><use xlink:href="#yKTi60lyQIuRcheqQR3n_pad-16" x="136906" y="-97282"/><use xlink:href="#yKTi60lyQIuRcheqQR3n_pad-17" x="136906" y="-94742"/></g></mask></defs><g transform="translate(0,-186772.752) scale(1,-1)" fill="currentColor" stroke="currentColor"><g mask="url(#yKTi60lyQIuRcheqQR3n_clear-1)"><path d="M 158623 -96418.4 160096.2 -94945.2 M 157962.6 -96418.4 158623 -96418.4" fill="none" stroke-width="120"/><path d="M 158473.752 -88230.038 158073.752 -88230.038 M 158473.752 -88001.466 158245.18 -88172.895 M 158073.752 -88001.466 158302.323 -88230.038 M 158473.752 -87620.514 158473.752 -87849.085 M 158473.752 -87734.8 158073.752 -87734.8 158130.895 -87772.895 158168.99 -87810.99 158188.038 -87849.085 M 159096.066 -92043.238 159096.066 -91852.761 M 159210.352 -92081.333 158810.352 -91948 159210.352 -91814.666 M 158448.352 -96154.838 158048.352 -96154.838 M 158448.352 -95926.266 158219.78 -96097.695 M 158048.352 -95926.266 158276.923 -96154.838 M 158086.447 -95773.885 158067.4 -95754.838 158048.352 -95716.742 158048.352 -95621.504 158067.4 -95583.409 158086.447 -95564.361 158124.542 -95545.314 158162.638 -95545.314 158219.78 -95564.361 158448.352 -95792.933 158448.352 -95545.314 M 159159.552 -90198.561 158759.552 -90198.561 M 159159.552 -89969.99 158930.98 -90141.419 M 158759.552 -89969.99 158988.123 -90198.561 M 158410.257 -94357.819 158429.304 -94376.866 158448.352 -94434.009 158448.352 -94472.104 158429.304 -94529.247 158391.209 -94567.342 158353.114 -94586.39 158276.923 -94605.438 158219.78 -94605.438 158143.59 -94586.39 158105.495 -94567.342 158067.4 -94529.247 158048.352 -94472.104 158048.352 -94434.009 158067.4 -94376.866 158086.447 -94357.819 M 158334.066 -94205.438 158334.066 -94014.961 M 158448.352 -94243.533 158048.352 -94110.2 158448.352 -93976.866" fill="none" stroke-width="80"/><path d="M 159054.8 -93700.6 160147 -92710 M 158013.4 -93853 159029.4 -93726 M 158953.2 -88493.6 159842.2 -89382.6 M 157988 -88442.8 158953.2 -88493.6 M 158800.8 -92608.4 159410.4 -92405.2 M 158775.4 -89636.6 159410.4 -89814.4" fill="none" stroke-width="120"/><path d="M 157520.485 -96886 157544.295 -96826 157568.104 -96806 157615.723 -96786 157687.152 -96786 157734.771 -96806 157758.58 -96826 157782.39 -96866 157782.39 -97026 157282.39 -97026 157282.39 -96886 157306.2 -96846 157330.009 -96826 157377.628 -96806 157425.247 -96806 157472.866 -96826 157496.676 -96846 157520.485 -96886 157520.485 -97026 M 157782.39 -96606 157449.057 -96606 M 157282.39 -96606 157306.2 -96626 157330.009 -96606 157306.2 -96586 157282.39 -96606 157330.009 -96606 M 157591.914 -96406 157591.914 -96086 M 157758.58 -95706 157782.39 -95746 157782.39 -95826 157758.58 -95866 157734.771 -95886 157687.152 -95906 157544.295 -95906 157496.676 -95886 157472.866 -95866 157449.057 -95826 157449.057 -95746 157472.866 -95706 M 157782.39 -95466 157758.58 -95506 157734.771 -95526 157687.152 -95546 157544.295 -95546 157496.676 -95526 157472.866 -95506 157449.057 -95466 157449.057 -95406 157472.866 -95366 157496.676 -95346 157544.295 -95326 157687.152 -95326 157734.771 -95346 157758.58 -95366 157782.39 -95406 157782.39 -95466 M 157782.39 -95086 157758.58 -95126 157710.961 -95146 157282.39 -95146 M 157782.39 -94866 157758.58 -94906 157734.771 -94926 157687.152 -94946 157544.295 -94946 157496.676 -94926 157472.866 -94906 157449.057 -94866 157449.057 -94806 157472.866 -94766 157496.676 -94746 157544.295 -94726 157687.152 -94726 157734.771 -94746 157758.58 -94766 157782.39 -94806 157782.39 -94866 M 157782.39 -94546 157449.057 -94546 M 157544.295 -94546 157496.676 -94526 157472.866 -94506 157449.057 -94466 157449.057 -94426 M 157758.58 -93786 157782.39 -93826 157782.39 -93906 157758.58 -93946 157734.771 -93966 157687.152 -93986 157544.295 -93986 157496.676 -93966 157472.866 -93946 157449.057 -93906 157449.057 -93826 157472.866 -93786 M 157782.39 -93546 157758.58 -93586 157734.771 -93606 157687.152 -93626 157544.295 -93626 157496.676 -93606 157472.866 -93586 157449.057 -93546 157449.057 -93486 157472.866 -93446 157496.676 -93426 157544.295 -93406 157687.152 -93406 157734.771 -93426 157758.58 -93446 157782.39 -93486 157782.39 -93546 M 157782.39 -93226 157449.057 -93226 M 157496.676 -93226 157472.866 -93206 157449.057 -93166 157449.057 -93106 157472.866 -93066 157520.485 -93046 157782.39 -93046 M 157520.485 -93046 157472.866 -93026 157449.057 -92986 157449.057 -92926 157472.866 -92886 157520.485 -92866 157782.39 -92866 M 157782.39 -92666 157449.057 -92666 M 157496.676 -92666 157472.866 -92646 157449.057 -92606 157449.057 -92546 157472.866 -92506 157520.485 -92486 157782.39 -92486 M 157520.485 -92486 157472.866 -92466 157449.057 -92426 157449.057 -92366 157472.866 -92326 157520.485 -92306 157782.39 -92306 M 157782.39 -92046 157758.58 -92086 157734.771 -92106 157687.152 -92126 157544.295 -92126 157496.676 -92106 157472.866 -92086 157449.057 -92046 157449.057 -91986 157472.866 -91946 157496.676 -91926 157544.295 -91906 157687.152 -91906 157734.771 -91926 157758.58 -91946 157782.39 -91986 157782.39 -92046 M 157449.057 -91726 157782.39 -91726 M 157496.676 -91726 157472.866 -91706 157449.057 -91666 157449.057 -91606 157472.866 -91566 157520.485 -91546 157782.39 -91546 M 157782.39 -90846 157520.485 -90846 157472.866 -90866 157449.057 -90906 157449.057 -90986 157472.866 -91026 M 157758.58 -90846 157782.39 -90886 157782.39 -90986 157758.58 -91026 157710.961 -91046 157663.342 -91046 157615.723 -91026 157591.914 -90986 157591.914 -90886 157568.104 -90846 M 157449.057 -90646 157782.39 -90646 M 157496.676 -90646 157472.866 -90626 157449.057 -90586 157449.057 -90526 157472.866 -90486 157520.485 -90466 157782.39 -90466 M 157782.39 -90206 157758.58 -90246 157734.771 -90266 157687.152 -90286 157544.295 -90286 157496.676 -90266 157472.866 -90246 157449.057 -90206 157449.057 -90146 157472.866 -90106 157496.676 -90086 157544.295 -90066 157687.152 -90066 157734.771 -90086 157758.58 -90106 157782.39 -90146 157782.39 -90206 M 157782.39 -89706 157282.39 -89706 M 157758.58 -89706 157782.39 -89746 157782.39 -89826 157758.58 -89866 157734.771 -89886 157687.152 -89906 157544.295 -89906 157496.676 -89886 157472.866 -89866 157449.057 -89826 157449.057 -89746 157472.866 -89706 M 157758.58 -89346 157782.39 -89386 157782.39 -89466 157758.58 -89506 157710.961 -89526 157520.485 -89526 157472.866 -89506 157449.057 -89466 157449.057 -89386 157472.866 -89346 157520.485 -89326 157568.104 -89326 157615.723 -89526 M 157782.39 -88626 157782.39 -88826 157282.39 -88826 M 157520.485 -88486 157520.485 -88346 M 157782.39 -88286 157782.39 -88486 157282.39 -88486 157282.39 -88286 M 157782.39 -88106 157282.39 -88106 157282.39 -88006 157306.2 -87946 157353.819 -87906 157401.438 -87886 157496.676 -87866 157568.104 -87866 157663.342 -87886 157710.961 -87906 157758.58 -87946 157782.39 -88006 157782.39 -88106 M 158571.38 -93331.628 158595.19 -93267.342 158595.19 -93160.2 158571.38 -93117.342 158547.571 -93095.914 158499.952 -93074.485 158452.333 -93074.485 158404.714 -93095.914 158380.904 -93117.342 158357.095 -93160.2 158333.285 -93245.914 158309.476 -93288.771 158285.666 -93310.2 158238.047 -93331.628 158190.428 -93331.628 158142.809 -93310.2 158119 -93288.771 158095.19 -93245.914 158095.19 -93138.771 158119 -93074.485 M 158261.857 -92945.914 158261.857 -92774.485 M 158095.19 -92881.628 158523.761 -92881.628 158571.38 -92860.2 158595.19 -92817.342 158595.19 -92774.485 M 158595.19 -92431.628 158333.285 -92431.628 158285.666 -92453.057 158261.857 -92495.914 158261.857 -92581.628 158285.666 -92624.485 M 158571.38 -92431.628 158595.19 -92474.485 158595.19 -92581.628 158571.38 -92624.485 158523.761 -92645.914 158476.142 -92645.914 158428.523 -92624.485 158404.714 -92581.628 158404.714 -92474.485 158380.904 -92431.628 M 158261.857 -92217.342 158595.19 -92217.342 M 158309.476 -92217.342 158285.666 -92195.914 158261.857 -92153.057 158261.857 -92088.771 158285.666 -92045.914 158333.285 -92024.485 158595.19 -92024.485 M 158595.19 -91617.342 158095.19 -91617.342 M 158571.38 -91617.342 158595.19 -91660.2 158595.19 -91745.914 158571.38 -91788.771 158547.571 -91810.2 158499.952 -91831.628 158357.095 -91831.628 158309.476 -91810.2 158285.666 -91788.771 158261.857 -91745.914 158261.857 -91660.2 158285.666 -91617.342 M 158595.19 -91210.2 158333.285 -91210.2 158285.666 -91231.628 158261.857 -91274.485 158261.857 -91360.2 158285.666 -91403.057 M 158571.38 -91210.2 158595.19 -91253.057 158595.19 -91360.2 158571.38 -91403.057 158523.761 -91424.485 158476.142 -91424.485 158428.523 -91403.057 158404.714 -91360.2 158404.714 -91253.057 158380.904 -91210.2 M 158595.19 -90995.914 158261.857 -90995.914 M 158357.095 -90995.914 158309.476 -90974.485 158285.666 -90953.057 158261.857 -90910.2 158261.857 -90867.342 M 158595.19 -90524.485 158095.19 -90524.485 M 158571.38 -90524.485 158595.19 -90567.342 158595.19 -90653.057 158571.38 -90695.914 158547.571 -90717.342 158499.952 -90738.771 158357.095 -90738.771 158309.476 -90717.342 158285.666 -90695.914 158261.857 -90653.057 158261.857 -90567.342 158285.666 -90524.485 M 158595.19 -89753.057 158595.19 -89967.342 158095.19 -89967.342 M 158333.285 -89603.057 158333.285 -89453.057 M 158595.19 -89388.771 158595.19 -89603.057 158095.19 -89603.057 158095.19 -89388.771 M 158595.19 -89195.914 158095.19 -89195.914 158095.19 -89088.771 158119 -89024.485 158166.619 -88981.628 158214.238 -88960.2 158309.476 -88938.771 158380.904 -88938.771 158476.142 -88960.2 158523.761 -88981.628 158571.38 -89024.485 158595.19 -89088.771 158595.19 -89195.914 M 158412.69 -86048.785 158769.833 -86048.785 158841.261 -86067.833 158888.88 -86105.928 158912.69 -86163.071 158912.69 -86201.166 M 158769.833 -85877.357 158769.833 -85686.88 M 158912.69 -85915.452 158412.69 -85782.119 158912.69 -85648.785 M 158865.071 -85286.88 158888.88 -85305.928 158912.69 -85363.071 158912.69 -85401.166 158888.88 -85458.309 158841.261 -85496.404 158793.642 -85515.452 158698.404 -85534.5 158626.976 -85534.5 158531.738 -85515.452 158484.119 -85496.404 158436.5 -85458.309 158412.69 -85401.166 158412.69 -85363.071 158436.5 -85305.928 158460.309 -85286.88 M 158912.69 -85115.452 158412.69 -85115.452 M 158912.69 -84886.88 158626.976 -85058.309 M 158412.69 -84886.88 158698.404 -85115.452" fill="none" stroke-width="80"/><path d="M 138805.409 -84524.914 138448.266 -84524.914 138376.838 -84505.866 138329.219 -84467.771 138305.409 -84410.628 138305.409 -84372.533 M 138448.266 -84696.342 138448.266 -84886.819 M 138305.409 -84658.247 138805.409 -84791.58 138305.409 -84924.914 M 138353.028 -85286.819 138329.219 -85267.771 138305.409 -85210.628 138305.409 -85172.533 138329.219 -85115.39 138376.838 -85077.295 138424.457 -85058.247 138519.695 -85039.2 138591.123 -85039.2 138686.361 -85058.247 138733.98 -85077.295 138781.6 -85115.39 138805.409 -85172.533 138805.409 -85210.628 138781.6 -85267.771 138757.79 -85286.819 M 138305.409 -85458.247 138805.409 -85458.247 M 138305.409 -85686.819 138591.123 -85515.39 M 138805.409 -85686.819 138519.695 -85458.247 M 139269.771 -89840.314 138869.771 -89983.171 139269.771 -90126.028 M 139469.771 -90468.885 139469.771 -90526.028 139441.2 -90583.171 139412.628 -90611.742 139355.485 -90640.314 139241.2 -90668.885 139098.342 -90668.885 138984.057 -90640.314 138926.914 -90611.742 138898.342 -90583.171 138869.771 -90526.028 138869.771 -90468.885 138898.342 -90411.742 138926.914 -90383.171 138984.057 -90354.6 139098.342 -90326.028 139241.2 -90326.028 139355.485 -90354.6 139412.628 -90383.171 139441.2 -90411.742 139469.771 -90468.885 M 138926.914 -90926.028 138898.342 -90954.6 138869.771 -90926.028 138898.342 -90897.457 138926.914 -90926.028 138869.771 -90926.028 M 139269.771 -91468.885 138869.771 -91468.885 M 139498.342 -91326.028 139069.771 -91183.171 139069.771 -91554.6 M 139412.628 -92211.742 139441.2 -92240.314 139469.771 -92297.457 139469.771 -92440.314 139441.2 -92497.457 139412.628 -92526.028 139355.485 -92554.6 139298.342 -92554.6 139212.628 -92526.028 138869.771 -92183.171 138869.771 -92554.6 M 139469.771 -92926.028 139469.771 -92983.171 139441.2 -93040.314 139412.628 -93068.885 139355.485 -93097.457 139241.2 -93126.028 139098.342 -93126.028 138984.057 -93097.457 138926.914 -93068.885 138898.342 -93040.314 138869.771 -92983.171 138869.771 -92926.028 138898.342 -92868.885 138926.914 -92840.314 138984.057 -92811.742 139098.342 -92783.171 139241.2 -92783.171 139355.485 -92811.742 139412.628 -92840.314 139441.2 -92868.885 139469.771 -92926.028 M 139412.628 -93354.6 139441.2 -93383.171 139469.771 -93440.314 139469.771 -93583.171 139441.2 -93640.314 139412.628 -93668.885 139355.485 -93697.457 139298.342 -93697.457 139212.628 -93668.885 138869.771 -93326.028 138869.771 -93697.457 M 139469.771 -94068.885 139469.771 -94126.028 139441.2 -94183.171 139412.628 -94211.742 139355.485 -94240.314 139241.2 -94268.885 139098.342 -94268.885 138984.057 -94240.314 138926.914 -94211.742 138898.342 -94183.171 138869.771 -94126.028 138869.771 -94068.885 138898.342 -94011.742 138926.914 -93983.171 138984.057 -93954.6 139098.342 -93926.028 139241.2 -93926.028 139355.485 -93954.6 139412.628 -93983.171 139441.2 -94011.742 139469.771 -94068.885 M 139098.342 -94526.028 139098.342 -94983.171 M 139469.771 -95383.171 139469.771 -95440.314 139441.2 -95497.457 139412.628 -95526.028 139355.485 -95554.6 139241.2 -95583.171 139098.342 -95583.171 138984.057 -95554.6 138926.914 -95526.028 138898.342 -95497.457 138869.771 -95440.314 138869.771 -95383.171 138898.342 -95326.028 138926.914 -95297.457 138984.057 -95268.885 139098.342 -95240.314 139241.2 -95240.314 139355.485 -95268.885 139412.628 -95297.457 139441.2 -95326.028 139469.771 -95383.171 M 139469.771 -96126.028 139469.771 -95840.314 139184.057 -95811.742 139212.628 -95840.314 139241.2 -95897.457 139241.2 -96040.314 139212.628 -96097.457 139184.057 -96126.028 139126.914 -96154.6 138984.057 -96154.6 138926.914 -96126.028 138898.342 -96097.457 138869.771 -96040.314 138869.771 -95897.457 138898.342 -95840.314 138926.914 -95811.742 M 139098.342 -96411.742 139098.342 -96868.885 M 139412.628 -97126.028 139441.2 -97154.6 139469.771 -97211.742 139469.771 -97354.6 139441.2 -97411.742 139412.628 -97440.314 139355.485 -97468.885 139298.342 -97468.885 139212.628 -97440.314 138869.771 -97097.457 138869.771 -97468.885 M 139469.771 -97840.314 139469.771 -97897.457 139441.2 -97954.6 139412.628 -97983.171 139355.485 -98011.742 139241.2 -98040.314 139098.342 -98040.314 138984.057 -98011.742 138926.914 -97983.171 138898.342 -97954.6 138869.771 -97897.457 138869.771 -97840.314 138898.342 -97783.171 138926.914 -97754.6 138984.057 -97726.028 139098.342 -97697.457 139241.2 -97697.457 139355.485 -97726.028 139412.628 -97754.6 139441.2 -97783.171 139469.771 -97840.314 M 159207.257 -102646.2 159150.114 -102617.628 159064.4 -102617.628 158978.685 -102646.2 158921.542 -102703.342 158892.971 -102760.485 158864.4 -102874.771 158864.4 -102960.485 158892.971 -103074.771 158921.542 -103131.914 158978.685 -103189.057 159064.4 -103217.628 159121.542 -103217.628 159207.257 -103189.057 159235.828 -103160.485 159235.828 -102960.485 159121.542 -102960.485 M 159492.971 -103217.628 159492.971 -102617.628 159835.828 -103217.628 159835.828 -102617.628 M 160121.542 -103217.628 160121.542 -102617.628 160264.4 -102617.628 160350.114 -102646.2 160407.257 -102703.342 160435.828 -102760.485 160464.4 -102874.771 160464.4 -102960.485 160435.828 -103074.771 160407.257 -103131.914 160350.114 -103189.057 160264.4 -103217.628 160121.542 -103217.628" fill="none" stroke-width="100"/><path d="M 141478.038 -83315.2 141439.942 -83296.152 141382.8 -83296.152 141325.657 -83315.2 141287.561 -83353.295 141268.514 -83391.39 141249.466 -83467.58 141249.466 -83524.723 141268.514 -83600.914 141287.561 -83639.009 141325.657 -83677.104 141382.8 -83696.152 141420.895 -83696.152 141478.038 -83677.104 141497.085 -83658.057 141497.085 -83524.723 141420.895 -83524.723 M 141668.514 -83696.152 141668.514 -83296.152 141897.085 -83696.152 141897.085 -83296.152 M 142087.561 -83696.152 142087.561 -83296.152 142182.8 -83296.152 142239.942 -83315.2 142278.038 -83353.295 142297.085 -83391.39 142316.133 -83467.58 142316.133 -83524.723 142297.085 -83600.914 142278.038 -83639.009 142239.942 -83677.104 142182.8 -83696.152 142087.561 -83696.152" fill="none" stroke-width="80"/><path d="M 138261.79 -83964.428 138261.79 -83364.428 M 138737.98 -83964.428 138737.98 -83364.428 139309.409 -83964.428 139309.409 -83364.428 M 135909.071 -86285.357 135994.785 -86313.928 136137.642 -86313.928 136194.785 -86285.357 136223.357 -86256.785 136251.928 -86199.642 136251.928 -86142.5 136223.357 -86085.357 136194.785 -86056.785 136137.642 -86028.214 136023.357 -85999.642 135966.214 -85971.071 135937.642 -85942.5 135909.071 -85885.357 135909.071 -85828.214 135937.642 -85771.071 135966.214 -85742.5 136023.357 -85713.928 136166.214 -85713.928 136251.928 -85742.5 M 135845.571 -83427.928 136188.428 -83427.928 M 136017 -84027.928 136017 -83427.928 M 158956.5 -83355.69 159146.976 -83355.69 159242.214 -83379.5 159337.452 -83427.119 159385.071 -83522.357 159385.071 -83689.023 159337.452 -83784.261 159242.214 -83831.88 159146.976 -83855.69 158956.5 -83855.69 158861.261 -83831.88 158766.023 -83784.261 158718.404 -83689.023 158718.404 -83522.357 158766.023 -83427.119 158861.261 -83379.5 158956.5 -83355.69 M 159813.642 -83355.69 159813.642 -83760.452 159861.261 -83808.071 159908.88 -83831.88 160004.119 -83855.69 160194.595 -83855.69 160289.833 -83831.88 160337.452 -83808.071 160385.071 -83760.452 160385.071 -83355.69 M 160718.404 -83355.69 161289.833 -83355.69 M 161004.119 -83855.69 161004.119 -83355.69 M 160991.571 -86933.057 161077.285 -86961.628 161220.142 -86961.628 161277.285 -86933.057 161305.857 -86904.485 161334.428 -86847.342 161334.428 -86790.2 161305.857 -86733.057 161277.285 -86704.485 161220.142 -86675.914 161105.857 -86647.342 161048.714 -86618.771 161020.142 -86590.2 160991.571 -86533.057 160991.571 -86475.914 161020.142 -86418.771 161048.714 -86390.2 161105.857 -86361.628 161248.714 -86361.628 161334.428 -86390.2 M 161093.171 -84050.228 161436.028 -84050.228 M 161264.6 -84650.228 161264.6 -84050.228" fill="none" stroke-width="100"/><path d="M 157530.838 -83416.8 157492.742 -83397.752 157435.6 -83397.752 157378.457 -83416.8 157340.361 -83454.895 157321.314 -83492.99 157302.266 -83569.18 157302.266 -83626.323 157321.314 -83702.514 157340.361 -83740.609 157378.457 -83778.704 157435.6 -83797.752 157473.695 -83797.752 157530.838 -83778.704 157549.885 -83759.657 157549.885 -83626.323 157473.695 -83626.323 M 157721.314 -83797.752 157721.314 -83397.752 157949.885 -83797.752 157949.885 -83397.752 M 158140.361 -83797.752 158140.361 -83397.752 158235.6 -83397.752 158292.742 -83416.8 158330.838 -83454.895 158349.885 -83492.99 158368.933 -83569.18 158368.933 -83626.323 158349.885 -83702.514 158330.838 -83740.609 158292.742 -83778.704 158235.6 -83797.752 158140.361 -83797.752 M 155117.847 -83346.952 155251.18 -83746.952 155384.514 -83346.952 M 155517.847 -83594.571 155822.609 -83594.571 M 155670.228 -83746.952 155670.228 -83442.19 M 135813.847 -98155.152 135947.18 -98555.152 136080.514 -98155.152 M 136213.847 -98402.771 136518.609 -98402.771 M 136366.228 -98555.152 136366.228 -98250.39 M 136042.438 -100815.8 136004.342 -100796.752 135947.2 -100796.752 135890.057 -100815.8 135851.961 -100853.895 135832.914 -100891.99 135813.866 -100968.18 135813.866 -101025.323 135832.914 -101101.514 135851.961 -101139.609 135890.057 -101177.704 135947.2 -101196.752 135985.295 -101196.752 136042.438 -101177.704 136061.485 -101158.657 136061.485 -101025.323 135985.295 -101025.323 M 136232.914 -101196.752 136232.914 -100796.752 136461.485 -101196.752 136461.485 -100796.752 M 136651.961 -101196.752 136651.961 -100796.752 136747.2 -100796.752 136804.342 -100815.8 136842.438 -100853.895 136861.485 -100891.99 136880.533 -100968.18 136880.533 -101025.323 136861.485 -101101.514 136842.438 -101139.609 136804.342 -101177.704 136747.2 -101196.752 136651.961 -101196.752" fill="none" stroke-width="80"/><path d="M 139466.066 -87785.923 139666.066 -87831.161 139999.4 -87831.161 140132.733 -87785.923 140199.4 -87740.685 140266.066 -87650.209 140266.066 -87559.733 140199.4 -87469.257 140132.733 -87424.019 139999.4 -87378.78 139732.733 -87333.542 139599.4 -87288.304 139532.733 -87243.066 139466.066 -87152.59 139466.066 -87062.114 139532.733 -86971.638 139599.4 -86926.4 139732.733 -86881.161 140066.066 -86881.161 140266.066 -86926.4 M 140666.066 -87197.828 141199.4 -87197.828 M 140866.066 -86881.161 140866.066 -87695.447 140932.733 -87785.923 141066.066 -87831.161 141199.4 -87831.161 M 141866.066 -87831.161 141732.733 -87785.923 141666.066 -87740.685 141599.4 -87650.209 141599.4 -87378.78 141666.066 -87288.304 141732.733 -87243.066 141866.066 -87197.828 142066.066 -87197.828 142199.4 -87243.066 142266.066 -87288.304 142332.733 -87378.78 142332.733 -87650.209 142266.066 -87740.685 142199.4 -87785.923 142066.066 -87831.161 141866.066 -87831.161 M 142932.733 -87831.161 142932.733 -87197.828 M 142932.733 -87288.304 142999.4 -87243.066 143132.733 -87197.828 143332.733 -87197.828 143466.066 -87243.066 143532.733 -87333.542 143532.733 -87831.161 M 143532.733 -87333.542 143599.4 -87243.066 143732.733 -87197.828 143932.733 -87197.828 144066.066 -87243.066 144132.733 -87333.542 144132.733 -87831.161 M 144799.4 -87197.828 144799.4 -88147.828 M 144799.4 -87243.066 144932.733 -87197.828 145199.4 -87197.828 145332.733 -87243.066 145399.4 -87288.304 145466.066 -87378.78 145466.066 -87650.209 145399.4 -87740.685 145332.733 -87785.923 145199.4 -87831.161 144932.733 -87831.161 144799.4 -87785.923 M 147599.4 -87333.542 147799.4 -87378.78 147866.066 -87424.019 147932.733 -87514.495 147932.733 -87650.209 147866.066 -87740.685 147799.4 -87785.923 147666.066 -87831.161 147132.733 -87831.161 147132.733 -86881.161 147599.4 -86881.161 147732.733 -86926.4 147799.4 -86971.638 147866.066 -87062.114 147866.066 -87152.59 147799.4 -87243.066 147732.733 -87288.304 147599.4 -87333.542 147132.733 -87333.542 M 148532.733 -87831.161 148532.733 -87197.828 M 148532.733 -87378.78 148599.4 -87288.304 148666.066 -87243.066 148799.4 -87197.828 148932.733 -87197.828 M 149932.733 -87785.923 149799.4 -87831.161 149532.733 -87831.161 149399.4 -87785.923 149332.733 -87695.447 149332.733 -87333.542 149399.4 -87243.066 149532.733 -87197.828 149799.4 -87197.828 149932.733 -87243.066 149999.4 -87333.542 149999.4 -87424.019 149332.733 -87514.495 M 151199.4 -87831.161 151199.4 -87333.542 151132.733 -87243.066 150999.4 -87197.828 150732.733 -87197.828 150599.4 -87243.066 M 151199.4 -87785.923 151066.066 -87831.161 150732.733 -87831.161 150599.4 -87785.923 150532.733 -87695.447 150532.733 -87604.971 150599.4 -87514.495 150732.733 -87469.257 151066.066 -87469.257 151199.4 -87424.019 M 151866.066 -87831.161 151866.066 -86881.161 M 151999.4 -87469.257 152399.4 -87831.161 M 152399.4 -87197.828 151866.066 -87559.733 M 153199.4 -87831.161 153066.066 -87785.923 152999.4 -87740.685 152932.733 -87650.209 152932.733 -87378.78 152999.4 -87288.304 153066.066 -87243.066 153199.4 -87197.828 153399.4 -87197.828 153532.733 -87243.066 153599.4 -87288.304 153666.066 -87378.78 153666.066 -87650.209 153599.4 -87740.685 153532.733 -87785.923 153399.4 -87831.161 153199.4 -87831.161 M 154866.066 -87197.828 154866.066 -87831.161 M 154266.066 -87197.828 154266.066 -87695.447 154332.733 -87785.923 154466.066 -87831.161 154666.066 -87831.161 154799.4 -87785.923 154866.066 -87740.685 M 155332.733 -87197.828 155866.066 -87197.828 M 155532.733 -86881.161 155532.733 -87695.447 155599.4 -87785.923 155732.733 -87831.161 155866.066 -87831.161" fill="none" stroke-width="150"/><path d="M 143128 -102772.333 143228 -102805.666 143394.666 -102805.666 143461.333 -102772.333 143494.666 -102739 143528 -102672.333 143528 -102605.666 143494.666 -102539 143461.333 -102505.666 143394.666 -102472.333 143261.333 -102439 143194.666 -102405.666 143161.333 -102372.333 143128 -102305.666 143128 -102239 143161.333 -102172.333 143194.666 -102139 143261.333 -102105.666 143428 -102105.666 143528 -102139 M 143961.333 -102105.666 144094.666 -102105.666 144161.333 -102139 144228 -102205.666 144261.333 -102339 144261.333 -102572.333 144228 -102705.666 144161.333 -102772.333 144094.666 -102805.666 143961.333 -102805.666 143894.666 -102772.333 143828 -102705.666 143794.666 -102572.333 143794.666 -102339 143828 -102205.666 143894.666 -102139 143961.333 -102105.666 M 144894.666 -102805.666 144561.333 -102805.666 144561.333 -102105.666 M 145128 -102805.666 145128 -102105.666 145294.666 -102105.666 145394.666 -102139 145461.333 -102205.666 145494.666 -102272.333 145528 -102405.666 145528 -102505.666 145494.666 -102639 145461.333 -102705.666 145394.666 -102772.333 145294.666 -102805.666 145128 -102805.666 M 145828 -102439 146061.333 -102439 M 146161.333 -102805.666 145828 -102805.666 145828 -102105.666 146161.333 -102105.666 M 146861.333 -102805.666 146628 -102472.333 M 146461.333 -102805.666 146461.333 -102105.666 146728 -102105.666 146794.666 -102139 146828 -102172.333 146861.333 -102239 146861.333 -102339 146828 -102405.666 146794.666 -102439 146728 -102472.333 146461.333 -102472.333 M 147594.666 -102105.666 147994.666 -102105.666 M 147794.666 -102805.666 147794.666 -102105.666 M 148228 -102805.666 148228 -102105.666 M 148228 -102439 148628 -102439 M 148628 -102805.666 148628 -102105.666 M 148961.333 -102805.666 148961.333 -102105.666 M 149261.333 -102772.333 149361.333 -102805.666 149528 -102805.666 149594.666 -102772.333 149628 -102739 149661.333 -102672.333 149661.333 -102605.666 149628 -102539 149594.666 -102505.666 149528 -102472.333 149394.666 -102439 149328 -102405.666 149294.666 -102372.333 149261.333 -102305.666 149261.333 -102239 149294.666 -102172.333 149328 -102139 149394.666 -102105.666 149561.333 -102105.666 149661.333 -102139 M 150461.333 -102772.333 150561.333 -102805.666 150728 -102805.666 150794.666 -102772.333 150828 -102739 150861.333 -102672.333 150861.333 -102605.666 150828 -102539 150794.666 -102505.666 150728 -102472.333 150594.666 -102439 150528 -102405.666 150494.666 -102372.333 150461.333 -102305.666 150461.333 -102239 150494.666 -102172.333 150528 -102139 150594.666 -102105.666 150761.333 -102105.666 150861.333 -102139 M 151161.333 -102805.666 151161.333 -102105.666 M 151494.666 -102805.666 151494.666 -102105.666 151661.333 -102105.666 151761.333 -102139 151828 -102205.666 151861.333 -102272.333 151894.666 -102405.666 151894.666 -102505.666 151861.333 -102639 151828 -102705.666 151761.333 -102772.333 151661.333 -102805.666 151494.666 -102805.666 M 152194.666 -102439 152428 -102439 M 152528 -102805.666 152194.666 -102805.666 152194.666 -102105.666 152528 -102105.666" fill="none" stroke-width="100"/><path d="M 151136.4 -86140.952 151212.59 -86140.952 151250.685 -86160 151288.78 -86198.095 151307.828 -86274.285 151307.828 -86407.619 151288.78 -86483.809 151250.685 -86521.904 151212.59 -86540.952 151136.4 -86540.952 151098.304 -86521.904 151060.209 -86483.809 151041.161 -86407.619 151041.161 -86274.285 151060.209 -86198.095 151098.304 -86160 151136.4 -86140.952 M 151479.257 -86140.952 151479.257 -86464.761 151498.304 -86502.857 151517.352 -86521.904 151555.447 -86540.952 151631.638 -86540.952 151669.733 -86521.904 151688.78 -86502.857 151707.828 -86464.761 151707.828 -86140.952 M 151841.161 -86140.952 152069.733 -86140.952 M 151955.447 -86540.952 151955.447 -86140.952 M 148717.042 -86521.904 148774.185 -86540.952 148869.423 -86540.952 148907.519 -86521.904 148926.566 -86502.857 148945.614 -86464.761 148945.614 -86426.666 148926.566 -86388.571 148907.519 -86369.523 148869.423 -86350.476 148793.233 -86331.428 148755.138 -86312.38 148736.09 -86293.333 148717.042 -86255.238 148717.042 -86217.142 148736.09 -86179.047 148755.138 -86160 148793.233 -86140.952 148888.471 -86140.952 148945.614 -86160 M 149078.947 -86140.952 149174.185 -86540.952 149250.376 -86255.238 149326.566 -86540.952 149421.804 -86140.952 M 146215.138 -86160 146177.042 -86140.952 146119.9 -86140.952 146062.757 -86160 146024.661 -86198.095 146005.614 -86236.19 145986.566 -86312.38 145986.566 -86369.523 146005.614 -86445.714 146024.661 -86483.809 146062.757 -86521.904 146119.9 -86540.952 146157.995 -86540.952 146215.138 -86521.904 146234.185 -86502.857 146234.185 -86369.523 146157.995 -86369.523 M 146405.614 -86540.952 146405.614 -86140.952 146634.185 -86540.952 146634.185 -86140.952 M 146824.661 -86540.952 146824.661 -86140.952 146919.9 -86140.952 146977.042 -86160 147015.138 -86198.095 147034.185 -86236.19 147053.233 -86312.38 147053.233 -86369.523 147034.185 -86445.714 147015.138 -86483.809 146977.042 -86521.904 146919.9 -86540.952 146824.661 -86540.952 M 143706.876 -86540.952 143706.876 -86140.952 M 143897.352 -86540.952 143897.352 -86140.952 144125.923 -86540.952 144125.923 -86140.952" fill="none" stroke-width="80"/><path d="M 138526.4 -85840.4 156926.4 -85840.4 156926.4 -103440.4 138526.4 -103440.4 138526.4 -85840.4" fill="none" stroke-width="152.4"/><path d="M 152806.4 -86677.5 152806.4 -83439 M 142646.4 -86677.5 142646.4 -83439 M 152806.4 -85979 142646.4 -85979 M 142646.4 -83439 152806.4 -83439 M 142646.4 -86677.5 152806.4 -86677.5" fill="none" stroke-width="80"/></g></g></svg>