<svg version="1.1" xmlns="http://www.w3.org/2000/svg" xmlns:xlink="http://www.w3.org/1999/xlink" stroke-linecap="round" stroke-linejoin="round" stroke-width="0" fill-rule="evenodd" width="0.94935in" height="0.73975in" viewBox="5374.25 -4045.6 949.35 739.75" id="HiPIQ1uB9s_EYX6Gvy98"><defs><circle cx="0" cy="0" r="7.85" id="HiPIQ1uB9s_EYX6Gvy98_pad-1"/><circle cx="0" cy="0" r="15.75" id="HiPIQ1uB9s_EYX6Gvy98_pad-2"/><circle cx="0" cy="0" r="17.7" id="HiPIQ1uB9s_EYX6Gvy98_pad-3"/><circle cx="0" cy="0" r="21.65" id="HiPIQ1uB9s_EYX6Gvy98_pad-4"/><circle cx="0" cy="0" r="23.6" id="HiPIQ1uB9s_EYX6Gvy98_pad-5"/><circle cx="0" cy="0" r="55.1" id="HiPIQ1uB9s_EYX6Gvy98_pad-6"/></defs><g transform="translate(0,-7351.45) scale(1,-1)" fill="currentColor" stroke="currentColor"><use xlink:href="#HiPIQ1uB9s_EYX6Gvy98_pad-1" x="5516" y="-3658"/><use xlink:href="#HiPIQ1uB9s_EYX6Gvy98_pad-1" x="5921" y="-3955"/><use xlink:href="#HiPIQ1uB9s_EYX6Gvy98_pad-1" x="6189" y="-3709"/><use xlink:href="#HiPIQ1uB9s_EYX6Gvy98_pad-2" x="6295" y="-3845"/><use xlink:href="#HiPIQ1uB9s_EYX6Gvy98_pad-2" x="6295" y="-3943.4"/><use xlink:href="#HiPIQ1uB9s_EYX6Gvy98_pad-2" x="5390" y="-3730"/><use xlink:href="#HiPIQ1uB9s_EYX6Gvy98_pad-2" x="5390" y="-3830"/><use xlink:href="#HiPIQ1uB9s_EYX6Gvy98_pad-2" x="5390" y="-3528"/><use xlink:href="#HiPIQ1uB9s_EYX6Gvy98_pad-2" x="5390" y="-3628"/><use xlink:href="#HiPIQ1uB9s_EYX6Gvy98_pad-3" x="6305" y="-3532.5"/><use xlink:href="#HiPIQ1uB9s_EYX6Gvy98_pad-3" x="6305" y="-3632.5"/><use xlink:href="#HiPIQ1uB9s_EYX6Gvy98_pad-3" x="6305" y="-3732.5"/><use xlink:href="#HiPIQ1uB9s_EYX6Gvy98_pad-4" x="6067.5" y="-3327.5"/><use xlink:href="#HiPIQ1uB9s_EYX6Gvy98_pad-4" x="6167.5" y="-3327.5"/><use xlink:href="#HiPIQ1uB9s_EYX6Gvy98_pad-4" x="5397.5" y="-3920"/><use xlink:href="#HiPIQ1uB9s_EYX6Gvy98_pad-4" x="5397.5" y="-4020"/><use xlink:href="#HiPIQ1uB9s_EYX6Gvy98_pad-4" x="5666" y="-3335"/><use xlink:href="#HiPIQ1uB9s_EYX6Gvy98_pad-4" x="5766" y="-3335"/><use xlink:href="#HiPIQ1uB9s_EYX6Gvy98_pad-4" x="5866" y="-3335"/><use xlink:href="#HiPIQ1uB9s_EYX6Gvy98_pad-4" x="5966" y="-3335"/><use xlink:href="#HiPIQ1uB9s_EYX6Gvy98_pad-5" x="5552.5" y="-3335"/><use xlink:href="#HiPIQ1uB9s_EYX6Gvy98_pad-5" x="6218" y="-4022"/><use xlink:href="#HiPIQ1uB9s_EYX6Gvy98_pad-5" x="6300" y="-3345"/><use xlink:href="#HiPIQ1uB9s_EYX6Gvy98_pad-5" x="6300" y="-3437.5"/><use xlink:href="#HiPIQ1uB9s_EYX6Gvy98_pad-5" x="5400" y="-3330"/><use xlink:href="#HiPIQ1uB9s_EYX6Gvy98_pad-5" x="5400" y="-3422.5"/><use xlink:href="#HiPIQ1uB9s_EYX6Gvy98_pad-6" x="5607.3" y="-3541"/><use xlink:href="#HiPIQ1uB9s_EYX6Gvy98_pad-6" x="5607.3" y="-3726"/><use xlink:href="#HiPIQ1uB9s_EYX6Gvy98_pad-6" x="5607.3" y="-3911"/><use xlink:href="#HiPIQ1uB9s_EYX6Gvy98_pad-6" x="5816" y="-3541"/><use xlink:href="#HiPIQ1uB9s_EYX6Gvy98_pad-6" x="5816" y="-3726"/><use xlink:href="#HiPIQ1uB9s_EYX6Gvy98_pad-6" x="5816" y="-3911"/><use xlink:href="#HiPIQ1uB9s_EYX6Gvy98_pad-6" x="6024.7" y="-3541"/><use xlink:href="#HiPIQ1uB9s_EYX6Gvy98_pad-6" x="6024.7" y="-3726"/><use xlink:href="#HiPIQ1uB9s_EYX6Gvy98_pad-6" x="6024.7" y="-3911"/></g></svg>