<svg version="1.1" xmlns="http://www.w3.org/2000/svg" xmlns:xlink="http://www.w3.org/1999/xlink" stroke-linecap="round" stroke-linejoin="round" stroke-width="0" fill-rule="evenodd" width="25.185001mm" height="19.814mm" viewBox="136106 -103252 25185.001 19814" id="u33qTQ3N_O99dTa6FZZf"><defs><rect x="-965.2" y="-965.2" width="1930.4" height="1930.4" rx="965.2" ry="965.2" id="u33qTQ3N_O99dTa6FZZf_pad-10"/><rect x="-800" y="-800" width="1600" height="1600" rx="800" ry="800" id="u33qTQ3N_O99dTa6FZZf_pad-11"/><circle cx="0" cy="0" r="800" id="u33qTQ3N_O99dTa6FZZf_pad-12"/><rect x="-800" y="-800" width="1600" height="1600" id="u33qTQ3N_O99dTa6FZZf_pad-13"/><circle cx="0" cy="0" r="900" id="u33qTQ3N_O99dTa6FZZf_pad-14"/><rect x="-900" y="-900" width="1800" height="1800" id="u33qTQ3N_O99dTa6FZZf_pad-15"/><rect x="-965.2" y="-965.2" width="1930.4" height="1930.4" id="u33qTQ3N_O99dTa6FZZf_pad-16"/><rect x="-1908" y="-1908" width="3816" height="3816" rx="1908" ry="1908" id="u33qTQ3N_O99dTa6FZZf_pad-17"/><rect x="-1908" y="-1908" width="3816" height="3816" id="u33qTQ3N_O99dTa6FZZf_pad-18"/><circle cx="0" cy="0" r="400" id="u33qTQ3N_O99dTa6FZZf_pad-19"/></defs><g transform="translate(0,-186690) scale(1,-1)" fill="currentColor" stroke="currentColor"><use xlink:href="#u33qTQ3N_O99dTa6FZZf_pad-10" x="157937.2" y="-102158.8"/><use xlink:href="#u33qTQ3N_O99dTa6FZZf_pad-10" x="141033.5" y="-84709"/><use xlink:href="#u33qTQ3N_O99dTa6FZZf_pad-11" x="136906" y="-92151.2"/><use xlink:href="#u33qTQ3N_O99dTa6FZZf_pad-12" x="136906" y="-89611.2"/><use xlink:href="#u33qTQ3N_O99dTa6FZZf_pad-12" x="159893" y="-100163"/><use xlink:href="#u33qTQ3N_O99dTa6FZZf_pad-13" x="159893" y="-97663"/><use xlink:href="#u33qTQ3N_O99dTa6FZZf_pad-14" x="160147" y="-94805.5"/><use xlink:href="#u33qTQ3N_O99dTa6FZZf_pad-14" x="160147" y="-92265.5"/><use xlink:href="#u33qTQ3N_O99dTa6FZZf_pad-15" x="160147" y="-89725.5"/><use xlink:href="#u33qTQ3N_O99dTa6FZZf_pad-16" x="137160" y="-84582"/><use xlink:href="#u33qTQ3N_O99dTa6FZZf_pad-10" x="137160" y="-86931.5"/><use xlink:href="#u33qTQ3N_O99dTa6FZZf_pad-16" x="160020" y="-84963"/><use xlink:href="#u33qTQ3N_O99dTa6FZZf_pad-10" x="160020" y="-87312.5"/><use xlink:href="#u33qTQ3N_O99dTa6FZZf_pad-10" x="156654.5" y="-84518.5"/><use xlink:href="#u33qTQ3N_O99dTa6FZZf_pad-16" x="154114.5" y="-84518.5"/><use xlink:href="#u33qTQ3N_O99dTa6FZZf_pad-10" x="137096.5" y="-102108"/><use xlink:href="#u33qTQ3N_O99dTa6FZZf_pad-16" x="137096.5" y="-99568"/><use xlink:href="#u33qTQ3N_O99dTa6FZZf_pad-17" x="153026.4" y="-99340.4"/><use xlink:href="#u33qTQ3N_O99dTa6FZZf_pad-17" x="153026.4" y="-94640.4"/><use xlink:href="#u33qTQ3N_O99dTa6FZZf_pad-17" x="153026.4" y="-89940.4"/><use xlink:href="#u33qTQ3N_O99dTa6FZZf_pad-17" x="147726.4" y="-99340.4"/><use xlink:href="#u33qTQ3N_O99dTa6FZZf_pad-17" x="147726.4" y="-94640.4"/><use xlink:href="#u33qTQ3N_O99dTa6FZZf_pad-17" x="147726.4" y="-89940.4"/><use xlink:href="#u33qTQ3N_O99dTa6FZZf_pad-17" x="142426.4" y="-99340.4"/><use xlink:href="#u33qTQ3N_O99dTa6FZZf_pad-17" x="142426.4" y="-94640.4"/><use xlink:href="#u33qTQ3N_O99dTa6FZZf_pad-18" x="142426.4" y="-89940.4"/><use xlink:href="#u33qTQ3N_O99dTa6FZZf_pad-10" x="151536.4" y="-84709"/><use xlink:href="#u33qTQ3N_O99dTa6FZZf_pad-10" x="148996.4" y="-84709"/><use xlink:href="#u33qTQ3N_O99dTa6FZZf_pad-10" x="146456.4" y="-84709"/><use xlink:href="#u33qTQ3N_O99dTa6FZZf_pad-16" x="143916.4" y="-84709"/><use xlink:href="#u33qTQ3N_O99dTa6FZZf_pad-11" x="136906" y="-97282"/><use xlink:href="#u33qTQ3N_O99dTa6FZZf_pad-12" x="136906" y="-94742"/><use xlink:href="#u33qTQ3N_O99dTa6FZZf_pad-19" x="150393.4" y="-100457"/><use xlink:href="#u33qTQ3N_O99dTa6FZZf_pad-19" x="140106.4" y="-92913.2"/><use xlink:href="#u33qTQ3N_O99dTa6FZZf_pad-19" x="157200.6" y="-94208.6"/><path d="M 143916.4 -84709 144788.401 -85581.001 144788.401 -92278.399 142426.4 -94640.4 M 147449.389 -102410.411 142000.649 -102410.411 M 147449.389 -102410.411 155145.589 -102410.411 159893 -97663 M 157937.2 -102158.8 157454.6 -102158.8" fill="none" stroke-width="508"/><path d="M 154710.599 -101702.401 157873.7 -98539.3 157873.7 -97078.8 160147 -94805.5" fill="none" stroke-width="381"/><path d="M 159893 -98027.398 159893 -97663" fill="none" stroke-width="609.6"/><path d="M 147726.4 -89940.4 150127.899 -92341.899 157530.601 -92341.899 160147 -89725.5" fill="none" stroke-width="381"/><path d="M 153026.4 -94640.4 156768.8 -94640.4 157200.6 -94208.6" fill="none" stroke-width="508"/><path d="M 160147 -92265.5 160147 -92668.974 155877.073 -96938.901 M 138096.501 -93712.283 138096.501 -90852.501 M 155877.073 -96938.901 141323.119 -96938.901 138096.501 -93712.283 M 138096.501 -90852.501 136906 -89662" fill="none" stroke-width="381"/><path d="M 142000.649 -102410.411 138515.701 -98925.463 138515.701 -96351.701 136906 -94742" fill="none" stroke-width="508"/><path d="M 150088.401 -101702.401 154710.599 -101702.401 M 147726.4 -99340.4 150088.401 -101702.401" fill="none" stroke-width="381"/><path d="M 137160 -84674 142426.4 -89940.4" fill="none" stroke-width="508"/><path d="M 142426.4 -99340.4 147726.4 -99340.4" fill="none" stroke-width="381"/><path d="M 161164.001 -99496.44 161060.053 -99316.397 160936.844 -99300.177 160126.21 -100110.809 160126.21 -100215.191 160936.844 -101025.823 161060.053 -101009.603 161164.001 -100829.56 161164.001 -103125 159214.961 -103125 159236.966 -103099.144 159243.001 -103090.746 159373.095 -102874.231 159377.677 -102864.961 159470.663 -102630.106 159473.67 -102620.211 159525.485 -102380.553 159449.836 -102286.8 156427.719 -102286.8 156352.375 -102373.474 156371.064 -102506.444 156373.337 -102516.532 156448.873 -102757.566 156452.764 -102767.148 156566.652 -102992.608 156572.055 -103001.426 156662.498 -103125 138331.026 -103125 138396.266 -103048.344 138402.301 -103039.946 138532.395 -102823.431 138536.977 -102814.161 138629.963 -102579.306 138632.97 -102569.411 138684.785 -102329.753 138609.136 -102236 136968.5 -102235.999 136968.501 -101980 138606.134 -101980.001 138681.619 -101890.992 138653.675 -101722.196 138651.155 -101712.166 138569.753 -101473.05 138565.63 -101463.566 138446.267 -101240.955 138440.649 -101232.271 138286.531 -101032.146 138279.572 -101024.497 138149.48 -100903.184 138197.558 -100893.621 138220.489 -100884.123 138325.144 -100814.195 138342.695 -100796.644 138412.623 -100691.989 138422.121 -100669.058 138445.463 -100551.71 138446.676 -100539.39 138446.676 -99755.876 141531.296 -102840.496 141578.335 -102896.556 141595.224 -102910.727 141658.604 -102947.321 141718.548 -102989.294 141738.529 -102998.611 141755.161 -103003.068 141770.076 -103011.678 141790.793 -103019.219 141862.862 -103031.926 141933.55 -103050.867 141955.513 -103052.788 142028.411 -103046.411 155117.838 -103046.411 155190.724 -103052.787 155212.686 -103050.866 155283.362 -103031.929 155355.446 -103019.219 155376.162 -103011.678 155391.077 -103003.068 155407.709 -102998.611 155427.69 -102989.294 155487.634 -102947.321 155551.014 -102910.727 155567.902 -102896.557 155614.947 -102840.492 156425.667 -102029.772 156426.518 -102030.8 157735.391 -102030.8 157809.2 -101956.991 157809.2 -100646.239 158467.799 -99987.64 158459.959 -100032.103 158459 -100043.064 158459 -100282.936 158459.959 -100293.897 158501.613 -100530.126 158504.46 -100540.753 158556.513 -100683.768 158477.583 -100648.295 158467.834 -100644.843 158223.623 -100580.319 158213.442 -100578.506 158147.602 -100572.282 158065.2 -100647.261 158065.2 -101956.991 158139.009 -102030.8 159446.834 -102030.8 159522.319 -101941.791 159494.374 -101772.996 159491.855 -101762.966 159410.453 -101523.85 159406.33 -101514.366 159404.685 -101511.299 159515.247 -101551.54 159525.874 -101554.387 159762.103 -101596.041 159773.064 -101597 160012.936 -101597 160023.897 -101596.041 160260.126 -101554.387 160270.753 -101551.54 160496.16 -101469.498 160506.132 -101464.848 160739.603 -101330.053 160755.823 -101206.844 159711.98 -100163 159982.095 -99892.885 160755.823 -99119.156 160739.603 -98995.947 160506.132 -98861.152 160496.16 -98856.502 160472.735 -98847.976 160699.19 -98847.976 160711.51 -98846.763 160828.858 -98823.421 160851.789 -98813.923 160956.444 -98743.995 160973.995 -98726.444 161043.923 -98621.789 161053.421 -98598.858 161076.763 -98481.51 161077.976 -98469.19 161077.976 -96856.81 161076.763 -96844.49 161053.421 -96727.142 161043.923 -96704.211 160973.995 -96599.556 160956.444 -96582.005 160851.789 -96512.077 160828.858 -96502.579 160711.51 -96479.237 160699.19 -96478.024 159284.111 -96478.024 159742.204 -96019.931 159857.782 -96057.484 159869.051 -96060.034 160090.781 -96089.225 160102.325 -96089.679 160325.663 -96077.975 160337.097 -96076.317 160554.561 -96024.108 160565.502 -96020.394 160769.81 -95929.43 160779.89 -95923.785 160964.201 -95797.112 160973.084 -95789.724 161131.224 -95631.584 161138.612 -95622.701 161164.001 -95585.76 161164.001 -99496.44"/><path d="M 161164.001 -99496.44 161060.053 -99316.397 160936.844 -99300.177 160126.21 -100110.809 160126.21 -100215.191 160936.844 -101025.823 161060.053 -101009.603 161164.001 -100829.56 161164.001 -103125 159214.961 -103125 159236.966 -103099.144 159243.001 -103090.746 159373.095 -102874.231 159377.677 -102864.961 159470.663 -102630.106 159473.67 -102620.211 159525.485 -102380.553 159449.836 -102286.8 156427.719 -102286.8 156352.375 -102373.474 156371.064 -102506.444 156373.337 -102516.532 156448.873 -102757.566 156452.764 -102767.148 156566.652 -102992.608 156572.055 -103001.426 156662.498 -103125 138331.026 -103125 138396.266 -103048.344 138402.301 -103039.946 138532.395 -102823.431 138536.977 -102814.161 138629.963 -102579.306 138632.97 -102569.411 138684.785 -102329.753 138609.136 -102236 136968.5 -102235.999 136968.501 -101980 138606.134 -101980.001 138681.619 -101890.992 138653.675 -101722.196 138651.155 -101712.166 138569.753 -101473.05 138565.63 -101463.566 138446.267 -101240.955 138440.649 -101232.271 138286.531 -101032.146 138279.572 -101024.497 138149.48 -100903.184 138197.558 -100893.621 138220.489 -100884.123 138325.144 -100814.195 138342.695 -100796.644 138412.623 -100691.989 138422.121 -100669.058 138445.463 -100551.71 138446.676 -100539.39 138446.676 -99755.876 141531.296 -102840.496 141578.335 -102896.556 141595.224 -102910.727 141658.604 -102947.321 141718.548 -102989.294 141738.529 -102998.611 141755.161 -103003.068 141770.076 -103011.678 141790.793 -103019.219 141862.862 -103031.926 141933.55 -103050.867 141955.513 -103052.788 142028.411 -103046.411 155117.838 -103046.411 155190.724 -103052.787 155212.686 -103050.866 155283.362 -103031.929 155355.446 -103019.219 155376.162 -103011.678 155391.077 -103003.068 155407.709 -102998.611 155427.69 -102989.294 155487.634 -102947.321 155551.014 -102910.727 155567.902 -102896.557 155614.947 -102840.492 156425.667 -102029.772 156426.518 -102030.8 157735.391 -102030.8 157809.2 -101956.991 157809.2 -100646.239 158467.799 -99987.64 158459.959 -100032.103 158459 -100043.064 158459 -100282.936 158459.959 -100293.897 158501.613 -100530.126 158504.46 -100540.753 158556.513 -100683.768 158477.583 -100648.295 158467.834 -100644.843 158223.623 -100580.319 158213.442 -100578.506 158147.602 -100572.282 158065.2 -100647.261 158065.2 -101956.991 158139.009 -102030.8 159446.834 -102030.8 159522.319 -101941.791 159494.374 -101772.996 159491.855 -101762.966 159410.453 -101523.85 159406.33 -101514.366 159404.685 -101511.299 159515.247 -101551.54 159525.874 -101554.387 159762.103 -101596.041 159773.064 -101597 160012.936 -101597 160023.897 -101596.041 160260.126 -101554.387 160270.753 -101551.54 160496.16 -101469.498 160506.132 -101464.848 160739.603 -101330.053 160755.823 -101206.844 159711.98 -100163 159982.095 -99892.885 160755.823 -99119.156 160739.603 -98995.947 160506.132 -98861.152 160496.16 -98856.502 160472.735 -98847.976 160699.19 -98847.976 160711.51 -98846.763 160828.858 -98823.421 160851.789 -98813.923 160956.444 -98743.995 160973.995 -98726.444 161043.923 -98621.789 161053.421 -98598.858 161076.763 -98481.51 161077.976 -98469.19 161077.976 -96856.81 161076.763 -96844.49 161053.421 -96727.142 161043.923 -96704.211 160973.995 -96599.556 160956.444 -96582.005 160851.789 -96512.077 160828.858 -96502.579 160711.51 -96479.237 160699.19 -96478.024 159284.111 -96478.024 159742.204 -96019.931 159857.782 -96057.484 159869.051 -96060.034 160090.781 -96089.225 160102.325 -96089.679 160325.663 -96077.975 160337.097 -96076.317 160554.561 -96024.108 160565.502 -96020.394 160769.81 -95929.43 160779.89 -95923.785 160964.201 -95797.112 160973.084 -95789.724 161131.224 -95631.584 161138.612 -95622.701 161164.001 -95585.76 161164.001 -99496.44" fill="none" stroke-width="254"/><path d="M 151596.034 -97548.152 151589.338 -97553.516 151366.033 -97758.857 151360.127 -97765.08 151166.755 -97998.826 151161.748 -98005.794 151001.888 -98263.622 150997.873 -98271.204 150874.483 -98548.342 150871.535 -98556.399 150786.898 -98847.719 150785.07 -98856.102 150740.754 -99156.212 150740.081 -99164.766 150736.904 -99468.114 150737.398 -99476.68 150775.42 -99777.653 150777.072 -99786.072 150855.589 -100079.101 150858.368 -100087.218 150975.927 -100366.879 150979.782 -100374.544 151134.207 -100635.663 151139.067 -100642.734 151327.501 -100880.479 151333.276 -100886.824 151552.232 -101096.797 151558.814 -101102.301 151596.802 -101129.901 150325.538 -101129.901 149698.539 -100502.903 149739.526 -100438.319 149743.62 -100430.779 149869.905 -100154.949 149872.937 -100146.923 149960.619 -99856.505 149962.535 -99848.142 150010.043 -99548.186 150010.817 -99538.977 150014.474 -99189.706 150013.894 -99180.484 149972.678 -98879.6 149970.938 -98871.198 149889.357 -98579.008 149886.493 -98570.921 149766.012 -98292.505 149762.077 -98284.881 149604.926 -98025.393 149599.992 -98018.374 149409.079 -97782.615 149403.238 -97776.33 149182.095 -97568.662 149175.455 -97563.228 149102.528 -97511.401 151648.912 -97511.401 151596.034 -97548.152"/><path d="M 151596.034 -97548.152 151589.338 -97553.516 151366.033 -97758.857 151360.127 -97765.08 151166.755 -97998.826 151161.748 -98005.794 151001.888 -98263.622 150997.873 -98271.204 150874.483 -98548.342 150871.535 -98556.399 150786.898 -98847.719 150785.07 -98856.102 150740.754 -99156.212 150740.081 -99164.766 150736.904 -99468.114 150737.398 -99476.68 150775.42 -99777.653 150777.072 -99786.072 150855.589 -100079.101 150858.368 -100087.218 150975.927 -100366.879 150979.782 -100374.544 151134.207 -100635.663 151139.067 -100642.734 151327.501 -100880.479 151333.276 -100886.824 151552.232 -101096.797 151558.814 -101102.301 151596.802 -101129.901 150325.538 -101129.901 149698.539 -100502.903 149739.526 -100438.319 149743.62 -100430.779 149869.905 -100154.949 149872.937 -100146.923 149960.619 -99856.505 149962.535 -99848.142 150010.043 -99548.186 150010.817 -99538.977 150014.474 -99189.706 150013.894 -99180.484 149972.678 -98879.6 149970.938 -98871.198 149889.357 -98579.008 149886.493 -98570.921 149766.012 -98292.505 149762.077 -98284.881 149604.926 -98025.393 149599.992 -98018.374 149409.079 -97782.615 149403.238 -97776.33 149182.095 -97568.662 149175.455 -97563.228 149102.528 -97511.401 151648.912 -97511.401 151596.034 -97548.152" fill="none" stroke-width="254"/><path d="M 161164 -83660.248 161143.989 -83646.877 161121.058 -83637.379 161003.71 -83614.037 160991.39 -83612.824 159048.61 -83612.824 159036.29 -83614.037 158918.942 -83637.379 158896.011 -83646.877 158791.356 -83716.805 158773.805 -83734.356 158703.877 -83839.011 158694.379 -83861.942 158671.037 -83979.29 158669.824 -83991.61 158669.824 -85934.39 158671.037 -85946.71 158694.379 -86064.058 158703.877 -86086.989 158773.805 -86191.644 158791.356 -86209.195 158833.013 -86237.029 158697.647 -86404.193 158691.82 -86412.736 158567.054 -86632.364 158562.699 -86641.744 158475.479 -86878.8 158472.716 -86888.766 158433.731 -87093.131 158509.318 -87184.5 160148 -87184.5 160148 -87440.5 158510.519 -87440.5 158435.175 -87527.174 158453.864 -87660.144 158456.137 -87670.232 158531.673 -87911.266 158535.564 -87920.848 158649.452 -88146.308 158654.855 -88155.126 158804.038 -88358.958 158810.809 -88366.775 158988.755 -88541.031 158983.556 -88544.505 158966.005 -88562.056 158896.077 -88666.711 158886.579 -88689.642 158863.237 -88806.99 158862.024 -88819.31 158862.024 -90200.84 157293.466 -91769.399 154405.738 -91769.399 154437.919 -91747.529 154444.67 -91742.235 154670.114 -91539.245 154676.085 -91533.083 154871.895 -91301.374 154876.975 -91294.459 155039.526 -91038.319 155043.62 -91030.779 155169.905 -90754.949 155172.937 -90746.923 155260.619 -90456.505 155262.535 -90448.142 155310.043 -90148.186 155310.817 -90138.977 155314.474 -89789.706 155313.894 -89780.484 155272.678 -89479.6 155270.938 -89471.198 155189.357 -89179.008 155186.493 -89170.921 155066.012 -88892.505 155062.077 -88884.881 154904.926 -88625.393 154899.992 -88618.374 154709.079 -88382.615 154703.238 -88376.33 154482.095 -88168.662 154475.455 -88163.228 154228.174 -87987.494 154220.858 -87983.011 153952.014 -87842.463 153944.158 -87839.014 153658.729 -87736.254 153650.477 -87733.903 153353.741 -87670.829 153345.246 -87669.621 153042.697 -87647.403 153034.117 -87647.358 152731.35 -87666.406 152722.843 -87667.526 152425.464 -87727.489 152417.188 -87729.753 152130.697 -87829.519 152122.804 -87832.886 151852.505 -87970.611 151845.143 -87975.017 151596.034 -88148.152 151589.338 -88153.516 151366.033 -88358.857 151360.127 -88365.08 151166.755 -88598.826 151161.748 -88605.794 151001.888 -88863.622 150997.873 -88871.204 150874.483 -89148.342 150871.535 -89156.399 150786.898 -89447.719 150785.07 -89456.102 150740.754 -89756.212 150740.081 -89764.766 150736.904 -90068.114 150737.398 -90076.68 150775.42 -90377.653 150777.072 -90386.072 150855.589 -90679.101 150858.368 -90687.218 150975.927 -90966.879 150979.782 -90974.544 151134.207 -91235.663 151139.067 -91242.734 151327.501 -91480.479 151333.276 -91486.824 151552.232 -91696.797 151558.814 -91702.301 151651.167 -91769.399 150365.036 -91769.399 149698.54 -91102.903 149739.526 -91038.319 149743.62 -91030.779 149869.905 -90754.949 149872.937 -90746.923 149960.619 -90456.505 149962.535 -90448.142 150010.043 -90148.186 150010.817 -90138.977 150014.474 -89789.706 150013.894 -89780.484 149972.678 -89479.6 149970.938 -89471.198 149889.357 -89179.008 149886.493 -89170.921 149766.012 -88892.505 149762.077 -88884.881 149604.926 -88625.393 149599.992 -88618.374 149409.079 -88382.615 149403.238 -88376.33 149182.095 -88168.662 149175.455 -88163.228 148928.174 -87987.494 148920.858 -87983.011 148652.014 -87842.463 148644.158 -87839.014 148358.729 -87736.254 148350.477 -87733.903 148053.741 -87670.829 148045.246 -87669.621 147742.697 -87647.403 147734.117 -87647.358 147431.35 -87666.406 147422.843 -87667.526 147125.464 -87727.489 147117.188 -87729.753 146830.697 -87829.519 146822.804 -87832.886 146552.505 -87970.611 146545.143 -87975.017 146296.034 -88148.152 146289.338 -88153.516 146066.033 -88358.857 146060.127 -88365.08 145866.755 -88598.826 145861.748 -88605.794 145701.888 -88863.622 145697.873 -88871.204 145574.483 -89148.342 145571.535 -89156.399 145486.898 -89447.719 145485.07 -89456.102 145440.754 -89756.212 145440.081 -89764.766 145436.904 -90068.114 145437.398 -90076.68 145475.42 -90377.653 145477.072 -90386.072 145555.589 -90679.101 145558.368 -90687.218 145675.927 -90966.879 145679.782 -90974.544 145834.207 -91235.663 145839.067 -91242.734 146027.501 -91480.479 146033.276 -91486.824 146252.232 -91696.797 146258.814 -91702.301 146504.242 -91880.614 146511.51 -91885.173 146778.866 -92028.528 146786.686 -92032.059 147071.025 -92137.804 147079.251 -92140.241 147168.571 -92160.206 147034.633 -92189.165 147026.909 -92191.358 146728.775 -92296.933 146721.392 -92300.09 146439.09 -92442.691 146432.168 -92446.761 146170.273 -92624.076 146163.924 -92628.992 145926.683 -92838.148 145921.011 -92843.831 145712.268 -93081.437 145707.363 -93087.794 145530.505 -93349.998 145526.448 -93356.927 145384.339 -93639.478 145381.195 -93646.867 145276.141 -93945.185 145273.962 -93952.913 145207.665 -94262.161 145206.485 -94270.103 145192.977 -94430.973 145267.853 -94512.4 147524.592 -94512.401 147524.593 -94512.4 150186.626 -94512.401 150261.885 -94426.886 150227.765 -94160.538 150226.239 -94152.654 150146.516 -93846.593 150144.002 -93838.968 150026.035 -93545.516 150022.572 -93538.271 149868.275 -93262.188 149863.919 -93255.442 149675.791 -93001.203 149670.613 -92995.066 149451.706 -92766.791 149445.791 -92761.361 149199.652 -92562.752 149193.095 -92558.118 148923.716 -92392.395 148916.623 -92388.631 148628.369 -92258.479 148620.855 -92255.647 148318.399 -92163.178 148310.587 -92161.324 148302.092 -92159.872 148304.13 -92159.483 148312.429 -92157.306 148599.95 -92060.544 148607.877 -92057.261 148879.604 -91922.374 148887.011 -91918.046 148891.416 -91915.053 149705.413 -92729.051 149747.031 -92778.65 149763.921 -92792.822 149820.005 -92825.201 149873.048 -92862.342 149893.028 -92871.659 149906.923 -92875.382 149919.38 -92882.574 149940.096 -92890.114 150003.864 -92901.359 150066.42 -92918.121 150088.383 -92920.042 150152.889 -92914.399 151523.129 -92914.399 151366.033 -93058.857 151360.127 -93065.08 151166.755 -93298.826 151161.748 -93305.794 151001.888 -93563.622 150997.873 -93571.204 150874.483 -93848.342 150871.535 -93856.399 150786.898 -94147.719 150785.07 -94156.102 150740.754 -94456.212 150740.081 -94464.766 150736.904 -94768.114 150737.398 -94776.68 150775.42 -95077.653 150777.072 -95086.072 150855.589 -95379.101 150858.368 -95387.218 150975.927 -95666.879 150979.782 -95674.544 151134.207 -95935.663 151139.067 -95942.734 151327.501 -96180.479 151333.276 -96186.824 151520.536 -96366.401 149598.895 -96366.401 149603.017 -96362.434 149608.437 -96356.509 149806.616 -96110.024 149811.239 -96103.459 149976.491 -95833.789 149980.242 -95826.69 150109.891 -95538.211 150112.709 -95530.692 150204.652 -95228.075 150206.492 -95220.26 150267.807 -94857.745 150192.305 -94768.4 147928.208 -94768.399 147928.207 -94768.4 145265.318 -94768.399 145190.9 -94846.134 145193.654 -94909.266 145194.514 -94917.252 145248.347 -95228.914 145250.215 -95236.723 145343.213 -95539.015 145346.057 -95546.524 145476.711 -95834.55 145480.487 -95841.637 145646.681 -96110.727 145651.327 -96117.276 145850.365 -96363.068 145853.435 -96366.401 143928.892 -96366.401 144070.114 -96239.245 144076.085 -96233.083 144271.895 -96001.374 144276.975 -95994.459 144439.526 -95738.319 144443.62 -95730.779 144569.905 -95454.949 144572.937 -95446.923 144660.619 -95156.505 144662.535 -95148.142 144710.043 -94848.186 144710.817 -94838.977 144714.474 -94489.706 144713.894 -94480.484 144672.678 -94179.6 144670.938 -94171.198 144589.357 -93879.008 144586.493 -93870.921 144466.012 -93592.505 144462.077 -93584.881 144431.631 -93534.608 145218.487 -92747.752 145274.546 -92700.713 145288.717 -92683.824 145325.308 -92620.449 145367.284 -92560.501 145376.602 -92540.518 145381.059 -92523.885 145389.668 -92508.974 145397.208 -92488.256 145409.917 -92416.186 145428.857 -92345.498 145430.778 -92323.535 145424.401 -92250.637 145424.401 -85936.793 145427.68 -85940.004 145435.637 -85946.61 145642.548 -86091.492 145651.477 -86096.71 145879.273 -86205.851 145888.935 -86209.54 146131.498 -86280.012 146141.632 -86282.073 146243.709 -86294.246 146328.4 -86219.054 146328.4 -84581 146584.4 -84581 146584.4 -86221.301 146677.812 -86296.944 146912.445 -86247.07 146922.35 -86244.099 147157.528 -86151.933 147166.815 -86147.384 147383.782 -86018.046 147392.201 -86012.041 147585.13 -85849.003 147592.455 -85841.703 147756.166 -85649.344 147762.201 -85640.946 147875.294 -85452.725 147948.063 -85559.802 147955.171 -85568.488 148115.296 -85732 148123.829 -85739.288 148310.378 -85871.863 148320.068 -85877.525 148527.146 -85974.968 148537.686 -85978.825 148758.746 -86038.058 148769.802 -86039.988 148997.857 -86059.138 149009.08 -86059.079 149236.923 -86037.542 149247.958 -86035.496 149468.387 -85973.951 149478.885 -85969.984 149684.931 -85870.378 149694.561 -85864.614 149879.712 -85730.095 149888.169 -85722.717 150046.572 -85557.536 150053.589 -85548.777 150180.237 -85358.157 150185.593 -85348.293 150265.857 -85162.813 150353.968 -85360.711 150359.426 -85370.517 150488.063 -85559.802 150495.171 -85568.488 150655.296 -85732 150663.829 -85739.288 150850.378 -85871.863 150860.068 -85877.525 151067.146 -85974.968 151077.686 -85978.825 151298.746 -86038.058 151309.802 -86039.988 151537.857 -86059.138 151549.08 -86059.079 151776.923 -86037.542 151787.958 -86035.496 152008.387 -85973.951 152018.885 -85969.984 152224.931 -85870.378 152234.561 -85864.614 152419.712 -85730.095 152428.169 -85722.717 152586.572 -85557.536 152593.589 -85548.777 152720.237 -85358.157 152725.593 -85348.293 152764.324 -85258.791 152764.324 -85489.89 152765.537 -85502.21 152788.879 -85619.558 152798.377 -85642.489 152868.305 -85747.144 152885.856 -85764.695 152990.511 -85834.623 153013.442 -85844.121 153130.79 -85867.463 153143.11 -85868.676 155085.89 -85868.676 155098.21 -85867.463 155215.558 -85844.121 155238.489 -85834.623 155343.144 -85764.695 155360.695 -85747.144 155430.623 -85642.489 155440.121 -85619.558 155448.755 -85576.15 155625.78 -85749.504 155633.737 -85756.11 155840.648 -85900.992 155849.577 -85906.21 156077.373 -86015.351 156087.035 -86019.04 156329.598 -86089.512 156339.732 -86091.573 156441.809 -86103.746 156526.5 -86028.554 156526.5 -84720.309 156782.5 -84720.309 156782.5 -86030.801 156875.912 -86106.444 157110.545 -86056.57 157120.45 -86053.599 157355.628 -85961.433 157364.915 -85956.884 157581.882 -85827.546 157590.301 -85821.541 157783.23 -85658.503 157790.555 -85651.203 157954.266 -85458.844 157960.301 -85450.446 158090.395 -85233.931 158094.977 -85224.661 158187.963 -84989.806 158190.97 -84979.911 158242.785 -84740.253 158167.136 -84646.5 156856.309 -84646.5 156782.5 -84720.309 156526.5 -84720.309 156526.5 -84390.5 158164.134 -84390.5 158239.619 -84301.491 158211.674 -84132.696 158209.155 -84122.666 158127.753 -83883.55 158123.63 -83874.066 158004.267 -83651.455 157998.649 -83642.771 157938.757 -83565 161164 -83565 161164 -83660.248"/><path d="M 161164 -83660.248 161143.989 -83646.877 161121.058 -83637.379 161003.71 -83614.037 160991.39 -83612.824 159048.61 -83612.824 159036.29 -83614.037 158918.942 -83637.379 158896.011 -83646.877 158791.356 -83716.805 158773.805 -83734.356 158703.877 -83839.011 158694.379 -83861.942 158671.037 -83979.29 158669.824 -83991.61 158669.824 -85934.39 158671.037 -85946.71 158694.379 -86064.058 158703.877 -86086.989 158773.805 -86191.644 158791.356 -86209.195 158833.013 -86237.029 158697.647 -86404.193 158691.82 -86412.736 158567.054 -86632.364 158562.699 -86641.744 158475.479 -86878.8 158472.716 -86888.766 158433.731 -87093.131 158509.318 -87184.5 160148 -87184.5 160148 -87440.5 158510.519 -87440.5 158435.175 -87527.174 158453.864 -87660.144 158456.137 -87670.232 158531.673 -87911.266 158535.564 -87920.848 158649.452 -88146.308 158654.855 -88155.126 158804.038 -88358.958 158810.809 -88366.775 158988.755 -88541.031 158983.556 -88544.505 158966.005 -88562.056 158896.077 -88666.711 158886.579 -88689.642 158863.237 -88806.99 158862.024 -88819.31 158862.024 -90200.84 157293.466 -91769.399 154405.738 -91769.399 154437.919 -91747.529 154444.67 -91742.235 154670.114 -91539.245 154676.085 -91533.083 154871.895 -91301.374 154876.975 -91294.459 155039.526 -91038.319 155043.62 -91030.779 155169.905 -90754.949 155172.937 -90746.923 155260.619 -90456.505 155262.535 -90448.142 155310.043 -90148.186 155310.817 -90138.977 155314.474 -89789.706 155313.894 -89780.484 155272.678 -89479.6 155270.938 -89471.198 155189.357 -89179.008 155186.493 -89170.921 155066.012 -88892.505 155062.077 -88884.881 154904.926 -88625.393 154899.992 -88618.374 154709.079 -88382.615 154703.238 -88376.33 154482.095 -88168.662 154475.455 -88163.228 154228.174 -87987.494 154220.858 -87983.011 153952.014 -87842.463 153944.158 -87839.014 153658.729 -87736.254 153650.477 -87733.903 153353.741 -87670.829 153345.246 -87669.621 153042.697 -87647.403 153034.117 -87647.358 152731.35 -87666.406 152722.843 -87667.526 152425.464 -87727.489 152417.188 -87729.753 152130.697 -87829.519 152122.804 -87832.886 151852.505 -87970.611 151845.143 -87975.017 151596.034 -88148.152 151589.338 -88153.516 151366.033 -88358.857 151360.127 -88365.08 151166.755 -88598.826 151161.748 -88605.794 151001.888 -88863.622 150997.873 -88871.204 150874.483 -89148.342 150871.535 -89156.399 150786.898 -89447.719 150785.07 -89456.102 150740.754 -89756.212 150740.081 -89764.766 150736.904 -90068.114 150737.398 -90076.68 150775.42 -90377.653 150777.072 -90386.072 150855.589 -90679.101 150858.368 -90687.218 150975.927 -90966.879 150979.782 -90974.544 151134.207 -91235.663 151139.067 -91242.734 151327.501 -91480.479 151333.276 -91486.824 151552.232 -91696.797 151558.814 -91702.301 151651.167 -91769.399 150365.036 -91769.399 149698.54 -91102.903 149739.526 -91038.319 149743.62 -91030.779 149869.905 -90754.949 149872.937 -90746.923 149960.619 -90456.505 149962.535 -90448.142 150010.043 -90148.186 150010.817 -90138.977 150014.474 -89789.706 150013.894 -89780.484 149972.678 -89479.6 149970.938 -89471.198 149889.357 -89179.008 149886.493 -89170.921 149766.012 -88892.505 149762.077 -88884.881 149604.926 -88625.393 149599.992 -88618.374 149409.079 -88382.615 149403.238 -88376.33 149182.095 -88168.662 149175.455 -88163.228 148928.174 -87987.494 148920.858 -87983.011 148652.014 -87842.463 148644.158 -87839.014 148358.729 -87736.254 148350.477 -87733.903 148053.741 -87670.829 148045.246 -87669.621 147742.697 -87647.403 147734.117 -87647.358 147431.35 -87666.406 147422.843 -87667.526 147125.464 -87727.489 147117.188 -87729.753 146830.697 -87829.519 146822.804 -87832.886 146552.505 -87970.611 146545.143 -87975.017 146296.034 -88148.152 146289.338 -88153.516 146066.033 -88358.857 146060.127 -88365.08 145866.755 -88598.826 145861.748 -88605.794 145701.888 -88863.622 145697.873 -88871.204 145574.483 -89148.342 145571.535 -89156.399 145486.898 -89447.719 145485.07 -89456.102 145440.754 -89756.212 145440.081 -89764.766 145436.904 -90068.114 145437.398 -90076.68 145475.42 -90377.653 145477.072 -90386.072 145555.589 -90679.101 145558.368 -90687.218 145675.927 -90966.879 145679.782 -90974.544 145834.207 -91235.663 145839.067 -91242.734 146027.501 -91480.479 146033.276 -91486.824 146252.232 -91696.797 146258.814 -91702.301 146504.242 -91880.614 146511.51 -91885.173 146778.866 -92028.528 146786.686 -92032.059 147071.025 -92137.804 147079.251 -92140.241 147168.571 -92160.206 147034.633 -92189.165 147026.909 -92191.358 146728.775 -92296.933 146721.392 -92300.09 146439.09 -92442.691 146432.168 -92446.761 146170.273 -92624.076 146163.924 -92628.992 145926.683 -92838.148 145921.011 -92843.831 145712.268 -93081.437 145707.363 -93087.794 145530.505 -93349.998 145526.448 -93356.927 145384.339 -93639.478 145381.195 -93646.867 145276.141 -93945.185 145273.962 -93952.913 145207.665 -94262.161 145206.485 -94270.103 145192.977 -94430.973 145267.853 -94512.4 147524.592 -94512.401 147524.593 -94512.4 150186.626 -94512.401 150261.885 -94426.886 150227.765 -94160.538 150226.239 -94152.654 150146.516 -93846.593 150144.002 -93838.968 150026.035 -93545.516 150022.572 -93538.271 149868.275 -93262.188 149863.919 -93255.442 149675.791 -93001.203 149670.613 -92995.066 149451.706 -92766.791 149445.791 -92761.361 149199.652 -92562.752 149193.095 -92558.118 148923.716 -92392.395 148916.623 -92388.631 148628.369 -92258.479 148620.855 -92255.647 148318.399 -92163.178 148310.587 -92161.324 148302.092 -92159.872 148304.13 -92159.483 148312.429 -92157.306 148599.95 -92060.544 148607.877 -92057.261 148879.604 -91922.374 148887.011 -91918.046 148891.416 -91915.053 149705.413 -92729.051 149747.031 -92778.65 149763.921 -92792.822 149820.005 -92825.201 149873.048 -92862.342 149893.028 -92871.659 149906.923 -92875.382 149919.38 -92882.574 149940.096 -92890.114 150003.864 -92901.359 150066.42 -92918.121 150088.383 -92920.042 150152.889 -92914.399 151523.129 -92914.399 151366.033 -93058.857 151360.127 -93065.08 151166.755 -93298.826 151161.748 -93305.794 151001.888 -93563.622 150997.873 -93571.204 150874.483 -93848.342 150871.535 -93856.399 150786.898 -94147.719 150785.07 -94156.102 150740.754 -94456.212 150740.081 -94464.766 150736.904 -94768.114 150737.398 -94776.68 150775.42 -95077.653 150777.072 -95086.072 150855.589 -95379.101 150858.368 -95387.218 150975.927 -95666.879 150979.782 -95674.544 151134.207 -95935.663 151139.067 -95942.734 151327.501 -96180.479 151333.276 -96186.824 151520.536 -96366.401 149598.895 -96366.401 149603.017 -96362.434 149608.437 -96356.509 149806.616 -96110.024 149811.239 -96103.459 149976.491 -95833.789 149980.242 -95826.69 150109.891 -95538.211 150112.709 -95530.692 150204.652 -95228.075 150206.492 -95220.26 150267.807 -94857.745 150192.305 -94768.4 147928.208 -94768.399 147928.207 -94768.4 145265.318 -94768.399 145190.9 -94846.134 145193.654 -94909.266 145194.514 -94917.252 145248.347 -95228.914 145250.215 -95236.723 145343.213 -95539.015 145346.057 -95546.524 145476.711 -95834.55 145480.487 -95841.637 145646.681 -96110.727 145651.327 -96117.276 145850.365 -96363.068 145853.435 -96366.401 143928.892 -96366.401 144070.114 -96239.245 144076.085 -96233.083 144271.895 -96001.374 144276.975 -95994.459 144439.526 -95738.319 144443.62 -95730.779 144569.905 -95454.949 144572.937 -95446.923 144660.619 -95156.505 144662.535 -95148.142 144710.043 -94848.186 144710.817 -94838.977 144714.474 -94489.706 144713.894 -94480.484 144672.678 -94179.6 144670.938 -94171.198 144589.357 -93879.008 144586.493 -93870.921 144466.012 -93592.505 144462.077 -93584.881 144431.631 -93534.608 145218.487 -92747.752 145274.546 -92700.713 145288.717 -92683.824 145325.308 -92620.449 145367.284 -92560.501 145376.602 -92540.518 145381.059 -92523.885 145389.668 -92508.974 145397.208 -92488.256 145409.917 -92416.186 145428.857 -92345.498 145430.778 -92323.535 145424.401 -92250.637 145424.401 -85936.793 145427.68 -85940.004 145435.637 -85946.61 145642.548 -86091.492 145651.477 -86096.71 145879.273 -86205.851 145888.935 -86209.54 146131.498 -86280.012 146141.632 -86282.073 146243.709 -86294.246 146328.4 -86219.054 146328.4 -84581 146584.4 -84581 146584.4 -86221.301 146677.812 -86296.944 146912.445 -86247.07 146922.35 -86244.099 147157.528 -86151.933 147166.815 -86147.384 147383.782 -86018.046 147392.201 -86012.041 147585.13 -85849.003 147592.455 -85841.703 147756.166 -85649.344 147762.201 -85640.946 147875.294 -85452.725 147948.063 -85559.802 147955.171 -85568.488 148115.296 -85732 148123.829 -85739.288 148310.378 -85871.863 148320.068 -85877.525 148527.146 -85974.968 148537.686 -85978.825 148758.746 -86038.058 148769.802 -86039.988 148997.857 -86059.138 149009.08 -86059.079 149236.923 -86037.542 149247.958 -86035.496 149468.387 -85973.951 149478.885 -85969.984 149684.931 -85870.378 149694.561 -85864.614 149879.712 -85730.095 149888.169 -85722.717 150046.572 -85557.536 150053.589 -85548.777 150180.237 -85358.157 150185.593 -85348.293 150265.857 -85162.813 150353.968 -85360.711 150359.426 -85370.517 150488.063 -85559.802 150495.171 -85568.488 150655.296 -85732 150663.829 -85739.288 150850.378 -85871.863 150860.068 -85877.525 151067.146 -85974.968 151077.686 -85978.825 151298.746 -86038.058 151309.802 -86039.988 151537.857 -86059.138 151549.08 -86059.079 151776.923 -86037.542 151787.958 -86035.496 152008.387 -85973.951 152018.885 -85969.984 152224.931 -85870.378 152234.561 -85864.614 152419.712 -85730.095 152428.169 -85722.717 152586.572 -85557.536 152593.589 -85548.777 152720.237 -85358.157 152725.593 -85348.293 152764.324 -85258.791 152764.324 -85489.89 152765.537 -85502.21 152788.879 -85619.558 152798.377 -85642.489 152868.305 -85747.144 152885.856 -85764.695 152990.511 -85834.623 153013.442 -85844.121 153130.79 -85867.463 153143.11 -85868.676 155085.89 -85868.676 155098.21 -85867.463 155215.558 -85844.121 155238.489 -85834.623 155343.144 -85764.695 155360.695 -85747.144 155430.623 -85642.489 155440.121 -85619.558 155448.755 -85576.15 155625.78 -85749.504 155633.737 -85756.11 155840.648 -85900.992 155849.577 -85906.21 156077.373 -86015.351 156087.035 -86019.04 156329.598 -86089.512 156339.732 -86091.573 156441.809 -86103.746 156526.5 -86028.554 156526.5 -84720.309 156782.5 -84720.309 156782.5 -86030.801 156875.912 -86106.444 157110.545 -86056.57 157120.45 -86053.599 157355.628 -85961.433 157364.915 -85956.884 157581.882 -85827.546 157590.301 -85821.541 157783.23 -85658.503 157790.555 -85651.203 157954.266 -85458.844 157960.301 -85450.446 158090.395 -85233.931 158094.977 -85224.661 158187.963 -84989.806 158190.97 -84979.911 158242.785 -84740.253 158167.136 -84646.5 156856.309 -84646.5 156782.5 -84720.309 156526.5 -84720.309 156526.5 -84390.5 158164.134 -84390.5 158239.619 -84301.491 158211.674 -84132.696 158209.155 -84122.666 158127.753 -83883.55 158123.63 -83874.066 158004.267 -83651.455 157998.649 -83642.771 157938.757 -83565 161164 -83565 161164 -83660.248" fill="none" stroke-width="254"/><path d="M 140133.424 -88546.863 140133.424 -91854.59 140134.637 -91866.91 140157.979 -91984.258 140167.477 -92007.189 140237.405 -92111.844 140254.956 -92129.395 140359.611 -92199.323 140382.542 -92208.821 140499.89 -92232.163 140512.21 -92233.376 143933.984 -92233.376 143531.215 -92636.146 143352.014 -92542.463 143344.158 -92539.014 143058.729 -92436.254 143050.477 -92433.903 142753.741 -92370.829 142745.246 -92369.621 142442.697 -92347.403 142434.117 -92347.358 142131.35 -92366.406 142122.843 -92367.526 141825.464 -92427.489 141817.188 -92429.753 141530.697 -92529.519 141522.804 -92532.886 141252.505 -92670.611 141245.143 -92675.017 140996.034 -92848.152 140989.338 -92853.516 140766.033 -93058.857 140760.127 -93065.08 140566.755 -93298.826 140561.748 -93305.794 140401.888 -93563.622 140397.873 -93571.204 140274.483 -93848.342 140271.535 -93856.399 140186.898 -94147.719 140185.07 -94156.102 140140.754 -94456.212 140140.081 -94464.766 140136.904 -94768.114 140137.398 -94776.68 140161.526 -94967.672 138669.001 -93475.148 138669.001 -90877.491 138674.644 -90812.985 138672.723 -90791.022 138655.961 -90728.466 138644.716 -90664.698 138637.176 -90643.982 138629.984 -90631.525 138626.261 -90617.63 138616.944 -90597.65 138579.804 -90544.608 138547.424 -90488.522 138533.252 -90471.633 138483.645 -90430.008 138032.57 -89978.934 138081.08 -89765.416 138082.644 -89752.302 138086.124 -89503.006 138084.927 -89489.854 138042.299 -89274.569 138038.737 -89262.77 137955.274 -89060.271 137949.487 -89049.389 137828.281 -88866.958 137820.491 -88857.407 137666.159 -88701.993 137656.662 -88694.137 137475.082 -88571.66 137464.241 -88565.798 137362.293 -88522.943 137368.972 -88522.088 137616.045 -88469.57 137625.95 -88466.599 137861.128 -88374.433 137870.415 -88369.884 138087.382 -88240.546 138095.801 -88234.541 138288.73 -88071.503 138296.055 -88064.203 138459.766 -87871.844 138465.801 -87863.446 138595.895 -87646.931 138600.477 -87637.661 138693.463 -87402.806 138696.47 -87392.911 138746.779 -87160.217 140133.424 -88546.863"/><path d="M 140133.424 -88546.863 140133.424 -91854.59 140134.637 -91866.91 140157.979 -91984.258 140167.477 -92007.189 140237.405 -92111.844 140254.956 -92129.395 140359.611 -92199.323 140382.542 -92208.821 140499.89 -92232.163 140512.21 -92233.376 143933.984 -92233.376 143531.215 -92636.146 143352.014 -92542.463 143344.158 -92539.014 143058.729 -92436.254 143050.477 -92433.903 142753.741 -92370.829 142745.246 -92369.621 142442.697 -92347.403 142434.117 -92347.358 142131.35 -92366.406 142122.843 -92367.526 141825.464 -92427.489 141817.188 -92429.753 141530.697 -92529.519 141522.804 -92532.886 141252.505 -92670.611 141245.143 -92675.017 140996.034 -92848.152 140989.338 -92853.516 140766.033 -93058.857 140760.127 -93065.08 140566.755 -93298.826 140561.748 -93305.794 140401.888 -93563.622 140397.873 -93571.204 140274.483 -93848.342 140271.535 -93856.399 140186.898 -94147.719 140185.07 -94156.102 140140.754 -94456.212 140140.081 -94464.766 140136.904 -94768.114 140137.398 -94776.68 140161.526 -94967.672 138669.001 -93475.148 138669.001 -90877.491 138674.644 -90812.985 138672.723 -90791.022 138655.961 -90728.466 138644.716 -90664.698 138637.176 -90643.982 138629.984 -90631.525 138626.261 -90617.63 138616.944 -90597.65 138579.804 -90544.608 138547.424 -90488.522 138533.252 -90471.633 138483.645 -90430.008 138032.57 -89978.934 138081.08 -89765.416 138082.644 -89752.302 138086.124 -89503.006 138084.927 -89489.854 138042.299 -89274.569 138038.737 -89262.77 137955.274 -89060.271 137949.487 -89049.389 137828.281 -88866.958 137820.491 -88857.407 137666.159 -88701.993 137656.662 -88694.137 137475.082 -88571.66 137464.241 -88565.798 137362.293 -88522.943 137368.972 -88522.088 137616.045 -88469.57 137625.95 -88466.599 137861.128 -88374.433 137870.415 -88369.884 138087.382 -88240.546 138095.801 -88234.541 138288.73 -88071.503 138296.055 -88064.203 138459.766 -87871.844 138465.801 -87863.446 138595.895 -87646.931 138600.477 -87637.661 138693.463 -87402.806 138696.47 -87392.911 138746.779 -87160.217 140133.424 -88546.863" fill="none" stroke-width="254"/><path d="M 139877.254 -83596.914 139870.109 -83604.391 139711.147 -83800.693 139705.32 -83809.236 139580.554 -84028.864 139576.199 -84038.244 139488.979 -84275.3 139486.216 -84285.266 139447.231 -84489.631 139522.818 -84581 141161.5 -84581 141161.5 -86221.301 141254.912 -86296.944 141489.545 -86247.07 141499.45 -86244.099 141734.628 -86151.933 141743.915 -86147.384 141960.882 -86018.046 141969.301 -86012.041 142162.23 -85849.003 142169.555 -85841.703 142333.266 -85649.344 142339.301 -85640.946 142469.395 -85424.431 142473.977 -85415.161 142566.224 -85182.172 142566.224 -85680.39 142567.437 -85692.71 142590.779 -85810.058 142600.277 -85832.989 142670.205 -85937.644 142687.756 -85955.195 142792.411 -86025.123 142815.342 -86034.621 142932.69 -86057.963 142945.01 -86059.176 144152.401 -86059.176 144152.401 -87647.424 141032.863 -87647.424 138510.176 -85124.738 138510.176 -84923.674 139448.675 -84923.674 139467.364 -85056.644 139469.637 -85066.732 139545.173 -85307.766 139549.064 -85317.348 139662.952 -85542.808 139668.355 -85551.626 139817.538 -85755.458 139824.309 -85763.275 140004.78 -85940.004 140012.737 -85946.61 140219.648 -86091.492 140228.577 -86096.71 140456.373 -86205.851 140466.035 -86209.54 140708.598 -86280.012 140718.732 -86282.073 140820.809 -86294.246 140905.5 -86219.054 140905.5 -84910.809 140831.691 -84837 139524.019 -84837 139448.675 -84923.674 138510.176 -84923.674 138510.176 -83610.61 138508.963 -83598.29 138502.341 -83565 139913.2 -83565 139877.254 -83596.914"/><path d="M 139877.254 -83596.914 139870.109 -83604.391 139711.147 -83800.693 139705.32 -83809.236 139580.554 -84028.864 139576.199 -84038.244 139488.979 -84275.3 139486.216 -84285.266 139447.231 -84489.631 139522.818 -84581 141161.5 -84581 141161.5 -86221.301 141254.912 -86296.944 141489.545 -86247.07 141499.45 -86244.099 141734.628 -86151.933 141743.915 -86147.384 141960.882 -86018.046 141969.301 -86012.041 142162.23 -85849.003 142169.555 -85841.703 142333.266 -85649.344 142339.301 -85640.946 142469.395 -85424.431 142473.977 -85415.161 142566.224 -85182.172 142566.224 -85680.39 142567.437 -85692.71 142590.779 -85810.058 142600.277 -85832.989 142670.205 -85937.644 142687.756 -85955.195 142792.411 -86025.123 142815.342 -86034.621 142932.69 -86057.963 142945.01 -86059.176 144152.401 -86059.176 144152.401 -87647.424 141032.863 -87647.424 138510.176 -85124.738 138510.176 -84923.674 139448.675 -84923.674 139467.364 -85056.644 139469.637 -85066.732 139545.173 -85307.766 139549.064 -85317.348 139662.952 -85542.808 139668.355 -85551.626 139817.538 -85755.458 139824.309 -85763.275 140004.78 -85940.004 140012.737 -85946.61 140219.648 -86091.492 140228.577 -86096.71 140456.373 -86205.851 140466.035 -86209.54 140708.598 -86280.012 140718.732 -86282.073 140820.809 -86294.246 140905.5 -86219.054 140905.5 -84910.809 140831.691 -84837 139524.019 -84837 139448.675 -84923.674 138510.176 -84923.674 138510.176 -83610.61 138508.963 -83598.29 138502.341 -83565 139913.2 -83565 139877.254 -83596.914" fill="none" stroke-width="254"/></g></svg>