<svg version="1.1" xmlns="http://www.w3.org/2000/svg" xmlns:xlink="http://www.w3.org/1999/xlink" stroke-linecap="round" stroke-linejoin="round" stroke-width="0" fill-rule="evenodd" width="25.041mm" height="19.6707mm" viewBox="136056 -103174 25041 19670.7" id="VhU6T5W0LpMTiawZ0roG"><defs><rect x="-1015.2" y="-1015.2" width="2030.4" height="2030.4" rx="1015.2" ry="1015.2" id="VhU6T5W0LpMTiawZ0roG_pad-10"/><rect x="-850" y="-850" width="1700" height="1700" rx="850" ry="850" id="VhU6T5W0LpMTiawZ0roG_pad-11"/><circle cx="0" cy="0" r="850" id="VhU6T5W0LpMTiawZ0roG_pad-12"/><circle cx="0" cy="0" r="950" id="VhU6T5W0LpMTiawZ0roG_pad-13"/><rect x="-1958" y="-1958" width="3916" height="3916" rx="1958" ry="1958" id="VhU6T5W0LpMTiawZ0roG_pad-14"/></defs><g transform="translate(0,-186677.3) scale(1,-1)" fill="currentColor" stroke="currentColor"><use xlink:href="#VhU6T5W0LpMTiawZ0roG_pad-10" x="157937.2" y="-102158.8"/><use xlink:href="#VhU6T5W0LpMTiawZ0roG_pad-10" x="141033.5" y="-84709"/><use xlink:href="#VhU6T5W0LpMTiawZ0roG_pad-11" x="136906" y="-92151.2"/><use xlink:href="#VhU6T5W0LpMTiawZ0roG_pad-12" x="136906" y="-89611.2"/><use xlink:href="#VhU6T5W0LpMTiawZ0roG_pad-12" x="159893" y="-100163"/><path d="M 159093 -96813 160693 -96813 A 50 50 0 0 0 160743 -96863 L 160743 -98463 A 50 50 0 0 0 160693 -98513 L 159093 -98513 A 50 50 0 0 0 159043 -98463 L 159043 -96863 A 50 50 0 0 0 159093 -96813"/><use xlink:href="#VhU6T5W0LpMTiawZ0roG_pad-13" x="160147" y="-94805.5"/><use xlink:href="#VhU6T5W0LpMTiawZ0roG_pad-13" x="160147" y="-92265.5"/><path d="M 159247 -88775.5 161047 -88775.5 A 50 50 0 0 0 161097 -88825.5 L 161097 -90625.5 A 50 50 0 0 0 161047 -90675.5 L 159247 -90675.5 A 50 50 0 0 0 159197 -90625.5 L 159197 -88825.5 A 50 50 0 0 0 159247 -88775.5"/><path d="M 136144.8 -85547.2 136144.8 -83616.8 A 50 50 0 0 0 136194.8 -83566.8 L 138125.2 -83566.8 A 50 50 0 0 0 138175.2 -83616.8 L 138175.2 -85547.2 A 50 50 0 0 0 138125.2 -85597.2 L 136194.8 -85597.2 A 50 50 0 0 0 136144.8 -85547.2"/><use xlink:href="#VhU6T5W0LpMTiawZ0roG_pad-10" x="137160" y="-86931.5"/><path d="M 159004.8 -85928.2 159004.8 -83997.8 A 50 50 0 0 0 159054.8 -83947.8 L 160985.2 -83947.8 A 50 50 0 0 0 161035.2 -83997.8 L 161035.2 -85928.2 A 50 50 0 0 0 160985.2 -85978.2 L 159054.8 -85978.2 A 50 50 0 0 0 159004.8 -85928.2"/><use xlink:href="#VhU6T5W0LpMTiawZ0roG_pad-10" x="160020" y="-87312.5"/><use xlink:href="#VhU6T5W0LpMTiawZ0roG_pad-10" x="156654.5" y="-84518.5"/><path d="M 153099.3 -85483.7 153099.3 -83553.3 A 50 50 0 0 0 153149.3 -83503.3 L 155079.7 -83503.3 A 50 50 0 0 0 155129.7 -83553.3 L 155129.7 -85483.7 A 50 50 0 0 0 155079.7 -85533.7 L 153149.3 -85533.7 A 50 50 0 0 0 153099.3 -85483.7"/><use xlink:href="#VhU6T5W0LpMTiawZ0roG_pad-10" x="137096.5" y="-102108"/><path d="M 136131.3 -98552.8 138061.7 -98552.8 A 50 50 0 0 0 138111.7 -98602.8 L 138111.7 -100533.2 A 50 50 0 0 0 138061.7 -100583.2 L 136131.3 -100583.2 A 50 50 0 0 0 136081.3 -100533.2 L 136081.3 -98602.8 A 50 50 0 0 0 136131.3 -98552.8"/><use xlink:href="#VhU6T5W0LpMTiawZ0roG_pad-14" x="153026.4" y="-99340.4"/><use xlink:href="#VhU6T5W0LpMTiawZ0roG_pad-14" x="153026.4" y="-94640.4"/><use xlink:href="#VhU6T5W0LpMTiawZ0roG_pad-14" x="153026.4" y="-89940.4"/><use xlink:href="#VhU6T5W0LpMTiawZ0roG_pad-14" x="147726.4" y="-99340.4"/><use xlink:href="#VhU6T5W0LpMTiawZ0roG_pad-14" x="147726.4" y="-94640.4"/><use xlink:href="#VhU6T5W0LpMTiawZ0roG_pad-14" x="147726.4" y="-89940.4"/><use xlink:href="#VhU6T5W0LpMTiawZ0roG_pad-14" x="142426.4" y="-99340.4"/><use xlink:href="#VhU6T5W0LpMTiawZ0roG_pad-14" x="142426.4" y="-94640.4"/><path d="M 144384.4 -88032.4 144384.4 -91848.4 A 50 50 0 0 0 144334.4 -91898.4 L 140518.4 -91898.4 A 50 50 0 0 0 140468.4 -91848.4 L 140468.4 -88032.4 A 50 50 0 0 0 140518.4 -87982.4 L 144334.4 -87982.4 A 50 50 0 0 0 144384.4 -88032.4"/><use xlink:href="#VhU6T5W0LpMTiawZ0roG_pad-10" x="151536.4" y="-84709"/><use xlink:href="#VhU6T5W0LpMTiawZ0roG_pad-10" x="148996.4" y="-84709"/><use xlink:href="#VhU6T5W0LpMTiawZ0roG_pad-10" x="146456.4" y="-84709"/><path d="M 142901.2 -85674.2 142901.2 -83743.8 A 50 50 0 0 0 142951.2 -83693.8 L 144881.6 -83693.8 A 50 50 0 0 0 144931.6 -83743.8 L 144931.6 -85674.2 A 50 50 0 0 0 144881.6 -85724.2 L 142951.2 -85724.2 A 50 50 0 0 0 142901.2 -85674.2"/><use xlink:href="#VhU6T5W0LpMTiawZ0roG_pad-11" x="136906" y="-97282"/><use xlink:href="#VhU6T5W0LpMTiawZ0roG_pad-12" x="136906" y="-94742"/></g></svg>